<?xml version="1.0" standalone="yes"?>
<svg xmlns="http://www.w3.org/2000/svg" width="871" height="478">
<path style="fill:#00ff00; stroke:none;" d="M199 1.38889L198 1.61111L196 1.91666L194 2L193 2L191 2L184 2L181 2L180 2L178 2.08334L176 2.38889L175 2.61111L173 2.91666L172 2.97223L170 3L168 3L160 3L158 3L156 3.02777L155 3.08334L153 3.38889L152 3.61111L150 3.91666L149 3.97223L147 4L144 4L134 4L131 4L129 4.02777L128 4.08334L126 4.38889L125 4.61111L123 4.91666L121 5L120 5L117 5L109 5L107 5L105 5.02777L104 5.08334L102 5.38889L101 5.61111L99 5.91666L98 5.97223L96 6L95 6L91 6L80 6L76 6L74 6L72 6.08334L70 6.38889L69 6.61111L67 6.91666L66 6.97223L64 7L63 7L61 7L55 7L52 7L50 7.02777L49 7.08334L47 7.38889L46 7.61111L44 7.91666L43 7.97223L42 8L40 8L35 8L32 8L30 8L28 8.02777L27 8.08334L25 8.38889L24 8.61111L22 8.91666L21 8.97223L19 9.02777L18 9.11111L16 9.69446L15 10.25L13 11.6389L12 12.3889L10 14.0833L9 15.0278L7 17L5 19L3.11111 21L1.72222 23L1.33333 24L1.11111 25L1.02778 26L1 28L1 29L1 31L1 46L1 113L1 119L1 121L1 122L1.02778 124L1.11111 125L1.72222 127L3.11111 129L4.02778 130L5 131L7 133L9 135L14 140L16 142L17 143L18.9722 145L20.75 147L21.5 148L22.5 150L22.9444 152L23.2222 154L23.3889 155L23.6111 156L23.9167 158L23.9722 159L24 161L24 163L24 166L24 180L24 222L24 292L24 315L24 323L24 326L24 327L23.9167 329L23.6111 331L23.1944 333L22.7778 335L22.5 336L22.0833 337L20.9722 339L20.3056 340L19.5833 341L17.9167 343L16.9722 344L15 346L13 348L9 352L6 355L5 356L3.11111 358L2.33333 359L1.72222 360L1.11111 362L1.02778 363L1 365L1 367L1 372L1 434L1 453L1 456L1 458L1.02778 460L1.33333 462L1.72222 463L3.11111 465L4.02778 466L6 468L8 470L10 472L11 473L13 474.972L15 476.667L17 477.667L18 477.889L19 477.972L20 478L21 478L23 478L36 478L88 478L210 478L250 478L263 478L266 478L267 478L269 477.972L270 477.917L272 477.5L274 476.5L276 474.917L278 473L279 472L281 470L284 467L286 465L287 464L289 462.083L290 461.25L291 460.5L293 459.417L294 459.028L296 458.417L297 458.222L298 458.083L300 458L301 458L303 458L312 458L339 458L423 458L524 458L537 458L555 458L557 458L567 458L569 458L570 458L571 458L573 458.083L574 458.222L576 458.639L577 458.861L579 459.472L581 460.5L582 461.25L583 462.083L585 464L586 465L588 467L591 470L592 471L594 473L595 473.972L596 474.917L598 476.5L600 477.5L601 477.75L603 477.972L604 478L605 478L607 478L618 478L630 478L647 478L648 478L653 478L666 478L684 478L686 478L691 478L702 478L707 478L715 478L721 478L722 478L730 478L734 478L738 478L754 478L759 478L764 478L780 478L800 478L803 478L805 478L813 478L817 478L818 478L823 478L825 478L827 478L832 478L840 478L844 478L848 478L850 478L852 477.972L854 477.75L855 477.5L857 476.5L859 474.917L861 473L862 472L864 470L866 468L867 467L868.889 465L869.667 464L870.278 463L870.889 461L870.972 460L871 459L871 457L871 451L871 449L871 431L871 429L871 423L871 421L871 402L871 369L871 366L871 365L871 364L870.889 362L870.278 360L868.889 358L867.972 357L867 356L865 354L864 353L862 351L859 348L857 346L855 344L853.028 342L852.083 341L850.5 339L849.417 337L848.694 335L848.417 334L848.083 332L848 330L848 329L848 326L848 318L848 317L848 316L848 293L848 291L848 283L848 220L848 218L848 214L848 213L848 211L848 210L848 177L848 176L848 163L848 160L848 158L848.028 156L848.083 155L848.417 153L849.028 151L849.417 150L850.5 148L851.25 147L852.083 146L854 144L855 143L856 142L858 140L864 134L866 132L867 131L868.889 129L869.667 128L870.667 126L870.889 125L870.972 124L871 123L871 122L871 119L871 103L871 101L871 99L871 81L871 49L871 33L871 30L871 28L870.889 26L870.667 25L870.278 24L868.889 22L867.972 21L866 19L864 17L862 15L861 14L859 12.0278L858 11.1111L856 9.72223L855 9.33331L854 9.11111L853 9.02777L851 8.97223L850 8.91666L848 8.61111L847 8.38889L845 8.08334L843 8L842 8L840 8L834 8L833 8L830 8L829 8L827 7.91666L826 7.77777L824 7.38889L822 7.08334L821 7.02777L820 7L818 7L815 7L811 7L808 7L807 7L805 6.97223L804 6.91666L802 6.61111L800 6.22223L799 6.08334L797 6L795 6L791 6L788 6L780 6L776 6L774 5.97223L773 5.91666L771 5.61111L770 5.38889L768 5.08334L766 5L765 5L762 5L754 5L752 5L750 4.97223L749 4.91666L747 4.61111L746 4.38889L744 4.08334L743 4.02777L741 4L738 4L734 4L728 4L726 4L725 4L723 3.97223L722 3.91666L720 3.61111L719 3.38889L717 3.08334L715 3L714 3L711 3L708 3L704 3L702 3L700 2.97223L699 2.91666L697 2.61111L696 2.38889L694 2.08334L693 2.02777L691 2L689 2L681 2L679 2L677 1.97223L676 1.91666L674 1.61111L673 1.38889L671 1.08334L670 1.02777L668 1L666 1L665 1L656 1L652 1L646 1L644 1L639 1L629 1L624 1L622 1L609 1L605 1L603 1L601 1.02777L599 1.33331L598 1.72223L597 2.33331L595 4.02777L594 5L592 7L590 9L589.028 10L588.083 11L586.389 13L585.611 14L583.917 16L582.972 17L581 19L579 21L578 22L576 23.9167L575 24.75L574 25.5278L572 26.7222L570 27.5278L568 27.9167L567 27.9722L565 28L563 28L561 28L560 28L546 28L542 28L538 28L522 28L514 28L502 28L368 28L322 28L308 28L306 28L304 27.9722L302 27.75L301 27.5L299 26.5L297 24.9167L296 23.9722L295 23L293 21L292 20L289 17L280 8L278 6L276 4.02777L275 3.11111L273 1.72223L271 1.11111L269 1L268 1L266 1L252 1L218 1L207 1L204 1L203 1L201 1.08334L199 1.38889M202 4.22223L203 4.08334L205 4L206 4L209 4L219 4L251 4L264 4L266 4L267 4L269 4.11111L271 4.72223L273 6.11111L274 7.02777L276 9L278 11L287 20L290 23L291 24L293 26L294 26.9722L295 27.9167L297 29.5L299 30.5L300 30.75L302 30.9722L304 31L307 31L323 31L376 31L506 31L549 31L553 31L563 31L566 31L567 31L569 30.9722L570 30.9167L572 30.5278L574 29.7222L576 28.5278L577 27.75L578 26.9167L580 25L581 24L582 23L584 21L585.972 19L586.917 18L588.611 16L589.389 15L591.083 13L592.028 12L594 10L596 8L597 7.02777L599 5.33331L600 4.72223L601 4.33331L603 4.02777L605 4L607 4L610 4L613 4L630 4L655 4L663 4L666 4L668 4.02777L669 4.08334L671 4.38889L672 4.61111L674 4.91666L675 4.97223L677 5L679 5L687 5L689 5L691 5.02777L692 5.08334L694 5.38889L695 5.61111L697 5.91666L698 5.97223L700 6L702 6L705 6L709 6L712 6L713 6L715 6.08334L717 6.38889L718 6.61111L720 6.91666L721 6.97223L723 7L726 7L730 7L736 7L739 7L741 7.02777L742 7.08334L744 7.38889L745 7.61111L747 7.91666L749 8L750 8L753 8L761 8L763 8L765 8.02777L766 8.08334L768 8.38889L769 8.61111L771 8.91666L772 8.97223L774 9L778 9L779 9L789 9L793 9L795 9L797 9.08334L798 9.22223L800 9.61111L802 9.91666L803 9.97223L805 10L807 10L815 10L817 10L819 10.0278L820 10.0833L822 10.3889L823 10.6111L825 10.9167L826 10.9722L828 11L831 11L836 11L838 11L839 11L841 11L842 11.0278L843 11.0833L845 11.3889L846 11.6111L848 11.9167L849 11.9722L851 12.0278L852 12.1111L853 12.3333L855 13.3333L856 14.1111L858 16L860 18L862 20L863 21L864.972 23L865.889 24L867.278 26L867.667 27L867.889 28L868 30L868 32L868 35L868 51L868 52L868 104L868 118L868 120L868 121L867.972 122L867.889 123L867.667 124L866.667 126L864.972 128L864 129L862 131L861 132L859 134L856 137L854 139L852 141L850.028 143L849.083 144L847.5 146L846.417 148L845.694 150L845.417 151L845.083 153L845 155L845 156L845 159L845 168L845 172L845 193L845 194L845 205L845 268L845 312L845 326L845 329L845 331L845.028 333L845.083 334L845.417 336L846.028 338L846.417 339L847.5 341L849.083 343L850.028 344L852 346L853 347L854 348L856 350L861 355L863 357L864 358L864.972 359L865.889 360L867.278 362L867.667 363L867.889 364L868 366L868 367L868 369L868 371L868 374L868 387L868 389L868 392L868 429L868 437L868 449L868 455L868 457L867.972 458L867.889 459L867.278 461L866.667 462L865.889 463L864 465L862 467L860 469L859 470L857 471.917L855 473.5L853 474.5L852 474.75L850 474.972L849 475L848 475L846 475L845 475L843 475L839 475L835 475L831 475L821 475L818 475L816 475L806 475L802 475L801 475L800 475L792 475L776 475L771 475L769 475L762 475L757 475L754 475L750 475L747 475L743 475L738 475L735 475L731 475L729 475L728 475L726 475L720 475L719 475L711 475L708 475L702 475L701 475L699 475L698 475L693 475L692 475L690 475L689 475L687 475L680 475L673 475L670 475L664 475L660 475L654 475L646 475L641 475L634 475L632 475L630 475L625 475L620 475L617 475L613 475L609 475L607 475L605 474.972L603 474.75L602 474.5L600 473.5L598 471.917L597 470.972L596 470L594 468L593 467L590 464L588 462L587 461L585 459.083L584 458.25L583 457.5L581 456.472L579 455.861L578 455.639L576 455.222L575 455.083L573 455L572 455L571 455L569 455L564 455L558 455L551 455L550 455L525 455L423 455L337 455L310 455L301 455L299 455L298 455L296 455.083L295 455.222L294 455.417L292 456.028L291 456.417L289 457.5L288 458.25L287 459.083L285 461L284 462L282 464L278 468L277 469L276 470L274 471.917L272 473.5L270 474.5L268 474.917L267 474.972L265 475L264 475L261 475L248 475L209 475L89 475L37 475L25 475L23 475L22 475L21 474.972L20 474.889L19 474.667L17 473.667L16 472.889L14 471L12 469L10 467L9 466L7.02778 464L6.11111 463L4.72222 461L4.33333 460L4.02778 458L4 456L4 454L4 451L4 432L4 370L4 367L4 366L4.11111 364L4.72222 362L5.33333 361L6.11111 360L8 358L9 357L12 354L16 350L18 348L19.9722 346L20.9167 345L22.5833 343L23.3056 342L23.9722 341L25.0833 339L25.5 338L25.7778 337L26.1944 335L26.6111 333L26.9167 331L27 329L27 328L27 325L27 317L27 293L27 221L27 178L27 164L27 161L27 159L26.9722 157L26.9167 156L26.6111 154L26.3889 153L26.2222 152L25.9444 150L25.5 148L24.5 146L23.75 145L21.9722 143L20 141L19 140L17 138L12 133L10 131L8 129L7.02778 128L6.11111 127L4.72222 125L4.11111 123L4.02778 122L4 120L4 118L4 114L4 48L4 33L4 31L4 30L4.02778 28L4.11111 27L4.33333 26L4.72222 25L6.11111 23L8 21L10 19L12 17.0833L14 15.3889L15 14.6389L17 13.25L18 12.6945L20 12.1111L21 12.0278L23 11.9722L24 11.9167L26 11.6111L27 11.3889L29 11.0833L30 11.0278L32 11L34 11L37 11L42 11L44 11L45 10.9722L46 10.9167L48 10.6111L49 10.3889L51 10.0833L52 10.0278L54 10L57 10L63 10L65 10L66 10L68 9.97223L69 9.91666L71 9.61111L72 9.38889L74 9.08334L75 9.02777L77 9L78 9L82 9L94 9L98 9L100 8.97223L101 8.91666L103 8.61111L104 8.38889L106 8.08334L107 8.02777L109 8L111 8L119 8L122 8L124 7.97223L125 7.91666L127 7.61111L128 7.38889L130 7.08334L132 7L134 7L137 7L146 7L149 7L151 6.97223L152 6.91666L154 6.61111L155 6.38889L157 6.08334L158 6.02777L160 6L162 6L169 6L172 6L173 6L175 5.91666L177 5.61111L178 5.38889L180 5.08334L181 5.02777L183 5L185 5L193 5L195 5L196 5L198 4.91666L199 4.77777L200 4.61111L202 4.22223M328 106L328 152L328 165L328 168L328 170L328.028 171L328.056 171.944L328.25 172.944L328.278 173.5L329 175L330.5 174.917L331.056 174.778L333 174.389L335 174.056L336 173.944L338 173.611L339 173.361L341 172.861L343 172.361L344 172.139L345 171.861L347 171.389L348 171.194L350 170.806L351 170.611L352 170.361L353 170.139L355 169.611L356 169.306L357 169L358 168.667L360 168L366 166L372 164L374 163.333L375 162.972L376 162.611L378 161.75L379 161.25L381 160.389L383 159.611L385 158.806L386 158.389L388 157.611L390 156.75L391 156.222L392 155.75L393 155.167L394 154.611L396 153.389L397 152.833L398 152.25L399 151.778L401 150.75L402 150.167L404 148.972L406 147.611L407 146.861L408 146.139L409 145.389L411 144L412 143.333L412.944 142.694L413.944 142.083L414.5 141.694L416 141L416 435L417 436L496 436L497 435L497 49L496 48L462 48L452 48L450 48L449 48L447 48.1111L446 48.3055L444 49.1111L442 50.3889L441 51.1389L439 52.6389L438 53.3611L436 54.8611L435 55.6111L433 57L431 58.3333L430 59L428 60.3889L427 61.1389L425 62.5555L423 63.8055L422 64.3889L420 65.6111L418 66.8055L417 67.3889L415 68.6111L413 69.8055L412 70.3889L410 71.6111L409 72.1667L408 72.75L406 73.7778L405 74.2222L404 74.7778L403 75.25L402 75.8333L401 76.3889L399 77.6111L398 78.1667L397 78.75L396 79.2222L395 79.7778L394 80.2222L393 80.75L391 81.6111L389 82.3889L387 83.25L386 83.7778L385 84.2222L384 84.7778L382 85.75L381 86.1667L380 86.6111L378 87.3889L377 87.8333L376 88.25L375 88.7778L374 89.2222L373 89.75L371 90.6111L369 91.3889L367 92.1945L366 92.6111L364 93.3333L363 93.6667L361 94.3333L360 94.6667L359 95.0278L358 95.3889L356 96.1945L355 96.6111L353 97.3333L352 97.6667L350 98.3889L349 98.8055L347 99.5555L346 99.8333L345 100.139L343 100.694L342 101L341 101.333L339 102L335 103.333L333 104L332 104.333L331.056 104.639L330.056 105.028L329.5 105.194L328 106M494 51L494 234L494 254L494 433L419 433L419 138L418 137L416.5 137.083L414.944 137.5L413 138.417L411 139.667L410 140.333L408 141.694L407 142.389L405 143.861L404 144.611C403.019 145.306 402.019 145.974 401 146.611L399 147.75L398 148.222L396 149.25L395 149.833L394 150.389L392 151.611L391 152.167L390 152.75L389 153.222L388 153.75L386 154.611L384 155.389L383 155.806L381 156.611L379 157.389L377 158.25L376 158.75L374 159.611L373 159.972L372 160.333L370 161L364 163L358 165L356 165.667L355 166L354 166.306L353 166.611L351 167.139L350 167.361L349 167.611L348 167.806L346 168.194L345 168.389L343 168.861L342 169.139L341 169.361L339 169.861L338 170.139L336 170.611L334.056 170.917L333.056 170.972L331 171L331 108L332.5 107.75L333.056 107.583L334.056 107.306L336 106.667L337 106.333L338 106L341 105L343 104.333L344 104L346 103.389L348 102.833L349 102.556L351 101.806L352 101.389L354 100.667L355 100.333L357 99.6111L358 99.1945L360 98.3889L361 98.0278L362 97.6667L363 97.3333L365 96.6667L366 96.3333L368 95.6111L369 95.1945L371 94.3889L373 93.6111L375 92.75L376 92.2222L377 91.7778L378 91.25L379 90.8333L380 90.3889L382 89.6111L383 89.1667L384 88.75L386 87.7778L387 87.2222L388 86.7778L389 86.25L390 85.8333L391 85.3889L393 84.6111L394 84.1667L395 83.75L396 83.2222L397 82.7778L398 82.2222L399 81.75L401 80.6111L403 79.3889L405 78.25L407 77.2222L408 76.7778L409 76.2222L410 75.75L412 74.6111L414 73.3889L416 72.1945L417 71.6111L419 70.3889L420 69.8055L422 68.6111L424 67.3889L426 66.1667L427 65.5555L429 64.1389L430 63.3889L432 62L434 60.6667L435 60L436 59.3055L438 57.8611L439 57.1389L440 56.3611L441 55.6389L443 54.1389L444 53.3889L446 52.1111L448 51.3055L449 51.1111L451 51L452 51L454 51L463 51L464 51L494 51M29 57.4167L28 57.6945L26 58.4167L24 59.4167L23 60.0278L21 61.4167L20.0278 62.2222L19.0833 63.0833L17.4722 65L16.25 67L15.7778 68L14.8333 70L14.3889 71L13.6944 73L13.4167 74L13.2222 75L13.0278 77L13 78L13.0278 80L13.0833 81L13.3889 83L13.8611 85L14.4444 87L15.2778 89L15.8333 90L17.0278 92L17.6944 93L19.2222 94.9167L21.0278 96.5833L23 97.9167L25 98.9167L27 99.6667L28 100L30 100.583L32 100.917L33 100.972L34 101L36 101L37 101L39 100.917L41 100.583L43 99.9722L44 99.6111L46 98.7222L47 98.1667L48 97.6111L49.9722 96.3055L50.9167 95.5833L52.5833 93.9167L53.3056 92.9722L54.5833 91L55.5833 89L56.3056 87L56.5833 86L57 84L57.3889 82L57.6111 81L57.8889 79L57.8889 78L57.6111 76L57.3611 75L56.8611 73L56.6111 72L55.9722 70L55.5833 69L54.5833 67L53.9722 66L53.3056 65L51.7778 63.0833L49.9722 61.4167L49 60.6945L48 60.0278L47 59.4167L45 58.4167L44 58.0278L42 57.4167L41 57.2222L40 57.0833L38 57L37 57L35 57L33 57L31 57.0833L29 57.4167M830 57.4167L829 57.6945L827 58.3889L825 59.2778L823 60.4722L821.028 62.0833L820.083 63.0278L818.417 65L817.694 66L817.028 67L816.417 68L815.472 70L815.167 71L814.639 73L814.389 74L814.083 76L814.028 77L814 79L814.028 81L814.083 82L814.417 84L815 86L815.333 87L816.083 89L817.083 91L818.417 93L820.083 94.9167L822 96.5833L824 97.9722L825 98.5833L827 99.5833L829 100.306L830 100.583L832 100.917L834 101L836 101L838 101L840 100.917L842 100.583L844 99.9722L846 99.1667L847 98.7222L849 97.5278L850 96.75L851 95.9167L852.917 94L853.778 93L855.278 91L855.917 90L856.917 88L857.278 87L857.583 86L857.917 84L858 82L858 81L858 80L858 78L858 76L857.972 75L857.917 74L857.583 72L857.306 71L856.583 69L855.528 67L854.833 66L854.139 65.0278L852.611 63.2222L851.778 62.3889L850.917 61.6389L849 60.2222L847 59.0833L846 58.6389L844 57.8333L843 57.4722L841 57.0833L839 57L838 57L836 57L834 57L832 57.0833L830 57.4167M32 60.2222L34 60.0278L35 60L36 60L38 60.0833L40 60.4167L42 61.0278L43 61.4167L45 62.4167L46 63.0278L46.9722 63.6945L47.9167 64.4167L49.5833 66.0833L50.3056 67.0278L51.5833 69L52.5833 71L52.9722 72L53.6111 74L53.8611 75L54.2778 77L54.3889 78L54.3056 80L54.1667 81L54 82L53.5833 84L53.3056 85L52.5833 87L51.5833 89L50.3056 90.9167L49.5833 91.7778L48.7778 92.5833L47.9167 93.3055L46 94.6111L45 95.1667L43 96.1667L42 96.6111L40 97.3055L39 97.5833L38 97.7778L37 97.9167L35 97.9722L34 97.9167L32 97.5833L31 97.3055L29 96.6667L27 95.9167L25 94.9167L24.0278 94.2778L23.0833 93.5833L22.2222 92.7778L21.4167 91.9167L20.0278 90L19.3889 89L18.2778 87L17.4444 85L17.1667 84L16.6389 82L16.3889 81L16.1111 79L16.1111 78L16.4167 76L17.0278 74L17.3889 73L17.8333 72L18.7778 70L19.25 69L19.8611 68L20.4722 67.0278L22.0833 65.2222L23.0278 64.4167L25 63.0278L27 61.8889L28 61.4167L30 60.6945L31 60.4167L32 60.2222M833 60.2222L835 60.0278L837 60L839 60.0833L841 60.4722L842 60.8333L844 61.6389L845 62.0833L846.972 63.2222L847.917 63.8889L849.611 65.3889L851.139 67.0833L852.528 69L853.583 71L853.972 72L854.583 74L854.917 76L854.972 77L855 79L854.972 81L854.917 82L854.583 84L853.917 86L852.917 88L851.583 90L850.778 91L848.972 92.9167L848 93.75L847 94.5278L846 95.1389L844 96.1667L843 96.6111L841 97.3055L840 97.5833L839 97.7778L837 97.9722L835 97.9722L834 97.9167L832 97.5833L831 97.3055L829 96.5833L827 95.5833L826 94.9722L824.028 93.5833L823.083 92.7778L821.417 90.9722L820.722 90L820.083 89L819.083 87L818.694 86L818 84L817.417 82L817.222 81L817.083 80L817.083 78L817.389 76L817.639 75L818.167 73L818.472 72L819.417 70L820.694 68L821.417 67L823.083 65.0833L825 63.4722L826 62.8611L828 61.8333L829 61.3889L831 60.6945L832 60.4167L833 60.2222M28 386.472L27 386.861L25 387.778L23 388.861L22 389.472L20.0278 391.083L19.0833 392.028L17.4167 394L16.0833 396L15.0833 398L14.3333 400L14 401L13.4167 403L13.0833 405L13 407L13.0278 409L13.0833 410L13.3889 412L13.8611 414L14.1667 415L14.4444 416L15.2778 418L15.8333 419L17.0278 421L18.4167 422.917L20.0833 424.583L21.0278 425.306L23 426.611L24 427.167L25 427.722L27 428.611L29 429.306L30 429.583L31 429.778L32 429.917L34 430L35 430L36 430L38 429.972L39 429.917L41 429.583L42 429.306L44 428.611L45 428.167L46 427.722L48 426.528L49 425.75L50 424.917L51.9722 423L53.75 421L54.5 420L55.0833 419L55.5833 418L56.3056 416L56.5833 415L57 413L57.3889 411L57.6111 410L57.8889 408L57.8889 407L57.6111 405L57.3889 404L57 402L56.7778 401L56.5278 400L55.7222 398L54.6111 396L53.9722 395L52.5833 393L51.7778 392.028L50.9167 391.083L49 389.472L47 388.25L46 387.778L45 387.25L43 386.472L41 386.083L40 386.028L38 386L37 386L35 386L33 386L32 386L30 386.083L28 386.472M829 386.417L828 386.722L827 387.083L825 388.083L824 388.722L822 390.222L821 391.083L819.083 393L817.472 395L816.861 396L816.278 397L815.861 398L815.444 399L815.167 400L814.639 402L814.389 403L814.083 405L814.028 406L814 408L814 409L814.083 411L814.417 413L814.694 414L815.389 416L815.833 417L816.25 418L816.778 419L817.861 421L818.472 422L820.083 423.917L822 425.583L824 426.917L825 427.444L826 427.917L828 428.667L830 429.306L832 429.778L833 429.917L835 430L836 430L838 429.972L839 429.917L841 429.611L842 429.361L843 429.139L845 428.556L846 428.139L847 427.722L849 426.528L851 424.917L852.917 423L854.528 421L855.139 420L856.222 418L857.139 416L857.528 415L857.917 413L858 411L858 410L858 409L858 407L858 405L857.917 403L857.778 402L857.583 401L857.306 400L856.583 398L856.111 397L854.972 395L853.583 393.028L851.917 391.222L850.972 390.417L849 389.028L847 387.889L846 387.417L844 386.694L843 386.417L842 386.222L841 386.083L839 386L838 386L836 386L834 386L833 386L831 386.083L829 386.417M31 389.25L32 389.083L34 389L35 389L37 389L38 389.028L39 389.083L41 389.472L43 390.25L44 390.778L46 391.861L46.9722 392.472L48.7778 394.083L49.5833 395.028L50.9722 397L52.1667 399L52.7222 400L53.5278 402L53.7778 403L54 404L54.3056 406L54.3889 408L54.1667 410L53.8056 412L53.3056 414L52.5833 416L52.0833 417L51.5 418L49.9167 420L48.9722 420.972L47 422.75L46 423.528L44 424.722L43 425.167L41 425.972L39 426.583L37 426.917L35 426.972L34 426.917L32 426.583L30 425.972L29 425.611L27 424.722L26 424.167L25 423.611L23.0833 422.306L21.4167 420.778L20.0278 418.972L19.3889 418L18.2778 416L17.4444 414L17.1667 413L16.6389 411L16.3889 410L16.1111 408L16.2222 406L16.4167 405L16.6944 404L17.3333 402L18.0833 400L19.0833 398L20.4167 396L22.0833 394.083L24 392.472L25 391.861L27 390.778L28 390.25L30 389.472L31 389.25M832 389.222L834 389.028L836 389L838 389.028L840 389.222L841 389.417L842 389.694L844 390.417L846 391.417L847 392.028L848.917 393.417L849.778 394.222L851.306 396.028L851.972 397L852.583 398L853.583 400L853.972 401L854.583 403L854.917 405L855 407L855 408L855 409L854.917 411L854.528 413L854.139 414L853.222 416L852.139 418L851.528 419L849.917 420.972L848.972 421.917L847 423.528L846 424.139L845 424.722L843 425.556L842 425.833L840 426.361L839 426.611L837 426.917L836 426.944L835 426.917L833 426.583L831 426L830 425.667L828 424.917L826 423.917L825 423.278L823.083 421.778L821.472 419.972L820.25 418L819.778 417L818.833 415L818.389 414L817.694 412L817.417 411L817.083 409L817.083 407L817.389 405L817.639 404L818.167 402L818.444 401L818.861 400L819.278 399L819.861 398L820.472 397L822.083 395.028L823.028 394.083L825 392.417L827 391.083L829 390.083L831 389.417L832 389.222z"/>
</svg>
