<?xml version="1.0" encoding="utf-8"?>
<!DOCTYPE svg PUBLIC "-//W3C//DTD SVG 20010904//EN" "http://www.w3.org/TR/2001/REC-SVG-20010904/DTD/svg10.dtd">
<svg version="1.0" xmlns="http://www.w3.org/2000/svg" width="1180px" height="660px" viewBox="0 0 1180 660" preserveAspectRatio="xMidYMid meet">
 <g fill="#00ff00">
  <path d="M16.8 641.2 l-10.8 -10.8 0 -69.8 0 -69.7 14.4 -14.8 c13 -13.3 14.5 -15.3 16 -20.3 1.4 -5 1.6 -17.7 1.6 -124.8 0 -107.4 -0.2 -119.7 -1.6 -124.8 -1.5 -5.1 -3 -7 -16 -20.3 l-14.4 -14.7 0 -69.2 0 -69.2 9.6 -10.1 c5.2 -5.6 10.5 -10.7 11.7 -11.3 1.2 -0.6 7.6 -1.4 14.2 -1.8 16.7 -0.8 80.4 -3.6 108 -4.6 12.7 -0.5 39.4 -1.6 59.5 -2.6 20.7 -0.9 64.1 -1.8 100.4 -2.1 l64 -0.4 17.5 18.1 17.6 18.1 181.7 -0.1 181.8 0 17.7 -18 17.7 -18 55 0 c30.3 0 63.4 0.4 73.6 1 17.8 1 50 2.3 96.5 4 28.4 1.1 93.5 3.9 109.2 4.8 l12.3 0.7 10.5 10.5 10.5 10.5 0 70 -0.1 70 -14.1 14.5 c-7.8 8 -14.7 15.9 -15.5 17.7 -1.1 2.7 -1.3 25.5 -1.3 127.3 0 109.3 0.2 124.5 1.5 127.7 0.9 2.2 7.3 9.5 15.5 17.8 l14 14.1 0 70 0 70 -10.9 10.7 -10.8 10.7 -172.4 0 -172.3 0 -11.6 -11.9 c-6.3 -6.6 -12.5 -12.4 -13.7 -13 -1.5 -0.8 -59.8 -1.1 -193.5 -1.1 l-191.3 0 -11.5 11.6 c-6.3 6.3 -12.7 12.2 -14.2 13 -2.3 1.2 -27.4 1.4 -174 1.4 l-171.2 0 -10.8 -10.8z m364.2 -5.8 c6.3 -6.4 12.9 -12.2 14.7 -13 2.7 -1.2 33 -1.4 194 -1.4 132.7 0 192 0.3 194.8 1.1 3.2 0.8 6.4 3.5 15.6 13 l11.6 11.9 169.4 0 169.4 0 9.7 -9.7 9.8 -9.8 0 -66.9 0 -67 -14.4 -14.6 c-11.2 -11.4 -14.6 -15.4 -15.5 -18.5 -1.5 -5.3 -1.6 -253.3 -0.1 -258.6 0.8 -2.7 4.9 -7.7 15.5 -18.5 l14.4 -14.9 0.1 -67 0 -67 -9.7 -9.7 -9.8 -9.6 -11.5 -0.6 c-16.1 -0.8 -80.1 -3.6 -106.5 -4.6 -53.2 -2 -80.2 -3.1 -97 -4.1 -9.9 -0.6 -41.8 -1.3 -71 -1.6 l-53 -0.5 -16.9 17.2 c-9.5 9.7 -18.4 17.8 -20.2 18.6 -2.8 1.2 -32.7 1.4 -184.1 1.4 -172.8 0 -181 -0.1 -184.8 -1.9 -2.7 -1.2 -9.5 -7.5 -19.9 -18.4 l-15.9 -16.7 -37.1 0 c-36.3 0.1 -45.5 0.3 -123.1 3.6 -20.9 0.8 -48.1 1.9 -60.5 2.4 -29.5 1.1 -92.4 3.8 -107 4.6 l-11.5 0.7 -9.7 10.1 -9.8 10.1 0 66.5 0 66.5 12.6 12.5 c15 15 16.1 16.4 17.9 23.5 2.2 8.3 2.2 244.6 0.1 253 -1.9 7.1 -2.2 7.5 -17.6 23 l-13 13.2 0 66.9 0 66.9 9.7 9.7 9.8 9.8 169.5 0 169.5 0 11.5 -11.6z"/>
  <path d="M564.7 594.8 c-1.6 -1.2 -1.7 -14.7 -2 -202.6 l-0.2 -201.2 -8.4 6 c-4.6 3.3 -13.2 8.5 -19 11.6 -10 5.3 -14.9 7.3 -40.2 16.4 -15.5 5.6 -46 12.7 -49.3 11.4 -1.4 -0.6 -1.6 -5.2 -1.6 -47.4 l0 -46.8 4.3 -1.6 c2.3 -0.9 10.3 -3.6 17.7 -6 50 -16.4 96.3 -40.3 131.4 -67.9 1.5 -1.2 4 -2.7 5.5 -3.4 3.6 -1.7 63.9 -1.8 67.6 -0.1 l2.5 1.1 0 265.3 c0 240.9 -0.1 265.2 -1.6 265.8 -0.9 0.3 -24.8 0.6 -53.3 0.6 -39.8 0 -52.1 -0.3 -53.4 -1.2z m103.3 -265.8 l0 -262 -31 0 -31.1 0 -9.8 7.4 c-17 12.9 -45.1 30 -61.5 37.5 -3.3 1.5 -9.9 4.6 -14.6 6.9 -11.5 5.7 -38.3 16 -56.2 21.7 l-14.8 4.7 0 43.2 0 43.3 4.8 -0.9 c19 -3.7 33.1 -7.8 56.8 -16.5 12.1 -4.5 29.5 -13.9 40.9 -22 9.7 -7.1 11.6 -8 14.9 -6.7 1.5 0.6 1.6 19.4 1.6 203 l0 202.4 50 0 50 0 0 -262z"/>
  <path d="M47 584.6 c-6.9 -1.9 -10.4 -4.1 -14.9 -9.2 -4.9 -5.6 -7.1 -12.2 -7.1 -21.4 0 -26.1 32.1 -38.5 50.1 -19.3 5.6 5.9 7.1 9.8 7.7 19.5 0.4 8.1 0.2 9.2 -2.4 14.5 -4.4 9.2 -9.8 13.6 -19.1 15.8 -6.9 1.7 -8.4 1.7 -14.3 0.1z m12.8 -4.7 c6.3 -1.5 11.2 -5.8 15.1 -13.3 5.6 -10.5 3.3 -21.6 -6.1 -30.2 -8.2 -7.6 -20.3 -8.1 -28.9 -1.2 -4.7 3.8 -9.9 13.6 -9.9 18.8 0 11.8 8 22.7 19 26.1 3.6 1.1 5.3 1 10.8 -0.2z"/>
  <path d="M1120.7 584.9 c-8.5 -2 -15.3 -7 -19.3 -14.1 -2.7 -4.9 -2.9 -6.1 -2.9 -15.3 0 -8.5 0.3 -10.6 2.2 -14 4.9 -8.8 10.5 -12.9 21 -15.5 4.2 -1.1 6.2 -1.1 11 -0.1 7.1 1.6 9.7 3 14.6 7.5 5.7 5.4 8.7 12.6 8.7 21.2 0 16.3 -7.3 26 -22.5 30 -5.6 1.5 -7.4 1.6 -12.8 0.3z m13.1 -5.4 c13.7 -4.1 21.1 -21.5 14.7 -34.9 -7.6 -15.9 -27.5 -19.1 -38.5 -6.2 -4.9 5.7 -6.3 9 -6.7 15.6 -0.5 5.9 -0.2 7.1 2.8 12.9 4.7 8.8 11.7 13.6 20.5 14 1.1 0.1 4.3 -0.6 7.2 -1.4z"/>
  <path d="M41.3 133.5 c-5.8 -2.9 -11.2 -8.6 -14.4 -15.2 -1.8 -3.6 -2 -5.7 -1.7 -13.1 0.4 -9.8 2.2 -14.5 7.5 -19.8 7.2 -7.2 17.7 -10.2 27.1 -7.7 16.6 4.3 24 14.6 23 31.7 -0.8 11.2 -4.1 16.8 -14 23.4 -3.5 2.3 -5.3 2.7 -13.2 2.9 -8.1 0.3 -9.6 0.1 -14.3 -2.2z m23.3 -4.4 c8.2 -5 12.4 -11.7 13.2 -20.8 0.4 -5.3 0.1 -7 -2.2 -11.7 -4.8 -9.8 -13.1 -15.1 -23.3 -14.8 -5.7 0.2 -10.3 2.2 -14.5 6.4 -4.8 4.8 -7.1 10.2 -7.6 17.5 -0.4 5.4 -0.1 6.9 2.2 10.7 6.5 11.2 11.6 14.5 22.1 14.6 5.1 0 7.8 -0.5 10.1 -1.9z"/>
  <path d="M1114.5 133.6 c-5.8 -2.8 -11.6 -8 -13.9 -12.4 -2.1 -4 -3.1 -13.4 -2.2 -20.6 1.4 -10.6 9.7 -19.2 21.9 -22.6 5.6 -1.6 7.3 -1.6 12.9 -0.6 14.2 2.7 22.8 13.5 22.8 28.6 0 8.9 -1.4 13 -6.1 19.1 -8.1 10.2 -23.9 14 -35.4 8.5z m21.8 -4.5 c4.8 -2.1 10.7 -8.5 13.2 -14.4 4.2 -10.2 -0.5 -23.5 -10.6 -30 -10.2 -6.6 -25.6 -1.8 -32.7 10.1 -2.3 4 -2.7 5.8 -2.7 12.2 0 10.3 3.5 16.1 13 22.1 4.1 2.6 13.8 2.6 19.8 0z"/>
 </g>
</svg>