<?xml version="1.0" encoding="utf-8"?>
<!DOCTYPE svg PUBLIC "-//W3C//DTD SVG 20010904//EN" "http://www.w3.org/TR/2001/REC-SVG-20010904/DTD/svg10.dtd">
<svg version="1.0" xmlns="http://www.w3.org/2000/svg" width="780px" height="725px" viewBox="0 0 780 725" preserveAspectRatio="xMidYMid meet">
 <g fill="#00ff00">
  <path d="M15.1 710.5 l-12.6 -12.4 -0.3 -77.2 -0.2 -77.2 15.4 -15.6 c14.9 -15.1 19.6 -21.5 19.6 -26.4 0 -1.2 0.5 -2.8 1 -3.3 1.4 -1.4 0.8 -268.4 -0.6 -273.9 -1.9 -7.4 -4.6 -10.9 -20 -26.6 l-15.4 -15.6 0 -76.9 0 -76.8 12.3 -12.3 12.3 -12.3 364.4 0 364.4 0 11.8 11.8 11.8 11.8 0 78 0 77.9 -15.5 15.5 c-11.4 11.3 -16 16.7 -17.7 20.5 l-2.3 5 0 138 c0 133.1 0.1 138.2 1.9 143 1.5 4 5 8.2 17.7 21.1 l15.9 16.1 0 77.8 0 77.8 -12.3 12.3 -12.2 12.4 -363.4 0 -363.4 0 -12.6 -12.5z m747.7 -3.9 l11.2 -11.4 0 -74.8 0 -74.8 -15.4 -15.5 c-8.5 -8.6 -16.1 -16.9 -16.9 -18.6 -0.8 -1.6 -2 -5.4 -2.6 -8.3 -1.6 -7.5 -1.6 -272.9 0 -280.4 1.8 -8.6 4 -11.5 19.8 -27.3 l15.1 -15 0 -74.9 0 -74.9 -10.7 -10.8 -10.7 -10.9 -361.5 0 -361.6 0 -11.2 11.2 -11.3 11.3 0 74 0 74 14.6 14.5 c15.3 15.3 19.1 20.4 20.8 27.9 1.4 6.4 2 277.1 0.6 278.5 -0.5 0.5 -1 2.3 -1 3.8 0 5.5 -4.3 11.4 -19.6 26.8 l-15.4 15.6 0 73.8 0 73.9 11.7 11.9 11.7 11.8 360.6 0 360.7 0 11.1 -11.4z"/>
  <path d="M105 703.1 c-6.3 -1.4 -10.9 -3.9 -16 -8.7 -7.7 -7.2 -10.5 -14.6 -9.8 -26.4 0.8 -14.3 7.8 -24.1 20.4 -28.5 8 -2.8 14.4 -3.1 21.8 -1 14.9 4.3 24.6 17.1 24.6 32.1 0 1.9 -0.8 6.5 -1.7 10.2 -1.5 5.9 -2.3 7.4 -7.7 12.8 -4.3 4.2 -7.6 6.6 -11 7.7 -5.9 2 -15.8 2.9 -20.6 1.8z m19 -6.7 c2.2 -0.9 6.2 -4 8.9 -6.9 6.5 -7.2 9 -15.7 7.1 -24.3 -1.3 -6.2 -6.2 -13.7 -11.4 -17.7 -10.6 -8.1 -27.5 -6.9 -36.1 2.7 -11.3 12.4 -11 29.3 0.7 40.4 4.9 4.7 7.8 6.5 12.8 7.5 4.7 1 13.1 0.2 18 -1.7z"/>
  <path d="M663 703.1 c-8.8 -1.8 -19.2 -9.1 -22.8 -15.9 -1.1 -2.1 -2.7 -6.8 -3.6 -10.3 -1.9 -7.3 -1.1 -12.6 3 -21.4 4.1 -8.6 10.5 -13.9 20.7 -17 6 -1.9 14.3 -1.7 21.7 0.5 4.7 1.3 13.1 8.8 16.9 15 3 4.8 3.1 5.5 3.1 15.8 0 10.2 -0.2 11.2 -3.1 16.5 -5.2 9.8 -14.9 15.9 -26.9 17 -3 0.3 -7.1 0.2 -9 -0.2z m13.5 -5.6 c7.3 -2 13.3 -6.7 17.4 -13.9 2.8 -4.7 3.1 -6.3 3.1 -13.3 0 -9.7 -1.3 -12.7 -8.9 -20.4 -6.1 -6 -10.8 -7.9 -19.8 -7.9 -5.5 0 -14.1 3.9 -18.6 8.4 -5.6 5.6 -10 17.8 -8.4 23.2 0.9 3.1 1.5 4.7 4.1 10.5 2.6 5.9 10.7 12.2 18.1 14 4.7 1.1 6.6 1 13 -0.6z"/>
  <path d="M190.6 660.7 c-1.6 -1.2 -1.7 -3.5 -1.3 -33.7 0.3 -26.8 0.8 -34.8 2.5 -45.5 1.2 -7.1 2.5 -14.3 3 -16 0.5 -1.6 1.5 -5 2.2 -7.5 10 -35.7 31.9 -72 61.7 -102.6 17.2 -17.6 37.6 -35.1 60.3 -51.8 44.6 -32.8 63.2 -48 79.1 -64.3 22.9 -23.6 33.3 -38.6 41.5 -60 5.5 -14.6 8 -37.5 5.6 -53.3 -2.4 -16.1 -7.8 -27.4 -18.2 -37.9 -10.6 -10.8 -21.7 -16.2 -40.1 -19.5 -9.7 -1.8 -43.2 -2.2 -50.2 -0.7 -2.3 0.5 -8.1 1.7 -12.8 2.5 -9.2 1.8 -25.4 6.7 -35.9 11.1 -18.6 7.7 -46 24.6 -60.8 37.3 -4 3.4 -7.8 6.2 -8.5 6.2 -3.7 -0.1 -3.7 0 -3.5 -56 l0.3 -54.4 9.5 -6 c19 -12 49.7 -26.1 67.5 -31.1 3.3 -0.9 7.1 -2 8.5 -2.5 1.4 -0.4 4.5 -1.3 7 -2 2.5 -0.6 5.9 -1.6 7.6 -2.1 1.7 -0.5 4.1 -0.9 5.4 -0.9 1.3 0 3.7 -0.4 5.4 -0.9 9.7 -3 36.1 -5.4 59.6 -5.4 13.9 0 39.4 1.9 43.4 3.3 1.6 0.6 4 1 5.4 1 1.4 0 3.9 0.4 5.6 0.9 1.7 0.5 5.1 1.5 7.6 2.2 37.4 9.9 67.8 28.8 89.5 55.6 4.1 5.1 7.5 9.5 7.5 9.8 0 0.2 1.9 3.7 4.3 7.7 4.1 7 10.4 21.5 12.6 28.8 4.7 16 5.4 19.7 7.7 43.3 1.5 15.6 1.5 18.1 0 34.5 -2.3 24.4 -3 28.8 -8 45.7 -4.4 14.7 -14.4 37 -20.8 46.2 -1.8 2.6 -4 6.3 -4.9 8.1 -4.2 8.2 -18.5 25.5 -33 40.2 -18.5 18.6 -36.9 33.9 -79.4 65.6 -35.7 26.7 -61.5 48.1 -73 60.7 -5.7 6.2 -17.5 22.5 -17.5 24.2 0 0.3 -0.9 2.4 -1.9 4.8 -1.1 2.3 -2.2 5.9 -2.6 8 l-0.6 3.7 122.5 0 c90.8 0 123.2 0.3 125.1 1.2 l2.5 1.1 0 49.8 c0 48.2 -0.1 49.9 -1.9 50.9 -1.3 0.7 -63.2 1 -192.8 1 -155 0 -191.3 -0.2 -192.7 -1.3z m382.4 -50.7 l0 -47 -123.7 0 c-70.1 0 -124.4 -0.4 -125.2 -0.9 -1.9 -1.2 -0.7 -12.3 2.1 -19.3 3.1 -7.6 11.6 -20.1 19.3 -28.5 11.5 -12.6 37.3 -34 73 -60.7 28 -20.9 38.4 -29 53.9 -42.1 19.4 -16.3 41.9 -39.5 50.9 -52.5 19.2 -27.7 27.2 -44 35.1 -71.5 3.4 -11.8 5.2 -22.8 6.6 -41 1.1 -13.8 0.1 -31.6 -2.9 -50.5 -1.3 -8.2 -5.7 -23.3 -9.1 -31 -1.7 -3.8 -3 -7.1 -3 -7.5 0 -0.3 -2.2 -4.4 -5 -9.1 -2.7 -4.7 -5 -8.7 -5 -8.9 0 -0.3 -3.4 -4.7 -7.5 -9.8 -20.2 -25 -47.2 -42.6 -80 -52.2 -4.9 -1.4 -10.4 -3 -12.1 -3.6 -1.7 -0.5 -4.2 -0.9 -5.6 -0.9 -1.4 0 -3.8 -0.4 -5.4 -1 -4 -1.4 -29.5 -3.3 -43.4 -3.3 -23.2 0 -47.5 2.2 -60 5.3 -1.9 0.5 -4.8 1.2 -6.5 1.5 -11 2.2 -10.5 2.1 -29.5 7.9 -9.9 3.1 -28.4 10.8 -38.7 16.2 -13.3 6.9 -30.3 17.3 -30.9 18.8 -0.2 0.6 -0.3 23.1 -0.2 50 l0.3 48.9 4.8 -4.1 c6.2 -5.4 27.7 -19.7 38.7 -25.7 17.1 -9.4 42.8 -18.9 59.6 -22 4.9 -0.9 10.8 -2.1 13.1 -2.6 7.9 -1.7 40.8 -1.1 51.8 1 19.4 3.7 32.6 10.1 43.5 21.2 7.7 7.7 12.5 15.8 15 24.9 0.7 2.5 1.6 5.6 2 7 3 9.2 3 36.2 0 48 -0.5 1.9 -1.4 6.1 -2.1 9.3 -0.7 3.2 -1.6 6 -2.1 6.3 -0.4 0.3 -0.8 1.2 -0.8 2.1 0 2.7 -8.6 19.8 -14 28 -10.5 15.6 -29.5 35.7 -51 53.7 -13.7 11.5 -23.6 19.1 -55 42.2 -41.2 30.3 -71.7 60.4 -91.7 90.4 -7.6 11.4 -20.3 34.1 -20.3 36.3 0 0.7 -0.4 1.7 -0.9 2.2 -1 1.1 -7 16.6 -8.1 21 -0.5 1.7 -1.6 5.7 -2.5 9 -4.3 15.2 -5.7 29.1 -6.2 60.8 l-0.5 30.7 189.6 0 189.6 0 0 -47z"/>
  <path d="M105.5 88.8 c-17.1 -5.4 -26.5 -16.7 -26.5 -31.8 0 -11.1 1.6 -16.2 7.3 -22.5 8.3 -9.3 21.2 -14 31.9 -11.5 10.7 2.5 19.8 9.4 24.6 18.5 2.4 4.4 2.6 6.1 2.6 14.5 -0.1 11.1 -1.5 15 -7.7 21.7 -8 8.6 -23.2 13.9 -32.2 11.1z m15.4 -6.3 c6.6 -2 14 -8.7 17.2 -15.3 3.3 -7 3.2 -16.1 -0.4 -22.9 -7 -13.5 -20.5 -19.5 -34.7 -15.4 -6.8 1.9 -16.2 12 -17.8 19 -1.4 6.2 -1.6 14.7 -0.3 15.5 0.5 0.3 1.2 1.8 1.5 3.2 0.9 3.6 7.2 11.1 11 13.2 9.7 5.3 13.8 5.7 23.5 2.7z"/>
  <path d="M663 88.4 c-14.2 -3.1 -23.8 -12.8 -26.4 -26.6 -1.4 -7.5 -1 -11.4 2.2 -19.1 0.7 -1.6 1.2 -3.2 1.2 -3.6 0 -1.7 7.5 -9.3 11.5 -11.6 4.4 -2.6 13.8 -5.5 18 -5.5 4.2 0 13.6 2.9 18.4 5.6 5.8 3.4 8.5 6.5 11.6 13.3 2.1 4.5 2.5 6.9 2.5 14.7 0 8.5 -0.3 9.9 -3.1 15.1 -1.7 3.2 -4.2 7 -5.6 8.4 -3 3.2 -12 7.9 -17.1 8.9 -2 0.4 -4.4 1 -5.2 1.3 -0.8 0.3 -4.4 -0.1 -8 -0.9z m12.5 -5.4 c9.5 -2.4 15.7 -8 20.2 -18.4 3.1 -6.8 0.3 -21.2 -5.3 -27.9 -10.4 -12.4 -30.5 -12.3 -41.4 0.1 -2.2 2.5 -4 5 -4 5.6 0 0.6 -0.7 2.4 -1.5 3.9 -3.9 7.6 -2.6 16.8 3.6 25.8 2.3 3.2 5 6.1 6 6.4 1 0.4 2.5 1.3 3.3 2 1.7 1.7 12.5 4.5 14.6 3.8 0.8 -0.3 2.9 -0.9 4.5 -1.3z"/>
 </g>
</svg>