<?xml version="1.0" standalone="yes"?>
<svg xmlns="http://www.w3.org/2000/svg" width="557" height="516">
<path style="fill:#00ff00; stroke:none;" d="M18 1.72223L16 3.11108L15 4.02777L13 6L12 7L9 10L7 12L6 13L4.02778 15L3.11111 16L1.72222 18L1.33333 19L1.11111 20L1 22L1 23L1 26L1 40L1 88L1 117L1 122L1 124L1 125L1.02778 127L1.11111 128L1.72222 130L3.11111 132L4.02778 133L6 135L8 137L10 139L10.9722 140L11.9167 141L13.6111 143L15.2222 144.917L17 146.611L17.9167 147.389L19.6111 149.083L20.3611 150.028L21.8333 152L22.5556 153L23.7222 155L24.1667 156L24.6111 157L25.3056 159L25.5833 160L25.7778 161L25.9167 162L26 164L26 165L26 166L26 168L26 179L26 214L26 323L26 346L26 351L26 353L25.9722 354L25.9167 355L25.5833 357L25 359L24.6667 360L23.9167 362L23.4444 363L22.9167 364L22.2778 365L21.5833 366L19.9167 368L18.9722 369L18 370L16 372L15 373L13 375L8 380L6 382L4.02778 384L2.33333 386L1.72222 387L1.33333 388L1.11111 389L1 391L1 392L1 395L1 410L1 458L1 488L1 492L1 494L1 495L1.08333 497L1.5 499L1.94444 500L3.25 502L5.02778 504L7 506L9 508L11 510L13 512L14 512.972L15 513.889L17 515.278L19 515.889L20 515.972L22 516L24 516L27 516L49 516L127 516L223 516L424 516L507 516L530 516L533 516L535 516L537 515.972L538 515.889L540 515.278L542 513.889L543 512.972L545 511L546 510L549 507L551 505L552 504L553 503L554.889 501L556.278 499L556.667 498L556.889 497L557 495L557 494L557 491L557 477L557 429L557 427L557 400L557 395L557 393L557 392L557 391L556.889 389L556.278 387L554.889 385L553.972 384L552 382L550 380L544 374L542 372L541 371L540 370L538.083 368L536.417 366L535.028 364L534.417 363L533.417 361L533.028 360L532.417 358L532.222 357L532.083 356L532 354L532 353L532 352L532 350L532 339L532 303L532 194L532 172L532 168L532 166L532 164L532.083 162L532.222 161L532.417 160L532.694 159L533.389 157L533.833 156L534.778 154L535.25 153L536.472 151L538.083 149L540 147L542 145L543 144L545 142L550 137L552 135L553.972 133L555.667 131L556.278 130L556.667 129L556.889 128L557 126L557 125L557 122L557 108L557 60L557 30L557 26L557 24L557 22L556.972 21L556.889 20L556.667 19L555.667 17L553.972 15L552 13L551 12L548 9L546 7L545 6L543 4.02777L542 3.11108L540 1.72223L539 1.33337L537 1.02777L535 1L533 1L528 1L506 1L432 1L376 1L135 1L52 1L29 1L25 1L23 1L22 1L20 1.11108L18 1.72223M21 4.33331L23 4.02777L24 4L26 4L28 4L33 4L58 4L143 4L427 4L509 4L528 4L531 4L533 4L535 4.02777L537 4.33331L538 4.72223L540 6.11111L541 7.02777L543 9L545 11L548 14L549 15L550.972 17L552.667 19L553.667 21L553.889 22L553.972 23L554 24L554 25L554 28L554 45L554 104L554 120L554 123L554 124L553.889 126L553.278 128L551.889 130L550.972 131L549 133L547 135L540 142L538 144L536.028 146L535.083 147L533.472 149L532.25 151L531.778 152L531.25 153L530.389 155L529.694 157L529.417 158L529.222 159L529.083 160L529 162L529 164L529 166L529 171L529 192L529 259L529 326L529 347L529 352L529 354L529 356L529.083 358L529.222 359L529.417 360L530.028 362L530.417 363L531.417 365L532.028 366L533.417 368L535.083 370L537 372L538 373L539 374L541 376L547 382L549 384L550.972 386L551.889 387L553.278 389L553.889 391L554 393L554 394L554 395L554 398L554 400L554 464L554 485L554 491L554 493L553.972 494L553.889 495L553.278 497L551.889 499L550 501L549 502L548 503L546 505L544 507L543 508L542 509L540 510.889L538 512.278L537 512.667L535 512.972L534 513L532 513L530 513L525 513L500 513L415 513L133 513L49 513L29 513L26 513L24 513L22 512.972L21 512.889L19 512.278L17 510.889L16 509.972L15 509L13 507L12 506L10 504L9 503L8.02778 502L6.25 500L4.94444 498L4.5 497L4.08333 495L4 493L4 492L4 491L4 489L4 474L4 414L4 397L4 394L4 393L4.11111 391L4.72222 389L6.11111 387L7.02778 386L9 384L11 382L16 377L18 375L19 374L20 373L21.9722 371L22.9167 370L24.5833 368L25.9167 366L26.9167 364L27.6667 362L28.3056 360L28.7778 358L28.9167 357L29 355L29 353L29 351L29 346L29 324L29 257L29 192L29 171L29 166L29 164L29 162L28.9167 160L28.7778 159L28.5833 158L28.3056 157L27.6111 155L27.1667 154L26.7222 153L25.5556 151L24.8333 150L23.3611 148L22.6111 147.028L21.7778 146.083L20 144.389L19.0833 143.611L18.2222 142.778L17.3889 141.917L16.6111 140.972L14.9167 139L13.9722 138L13 137L11 135L9 133L7.02778 131L6.11111 130L4.72222 128L4.11111 126L4 124L4 123L4 122L4 119L4 53L4 32L4 26L4 24L4.02778 23L4.11111 22L4.72222 20L5.33333 19L6.11111 18L8 16L9 15L11 13L14 10L15 9L17 7.02777L18 6.11111L20 4.72223L21 4.33331M72 14.4167L70 15.0278L69 15.3889L67 16.2778L65 17.4722L64 18.25L63 19.0833L61.0278 21L59.25 23L58.4722 24L57.25 26L56.7778 27L56.25 28L55.4722 30L55 32L54.6111 34L54.2222 36L54.0833 37L54.0833 39L54.3889 41L54.8056 43L55.1944 45L55.4167 46L56.0278 48L56.4167 49L57.4167 51L58.6944 53L60.2222 54.9722L61.0833 55.9167L63 57.5833L65 58.9722L66 59.5833L68 60.5833L69 60.9722L71 61.5833L72 61.7778L73 61.9167L75 62L76 62L77 62L79 62L81 62L82 62L84 61.9167L86 61.5833L87 61.3055L89 60.5833L91 59.5833L92 58.9722L94 57.5833L95.9722 55.9167L97.75 54L98.5278 53L99.75 51L100.222 50L100.75 49L101.528 47L101.778 46L102 45L102.389 43L102.611 42L102.917 40L103 38L102.972 37L102.917 36L102.611 34L102.361 33L101.861 31L101.611 30L100.972 28L100.583 27L99.5833 25L98.3056 23L97.5833 22.0278L95.9167 20.2222L94.9722 19.4167L94 18.6945L92 17.3889L91 16.8333L90 16.2778L88 15.3889L86 14.6945L85 14.4167L84 14.2222L83 14.0833L81 14L80 14L78 14L76 14L74 14.0833L72 14.4167M473 14.4167L472 14.6945L470 15.3889L468 16.2778L467 16.8333L466 17.3889L464 18.6945L463.028 19.4167L461.222 21.0833L459.694 23L459.028 24L458.389 25L457.278 27L456.444 29L456.167 30L455.861 31L455.389 33L455.083 35L455.028 36L455 38L455.028 40L455.083 41L455.389 43L455.639 44L455.861 45L456.444 47L457.25 49L457.778 50L458.861 52L459.472 53L460.25 54L462.028 55.9167L463 56.7778L465 58.3055L467 59.5833L469 60.5833L471 61.3055L472 61.5833L474 61.9167L476 62L477 62L478 62L480 62L482 62L483 62L485 61.9167L487 61.5278L488 61.1389L489 60.75L490 60.2222L492 59.1667L493 58.6111L495 57.3055L495.972 56.5833L497.75 54.9167L498.528 53.9722L499.75 52L500.222 51L501.222 49L501.75 48L502.556 46L503.139 44L503.361 43L503.611 42L503.917 40L503.972 38L503.917 37L503.611 35L503.389 34L503 32L502.778 31L502.528 30L501.75 28L501.222 27L500.75 26L499.528 24L498.75 23L496.972 21L495 19.0833L494 18.25L493 17.4722L491 16.2778L489 15.3889L488 15.0278L486 14.4167L484 14.0833L482 14L481 14L479 14L477 14L475 14.0833L473 14.4167M75 17.2222L77 17.0278L78 17L80 17.0278L81 17.0833L83 17.4167L84 17.6945L86 18.3889L87 18.8333L88 19.2778L89 19.8333L90 20.3889L91.9722 21.6945L92.9167 22.4167L94.5833 24.0833L95.3056 25.0278L96.5833 27L97.1111 28L97.5833 29L97.9722 30L98.6111 32L98.8611 33L99.3611 35L99.6111 36L99.8333 38L99.75 39L99.6111 40L99.1944 42L98.7778 44L98.5278 45L97.75 47L97.2222 48L96.1389 50L95.5278 51L93.9167 52.9167L92 54.5833L91 55.3055L89 56.5833L88 57.1111L87 57.5833L85 58.3055L84 58.5833L83 58.7778L82 58.9167L80 59L79 59L77 59L75 58.9167L74 58.7778L73 58.5833L71 57.9722L70 57.5833L68 56.5833L67 55.9722L66 55.3055L65.0278 54.5833L63.2222 52.9167L61.6944 51L61.0278 50L60.4167 49L59.4167 47L59.0278 46L58.6944 45L58.4167 44L58 42L57.6389 40L57.4722 39L57.4722 37L57.8056 35L58.2222 33L58.4722 32L59.25 30L59.7778 29L60.25 28L61.4722 26L62.25 25L64.0278 23.0278L66 21.25L67 20.4722L68 19.8611L70 18.8333L71 18.3889L73 17.6945L74 17.4167L75 17.2222M476 17.2222L478 17.0278L479 17L480 17L482 17.0833L484 17.4167L485 17.6945L487 18.3889L488 18.8333L490 19.8611L491 20.4722L492 21.25L493.972 23.0278L495.75 25L496.528 26L497.75 28L498.222 29L498.75 30L499.528 32L499.778 33L500.194 35L500.389 36L500.694 38L500.583 40L500.361 41L499.833 43L499.556 44L498.75 46L498.222 47L497.778 48L497.222 49L496.75 50L495.528 51.9167L494.75 52.7778L493.917 53.5833L492.972 54.3055L491 55.6111L490 56.1667L488 57.2222L487 57.75L485 58.5278L484 58.75L483 58.9167L481 59L480 59L478 59L476 58.9167L474 58.5833L472 57.9722L471 57.5833L469 56.5833L467 55.3055L465.028 53.7778L464.083 52.9167L462.472 51L461.25 49L460.778 48L460.25 47L459.444 45L459.167 44L458.639 42L458.389 41L458.083 39L458.083 37L458.222 36L458.639 34L459.167 32L459.444 31L460.278 29L461.389 27L462.694 25.0278L463.417 24.0833L464.222 23.2222L466.028 21.6945L468 20.3889L469 19.8333L471 18.8333L472 18.3889L474 17.6945L475 17.4167L476 17.2222M155 158L157.056 157.75L158.056 157.5L160 156.5L162 155L163 154.194L164 153.389L166 151.806L168 150.194L169 149.417L171 148L173 146.667L176 144.667L179 142.667L181 141.333L183 140.028L184 139.389L186 138.25L187 137.778L188 137.222L189 136.75L191 135.611L193 134.389L195 133.25L196 132.778L197 132.222L198 131.778L199 131.25L201 130.389L203 129.611L205 128.75L206 128.25L208 127.389L209 127.028L210 126.667L212 126L217 124.333L220 123.333L221 123L223 122.389L224 122.139L226 121.611L227 121.306L229 120.694L230 120.417L232 120.056L233 119.944L235 119.611L236 119.389L238 119.056L239 118.944L241 118.611L242 118.389L244 118.083L245 118.028L246 118L248 118L251 118L253 118L254 117.972L256 117.861L257 117.833L258 117.778L260 117.861L261 117.944L263 118L264 118L266 118L267 118L269 118.028L270 118.083L272 118.389L273 118.611L275 118.944L276 119.056L278 119.389L279 119.639L281 120.139L282 120.389L283 120.694L284 121L286 121.667L288 122.389L289 122.806L291 123.639L292 124.056L294 125.056L295 125.639L296 126.194L297 126.806L298 127.389L300 128.694L301 129.417L303 131.083L304 132.028L306 134L307.917 136L309.583 138L310.306 139L311.611 141L312.167 142L312.75 143L313.222 144L313.778 145L314.222 146L314.75 147L315.611 149L315.972 150L316.667 152L317.306 154L317.583 155L317.917 157L318.083 159L318.389 161L318.611 162L318.917 164L318.972 165L319 166L319.028 168L319.139 169.917L319.167 170.778L319.222 171.611L319.167 172.389L319.056 174.083L319 176L319 177L318.972 179L318.917 180L318.611 182L318.389 183L318.194 184L317.806 186L317.611 187L317.389 188L317 190L316.583 192L316 194L315.667 195L315.333 196L314.611 198L314.194 199L313.389 201L312.611 203L311.75 205L311.222 206L310.222 208L309.778 209L309.222 210L308.778 211L308.222 212L307.75 213L306.611 215L305.972 216L304.611 218L303.139 220L302.389 221L301.694 222L300.306 224L299.583 225L298.778 226L297 228L295.222 230L293.611 232L292.778 233L291.917 234L290 236L288 238L282 244L279 247L278 248L276 249.972L275 250.917L273 252.611L272 253.389L270 255.056L269 255.944L267 257.611L266 258.389L264 260.056L263 260.944L261 262.611L260 263.361L259 264.139L258 264.861L256 266.389L255 267.194L253 268.806L252 269.611L250 271.139L249 271.861L247 273.361L246 274.139L244 275.611L243 276.306L241 277.694L240 278.389L238 279.861L237 280.639L236 281.361L235 282.139L234 282.861L233 283.639L231 285.139L230 285.861L229 286.639L228 287.361L227 288.139L226 288.861L224 290.361L223 291.139L221 292.639L220 293.361L219 294.139L218 294.861L216 296.389L215 297.194L213 298.806L211 300.389L209 302.056L208 302.944L206 304.611L205 305.389L203 307.083L202 308.028L200 309.917L198 311.611L197 312.389L195 314.083L194 315.028L193 316L191 318L186 323L183 326L181 328L179.028 330L178.083 331L176.389 333L175.611 334L174 336L172.389 338L170.861 340L170.139 341L169.361 342L168.639 343L167.861 344L166.389 346L165.694 347L165 348L164.333 349L162.333 352L159 357L157.667 359L157.028 360L156.389 361L155.25 363L154.778 364L154.222 365L153.778 366L153.222 367L152.222 369L151.75 370L151.167 371L150.639 372L150.056 373L149.056 375L148.639 376L148.194 377L147.389 379L146.611 381L145.75 383L145.25 384L144.389 386L144.028 387L143.667 388L143 390L142.333 392L142 393L141.389 395L141.139 396L140.611 398L140.306 399L140 400L139.417 402L139 404L138.806 405L138.389 407L138.056 409L137.944 410L137.611 412L137.389 413L137.194 414L136.806 416L136.611 417L136.389 418L136.083 420L136.028 421L136 423L135.972 425L135.917 426L135.611 428L135.389 429L135.083 431L135.028 432L135 434L135 436L135 444L135 470L136 471L411 471L412 470L412 400L411 399L291 399L254 399L244 399L241 399L240 399L239 399L237 398.917L236.056 398.778L235.056 398.583L233 398L233.583 395.944L233.806 394.944L234 394L234.472 392L235.25 390L235.778 389L236.778 387L237.222 386L237.778 385L238.25 384L238.833 383L240.028 381L241.389 379L242.139 378L243.639 376L244.389 375L246.056 373L246.944 372L248.611 370L249.389 369L251.083 367L252.028 366L254 364L256 362.083L258 360.389L259 359.611L261 357.944L263 356.222L264 355.389L266 353.778L267 352.917L269 351.083L271 349.389L272 348.611L273 347.806L275 346.194L276 345.389L277 344.611L278 343.806L280 342.194L281 341.389L283 339.806L285 338.194L286 337.389L288 335.861L289 335.139L290 334.361L291 333.639L292 332.861L293 332.139L294 331.361L296 329.861L297 329.139L298 328.361L300 326.861L301 326.139L302 325.361L303 324.639L304 323.861L306 322.389L307 321.694L309 320.306L311 318.806L313 317.194L314 316.417L315 315.694L317 314.306L318 313.583L320 312L321 311.194L322 310.389L323 309.639L324 308.861L325 308.139L327 306.611L328 305.806L330 304.194L331 303.389L332 302.611L333 301.806L335 300.194L336 299.389L337 298.611L339 296.917L341 295.083L342 294.222L344 292.611L346 290.917L347 289.972L349 288L350 287.028L351 286.083L353 284.389L354 283.611L356 281.917L357 280.972L359 279L360.917 277L362.611 275L363.389 274L365.083 272L366.028 271L367 270L368.972 268L369.917 267L371.611 265L372.389 264L373.194 263L374.806 261L375.611 260L377.139 258L377.861 257L378.611 256L379.972 254L380.611 253L381.75 251L382.25 250L382.861 249L383.444 248L384.167 247L384.861 246L385.611 245L386.972 243L387.611 242L388.75 240L389.222 239L389.778 238L390.222 237L390.778 236L391.222 235L391.778 234L392.75 232L393.167 231L393.611 230L394.389 228L395.25 226L396.222 224L396.75 223L397.556 221L397.833 220L398.444 218L399.25 216L399.75 215L400.139 214L400.556 213L400.833 212L401.361 210L401.639 209L401.861 208L402.139 207L402.611 205L402.806 204L403.194 202L403.694 200L404.306 198L404.583 197L404.778 196L404.917 195L405.083 193L405.222 192L405.611 190L405.917 188L405.972 187L406.028 185L406.083 184L406.389 182L406.611 181L406.917 179L406.972 178L407 176L407 174L407 166L407 158L407 156L406.972 154L406.917 153L406.611 151L406.389 150L406.083 148L406.028 147L405.972 145L405.917 144L405.611 142L405.222 140L405.083 139L404.917 137L404.778 136L404.583 135L404.306 134L403.694 132L403.389 131L402.861 129L402.639 128L402.361 127L402.139 126L401.611 124L401.306 123L401 122L400.333 120L399.972 119L399.611 118L399.194 117L398.389 115L397.611 113L397.167 112L396.75 111L395.778 109L395.222 108L394.778 107L393.75 105L393.167 104L392.611 103L391.389 101L390.25 99L389.75 98L389.167 97L388.611 96L387.306 94L386.583 93L384.944 91L383.222 89L382.389 88L381.611 87L379.917 85L378 83L377 82L375 80L373 78L372 77.0278L371 76.0833L369 74.3889L368 73.6389L366 72.1389L365 71.3611L364 70.6389L363 69.8611L361 68.3889L359 67L358 66.3333L356 65.0278L355 64.3889L353 63.25L352 62.7778L351 62.2222L350 61.75L349 61.1667L348 60.6111L346 59.4167L344 58.4167L343 58.0278L341 57.3333L340 56.9722L339 56.6111L337 55.75L336 55.25L335 54.8333L334 54.3889L333 54.0278L332 53.6667L330 53L329 52.6945L328 52.3889L327 52.1389L325 51.6111L324 51.3055L322 50.6945L321 50.3889L319 49.8611L318 49.6389L317 49.3889L315 49.0555L314 48.9445L312 48.6111L311 48.3611L310 48.1389L308 47.6389L307 47.3889L305 47.0833L303 46.9167L302 46.7778L300 46.3889L298 46.0833L297 46.0278L295 46L294 46L292 46L290 45.9167L288 45.6111L287 45.3889L285 45.0833L284 45.0278L282 45L281 45L278 45L271 45L269 45L268 45L266 45.0833L265 45.2222L263 45.6111L261 45.9167L260 45.9722L258 46L257 46L254 46L253 46L251 46.0278L250 46.0833L248 46.3889L247 46.6111L245 46.9167L244 46.9722L242 47.0833L241 47.2222L239 47.6111L238 47.8055L236 48.1945L235 48.3889L234 48.6111L232 49L230 49.3889L229 49.6111L227 49.9445L226 50.0555L224 50.3889L223 50.6389L221 51.1389L220 51.3611L219 51.6389L218 51.8611L216 52.4445L215 52.8333L213 53.5555L212 53.8333L211 54.1389L209 54.6945L208 55L206 55.6667L205 56L203 56.6111L202 56.8611L200 57.4445L199 57.8333L197 58.6111L195 59.3889L193 60.25L192 60.75L190 61.6111L189 61.9722L187 62.6945L186 63.0833L184 64.0555L183 64.6111L181 65.5833L180 66L178 66.8889L177 67.4167L175 68.5833L174 69.1111L173 69.5833L171 70.4167L169 71.4167L168 72.0278L166 73.3333L164 74.6111L163 75.1945L161 76.3889L159 77.6111L157.028 78.8333L155.333 80.25L154.722 81.0833L154.111 83L154.028 84L154 85L154 87L154 88L154 91L154 99L154 138L154 149L154 152L154 153L154.028 154L154.056 154.944L154.25 155.944L154.278 156.5L155 158M409 402L409 468L138 468L138 446L138 438L138 436L138.028 434L138.083 433L138.389 431L138.611 430L138.917 428L138.972 427L139 425L139.028 423L139.083 422L139.389 420L139.611 419L139.806 418L140.194 416L140.389 415L140.611 414L140.944 412L141.056 411L141.389 409L141.806 407L142 406L142.417 404L143 402L143.306 401L143.611 400L144.139 398L144.389 397L145 395L145.333 394L146 392L146.667 390L147.028 389L147.389 388L148.25 386L148.75 385L149.611 383L150.389 381L151.194 379L151.639 378L152.056 377L153.056 375L153.639 374L154.167 373L154.75 372L155.222 371L156.222 369L156.778 368L157.222 367L157.778 366L158.25 365L159.389 363L160.028 362L160.667 361L162 359L165.333 354L167.333 351L168 350L168.694 349L169.389 348L170.861 346L171.639 345L172.361 344L173.139 343L173.861 342L175.389 340L177 338L178.611 336L179.389 335L181.083 333L182.028 332L184 330L186 328L189 325L192 322L194 320L196 318.028L197 317.083L199 315.389L200 314.611L202 312.917L204 311.028L205 310.083L207 308.389L209 306.778L211 305.056L213 303.389L215 301.806L217 300.194L218 299.389L220 297.861L221 297.139L222 296.361L223 295.639L224 294.861L226 293.361L227 292.639L228 291.861L229 291.139L230 290.361L231 289.639L233 288.139L234 287.361L235 286.639L236 285.861L237 285.139L239 283.639L240 282.861L242 281.389L243 280.694L245 279.306L246 278.611L248 277.139L249 276.361L251 274.861L252 274.139L254 272.611L255 271.806L257 270.194L258 269.389L260 267.861L261 267.139L262 266.361L263 265.611L265 263.944L266 263.056L268 261.389L269 260.611L271 258.944L272 258.056L274 256.389L275 255.611L277 253.917L278 252.972L280 251L282 249L285 246L291 240L293 238L293.972 237L294.917 236L296.611 234L298.222 232L299.083 231L300.917 229L302.583 227L303.306 226L304.694 224L305.389 223L306.139 222L307.611 220L308.972 218L309.611 217L310.75 215L311.222 214L311.778 213L312.222 212L312.778 211L313.222 210L313.778 209L314.222 208L314.75 207L315.611 205L316.389 203L317.194 201L317.611 200L318.333 198L318.667 197L319 196L319.583 194L319.806 193L320.194 191L320.611 189L320.806 188L321.194 186L321.389 185L321.611 184L321.917 182L321.972 181L322 179L322.028 177L322.222 175L322.583 173L322.694 172L322.694 171L322.389 169L322.083 167L322.028 166L322 164L321.972 163L321.917 162L321.611 160L321.389 159L321.083 157L320.917 155L320.583 153L320.306 152L319.667 150L318.972 148L318.611 147L317.75 145L317.222 144L316.778 143L316.222 142L315.75 141L314.611 139L313.972 138L312.583 136L310.917 134L309 132L308 131L307 130L305 128.083L303 126.417L302 125.694L300 124.389L299 123.806L297 122.639L296 122.056L294 121.056L293 120.639L291 119.806L290 119.389L288 118.667L286 118L285 117.694L284 117.389L283 117.139L281 116.639L280 116.389L278 116.056L277 115.944L275 115.611L274 115.389L272 115.083L271 115.028L269 115L268 115L266 115L264 114.972L263 114.917L261 114.611L260 114.389L258 114.167L256 114.389L255 114.611L253 114.917L252 114.972L250 115L249 115L246 115L245 115L243 115.028L242 115.083L240 115.389L239 115.611L237 115.944L236 116.056L234 116.389L233 116.611L231 116.944L230 117.056L228 117.417L227 117.694L225 118.306L224 118.611L222 119.139L221 119.389L219 120L218 120.333L215 121.333L210 123L208 123.667L207 124.028L206 124.389L204 125.25L203 125.75L201 126.611L199 127.389L197 128.25L196 128.778L195 129.222L194 129.778L193 130.25L191 131.389L189 132.611L187 133.75L186 134.222L185 134.778L184 135.25L182 136.389L181 137.028L179 138.333L178 139L175 141L171 143.667L169 145L168 145.694L167 146.417L165 148L163 149.611L162 150.389L160.056 151.972L159.056 152.722L158.5 153.222L157 154L157 83L158.5 82L159.056 81.75L160.056 81.1389L161 80.6111L163 79.3889L165 78.1945L166 77.6111L168 76.3333L170 75.0278L171 74.4167L173 73.4167L175 72.5833L176 72.1111L178 71L180 69.8889L181 69.4167L183 68.5833L184 68.1111L186 67.0555L188 66.0833L189 65.6945L191 64.9722L192 64.6111L194 63.75L195 63.25L197 62.3889L199 61.6111L201 60.8333L202 60.4445L204 59.8611L205 59.6111L207 59L208 58.6667L210 58L211 57.6945L213 57.1389L214 56.8333L215 56.5555L217 55.8333L218 55.4445L220 54.8611L221 54.6389L222 54.3611L223 54.1389L225 53.6389L226 53.3889L228 53.0555L229 52.9445L231 52.6111L233 52.1945L235 51.8055L236 51.6111L237 51.3889L238 51.1945L240 50.8055L241 50.6111L243 50.2222L244 50.0833L246 49.9722L247 49.9167L249 49.6111L250 49.3889L252 49.0833L253 49.0278L255 49L256 49L260 49L262 48.9722L263 48.9167L265 48.6111L266 48.3889L268 48.0833L269 48.0278L271 48L272 48L276 48L279 48L280 48L282 48.0278L283 48.0833L285 48.3889L286 48.6111L288 48.9167L290 49L292 49L293 49L295 49.0278L296 49.0833L298 49.3889L300 49.7778L301 49.9167L303 50.0833L305 50.3889L306 50.6389L308 51.1389L309 51.3611L310 51.6111L312 51.9445L313 52.0555L315 52.3889L316 52.6389L317 52.8611L319 53.3889L320 53.6945L322 54.3055L323 54.6111L325 55.1389L326 55.3889L327 55.6945L328 56L330 56.6667L332 57.3889L334 58.25L335 58.75L337 59.6111L338 59.9722L340 60.6667L342 61.4167L343 61.8889L345 63L346 63.6111L348 64.75L349 65.2222L350 65.7778L351 66.25L353 67.3889L354 68.0278L356 69.3333L357 70L359 71.3889L361 72.8611L362 73.6389L363 74.3611L364 75.1389L366 76.6389L367 77.3889L369 79.0833L371 81L372 82L374 84L375 85L376.917 87L378.611 89L379.389 90L380.222 91L381.944 93L383.583 95L384.306 96L385.611 98L386.167 99L386.75 100L387.25 101L388.389 103L389.611 105L390.167 106L390.75 107L391.778 109L392.222 110L392.778 111L393.75 113L394.167 114L394.611 115L395.389 117L396.194 119L396.611 120L396.972 121L397.333 122L398 124L398.306 125L398.611 126L399.139 128L399.361 129L399.639 130L399.861 131L400.389 133L400.694 134L401.306 136L401.583 137L401.778 138L401.917 139L402.083 141L402.222 142L402.611 144L402.917 146L402.972 147L403.028 149L403.083 150L403.389 152L403.611 153L403.917 155L403.972 156L404 157L404 159L404 166L404 173L404 175L403.972 176L403.917 177L403.611 179L403.389 180L403.083 182L403.028 183L402.972 185L402.917 186L402.611 188L402.222 190L402.083 191L401.917 193L401.778 194L401.583 195L401.306 196L400.694 198L400.194 200L399.806 202L399.611 203L399.139 205L398.861 206L398.639 207L398.361 208L397.833 210L397.556 211L397.139 212L396.75 213L396.25 214L395.444 216L395.167 217L394.556 219L393.75 221L393.222 222L392.778 223L392.25 224L391.389 226L390.611 228L390.167 229L389.75 230L388.778 232L388.222 233L387.778 234L387.222 235L386.778 236L386.222 237L385.75 238L384.611 240L383.972 241L382.611 243L381.861 244L381.167 245L380.444 246L379.861 247L379.25 248L378.75 249L377.611 251L376.972 252L375.611 254L374.861 255L374.139 256L372.611 258L371.806 259L370.194 261L369.389 262L368.611 263L366.917 265L365.972 266L365 267L363.028 269L362.083 270L360.389 272L359.611 273L357.917 275L356 277L354 278.917L352 280.611L351 281.389L349 283.083L348 284.028L347 285L345 286.972L344 287.917L342 289.611L341 290.389L339 292.083L338 293L336 294.778L334 296.389L333 297.194L331 298.806L330 299.611L329 300.389L328 301.194L326 302.806L325 303.611L324 304.361L323 305.139L322 305.861L320 307.389L319 308.194L318 309L316 310.583L315 311.306L313 312.694L312 313.417L310 315L308 316.583L307 317.306L305 318.694L304 319.389L302 320.861L301 321.639L300 322.361L299 323.139L298 323.861L297 324.639L295 326.139L294 326.861L293 327.639L292 328.361L290 329.861L289 330.639L288 331.361L287 332.139L286 332.861L284 334.389L283 335.194L281 336.806L279 338.389L278 339.194L276 340.806L275 341.611L274 342.389L273 343.194L271 344.806L270 345.611L268 347.222L267 348.083L265 349.917L264 350.778L262 352.389L261 353.222L259 354.944L257 356.611L256 357.389L254 359.083L253 360.028L251 362L250 363L248.083 365L246.389 367L245.611 368L244.778 369L243.056 371L242.222 372L241.389 373L240.639 374L239.139 376L238.389 377L237.028 379L236.389 380L235.25 382L234.778 383L234.222 384L233.778 385L232.778 387L232.25 388L231.472 390L231.222 391L231 392L230.611 394L230.389 395L230.194 397L230.722 398.972L231.333 399.889L233.028 401.278L235 401.889L237 402L238 402L239 402L242 402L274 402L409 402M73 455.389L72 455.639L70 456.167L69 456.444L67 457.278L66 457.861L65 458.472L63 460.083L62 461.028L60.0833 463L59.25 464L58.4722 465L57.25 467L56.7778 468L56.25 469L55.4722 471L55.2222 472L55 473L54.6111 475L54.2222 477L54.0833 478L54.0833 480L54.3889 482L54.6111 483L55 485L55.4167 487L55.6944 488L56.0278 489L56.4167 490L57.4167 492L58.6944 494L60.2222 495.972L61.0833 496.917L63 498.528L65 499.75L66 500.222L67 500.75L69 501.611L71 502.306L72 502.583L73 502.778L74 502.917L76 503L77 503L79 503L81 503L82 503L84 502.917L86 502.583L87 502.306L89 501.583L91 500.583L92 499.972L94 498.583L94.9722 497.778L95.9167 496.917L97.5833 495L98.3056 494L99.6111 492L100.722 490L101.528 488L101.778 487L102 486L102.389 484L102.611 483L102.917 481L103 479L102.972 478L102.917 477L102.611 475L102.361 474L101.861 472L101.611 471L100.972 469L100.583 468L99.5833 466L98.3056 464L97.5833 463.028L95.9167 461.222L94.9722 460.417L93 459.028L91 457.833L90 457.278L89 456.861L88 456.444L87 456.167L86 455.861L84 455.389L82 455.083L81 455.028L80 455L78 455L77 455L75 455.083L73 455.389M474 455.389L473 455.639L472 455.861L470 456.444L468 457.25L467 457.778L466 458.25L464 459.472L462.083 461.083L461.222 462.028L460.417 463L459.028 465L457.833 467L457.278 468L456.444 470L455.861 472L455.389 474L455.083 476L455.028 477L455 479L455 480L455 481L455.083 483L455.417 485L455.694 486L456.389 488L456.833 489L457.25 490L457.778 491L458.25 492L459.472 494L461.083 495.972L463 497.778L465 499.306L467 500.583L469 501.583L471 502.306L472 502.583L473 502.778L474 502.917L476 503L477 503L478 503L480 503L482 503L483 503L485 502.917L486 502.75L487 502.528L489 501.75L490 501.222L492 500.167L493 499.611L495 498.306L495.972 497.583L497.75 495.917L498.528 494.972L499.806 493L500.361 492L500.944 491L501.917 489L502.278 488L502.806 486L503.194 484L503.611 482L503.778 481L503.917 480L503.917 478L503.611 476L503.389 475L503 473L502.778 472L502.528 471L501.75 469L501.222 468L500.75 467L499.528 465L497.917 463L496.972 462L496 461.028L495 460.083L493 458.472L491 457.278L490 456.861L488 456.167L487 455.861L485 455.389L483 455.083L482 455.028L480 455L479 455L478 455L476 455.083L474 455.389M76 458.222L77 458.083L78 458.028L80 458.083L82 458.389L83 458.639L84 458.861L86 459.444L87 459.861L88 460.278L89 460.833L91 462.028L92.9167 463.417L94.5833 465.083L95.3056 466.028L96.5833 468L97.5833 470L97.9722 471L98.6111 473L98.8611 474L99.3611 476L99.6111 477L99.8333 479L99.75 480L99.6111 481L99.1944 483L98.7778 485L98.5278 486L97.7222 488L96.6111 490L95.9722 491L95.3056 492L93.7778 493.917L91.9722 495.583L91 496.306L90 496.972L89 497.583L87 498.583L86 498.972L84 499.583L83 499.778L82 499.917L80 500L79 500L77 499.972L76 499.917L74 499.583L73 499.306L71 498.611L70 498.167L69 497.75L68 497.222L67 496.75L65.0278 495.528L63.2222 493.917L61.6944 492L60.4167 490L59.4167 488L58.6944 486L58.4167 485L58 483L57.6389 481L57.4722 480L57.4722 478L57.8056 476L58.2222 474L58.4722 473L59.25 471L59.7778 470L60.25 469L61.4722 467L62.25 466L64.0278 464.028L66 462.25L67 461.472L69 460.278L71 459.444L72 459.167L74 458.639L76 458.222M477 458.222L478 458.083L479 458.028L481 458.083L483 458.389L484 458.639L486 459.167L487 459.444L488 459.861L489 460.278L491 461.472L492 462.25L493.972 464.028L495.75 466L496.528 467L497.75 469L498.222 470L498.75 471L499.528 473L499.778 474L500.194 476L500.528 478L500.528 480L500.361 481L500 483L499.583 485L498.917 487L497.944 489L497.361 490L496.806 491L495.528 492.917L494.75 493.778L493.917 494.583L492.972 495.306L491 496.611L490 497.167L488 498.222L487 498.75L485 499.528L483 499.917L482 499.972L480 500L478 500L476 499.917L474 499.583L472 498.972L471 498.583L469 497.583L467 496.306L465.028 494.778L464.083 493.917L462.472 492L461.25 490L460.778 489L460.25 488L459.389 486L458.694 484L458.417 483L458.083 481L458.028 479L458.083 478L458.389 476L458.639 475L459.167 473L459.444 472L460.278 470L460.833 469L462.028 467L463.417 465.028L464.222 464.083L466.028 462.472L467 461.861L469 460.778L470 460.25L472 459.444L474 458.861L475 458.639L477 458.222z"/>
</svg>
