<?xml version="1.0" standalone="yes"?>
<svg xmlns="http://www.w3.org/2000/svg" width="557" height="516">
<path style="fill:#00ff00; stroke:none;" d="M18 1.72223L16 3.11108L15 4.02777L13 6L12 7L9 10L7 12L6 13L4.02778 15L3.11111 16L1.72222 18L1.33333 19L1.11111 20L1 22L1 23L1 26L1 40L1 88L1 117L1 122L1 124L1 125L1.02778 127L1.11111 128L1.72222 130L3.11111 132L4.02778 133L6 135L8 137L10 139L10.9722 140L11.9167 141L13.6111 143L15.2222 144.917L17 146.611L17.9167 147.389L19.6111 149.083L20.3611 150.028L21.8333 152L22.5556 153L23.7222 155L24.1667 156L24.6111 157L25.3056 159L25.5833 160L25.7778 161L25.9167 162L26 164L26 165L26 166L26 168L26 179L26 214L26 323L26 346L26 351L26 353L25.9722 354L25.9167 355L25.5833 357L25 359L24.6667 360L23.9167 362L23.4444 363L22.9167 364L22.2778 365L21.5833 366L19.9167 368L18.9722 369L18 370L16 372L15 373L13 375L8 380L6 382L4.02778 384L2.33333 386L1.72222 387L1.33333 388L1.11111 389L1 391L1 392L1 395L1 410L1 458L1 488L1 492L1 494L1 495L1.08333 497L1.5 499L1.94444 500L3.25 502L5.02778 504L7 506L9 508L11 510L13 512L14 512.972L15 513.889L17 515.278L19 515.889L20 515.972L22 516L24 516L27 516L49 516L127 516L223 516L424 516L507 516L530 516L533 516L535 516L537 515.972L538 515.889L540 515.278L542 513.889L543 512.972L545 511L546 510L549 507L551 505L552 504L553 503L554.889 501L556.278 499L556.667 498L556.889 497L557 495L557 494L557 491L557 477L557 429L557 427L557 400L557 395L557 393L557 392L557 391L556.889 389L556.278 387L554.889 385L553.972 384L552 382L550 380L544 374L542 372L541 371L540 370L538.083 368L536.417 366L535.028 364L534.417 363L533.417 361L533.028 360L532.417 358L532.222 357L532.083 356L532 354L532 353L532 352L532 350L532 339L532 303L532 194L532 172L532 168L532 166L532 164L532.083 162L532.222 161L532.417 160L532.694 159L533.389 157L533.833 156L534.778 154L535.25 153L536.472 151L538.083 149L540 147L542 145L543 144L545 142L550 137L552 135L553.972 133L555.667 131L556.278 130L556.667 129L556.889 128L557 126L557 125L557 122L557 108L557 60L557 30L557 26L557 24L557 22L556.972 21L556.889 20L556.667 19L555.667 17L553.972 15L552 13L551 12L548 9L546 7L545 6L543 4.02777L542 3.11108L540 1.72223L539 1.33337L537 1.02777L535 1L533 1L528 1L506 1L432 1L376 1L135 1L52 1L29 1L25 1L23 1L22 1L20 1.11108L18 1.72223M21 4.33331L23 4.02777L24 4L26 4L28 4L33 4L58 4L143 4L427 4L509 4L528 4L531 4L533 4L535 4.02777L537 4.33331L538 4.72223L540 6.11111L541 7.02777L543 9L545 11L548 14L549 15L550.972 17L552.667 19L553.667 21L553.889 22L553.972 23L554 24L554 25L554 28L554 45L554 104L554 120L554 123L554 124L553.889 126L553.278 128L551.889 130L550.972 131L549 133L547 135L540 142L538 144L536.028 146L535.083 147L533.472 149L532.25 151L531.778 152L531.25 153L530.389 155L529.694 157L529.417 158L529.222 159L529.083 160L529 162L529 164L529 166L529 171L529 192L529 259L529 326L529 347L529 352L529 354L529 356L529.083 358L529.222 359L529.417 360L530.028 362L530.417 363L531.417 365L532.028 366L533.417 368L535.083 370L537 372L538 373L539 374L541 376L547 382L549 384L550.972 386L551.889 387L553.278 389L553.889 391L554 393L554 394L554 395L554 398L554 400L554 464L554 485L554 491L554 493L553.972 494L553.889 495L553.278 497L551.889 499L550 501L549 502L548 503L546 505L544 507L543 508L542 509L540 510.889L538 512.278L537 512.667L535 512.972L534 513L532 513L530 513L525 513L500 513L415 513L133 513L49 513L29 513L26 513L24 513L22 512.972L21 512.889L19 512.278L17 510.889L16 509.972L15 509L13 507L12 506L10 504L9 503L8.02778 502L6.25 500L4.94444 498L4.5 497L4.08333 495L4 493L4 492L4 491L4 489L4 474L4 414L4 397L4 394L4 393L4.11111 391L4.72222 389L6.11111 387L7.02778 386L9 384L11 382L16 377L18 375L19 374L20 373L21.9722 371L22.9167 370L24.5833 368L25.9167 366L26.9167 364L27.6667 362L28.3056 360L28.7778 358L28.9167 357L29 355L29 353L29 351L29 346L29 324L29 257L29 192L29 171L29 166L29 164L29 162L28.9167 160L28.7778 159L28.5833 158L28.3056 157L27.6111 155L27.1667 154L26.7222 153L25.5556 151L24.8333 150L23.3611 148L22.6111 147.028L21.7778 146.083L20 144.389L19.0833 143.611L18.2222 142.778L17.3889 141.917L16.6111 140.972L14.9167 139L13.9722 138L13 137L11 135L9 133L7.02778 131L6.11111 130L4.72222 128L4.11111 126L4 124L4 123L4 122L4 119L4 53L4 32L4 26L4 24L4.02778 23L4.11111 22L4.72222 20L5.33333 19L6.11111 18L8 16L9 15L11 13L14 10L15 9L17 7.02777L18 6.11111L20 4.72223L21 4.33331M72 14.4167L70 15.0278L69 15.3889L67 16.2778L65 17.4722L64 18.25L63 19.0833L61.0278 21L59.25 23L58.4722 24L57.25 26L56.7778 27L56.25 28L55.4722 30L55 32L54.6111 34L54.2222 36L54.0833 37L54.0833 39L54.3889 41L54.8056 43L55.1944 45L55.4167 46L56.0278 48L56.4167 49L57.4167 51L58.6944 53L60.2222 54.9722L61.0833 55.9167L63 57.5833L65 58.9722L66 59.5833L68 60.5833L69 60.9722L71 61.5833L72 61.7778L73 61.9167L75 62L76 62L77 62L79 62L81 62L82 62L84 61.9167L86 61.5833L87 61.3055L89 60.5833L91 59.5833L92 58.9722L94 57.5833L95.9722 55.9167L97.75 54L98.5278 53L99.75 51L100.222 50L100.75 49L101.528 47L101.778 46L102 45L102.389 43L102.611 42L102.917 40L103 38L102.972 37L102.917 36L102.611 34L102.361 33L101.861 31L101.611 30L100.972 28L100.583 27L99.5833 25L98.3056 23L97.5833 22.0278L95.9167 20.2222L94.9722 19.4167L94 18.6945L92 17.3889L91 16.8333L90 16.2778L88 15.3889L86 14.6945L85 14.4167L84 14.2222L83 14.0833L81 14L80 14L78 14L76 14L74 14.0833L72 14.4167M473 14.4167L472 14.6945L470 15.3889L468 16.2778L467 16.8333L466 17.3889L464 18.6945L463.028 19.4167L461.222 21.0833L459.694 23L459.028 24L458.389 25L457.278 27L456.444 29L456.167 30L455.861 31L455.389 33L455.083 35L455.028 36L455 38L455.028 40L455.083 41L455.389 43L455.639 44L455.861 45L456.444 47L457.25 49L457.778 50L458.861 52L459.472 53L460.25 54L462.028 55.9167L463 56.7778L465 58.3055L467 59.5833L469 60.5833L471 61.3055L472 61.5833L474 61.9167L476 62L477 62L478 62L480 62L482 62L483 62L485 61.9167L487 61.5278L488 61.1389L489 60.75L490 60.2222L492 59.1667L493 58.6111L495 57.3055L495.972 56.5833L497.75 54.9167L498.528 53.9722L499.75 52L500.222 51L501.222 49L501.75 48L502.556 46L503.139 44L503.361 43L503.611 42L503.917 40L503.972 38L503.917 37L503.611 35L503.389 34L503 32L502.778 31L502.528 30L501.75 28L501.222 27L500.75 26L499.528 24L498.75 23L496.972 21L495 19.0833L494 18.25L493 17.4722L491 16.2778L489 15.3889L488 15.0278L486 14.4167L484 14.0833L482 14L481 14L479 14L477 14L475 14.0833L473 14.4167M75 17.2222L77 17.0278L78 17L80 17.0278L81 17.0833L83 17.4167L84 17.6945L86 18.3889L87 18.8333L88 19.2778L89 19.8333L90 20.3889L91.9722 21.6945L92.9167 22.4167L94.5833 24.0833L95.3056 25.0278L96.5833 27L97.1111 28L97.5833 29L97.9722 30L98.6111 32L98.8611 33L99.3611 35L99.6111 36L99.8333 38L99.75 39L99.6111 40L99.1944 42L98.7778 44L98.5278 45L97.75 47L97.2222 48L96.1389 50L95.5278 51L93.9167 52.9167L92 54.5833L91 55.3055L89 56.5833L88 57.1111L87 57.5833L85 58.3055L84 58.5833L83 58.7778L82 58.9167L80 59L79 59L77 59L75 58.9167L74 58.7778L73 58.5833L71 57.9722L70 57.5833L68 56.5833L67 55.9722L66 55.3055L65.0278 54.5833L63.2222 52.9167L61.6944 51L61.0278 50L60.4167 49L59.4167 47L59.0278 46L58.6944 45L58.4167 44L58 42L57.6389 40L57.4722 39L57.4722 37L57.8056 35L58.2222 33L58.4722 32L59.25 30L59.7778 29L60.25 28L61.4722 26L62.25 25L64.0278 23.0278L66 21.25L67 20.4722L68 19.8611L70 18.8333L71 18.3889L73 17.6945L74 17.4167L75 17.2222M476 17.2222L478 17.0278L479 17L480 17L482 17.0833L484 17.4167L485 17.6945L487 18.3889L488 18.8333L490 19.8611L491 20.4722L492 21.25L493.972 23.0278L495.75 25L496.528 26L497.75 28L498.222 29L498.75 30L499.528 32L499.778 33L500.194 35L500.389 36L500.694 38L500.583 40L500.361 41L499.833 43L499.556 44L498.75 46L498.222 47L497.778 48L497.222 49L496.75 50L495.528 51.9167L494.75 52.7778L493.917 53.5833L492.972 54.3055L491 55.6111L490 56.1667L488 57.2222L487 57.75L485 58.5278L484 58.75L483 58.9167L481 59L480 59L478 59L476 58.9167L474 58.5833L472 57.9722L471 57.5833L469 56.5833L467 55.3055L465.028 53.7778L464.083 52.9167L462.472 51L461.25 49L460.778 48L460.25 47L459.444 45L459.167 44L458.639 42L458.389 41L458.083 39L458.083 37L458.222 36L458.639 34L459.167 32L459.444 31L460.278 29L461.389 27L462.694 25.0278L463.417 24.0833L464.222 23.2222L466.028 21.6945L468 20.3889L469 19.8333L471 18.8333L472 18.3889L474 17.6945L475 17.4167L476 17.2222M162 136L163.5 135.917L165.056 135.5L167 134.583L169 133.389L170 132.833L171 132.25L172 131.778L174 130.778L175 130.222L176 129.778L177 129.222L178 128.778L179 128.222L180 127.778L181 127.222L182 126.778L184 125.778L185 125.25L186 124.833L187 124.389L189 123.611L191 122.806L192 122.389L194 121.611L195 121.194L196 120.833L197 120.444L198 120.167L200 119.611L202 119L204 118.333L206 117.667L207 117.333L208 117L210 116.417L211 116.194L213 115.806L215 115.389L217 115.056L218 114.944L220 114.611L221 114.389L222 114.194L224 113.806L225 113.611L226 113.389L228 113.083L230 112.917L231 112.778L233 112.389L235 112.083L236 112.028L237 112L239 112L245 112L250 112L252 112L253 112.028L254 112.083L256 112.389L258 112.778L259 112.917L261 113.083L263 113.389L264 113.639L266 114.139L267 114.361L269 114.861L270 115.139L271 115.361L272 115.639L273 115.861L274 116.139L275 116.389L277 117.028L279 117.833L280 118.25L281 118.778L283 119.778L284 120.25L285 120.833L287 122L288 122.611L289 123.194L291 124.472L292 125.25L294 127.028L296 129L297.917 131L298.778 132L299.583 133C300.305 133.981 301.001 134.98 301.667 136L302.917 138L303.944 140L304.361 141L304.806 142L305.611 144L306.306 146L306.611 147L306.861 148L307.361 150L307.639 151L307.861 152L308.361 154L308.611 155L308.917 157L308.972 158L309 160L309 161L309 163L309 166L309 167L308.972 169L308.917 170L308.611 172L308.361 173L307.861 175L307.639 176L307.361 177L307.139 178L306.861 179L306.611 180L305.972 182L305.167 184L304.75 185L304.222 186L303.222 188L302.75 189L301.556 191L300.833 192L299.361 194L298.611 195L296.917 197L295 199L294 199.972L293 200.917L291 202.611L289 204.139L288 204.833L287 205.556L286 206.167L284 207.389L282 208.583L280 209.583L279 209.972L277 210.667L276 211.028L275 211.389L273 212.25L272 212.75L270 213.528L269 213.778L267 214.194L266 214.389L264 214.861L263 215.139L261 215.639L260 215.861L259 216.139L257 216.611L256 216.806L254 217.194L253 217.389L251 217.778L250 217.917L248 218.028L247 218.083L246 218.222L244 218.611L242 218.917L241 218.972L239 219L238 219L235 219L223 219L201 219L198 219L196 219.028L194.028 219.333L193.111 219.722L192.333 220.333L191.722 221.111L191.111 223L191 225L191 226L191 227L191 230L191 238L191 286L192 287L224 287L237 287L240 287L242 287L244 287.028L245 287.083L247 287.389L248 287.611L250 287.917L251 287.972L253 288L254 288.028L255 288.083L257 288.389L258 288.611L259 288.806L261 289.194L262 289.389L264 289.806L266 290.194L267 290.389L269 290.861L270 291.139L271 291.361L273 291.861L274 292.139L276 292.639L277 292.861L278 293.167L279 293.444L280 293.861L281 294.25L282 294.75L284 295.611L285 295.972L286 296.333L288 297.028L289 297.389L291 298.278L293 299.389L295 300.611L297 301.75L298 302.25L300 303.472L301 304.222L302 305L304 306.611L305 307.389L307 309.083L309 311L309.972 312L310.917 313L312.611 315L313.389 316L315 318L315.778 319L316.528 320L317.75 322L318.222 323L319.222 325L319.75 326L320.611 328L321.333 330L321.667 331L322 332L322.583 334L322.806 335L323.194 337L323.389 338L323.611 339L323.917 341L323.972 342L324.028 344L324.056 345L324.167 347L324.222 348L324.167 349L324.056 351L324 353L323.972 355L323.917 356L323.611 358L323.389 359L323 361L322.611 363L322.139 365L321.833 366L321.556 367L320.75 369L320.25 370L319.389 372L318.611 374L318.167 375L317.722 376L316.556 378L315.139 380L314.389 381L313.694 382L312.306 384L311.583 385L309.917 387L308 388.917L306 390.611L305 391.361L303 392.833L302 393.556L301 394.167L299 395.444L298 396.167L297 396.833L296 397.556L294 398.722L293 399.167L292 399.611L290 400.389L288 401.25L287 401.75L285 402.611L283 403.333L281 404L280 404.306L279 404.611L278 404.861L276 405.389L275 405.694L273 406.306L272 406.583L270 406.944L269 407.056L268 407.222L266 407.611L264 407.917L263 407.972L261 408.083L259 408.389L258 408.611L256 408.917L255 408.972L254 409L252 409L245 409L238 409L236 409L234 408.972L233 408.917L231 408.611L230 408.389L228 408.083L227 408.028L225 407.972L224 407.917L222 407.611L221 407.389L219 407.083L218 407.028L216 406.917L215 406.778L213 406.361L212 406.139L211 405.861L209 405.361L208 405.139L207 404.861L205 404.389L204 404.194L202 403.806L201 403.611L199 403.139L198 402.861L197 402.611L195 402L193 401.333L190 400.333L187 399.333L185 398.667L183 397.972L182 397.611L180 396.75L179 396.25L177 395.389L175 394.611L174 394.167L173 393.75L171 392.778L170 392.222L169 391.778L168 391.222L167 390.778L166 390.222L165 389.778L164 389.222L163 388.75L161 387.611L159 386.389L157 385.194L156 384.611L155 383.972L153 382.667L151 381.417L149.056 380.5L147.5 380.083L146 380L145.278 381.5L145.25 382.056L145.056 383.056L145.028 384L145 385L145 386L145 389L145 399L145 437L145 445L145 448L145 449L145 451L145.028 452L145.111 453L145.722 454.917L146.333 455.75L148.028 457.139L150 458.167L151 458.611L153 459.389L154 459.833L155 460.25L156 460.778L157 461.222L158 461.75L160 462.611L161 462.972L163 463.611L164 463.861L166 464.444L167 464.833L168 465.194L170 465.972L172 466.611L174 467.139L175 467.361L176 467.639L177 467.861L178 468.139L180 468.639L181 468.861L183 469.389L184 469.694L186 470.306L188 470.806L189 471L191 471.389L192 471.611L194 471.917L196 472.083L197 472.222L199 472.611L201 472.944L203 473.222L205 473.611L207 473.944L208 474.056L210 474.389L211 474.611L213 474.917L214 474.972L216 475L218 475L219 475.028L220 475.083L222 475.389L223 475.611L225 475.917L226 475.972L227 476L229 476L235 476L252 476L266 476L271 476L272 476L274 475.972L275 475.917L277 475.611L278 475.389L280 475.083L281 475.028L282 475L284 474.972L285 474.917L287 474.611L288 474.389L289 474.194L291 473.806L292 473.611L293 473.389L294 473.194L296 472.806L298 472.389L300 472.056L301 471.944L303 471.611L305 471.194L307 470.806L308 470.583L309 470.306L311 469.694L312 469.389L314 468.861L315 468.639L316 468.361L317 468.139L318 467.861L320 467.361L321 467.139L323 466.556L324 466.167L325 465.806L326 465.389L328 464.667L329 464.333L331 463.667L332 463.333L333 462.972L334 462.611L336 461.75L337 461.222L338 460.778L339 460.25L341 459.389L343 458.611L345 457.75L346 457.222L347 456.778L348 456.222L349 455.75L350 455.167L351 454.611L353 453.389L355 452.194L356 451.611L358 450.333L359 449.667L361 448.333L363 447L364 446.306L365 445.611L367 444.139L368 443.361L369 442.639L370 441.861L371 441.139L372 440.361L374 438.778L375 437.917L377 436L378 435L380 433L382 431L383.972 429L384.917 428L386.611 426L387.389 425L388.194 424L389.806 422L390.583 421L392 419L392.667 418L394 416L395.333 414L395.972 413L396.611 412L397.75 410L398.222 409L398.778 408L399.222 407L399.778 406L400.222 405L401.222 403L401.75 402L402.167 401L402.611 400L403.389 398L404.194 396L404.611 395L405.333 393L405.667 392L406.333 390L407 388L407.306 387L407.583 386L408 384L408.389 382L408.611 381L408.806 380L409.194 378L409.389 377L409.611 376L409.944 374L410.222 372L410.611 370L410.944 368L411.056 367L411.389 365L411.611 364L411.917 362L411.972 361L412 359L412 358L412 356L412 346L412 341L412 339L411.972 338L411.917 337L411.611 335L411.361 334L411.139 333L410.861 332L410.389 330L410.194 329L410 328L409.611 326L409.389 325L409 323L408.611 321L408.139 319L407.833 318L407.556 317L407.167 316L406.806 315L406.389 314L405.611 312L405.194 311L404.389 309L403.611 307L402.722 305L402.167 304L401.611 303L400.389 301L399.25 299L398.75 298L397.556 296L396.833 295L396.139 294L395.361 293L393.861 291L393.139 290L391.611 288L389.917 286L388.972 285L388 284L386.083 282L385.222 281.028L384.389 280.083L382.778 278.389L380.972 276.778L380 275.944L379 275.056L377 273.389L376 272.639L374 271.139L372 269.639L371 268.861L370 268.167L369 267.444L367 266.25L366 265.75L364 264.611L362 263.389L360 262.25L359 261.778L358 261.25L357 260.833L356 260.389L354 259.611L352 258.75L351 258.25L349 257.389L348 257.028L347 256.667L345 256L343 255.333L342 255L341 254.694L340 254.389L339 254.139L337 253.639L336 253.361L335 253.139L333 252.639L332 252.389L330 252.056L329 251.944L327 251.611L326 251.389L324 251.056L323 250.944L321 250.611L319.056 250.222L318.5 250.083L317 250L319.056 248.778L320.056 248.222L322 247.444L324 246.861L325 246.611L327 246L329 245.333L330 244.972L331 244.611L333 243.806L334 243.389L336 242.667L337 242.333L339 241.611L341 240.75L342 240.222L344 239.222L345 238.778L346 238.222L347 237.778L348 237.222L349 236.75L351 235.611L352 234.972L354 233.667L356 232.333L357 231.667L359 230.306L360 229.611L362 228.139L363 227.361L365 225.778L366 224.917L368 223L369 222L371 220L372.972 218L373.917 217L375.611 215L376.389 214L377.194 213L378.778 211L379.528 210L380.167 209L381.389 207L382.611 205L383.167 204L383.75 203L384.778 201L385.222 200L385.778 199L386.222 198L387.222 196L387.75 195L388.611 193L389.389 191L390.194 189L390.972 187L391.611 185L392.139 183L392.389 182L392.694 181L393.306 179L393.611 178L394.139 176L394.361 175L394.611 174L394.917 172L395.083 170L395.222 169L395.611 167L395.917 165L395.972 164L396 162L396 160L396 157L396 155L396.083 153L396.222 152L396.611 150L396.917 148L396.972 147L396.917 145L396.611 143L396.389 142L396.083 140L396 138L396 136L396 135L395.972 133L395.917 132L395.611 130L395.222 128L395.083 127L394.917 125L394.583 123L394.306 122L393.667 120L393 118L392.694 117L392.389 116L392.139 115L391.861 114L391.611 113L390.972 111L390.167 109L389.75 108L389.222 107L388.25 105L387.833 104L387.361 103L386.944 102L385.917 100L384.667 98L384 97L382.667 95L381.333 93L380.667 92L380 91L378.583 89L377.778 88L376.917 87L375.083 85L374.222 84.0278L372.611 82.2222L371.778 81.3889L370.917 80.6111L369 78.9167L368 77.9722L366 76.0833L364 74.3889L363 73.6389L362 72.8611L360 71.3889L359 70.6945L358 70L356 68.6667L354 67.3333L353 66.6667L352 66.0278L351 65.3889L349 64.25L348 63.7778L347 63.2222L346 62.7778L345 62.2222L344 61.7778L343 61.2222L341 60.2222L340 59.7778L339 59.2222L338 58.7778L337 58.25L335 57.3889L334 57.0278L333 56.6667L332 56.3333L330 55.6667L329 55.3333L328 54.9722L327 54.6111L325 53.8055L324 53.3889L322 52.6945L320 52.1389L319 51.8611L318 51.6389L317 51.3611L316 51.1389L314 50.6389L313 50.3611L311 49.8611L310 49.6389L309 49.3611L308 49.1389L306 48.6389L305 48.3889L303 48.0555L302 47.9445L300 47.6111L299 47.3889L297 47.0555L296 46.9445L294 46.6111L293 46.3889L291 46.0833L290 46.0278L288 46L286 45.9722L285 45.9167L283 45.6111L282 45.3889L280 45.0833L279 45.0278L277 45L276 45L272 45L260 45L251 45L249 45L248 45L246 45.0278L245 45.0833L243 45.3889L242 45.6111L240 45.9167L239 45.9722L237 46L235 46L234 46L233 46.0278L232 46.0833L230 46.3889L229 46.6111L227 46.9167L225 47.0278L224 47.0833L222 47.3889L221 47.6111L219 47.9167L217 48.0833L215 48.3889L214 48.6389L212 49.1389L210 49.6389L209 49.8611L208 50.1389L206 50.6111L205 50.8055L203 51.1945L201 51.6111L200 51.8055L198 52.1945L197 52.4167L196 52.6945L194 53.3889L192 54.1667L191 54.5555L189 55.1389L188 55.3889L186 56L184 56.6667L182 57.3333L180 58.0278L179 58.3889L178 58.8055L176 59.6111L174 60.3889L172 61.25L171 61.75L169 62.6111L167 63.3889L165 64.2778L164.028 64.8611L162.333 66.25L161.722 67.0833L161.111 69L161 71L161 72L161 73L161 76L161 84L161 118L161 128L161 130L161 131L161.028 132L161.056 132.944L161.25 133.944L161.278 134.5L162 136M313 247L313.111 248.5L313.722 250.028L315.111 251.694L317 252.889L319 253.583L321 253.944L323 254.222L324 254.389L326 254.778L328 255.056L329 255.222L330 255.389L332 255.861L333 256.139L334 256.361L335 256.639L337 257.139L338 257.389L339 257.694L340 258L341 258.333L343 259L345 259.667L346 260.028L347 260.389L349 261.25L350 261.75L352 262.611L354 263.389L355 263.833L356 264.25L357 264.778L358 265.25L360 266.389L362 267.611L364 268.75L365 269.25L367 270.444L368 271.167L369 271.861L370 272.639L372 274.139L373 274.861L375 276.389L377 278.056L378.917 279.778L379.778 280.611L380.611 281.389L381.389 282.222L383.083 284.028L384.028 285L385.972 287L386.917 288L388.611 290L390.139 292L390.861 293L392.361 295L393.139 296L393.833 297L394.556 298L395.75 300L396.25 301L397.389 303L398.611 305L399.167 306L399.722 307L400.167 308L401 310L401.389 311L402.194 313L402.611 314L403.389 316L403.806 317L404.556 319L405.139 321L405.361 322L405.611 323L406 325L406.389 327L406.806 329L407.194 331L407.389 332L407.861 334L408.139 335L408.361 336L408.611 337L408.917 339L409 341L409 343L409 345L409 348L409 355L409 357L408.972 359L408.917 360L408.611 362L408.389 363L408.056 365L407.944 366L407.611 368L407.389 369L407.056 371L406.944 372L406.611 374L406.389 375L406.194 376L405.806 378L405.611 379L405.389 380L405 382L404.583 384L404.306 385L404 386L403.333 388L402.667 390L402.333 391L401.972 392L401.611 393L401.194 394L400.389 396L399.611 398L399.167 399L398.75 400L398.222 401L397.222 403L396.778 404L396.222 405L395.778 406L395.222 407L394.75 408L393.611 410L392.972 411L392.333 412L391 414L389.667 416L389 417L387.583 419L386.806 420L385.194 422L384.389 423L383.611 424L381.917 426L380.972 427L379 429L377 431L375 433L374 433.972L373 434.917L371 436.611L370 437.361L368 438.861L367 439.639L366 440.361L364 441.861L363 442.611L361 444L360 444.667L358 446L356 447.333L354 448.611L353 449.194L351 450.389L350 451L348 452.167L347 452.75L346 453.222L344 454.222L343 454.75L342 455.167L341 455.611L339 456.389L338 456.833L337 457.25L336 457.778L335 458.222L334 458.75L332 459.611L331 459.972L330 460.333L329 460.667L327 461.333L326 461.667L324 462.389L323 462.806L322 463.167L321 463.556L319 464.139L318 464.361L316 464.861L315 465.139L314 465.361L313 465.639L312 465.861L310 466.389L309 466.694L307 467.306L306 467.583L305 467.806L303 468.194L301 468.611L299 468.944L298 469.056L296 469.389L294 469.806L292 470.194L291 470.389L290 470.611L289 470.806L287 471.194L286 471.389L284 471.778L283 471.917L281 472L280 472L278 472.083L276 472.389L275 472.611L273 472.917L272 472.972L270 473L268 473L265 473L251 473L236 473L231 473L229 473L228 472.972L227 472.917L225 472.611L224 472.389L222 472.083L221 472.028L219 472L217 472L216 471.972L215 471.917L213 471.611L212 471.389L210 471.056L209 470.944L207 470.611L206 470.389L204 470.056L203 469.944L201 469.611L200 469.389L198 469.083L196 468.917L194 468.611L193 468.389L191 468L190 467.806L189 467.583L188 467.306L186 466.694L185 466.389L183 465.861L182 465.639L180 465.139L179 464.861L178 464.639L177 464.361L176 464.139L175 463.861L173 463.306L171 462.611L170 462.194L169 461.833L168 461.444L167 461.167L166 460.861L165 460.611L163 459.972L161 459.167L160 458.75L158 457.778L157 457.25L156 456.833L155 456.389L153 455.611L152 455.167L151.056 454.778L149.5 454L148 453L148 384L149.5 384.694L150.056 385.083L151.056 385.694L153 386.972L154 387.611L155 388.194L157 389.389L159 390.611L160 391.167L161 391.75L162 392.222L164 393.222L165 393.778L166 394.222L167 394.778L168 395.222L169 395.778L171 396.75L172 397.167L173 397.611L175 398.389L177 399.25L178 399.75L180 400.611L181 400.972L183 401.667L185 402.333L188 403.333L191 404.333L193 405L195 405.611L196 405.861L197 406.139L199 406.611L200 406.806L202 407.194L203 407.389L205 407.861L206 408.139L207 408.361L209 408.861L210 409.139L211 409.361L213 409.778L214 409.917L216 410.028L217 410.083L219 410.389L220 410.611L222 410.917L223 410.972L225 411.028L226 411.083L228 411.389L229 411.611L231 411.917L232 411.972L234 412L236 412L245 412L253 412L255 412L257 411.972L258 411.917L260 411.611L261 411.389L263 411.083L265 410.972L266 410.917L268 410.611L270 410.222L271 410.056L272 409.944L274 409.583L275 409.306L277 408.694L278 408.389L280 407.861L281 407.611L282 407.306L283 407L285 406.333L286 405.972L287 405.611L289 404.75L290 404.25L292 403.389L294 402.611L295 402.167L296 401.722L298 400.556L299 399.833L300 399.167L301 398.444L303 397.167L304 396.556L306 395.139L307 394.361L308 393.611L310 391.917L311.972 390L312.917 389L314.583 387L315.306 386L316.694 384L317.389 383L318.139 382L319.556 380L320.722 378L321.167 377L321.611 376L322.389 374L323.25 372L323.75 371L324.556 369L324.833 368L325.139 367L325.611 365L326 363L326.389 361L326.611 360L326.917 358L326.972 357L327 356L327.028 354L327.083 353L327.389 351L327.611 350L327.833 348L327.611 346L327.389 345L327.083 343L327.028 342L326.972 340L326.778 338L326.389 336L326.194 335L325.806 333L325.583 332L325 330L324.667 329L324.333 328L323.611 326L322.75 324L322.222 323L321.222 321L320.75 320L319.528 318L318.778 317L318 316L316.389 314L315.611 313L313.917 311L312 309L311 308L309 306.083L307 304.389L306 303.611L304 302L303 301.222L302 300.472L300 299.25L299 298.75L297 297.611L295 296.389L294 295.833L293 295.278L292 294.833L291 294.389L289 293.667L287 292.972L286 292.611L284 291.75L283 291.25L282 290.861L281 290.444L280 290.167L278 289.639L276 289.139L275 288.861L274 288.639L273 288.361L272 288.139L271 287.861L269 287.389L268 287.194L266 286.806L265 286.611L264 286.389L262 286L260 285.611L259 285.389L257 285.083L256 285.028L255 285L253 284.972L252 284.917L250 284.611L249 284.389L247 284.083L246 284.028L244 284L243 284L240 284L229 284L194 284L194 223L195 222L227 222L238 222L240 222L241 222L243 221.972L244 221.917L246 221.611L248 221.222L249 221.083L250 221.028L252 220.917L253 220.778L255 220.389L256 220.194L258 219.806L259 219.611L261 219.139L262 218.861L263 218.639L265 218.139L266 217.861L268 217.389L269 217.194L271 216.778L272 216.528L274 215.75L275 215.25L277 214.389L278 214.028L280 213.333L282 212.583L283 212.111L285 211L286 210.389L288 209.167L289 208.556L290 207.833L291 207.139L293 205.611L295 203.917L296 202.972L298 201L299.917 199L301.611 197L302.361 196L303.833 194L304.556 193L305.75 191L306.222 190L307.222 188L307.75 187L308.167 186L308.972 184L309.611 182L309.861 181L310.139 180L310.361 179L310.639 178L310.861 177L311.361 175L311.611 174L311.917 172L312 170L312 168L312 166L312 162L312 159L312 158L311.972 156L311.917 155L311.611 153L311.361 152L310.861 150L310.639 149L310.361 148L309.861 146L309.611 145L309.306 144L308.611 142L308.194 141L307.361 139L306.944 138L305.917 136L304.667 134L304 133L302.583 131L300.917 129L299.972 128L298 126L297 125L295 123.083L293 121.472L292 120.833L290 119.611L288 118.389L287 117.833L286 117.25L285 116.778L283 115.778L282 115.25L281 114.833L280 114.389L278 113.694L277 113.389L276 113.139L274 112.639L273 112.361L272 112.139L271 111.861L269 111.361L268 111.139L266 110.639L265 110.389L263 110.083L261 109.917L260 109.778L258 109.389L256 109.083L255 109.028L254 109L252 109L246 109L238 109L236 109L234 109.028L233 109.083L231 109.389L229 109.778L228 109.917L226 110.083L225 110.222L223 110.611L222 110.806L220 111.194L219 111.389L218 111.611L216 111.944L215 112.056L213 112.389L211 112.806L209 113.194L208 113.417L206 114L205 114.333L204 114.667L202 115.333L200 116L198 116.611L196 117.167L195 117.444L194 117.833L193 118.194L192 118.611L190 119.389L189 119.806L187 120.611L185 121.389L184 121.833L183 122.25L182 122.778L180 123.778L179 124.222L178 124.778L177 125.222L176 125.778L175 126.222L174 126.778L173 127.222L172 127.778L170 128.778L169 129.25L168 129.833L166.056 130.944L165.5 131.306L164 132L164 130.5L164 69L165.5 68L166.056 67.7778L167.056 67.2222L169 66.3889L171 65.6111L173 64.75L174 64.25L176 63.3889L178 62.6111L180 61.8055L181 61.3889L183 60.6667L184 60.3333L186 59.6667L188 59L190 58.3889L191 58.1389L193 57.5555L194 57.1667L196 56.3889L198 55.6945L199 55.4167L200 55.1945L202 54.8055L203 54.6111L205 54.1945L207 53.8055L208 53.6111L210 53.1389L211 52.8611L212 52.6389L214 52.1389L216 51.6389L217 51.3889L219 51.0833L221 50.9167L223 50.6111L224 50.3889L226 50.0833L227 50.0278L229 49.9167L231 49.6111L232 49.3889L234 49.0833L235 49.0278L237 49L238 49L240 49L242 48.9167L244 48.6111L245 48.3889L247 48.0833L248 48.0278L250 48L251 48L254 48L266 48L273 48L275 48L277 48.0278L278 48.0833L280 48.3889L281 48.6111L283 48.9167L284 48.9722L286 49L288 49.0278L289 49.0833L291 49.3889L292 49.6111L294 49.9445L295 50.0555L297 50.3889L298 50.6111L300 50.9445L301 51.0555L303 51.3889L304 51.6389L306 52.1389L307 52.3611L309 52.8611L310 53.1389L311 53.3611L313 53.8611L314 54.1389L315 54.3611L316 54.6389L317 54.8611L318 55.1389L320 55.6945L322 56.3889L324 57.1945L325 57.6111L326 57.9722L327 58.3333L328 58.6667L330 59.3333L332 60.0278L333 60.3889L335 61.25L336 61.7778L337 62.2222L338 62.7778L339 63.2222L341 64.2222L342 64.7778L343 65.2222L344 65.7778L346 66.7778L347 67.25L348 67.8333L349 68.3889L351 69.6667L352 70.3333L354 71.6667L356 73L357 73.6945L358 74.3889L359 75.1389L361 76.6389L362 77.3889L364 79.0833L365 80.0278L366.972 81.9167L368.778 83.6111L369.611 84.3889L370.389 85.2222L372.083 87.0278L373 88L374.778 90L375.583 91L377 93L377.667 94L379 96L380.333 98L381 99L382.306 101L382.917 102L383.944 104L384.361 105L384.833 106L385.25 107L385.778 108L386.222 109L386.75 110L387.611 112L387.972 113L388.611 115L388.861 116L389.389 118L389.694 119L390 120L390.667 122L391.306 124L391.583 125L391.917 127L392.083 129L392.222 130L392.611 132L392.917 134L392.972 135L393 137L393 139L393.028 141L393.222 143L393.583 145L393.694 146L393.694 147L393.389 149L393.222 150L393.083 151L393 153L393 155L393 158L393 160L392.972 162L392.917 163L392.611 165L392.222 167L392.083 168L391.917 170L391.611 172L391.361 173L391.139 174L390.611 176L390.306 177L389.694 179L389.389 180L389.139 181L388.611 183L387.972 185L387.194 187L386.389 189L385.611 191L384.75 193L384.222 194L383.222 196L382.778 197L382.222 198L381.778 199L380.75 201L380.167 202L379.611 203L378.389 205L377.167 207L376.528 208L375.778 209L375 210L373.389 212L372.611 213L370.917 215L369.972 216L369 217L367 219L366 220L364 221.917L362 223.611L361 224.361L360 225.139L358 226.611L357 227.306L356 228L354 229.333L352 230.667L351 231.333L349 232.611L348 233.167L347 233.75L346 234.222L344 235.222L343 235.778L342 236.222L341 236.778L339 237.75L337 238.611L335 239.333L334 239.667L332 240.389L331 240.806L329 241.611L328 241.972L327 242.333L325 243L323 243.611L322 243.861L321 244.167L320 244.444L319 244.833L318 245.194L317 245.611L315.056 246.333L314.5 246.556L313 247M73 455.389L72 455.639L70 456.167L69 456.444L67 457.278L66 457.861L65 458.472L63 460.083L62 461.028L60.0833 463L59.25 464L58.4722 465L57.25 467L56.7778 468L56.25 469L55.4722 471L55.2222 472L55 473L54.6111 475L54.2222 477L54.0833 478L54.0833 480L54.3889 482L54.6111 483L55 485L55.4167 487L55.6944 488L56.0278 489L56.4167 490L57.4167 492L58.6944 494L60.2222 495.972L61.0833 496.917L63 498.528L65 499.75L66 500.222L67 500.75L69 501.611L71 502.306L72 502.583L73 502.778L74 502.917L76 503L77 503L79 503L81 503L82 503L84 502.917L86 502.583L87 502.306L89 501.583L91 500.583L92 499.972L94 498.583L94.9722 497.778L95.9167 496.917L97.5833 495L98.3056 494L99.6111 492L100.722 490L101.528 488L101.778 487L102 486L102.389 484L102.611 483L102.917 481L103 479L102.972 478L102.917 477L102.611 475L102.361 474L101.861 472L101.611 471L100.972 469L100.583 468L99.5833 466L98.3056 464L97.5833 463.028L95.9167 461.222L94.9722 460.417L93 459.028L91 457.833L90 457.278L89 456.861L88 456.444L87 456.167L86 455.861L84 455.389L82 455.083L81 455.028L80 455L78 455L77 455L75 455.083L73 455.389M474 455.389L473 455.639L472 455.861L470 456.444L468 457.25L467 457.778L466 458.25L464 459.472L462.083 461.083L461.222 462.028L460.417 463L459.028 465L457.833 467L457.278 468L456.444 470L455.861 472L455.389 474L455.083 476L455.028 477L455 479L455 480L455 481L455.083 483L455.417 485L455.694 486L456.389 488L456.833 489L457.25 490L457.778 491L458.25 492L459.472 494L461.083 495.972L463 497.778L465 499.306L467 500.583L469 501.583L471 502.306L472 502.583L473 502.778L474 502.917L476 503L477 503L478 503L480 503L482 503L483 503L485 502.917L486 502.75L487 502.528L489 501.75L490 501.222L492 500.167L493 499.611L495 498.306L495.972 497.583L497.75 495.917L498.528 494.972L499.806 493L500.361 492L500.944 491L501.917 489L502.278 488L502.806 486L503.194 484L503.611 482L503.778 481L503.917 480L503.917 478L503.611 476L503.389 475L503 473L502.778 472L502.528 471L501.75 469L501.222 468L500.75 467L499.528 465L497.917 463L496.972 462L496 461.028L495 460.083L493 458.472L491 457.278L490 456.861L488 456.167L487 455.861L485 455.389L483 455.083L482 455.028L480 455L479 455L478 455L476 455.083L474 455.389M76 458.222L77 458.083L78 458.028L80 458.083L82 458.389L83 458.639L84 458.861L86 459.444L87 459.861L88 460.278L89 460.833L91 462.028L92.9167 463.417L94.5833 465.083L95.3056 466.028L96.5833 468L97.5833 470L97.9722 471L98.6111 473L98.8611 474L99.3611 476L99.6111 477L99.8333 479L99.75 480L99.6111 481L99.1944 483L98.7778 485L98.5278 486L97.7222 488L96.6111 490L95.9722 491L95.3056 492L93.7778 493.917L91.9722 495.583L91 496.306L90 496.972L89 497.583L87 498.583L86 498.972L84 499.583L83 499.778L82 499.917L80 500L79 500L77 499.972L76 499.917L74 499.583L73 499.306L71 498.611L70 498.167L69 497.75L68 497.222L67 496.75L65.0278 495.528L63.2222 493.917L61.6944 492L60.4167 490L59.4167 488L58.6944 486L58.4167 485L58 483L57.6389 481L57.4722 480L57.4722 478L57.8056 476L58.2222 474L58.4722 473L59.25 471L59.7778 470L60.25 469L61.4722 467L62.25 466L64.0278 464.028L66 462.25L67 461.472L69 460.278L71 459.444L72 459.167L74 458.639L76 458.222M477 458.222L478 458.083L479 458.028L481 458.083L483 458.389L484 458.639L486 459.167L487 459.444L488 459.861L489 460.278L491 461.472L492 462.25L493.972 464.028L495.75 466L496.528 467L497.75 469L498.222 470L498.75 471L499.528 473L499.778 474L500.194 476L500.528 478L500.528 480L500.361 481L500 483L499.583 485L498.917 487L497.944 489L497.361 490L496.806 491L495.528 492.917L494.75 493.778L493.917 494.583L492.972 495.306L491 496.611L490 497.167L488 498.222L487 498.75L485 499.528L483 499.917L482 499.972L480 500L478 500L476 499.917L474 499.583L472 498.972L471 498.583L469 497.583L467 496.306L465.028 494.778L464.083 493.917L462.472 492L461.25 490L460.778 489L460.25 488L459.389 486L458.694 484L458.417 483L458.083 481L458.028 479L458.083 478L458.389 476L458.639 475L459.167 473L459.444 472L460.278 470L460.833 469L462.028 467L463.417 465.028L464.222 464.083L466.028 462.472L467 461.861L469 460.778L470 460.25L472 459.444L474 458.861L475 458.639L477 458.222z"/>
</svg>
