<?xml version="1.0" encoding="utf-8"?>
<!DOCTYPE svg PUBLIC "-//W3C//DTD SVG 20010904//EN" "http://www.w3.org/TR/2001/REC-SVG-20010904/DTD/svg10.dtd">
<svg version="1.0" xmlns="http://www.w3.org/2000/svg" width="780px" height="725px" viewBox="0 0 780 725" preserveAspectRatio="xMidYMid meet">
 <g fill="#00ff00">
  <path d="M26.1 720.3 c-1.3 -0.9 -7.1 -6.4 -12.8 -12.2 l-10.3 -10.6 0 -77.9 0 -77.9 15.4 -15.7 c13.1 -13.4 15.7 -16.5 17.5 -21.4 l2.1 -5.7 0 -136.9 0 -136.9 -2.5 -5.7 c-2 -4.4 -5.7 -8.9 -17.5 -20.8 l-15 -15.2 0 -78.5 0 -78.4 12 -11.3 12 -11.2 363.2 0 c224.8 0 363.9 0.4 364.8 1 0.8 0.5 6.3 5.8 12.2 11.7 l10.8 10.8 0 77.9 0 77.9 -16 16.3 c-11.6 11.8 -16.2 17.1 -16.6 19.4 -0.4 1.7 -1.1 3.3 -1.5 3.6 -0.5 0.3 -0.9 61.6 -0.9 139.3 l0 138.7 2.6 5.5 c1.9 3.9 6.7 9.5 17.5 20.4 l14.9 15.1 0 78 0 78 -4.8 5 c-2.7 2.7 -8.3 8.2 -12.4 12.2 l-7.6 7.2 -362.4 0 c-336.4 0 -362.5 -0.1 -364.7 -1.7z m735.7 -14.4 l11.2 -11.1 0 -75.1 0 -75.1 -15 -15.1 c-11.9 -12 -15.4 -16.2 -17.5 -20.8 l-2.5 -5.8 0 -140.4 0 -140.4 2.5 -5.8 c2.1 -4.6 5.6 -8.8 17.5 -20.8 l15 -15.1 0 -74.9 0 -75 -10.7 -10.7 -10.6 -10.8 -360.9 0 -361 0 -10.9 10.3 -10.9 10.2 0 75.5 0 75.5 12.6 12.5 c15.4 15.4 18.1 18.6 20.5 25.2 1.8 5.1 1.9 9.9 1.9 143.6 0 123.4 -0.2 139 -1.6 143.8 -1.9 6.5 -6.4 12.2 -22.3 27.9 l-11.1 11 0 75 0 75 11 11.3 10.9 11.2 360.3 0 360.3 0 11.3 -11.1z"/>
  <path d="M104.5 702.1 c-8.1 -1.5 -16.7 -7.3 -21.2 -14.5 -4.4 -6.9 -6.9 -22.5 -4.4 -27.4 0.5 -0.9 2 -3.9 3.2 -6.5 2.9 -5.9 8.5 -11 15.9 -14.6 4.7 -2.2 6.8 -2.6 14.5 -2.5 7.7 0 9.8 0.4 14.2 2.7 6.6 3.4 12.1 8.9 15.3 15.2 2.2 4.3 2.5 6.2 2.5 15 -0.1 9 -0.3 10.5 -2.9 15.3 -6.8 12.6 -22.5 20 -37.1 17.3z m18.1 -6.6 c1.9 -0.8 5.9 -3.9 8.9 -6.8 9 -9.1 10.9 -20.8 5 -32.2 -2.6 -5.2 -7.9 -10.6 -12.7 -13.1 -4 -2.1 -14.5 -2.9 -19.6 -1.5 -10.5 2.9 -21.8 17.6 -20.8 27.1 1.3 12.4 6.5 21.1 15.7 26.1 5.7 3.1 16.7 3.3 23.5 0.4z"/>
  <path d="M662.5 702.1 c-13.7 -2.5 -23.1 -11.8 -26.5 -25.9 -2.3 -9.7 1.4 -22.7 8.5 -29.8 7 -7 13.4 -9.7 23.5 -9.8 7.7 -0.1 9.2 0.2 15.7 3.3 14.2 6.7 20.3 19.2 17.6 36.6 -2.7 17.1 -20.6 28.9 -38.8 25.6z m19.8 -7.9 c4.7 -2.5 7.2 -5.2 11.6 -12.5 1.9 -3.1 2.3 -5.2 2.3 -12.1 0 -7.3 -0.3 -9 -2.6 -12.8 -4 -6.5 -6.6 -9.2 -12.1 -12.4 -4.4 -2.6 -5.9 -2.9 -13 -2.8 -9.3 0.1 -12.6 1.4 -19.1 7.9 -9.2 9.3 -11.5 23.6 -5.2 32.7 1 1.4 1.8 3.1 1.8 3.6 0 1.4 7.9 8.1 11 9.4 8 3.4 18 3 25.3 -1z"/>
  <path d="M315.6 666.3 c-0.4 -0.5 -5.3 -1.1 -10.9 -1.4 -13.4 -0.8 -37.8 -4.5 -46.2 -6.9 -2.2 -0.6 -5.6 -1.5 -7.5 -2 -12.2 -3 -26.2 -8 -38.2 -13.7 l-9.8 -4.6 0 -52.2 c0 -46.8 0.2 -52.4 1.6 -52.9 3 -1.2 4.8 -0.6 12.3 4.2 12.3 7.8 23.7 13.6 37.6 19 13.6 5.3 25.9 9.2 28.7 9.2 1 0 2.7 0.4 4 0.9 2.1 0.8 8.8 1.9 33.1 5.1 16.9 2.2 42.3 0.9 62.7 -3.1 16.5 -3.4 34.5 -12.2 46.2 -22.7 6.4 -5.8 14.8 -17.8 17.5 -25.1 1.4 -3.6 2.9 -7.5 3.3 -8.6 2.4 -5.6 3.2 -31.4 1.3 -41 -3.9 -19.4 -19.7 -39.4 -39.3 -49.6 -13.2 -6.8 -30.8 -12.4 -47 -14.9 -4.1 -0.6 -9.9 -1.5 -12.9 -2.1 -3 -0.5 -22.4 -0.9 -43.2 -0.9 -24.2 0 -38.6 -0.4 -40.1 -1 l-2.3 -1.1 0.3 -45.7 c0.2 -41.3 0.4 -45.8 1.9 -46.9 1.2 -1 7.4 -1.3 22.2 -1.3 26.7 -0.1 60.3 -1.5 66.6 -2.9 2.8 -0.7 7.3 -1.6 10 -2.2 8.4 -1.8 23.6 -7.5 30.3 -11.3 8.6 -4.8 15.3 -10.9 21.1 -19 4.2 -5.9 5.8 -8.7 9.1 -17.1 1.8 -4.4 2.3 -8.6 2.7 -22.5 0.4 -14.3 0.2 -15.8 -3.4 -27.5 -7.3 -23.6 -27.5 -38.5 -59.3 -43.8 -8.7 -1.4 -43.7 -1.4 -52.5 0.1 -3.8 0.7 -9.5 1.6 -12.5 2.1 -3 0.5 -8.9 1.8 -13 3 -21.3 6 -37.3 12.8 -53.7 22.7 -6.4 3.9 -7.5 4.3 -9.7 3.2 l-2.6 -1.1 0 -47.1 c0 -25.9 0.4 -47.6 0.8 -48.2 1.7 -2.6 17.5 -9.4 37.7 -16.2 10.7 -3.6 16.1 -5.1 30 -8.2 2.2 -0.5 5.1 -1.2 6.5 -1.5 14.5 -3.9 56 -6.9 82 -5.9 9.6 0.3 18.9 0.8 20.5 1.1 1.7 0.3 5.5 0.9 8.5 1.4 24.3 3.8 37.4 7.2 54 13.9 46.6 18.9 75.1 47.2 85.9 85.5 4.6 16.3 5.4 22.5 5.3 42.4 -0.1 30.4 -3.8 48.2 -14.8 70.6 -9.4 19.2 -23.3 35 -41.2 46.8 -14.7 9.8 -26.6 15.2 -47 21.6 l-8.5 2.7 8.4 1.3 c4.6 0.7 9.8 1.7 11.4 2.2 1.7 0.4 6.4 1.8 10.5 2.9 51.3 14.3 90.2 53.8 99.9 101.5 0.5 2.8 1.5 7.5 2.1 10.5 1.4 6.4 0.7 39.9 -0.9 50 -3.9 23.9 -10.3 42.5 -20.3 59 -20.1 33.2 -58.3 61.6 -100.8 75.1 -11.9 3.8 -15.1 4.7 -23.7 6.8 -2.1 0.5 -5.6 1.4 -7.8 2 -2.2 0.5 -6 1.2 -8.5 1.6 -2.5 0.3 -6.1 0.8 -8 1.1 -13.3 2 -25.6 2.7 -55.6 3 -18.7 0.3 -34.4 0.1 -34.8 -0.3z m77.9 -6.1 c18.3 -2.2 29 -4.1 40 -7.2 2.2 -0.6 5.8 -1.5 8 -2 12.5 -2.8 37.8 -13.6 51.5 -22 37 -22.7 61.7 -53.5 72.1 -90 4.7 -16.5 6.3 -29.3 6.3 -49.5 0 -16.6 -0.4 -20.6 -3.3 -33.5 -5.9 -26.3 -24.5 -53.8 -49.1 -72.6 -6.5 -5 -22.7 -14.5 -26.5 -15.7 -1.1 -0.3 -4.8 -1.7 -8.3 -3.2 -8.2 -3.4 -19.5 -6.4 -31.2 -8.2 -12.1 -1.8 -14.5 -3 -14.5 -6.8 0 -2.9 0.4 -3.1 8.5 -5.8 24 -7.9 32.9 -11.9 47.2 -21.4 26.4 -17.4 44.4 -44.1 52.7 -77.8 2.2 -9.2 3.2 -20.3 3.2 -36.5 0.1 -18.4 -0.8 -25 -5.1 -40 -12.6 -43.4 -50.1 -75.7 -105.5 -91.1 -24.5 -6.8 -58.6 -9.7 -91.5 -7.9 -11.3 0.6 -23.6 1.5 -27.5 2.1 -13.9 1.9 -19.1 2.8 -23 3.7 -2.2 0.6 -6.2 1.5 -9 2.1 -2.7 0.6 -7.5 1.8 -10.5 2.6 -3 0.9 -6.8 2 -8.5 2.4 -6.5 1.8 -19.5 6.7 -29.5 11.1 l-10.5 4.7 -0.3 44.5 -0.2 44.6 9.3 -5.2 c20.8 -11.4 45.5 -20.5 64.7 -23.7 3 -0.5 8.7 -1.4 12.5 -2.1 8.8 -1.5 43.8 -1.5 52.5 -0.1 32.3 5.4 53.9 19.6 62.3 40.8 1 2.8 2.3 5.9 2.7 7 1.9 4.4 2.3 9.8 2.3 27 0 17.8 -0.7 25 -2.4 26.1 -0.5 0.3 -0.9 1.3 -0.9 2.3 0 5.1 -10.2 20.2 -18.5 27.2 -8.3 7.2 -22.6 14.5 -35 17.9 -4.9 1.4 -14.6 3.7 -20.5 5 -6.9 1.4 -40.2 2.9 -66.2 3 l-19.8 0 0 42.9 0 43 40.3 0.4 c23.2 0.3 42.8 0.9 46.5 1.6 3.4 0.6 8.8 1.5 12 2 19.9 3.2 43.3 12.8 58 23.9 12.2 9.2 20 20 25.8 35.7 1.9 5.3 2.7 13.3 2.7 27 -0.1 15.3 -0.8 23.3 -2.4 25 -0.5 0.5 -0.9 1.7 -0.9 2.7 0 1 -0.4 2.6 -0.9 3.6 -0.5 0.9 -1.7 3.7 -2.7 6.2 -2.3 5.7 -10.8 17.4 -16.2 22.2 -10 9 -28.8 19 -42.7 22.7 -21 5.5 -51.3 7.7 -71.2 5.1 -32.4 -4.3 -37 -5.2 -57.2 -11.7 -13.8 -4.4 -42 -17.8 -51.3 -24.4 -1.4 -1.1 -2.9 -1.9 -3.2 -1.9 -0.3 0 -0.6 21.8 -0.6 48.4 l0 48.3 9.3 4.3 c5 2.3 10.6 4.6 12.2 5.1 1.7 0.4 6.4 2 10.5 3.5 4.1 1.5 9.1 3.1 11 3.5 1.9 0.4 5.3 1.3 7.5 1.9 8.4 2.4 32.8 6.1 46.2 6.9 5.6 0.3 10.5 0.9 10.9 1.4 1.1 1.1 67 0.1 77.9 -1.1z"/>
  <path d="M105 88.1 c-10.3 -2.3 -19.8 -9.2 -23.3 -17.2 -3.5 -8.1 -4 -10.1 -3.5 -16.7 0.6 -7.3 3.7 -15.7 7.7 -21 2.7 -3.3 11.4 -8.2 18.8 -10.3 13.5 -3.9 31 4.6 37.4 18 4.5 9.4 3.2 27.8 -2.2 32.7 -1.1 0.9 -1.9 2.2 -1.9 2.8 0 2.1 -8.5 8.2 -14 10.1 -5.1 1.8 -14.5 2.6 -19 1.6z m13.5 -5.4 c5.9 -1.5 12.7 -6.2 15.9 -10.9 8.5 -12.6 7 -26 -4 -37.1 -7.4 -7.3 -16 -9.3 -26.7 -6.2 -9.5 2.8 -13.8 7.1 -18.1 17.7 -3.2 8.2 -3.3 12.2 -0.2 19.1 6.4 14.6 18.9 21.1 33.1 17.4z"/>
  <path d="M660.5 87.6 c-5.5 -1.4 -11.9 -4.4 -15.1 -7.3 -3.5 -3 -8.3 -12.8 -9.5 -19.5 -1.4 -7.4 0.4 -16 4.7 -23.3 5.7 -9.8 19.1 -16.3 31.2 -15.3 17 1.6 30.6 16.2 30.3 32.8 -0.1 4.6 -1.3 11.5 -2.2 12.5 -0.5 0.5 -0.9 1.5 -0.9 2.3 0 2.4 -8.6 11.8 -13.3 14.5 -4 2.4 -13.6 4.8 -18.1 4.6 -1.2 0 -4.3 -0.6 -7.1 -1.3z m20 -6.5 c4.5 -2 12.4 -10.6 14.5 -15.9 0.7 -1.9 1.3 -6.7 1.3 -10.7 -0.1 -8.6 -1.4 -11.5 -8.8 -19.3 -7.7 -8.1 -17.1 -10.2 -27.7 -6.2 -7.5 2.8 -11.9 6.8 -15.7 14.4 -4.6 8.9 -4.6 15.1 -0.3 23.9 3.7 7.5 5.4 9.6 10.6 12.5 7.7 4.5 17.7 5 26.1 1.3z"/>
 </g>
</svg>