<?xml version="1.0" encoding="utf-8"?>
<!DOCTYPE svg PUBLIC "-//W3C//DTD SVG 20010904//EN" "http://www.w3.org/TR/2001/REC-SVG-20010904/DTD/svg10.dtd">
<svg version="1.0" xmlns="http://www.w3.org/2000/svg" width="780px" height="725px" viewBox="0 0 780 725" preserveAspectRatio="xMidYMid meet">
 <g fill="#00ff00">
  <path d="M26.5 721.8 c-2.8 -1.5 -16 -14.4 -20.6 -20.1 l-3.9 -4.9 0 -77.1 0 -77.1 15.4 -15.5 c8.5 -8.6 16.2 -17.2 17.2 -19.1 1 -1.9 2.2 -6 2.8 -9 1.4 -7.4 1.3 -264.3 -0.1 -272 -0.5 -3 -1.5 -6.8 -2.2 -8.5 -0.7 -1.6 -8.3 -10.1 -16.9 -18.8 l-15.7 -15.8 -0.3 -77.6 -0.2 -77.7 12.3 -12.3 12.3 -12.3 362.7 0 c313.7 0 363.2 0.2 365.5 1.4 1.5 0.8 7.2 6 12.7 11.6 l10 10.2 0.3 78.5 0.2 78.6 -15.3 15.6 c-8.7 8.8 -16.2 17.3 -17.3 19.6 -1.8 3.9 -1.9 8.8 -1.9 144 l0 140 2.5 4.2 c1.4 2.3 9.1 10.9 17.3 19.1 l14.7 14.9 0 78 c0 75 -0.1 78.1 -1.9 80.4 -1 1.3 -6.3 7 -11.7 12.7 l-9.9 10.2 -363 0 c-260.7 -0.1 -363.6 -0.4 -365 -1.2z m735.7 -15 l10.8 -11.3 0 -75.4 0 -75.4 -14.7 -14.9 c-8.5 -8.5 -15.9 -16.9 -17.3 -19.6 l-2.5 -4.7 0 -142.5 c0 -136.8 0.1 -142.7 1.9 -146.5 1 -2.3 8.3 -10.6 17.2 -19.6 l15.4 -15.6 0 -75.2 0 -75.3 -10.7 -10.9 -10.7 -10.9 -361.1 0 -361 0 -11.2 11.2 -11.3 11.3 0 74.4 0 74.4 15.9 16.1 c8.8 8.9 16.5 17.5 17.2 19.1 0.7 1.7 1.7 5.7 2.2 9 1.4 8.3 1.5 268.9 0.1 277 -0.6 3.3 -2 7.8 -3.1 10 -1.2 2.2 -8.9 10.7 -17.2 19 l-15.1 15 0 74.7 0 74.7 11.1 11.5 11.1 11.6 361.2 0 361.1 0 10.7 -11.2z"/>
  <path d="M103.5 703 c-9.6 -2.3 -17.9 -9 -22 -17.5 -2 -4.3 -2.5 -6.9 -2.5 -13.3 0 -10.8 2 -16.9 7.7 -23.2 8 -8.9 20.6 -13.4 31 -11 12.2 2.6 20.4 8.4 24.7 17.5 2.5 5.2 3.4 20 1.5 25.8 -5 15.9 -23.6 25.9 -40.4 21.7z m21.9 -7.5 c4.9 -2.8 12.6 -11.9 12.6 -14.8 0 -0.9 0.5 -1.9 1 -2.2 1.9 -1.2 1.1 -13.3 -1.2 -18.8 -4 -9.4 -9.9 -14.2 -20.5 -16.7 -5.6 -1.3 -12.7 -0.3 -18.4 2.6 -4.7 2.3 -11.8 11.2 -13.4 16.7 -1.7 5.7 -2 16.3 -0.5 17.2 0.6 0.3 1 1.4 1 2.3 0 2.4 8.5 11.9 12.3 13.9 5.4 2.8 8 3.3 15.2 2.9 5.6 -0.2 8.1 -0.9 11.9 -3.1z"/>
  <path d="M657.2 702.2 c-7 -2.5 -14.5 -9.2 -18.1 -16.2 -2.4 -4.8 -4.5 -14.2 -3.8 -17.6 2.6 -13.9 8.8 -23 18.2 -27.3 12.3 -5.6 23.9 -4.7 34.7 2.5 6.1 4 7.2 5.3 10.3 11.8 3.2 6.6 3.5 8.1 3.5 15.8 0 7.3 -0.4 9.3 -2.9 14.4 -3.3 6.9 -9.2 12.7 -15.9 15.6 -6.9 2.9 -19.2 3.4 -26 1z m23.8 -5.6 c3.7 -1.9 12 -9.4 12 -10.9 0 -0.4 0.9 -2.7 2 -4.9 2.1 -4.3 2.8 -15.5 1.2 -17.3 -0.5 -0.6 -1.5 -2.6 -2.2 -4.5 -5.5 -14.2 -24.2 -20.8 -38 -13.4 -5.9 3.2 -11.7 11 -14.4 19.3 -1.9 6 -1.3 10.6 2.5 18.2 2.4 4.7 10.9 13 15.1 14.6 4.6 1.8 17.4 1.1 21.8 -1.1z"/>
  <path d="M427.3 660.8 l-2.3 -1.1 -0.2 -64.1 -0.3 -64.1 -132 -0.5 c-72.6 -0.3 -132.1 -0.6 -132.2 -0.8 -0.2 -0.1 -0.3 -19.8 -0.3 -43.7 l0 -43.4 7.3 -8.3 c3.9 -4.6 8.6 -9.9 10.3 -11.8 21.8 -24.5 27.6 -31.2 36.6 -42.4 3.5 -4.3 9.1 -11.3 12.6 -15.5 16.5 -20.1 49.8 -63 65.2 -84 5.8 -8 13.7 -18.7 17.6 -24 10.4 -14.2 36.5 -52.7 49.9 -73.8 2.7 -4.3 7.4 -11.6 10.4 -16.3 10.8 -16.9 30.3 -51.3 40.6 -71.7 5.8 -11.4 11.3 -21.4 12.2 -22.1 1.3 -0.9 14.6 -1.2 58.4 -1.2 31.2 0 57.4 0.3 58.3 0.6 1.5 0.6 1.6 17.8 1.6 185.4 0 167.6 0.1 184.8 1.6 185.4 0.9 0.3 19.5 0.6 41.4 0.6 21.9 0 40.5 0.3 41.4 0.6 1.4 0.5 1.6 5.3 1.6 42.9 0 37.6 -0.2 42.4 -1.6 42.9 -0.9 0.3 -19.7 0.6 -41.8 0.6 -29.9 0 -40.5 0.3 -41.4 1.2 -0.9 0.9 -1.2 16.7 -1.2 64.9 0 57.2 -0.2 63.7 -1.6 64.3 -2.9 1.1 -109.7 0.5 -112.1 -0.6z m108.7 -66.2 c0 -34.3 0.3 -63.2 0.6 -64.1 1.7 -4.2 4.3 -4.5 45.9 -4.5 l39.5 0 0 -38.5 0 -38.5 -39 0 c-37.2 0 -39.3 -0.1 -43 -2 l-4 -2 0 -184 0 -184 -54.9 0 -54.8 0 -10.8 21.2 c-5.9 11.7 -15.5 29.4 -21.3 39.3 -5.7 9.9 -11.2 19.4 -12.2 21 -0.9 1.7 -4.2 6.8 -7.1 11.5 -3 4.7 -7.7 12 -10.4 16.3 -13.4 21.1 -39.5 59.6 -49.9 73.8 -3.9 5.3 -11.8 16 -17.6 24 -15.4 21 -48.5 63.8 -65.2 84 -3.5 4.2 -10.7 13 -16 19.5 -8.2 10.1 -16.3 19.4 -33.2 38.4 -1.7 1.9 -6.4 7.2 -10.4 11.8 l-7.2 8.3 0 39.9 0 40 129.6 0 c130.7 0 132.4 0 134.6 3.4 0.4 0.6 0.8 29.6 0.8 64.4 l0 63.2 53 0 53 0 0 -62.4z"/>
  <path d="M269.3 447.9 c-5.6 -1.6 -4.5 -4.9 5 -16.1 11.1 -13.1 26.4 -31.9 36.8 -45.3 4.7 -6 13.9 -17.8 20.5 -26.1 6.5 -8.3 15.3 -19.8 19.4 -25.5 4.1 -5.7 9.6 -13.1 12.1 -16.5 2.6 -3.4 8.6 -12 13.5 -19 4.9 -7.1 11.2 -16.3 14.1 -20.4 2.8 -4.1 8.3 -12.7 12.1 -19 3.8 -6.3 9.1 -15.1 11.8 -19.5 2.7 -4.4 5.5 -9.2 6.3 -10.7 1.8 -3.5 3.8 -4.2 6.7 -2.3 l2.4 1.5 0 107.8 c0 59.2 -0.4 108.2 -0.8 108.8 -2.2 3.3 -4.7 3.4 -80.9 3.3 -43.9 0 -77.2 -0.5 -79 -1z m155.5 -108.9 l0.2 -104.5 -5.1 8.5 c-2.9 4.7 -8.3 13.7 -12.1 20 -3.8 6.3 -9.9 15.8 -13.5 21 -3.6 5.2 -10 14.5 -14.2 20.5 -4.2 6.1 -9.6 13.7 -12.1 17 -2.5 3.3 -7.9 10.7 -12 16.4 -4.1 5.7 -13.6 18.1 -21 27.5 -7.4 9.4 -16.6 21.2 -20.5 26.1 -6.6 8.6 -19.5 24.4 -32.8 40.4 -3.4 4.1 -7 8.5 -8 9.8 l-1.9 2.3 76.4 -0.2 76.3 -0.3 0.3 -104.5z"/>
  <path d="M105.9 89 c-7.8 -1.3 -16 -6.2 -20.5 -12.2 -5.1 -6.8 -6.4 -10.7 -6.4 -19.7 0 -14.9 6 -25.4 17.8 -30.8 5 -2.3 7 -2.7 15.7 -2.7 9 0 10.6 0.3 15.5 2.8 7.1 3.6 10.2 7 14.9 16.1 2.4 4.5 2.7 18.5 0.6 25 -1.9 6.3 -7.8 13.4 -13.8 16.9 -6.6 3.8 -16.5 5.7 -23.8 4.6z m12.2 -5.5 c5.2 -0.7 7.3 -2 14 -8.6 13.6 -13.5 8.2 -38.7 -9.7 -45 -8.1 -2.9 -17.1 -2.3 -24.3 1.6 -6.2 3.4 -9.1 7.1 -12 15.1 -2.2 6.3 -2.9 16.8 -1.1 17.9 0.6 0.3 1 1.3 1 2.2 0 3.1 7.8 11.9 12.7 14.3 5 2.5 10.7 4 13.3 3.5 0.8 -0.2 3.6 -0.6 6.1 -1z"/>
  <path d="M659 88.1 c-8.4 -2.6 -18.1 -11.3 -20.8 -18.6 -3 -8.3 -3.6 -13.3 -2.2 -19.2 2.7 -11.7 9 -19.6 19.7 -24.6 3.9 -1.8 6.5 -2.2 14.3 -2.1 8.2 0 10.2 0.4 14.6 2.7 6 3 12.6 10.2 15.4 16.5 2.7 6.1 2.8 19.2 0.1 25.4 -4 9.5 -9 14.6 -18.6 18.9 -4.2 2 -17.5 2.5 -22.5 1z m24.3 -7.8 c11.7 -7.7 17 -23.8 11.6 -35 -3.5 -7.3 -10.1 -13.7 -16 -15.6 -17.1 -5.6 -32.1 3 -37.6 21.5 -1.4 5 -1.4 5.6 0.7 11.9 1.7 4.8 3.7 8.2 7.4 12.4 6.4 7 10.4 8.6 21.1 8.3 7.1 -0.3 8.6 -0.7 12.8 -3.5z"/>
 </g>
</svg>