<?xml version="1.0" standalone="yes"?>
<svg xmlns="http://www.w3.org/2000/svg" width="557" height="516">
<path style="fill:#00ff00; stroke:none;" d="M18 1.72223L16 3.11108L15 4.02777L13 6L12 7L9 10L7 12L6 13L4.02778 15L3.11111 16L1.72222 18L1.33333 19L1.11111 20L1 22L1 23L1 26L1 40L1 88L1 117L1 122L1 124L1 125L1.02778 127L1.11111 128L1.72222 130L3.11111 132L4.02778 133L6 135L8 137L10 139L10.9722 140L11.9167 141L13.6111 143L15.2222 144.917L17 146.611L17.9167 147.389L19.6111 149.083L20.3611 150.028L21.8333 152L22.5556 153L23.7222 155L24.1667 156L24.6111 157L25.3056 159L25.5833 160L25.7778 161L25.9167 162L26 164L26 165L26 166L26 168L26 179L26 214L26 323L26 346L26 351L26 353L25.9722 354L25.9167 355L25.5833 357L25 359L24.6667 360L23.9167 362L23.4444 363L22.9167 364L22.2778 365L21.5833 366L19.9167 368L18.9722 369L18 370L16 372L15 373L13 375L8 380L6 382L4.02778 384L2.33333 386L1.72222 387L1.33333 388L1.11111 389L1 391L1 392L1 395L1 410L1 458L1 488L1 492L1 494L1 495L1.08333 497L1.5 499L1.94444 500L3.25 502L5.02778 504L7 506L9 508L11 510L13 512L14 512.972L15 513.889L17 515.278L19 515.889L20 515.972L22 516L24 516L27 516L49 516L127 516L223 516L424 516L507 516L530 516L533 516L535 516L537 515.972L538 515.889L540 515.278L542 513.889L543 512.972L545 511L546 510L549 507L551 505L552 504L553 503L554.889 501L556.278 499L556.667 498L556.889 497L557 495L557 494L557 491L557 477L557 429L557 427L557 400L557 395L557 393L557 392L557 391L556.889 389L556.278 387L554.889 385L553.972 384L552 382L550 380L544 374L542 372L541 371L540 370L538.083 368L536.417 366L535.028 364L534.417 363L533.417 361L533.028 360L532.417 358L532.222 357L532.083 356L532 354L532 353L532 352L532 350L532 339L532 303L532 194L532 172L532 168L532 166L532 164L532.083 162L532.222 161L532.417 160L532.694 159L533.389 157L533.833 156L534.778 154L535.25 153L536.472 151L538.083 149L540 147L542 145L543 144L545 142L550 137L552 135L553.972 133L555.667 131L556.278 130L556.667 129L556.889 128L557 126L557 125L557 122L557 108L557 60L557 30L557 26L557 24L557 22L556.972 21L556.889 20L556.667 19L555.667 17L553.972 15L552 13L551 12L548 9L546 7L545 6L543 4.02777L542 3.11108L540 1.72223L539 1.33337L537 1.02777L535 1L533 1L528 1L506 1L432 1L376 1L135 1L52 1L29 1L25 1L23 1L22 1L20 1.11108L18 1.72223M21 4.33331L23 4.02777L24 4L26 4L28 4L33 4L58 4L143 4L427 4L509 4L528 4L531 4L533 4L535 4.02777L537 4.33331L538 4.72223L540 6.11111L541 7.02777L543 9L545 11L548 14L549 15L550.972 17L552.667 19L553.667 21L553.889 22L553.972 23L554 24L554 25L554 28L554 45L554 104L554 120L554 123L554 124L553.889 126L553.278 128L551.889 130L550.972 131L549 133L547 135L540 142L538 144L536.028 146L535.083 147L533.472 149L532.25 151L531.778 152L531.25 153L530.389 155L529.694 157L529.417 158L529.222 159L529.083 160L529 162L529 164L529 166L529 171L529 192L529 259L529 326L529 347L529 352L529 354L529 356L529.083 358L529.222 359L529.417 360L530.028 362L530.417 363L531.417 365L532.028 366L533.417 368L535.083 370L537 372L538 373L539 374L541 376L547 382L549 384L550.972 386L551.889 387L553.278 389L553.889 391L554 393L554 394L554 395L554 398L554 400L554 464L554 485L554 491L554 493L553.972 494L553.889 495L553.278 497L551.889 499L550 501L549 502L548 503L546 505L544 507L543 508L542 509L540 510.889L538 512.278L537 512.667L535 512.972L534 513L532 513L530 513L525 513L500 513L415 513L133 513L49 513L29 513L26 513L24 513L22 512.972L21 512.889L19 512.278L17 510.889L16 509.972L15 509L13 507L12 506L10 504L9 503L8.02778 502L6.25 500L4.94444 498L4.5 497L4.08333 495L4 493L4 492L4 491L4 489L4 474L4 414L4 397L4 394L4 393L4.11111 391L4.72222 389L6.11111 387L7.02778 386L9 384L11 382L16 377L18 375L19 374L20 373L21.9722 371L22.9167 370L24.5833 368L25.9167 366L26.9167 364L27.6667 362L28.3056 360L28.7778 358L28.9167 357L29 355L29 353L29 351L29 346L29 324L29 257L29 192L29 171L29 166L29 164L29 162L28.9167 160L28.7778 159L28.5833 158L28.3056 157L27.6111 155L27.1667 154L26.7222 153L25.5556 151L24.8333 150L23.3611 148L22.6111 147.028L21.7778 146.083L20 144.389L19.0833 143.611L18.2222 142.778L17.3889 141.917L16.6111 140.972L14.9167 139L13.9722 138L13 137L11 135L9 133L7.02778 131L6.11111 130L4.72222 128L4.11111 126L4 124L4 123L4 122L4 119L4 53L4 32L4 26L4 24L4.02778 23L4.11111 22L4.72222 20L5.33333 19L6.11111 18L8 16L9 15L11 13L14 10L15 9L17 7.02777L18 6.11111L20 4.72223L21 4.33331M72 14.4167L70 15.0278L69 15.3889L67 16.2778L65 17.4722L64 18.25L63 19.0833L61.0278 21L59.25 23L58.4722 24L57.25 26L56.7778 27L56.25 28L55.4722 30L55 32L54.6111 34L54.2222 36L54.0833 37L54.0833 39L54.3889 41L54.8056 43L55.1944 45L55.4167 46L56.0278 48L56.4167 49L57.4167 51L58.6944 53L60.2222 54.9722L61.0833 55.9167L63 57.5833L65 58.9722L66 59.5833L68 60.5833L69 60.9722L71 61.5833L72 61.7778L73 61.9167L75 62L76 62L77 62L79 62L81 62L82 62L84 61.9167L86 61.5833L87 61.3055L89 60.5833L91 59.5833L92 58.9722L94 57.5833L95.9722 55.9167L97.75 54L98.5278 53L99.75 51L100.222 50L100.75 49L101.528 47L101.778 46L102 45L102.389 43L102.611 42L102.917 40L103 38L102.972 37L102.917 36L102.611 34L102.361 33L101.861 31L101.611 30L100.972 28L100.583 27L99.5833 25L98.3056 23L97.5833 22.0278L95.9167 20.2222L94.9722 19.4167L94 18.6945L92 17.3889L91 16.8333L90 16.2778L88 15.3889L86 14.6945L85 14.4167L84 14.2222L83 14.0833L81 14L80 14L78 14L76 14L74 14.0833L72 14.4167M473 14.4167L472 14.6945L470 15.3889L468 16.2778L467 16.8333L466 17.3889L464 18.6945L463.028 19.4167L461.222 21.0833L459.694 23L459.028 24L458.389 25L457.278 27L456.444 29L456.167 30L455.861 31L455.389 33L455.083 35L455.028 36L455 38L455.028 40L455.083 41L455.389 43L455.639 44L455.861 45L456.444 47L457.25 49L457.778 50L458.861 52L459.472 53L460.25 54L462.028 55.9167L463 56.7778L465 58.3055L467 59.5833L469 60.5833L471 61.3055L472 61.5833L474 61.9167L476 62L477 62L478 62L480 62L482 62L483 62L485 61.9167L487 61.5278L488 61.1389L489 60.75L490 60.2222L492 59.1667L493 58.6111L495 57.3055L495.972 56.5833L497.75 54.9167L498.528 53.9722L499.75 52L500.222 51L501.222 49L501.75 48L502.556 46L503.139 44L503.361 43L503.611 42L503.917 40L503.972 38L503.917 37L503.611 35L503.389 34L503 32L502.778 31L502.528 30L501.75 28L501.222 27L500.75 26L499.528 24L498.75 23L496.972 21L495 19.0833L494 18.25L493 17.4722L491 16.2778L489 15.3889L488 15.0278L486 14.4167L484 14.0833L482 14L481 14L479 14L477 14L475 14.0833L473 14.4167M75 17.2222L77 17.0278L78 17L80 17.0278L81 17.0833L83 17.4167L84 17.6945L86 18.3889L87 18.8333L88 19.2778L89 19.8333L90 20.3889L91.9722 21.6945L92.9167 22.4167L94.5833 24.0833L95.3056 25.0278L96.5833 27L97.1111 28L97.5833 29L97.9722 30L98.6111 32L98.8611 33L99.3611 35L99.6111 36L99.8333 38L99.75 39L99.6111 40L99.1944 42L98.7778 44L98.5278 45L97.75 47L97.2222 48L96.1389 50L95.5278 51L93.9167 52.9167L92 54.5833L91 55.3055L89 56.5833L88 57.1111L87 57.5833L85 58.3055L84 58.5833L83 58.7778L82 58.9167L80 59L79 59L77 59L75 58.9167L74 58.7778L73 58.5833L71 57.9722L70 57.5833L68 56.5833L67 55.9722L66 55.3055L65.0278 54.5833L63.2222 52.9167L61.6944 51L61.0278 50L60.4167 49L59.4167 47L59.0278 46L58.6944 45L58.4167 44L58 42L57.6389 40L57.4722 39L57.4722 37L57.8056 35L58.2222 33L58.4722 32L59.25 30L59.7778 29L60.25 28L61.4722 26L62.25 25L64.0278 23.0278L66 21.25L67 20.4722L68 19.8611L70 18.8333L71 18.3889L73 17.6945L74 17.4167L75 17.2222M476 17.2222L478 17.0278L479 17L480 17L482 17.0833L484 17.4167L485 17.6945L487 18.3889L488 18.8333L490 19.8611L491 20.4722L492 21.25L493.972 23.0278L495.75 25L496.528 26L497.75 28L498.222 29L498.75 30L499.528 32L499.778 33L500.194 35L500.389 36L500.694 38L500.583 40L500.361 41L499.833 43L499.556 44L498.75 46L498.222 47L497.778 48L497.222 49L496.75 50L495.528 51.9167L494.75 52.7778L493.917 53.5833L492.972 54.3055L491 55.6111L490 56.1667L488 57.2222L487 57.75L485 58.5278L484 58.75L483 58.9167L481 59L480 59L478 59L476 58.9167L474 58.5833L472 57.9722L471 57.5833L469 56.5833L467 55.3055L465.028 53.7778L464.083 52.9167L462.472 51L461.25 49L460.778 48L460.25 47L459.444 45L459.167 44L458.639 42L458.389 41L458.083 39L458.083 37L458.222 36L458.639 34L459.167 32L459.444 31L460.278 29L461.389 27L462.694 25.0278L463.417 24.0833L464.222 23.2222L466.028 21.6945L468 20.3889L469 19.8333L471 18.8333L472 18.3889L474 17.6945L475 17.4167L476 17.2222M302 50L301 51.5L300.778 52.0555L300.222 53.0555L299.833 54L299.361 55L298.944 56L297.944 58L296.833 60L296.25 61L295.778 62L294.778 64L294.222 65L293.778 66L293.222 67L292.778 68L291.75 70L291.167 71L290.056 73L289.056 75L288.639 76L288.167 77L287.75 78L287.222 79L286.75 80L286.167 81L285.611 82L284.389 84L283.806 85L282.611 87L281.389 89L280.25 91L279.75 92L278.611 94L277.389 96L276.194 98L275.611 99L274.389 101L273.25 103L272.75 104L271.611 106L270.389 108L269.25 110L268.75 111L267.611 113L266.972 114L265.667 116L264.333 118L263.667 119L263.028 120L262.389 121L261.806 122L260.611 124L259.333 126L258.667 127L257.333 129L254 134L252.667 136L251.389 138L250.194 140L249.611 141L248.972 142L248.333 143L247 145L245.667 147L245 148L243.611 150L242.861 151L242.139 152L240.694 154L239.389 156L238.806 157L238.167 158L237.556 159L236.833 160L236.139 161L235.389 162L234 164L232.667 166L230.667 169L230 170L229.306 171L228.611 172L227.139 174L226.389 175L225.694 176L224.306 178L223.611 179L222.861 180L221.389 182L220.694 183L219.306 185L218.611 186L217.139 188L216.361 189L215.639 190L214.861 191L214.139 192L212.639 194L211.861 195L210.389 197L209.694 198L209 199L207.667 201L207 202L205.583 204L204 206L202.389 208L200.861 210L200.139 211L198.639 213L197.861 214L197.139 215L196.361 216L194.861 218L194.139 219L192.611 221L191.806 222L190.194 224L189.389 225L187.861 227L187.139 228L186.361 229L185.611 230L184.806 231L183.194 233L182.389 234L180.861 236L180.139 237L179.361 238L177.861 240L176.361 242L175.611 243L174.778 244L173.944 245L173.056 246L171.389 248L170.639 249L169.139 251L168.361 252L167.611 253L165.944 255L164.222 257L162.611 259L160.944 261L160.056 262L158.389 264L156.778 266L155.056 268L153.389 270L152.611 271L151.806 272L150.194 274L149.389 275L148.611 276L146.944 278L146.056 279L144.389 281L142.778 283L141.917 284L140.083 286L139.222 287L137.611 289L135.917 291L134.972 292L133.028 294L132.083 295L130.389 297L129.611 298L127.917 300L126.972 301L125.028 303L124.083 304L122.389 306L121.611 307L119.917 309L118.028 311L117.083 312L115.5 314L114.5 316L114.25 317L114.028 319L114 321L114 323L114 335L114 378L115 379L303 379L304 380L304 470L305 471L385 471L386 470L386 380L387 379L447 379L448 378L448 318L447 317L387 317L386 316L386 51L385 50L302 50M383 53L383 120L383 249L383 299L383 307L383 310L383 311L383 313L383.028 314L383.111 315L383.722 316.972L384.333 317.889L385.111 318.667L387 319.667L388 319.889L389 319.972L391 320L392 320L394 320L400 320L445 320L445 376L401 376L394 376L392 376L391 376L389 376.028L388 376.111L386.028 376.722L385.111 377.333L384.333 378.111L383.333 380L383.111 381L383.028 382L383 383L383 385L383 387L383 390L383 401L383 468L307 468L307 402L307 386L307 384L307 383L306.889 381L306.667 380L305.667 378.111L304.889 377.333L303 376.333L302 376.111L301 376.028L299 376L297 376L293 376L258 376L117 376L117 336L117 325L117 323L117.028 321L117.25 319L117.5 318L118.5 316L120.083 314L121.028 313L122.917 311L123.778 310L125.389 308L127.083 306L128.028 305L129.972 303L130.917 302L132.611 300L133.389 299L135.083 297L136.028 296L137.972 294L138.917 293L140.611 291L142.222 289L143.083 288L144.917 286L146.611 284L148.222 282L149.944 280L151.611 278L152.389 277L153.194 276L154.806 274L155.611 273L156.389 272L158.056 270L159.778 268L161.389 266L163.056 264L163.944 263L165.611 261L167.222 259L168.944 257L170.611 255L171.361 254L172.139 253L173.639 251L174.389 250L176.056 248L176.944 247L177.778 246L178.611 245L179.361 244L180.861 242L182.361 240L183.139 239L183.861 238L185.389 236L186.194 235L187.806 233L188.611 232L190.139 230L190.861 229L191.639 228L192.389 227L193.194 226L194.806 224L195.611 223L197.139 221L197.861 220L199.361 218L200.139 217L200.861 216L201.639 215L203.139 213L203.861 212L205.389 210L207 208L208.583 206L210 204L210.667 203L212 201L212.694 200L213.389 199L214.861 197L215.639 196L216.361 195L217.139 194L217.861 193L219.361 191L220.139 190L221.611 188L222.306 187L223.694 185L224.389 184L225.861 182L226.611 181L227.306 180L228.694 178L229.389 177L230.139 176L231.611 174L232.306 173L233 172L233.667 171L235.667 168L237 166L238.389 164L239.139 163L240.556 161L241.167 160L241.806 159L243.028 157L244.389 155L245.139 154L246.611 152L248 150L248.667 149L250 147L251.333 145L251.972 144L252.611 143L253.194 142L254.389 140L255.667 138L257 136L260.333 131L261.667 129L262.333 128L263.611 126L264.194 125L265.389 123L266.667 121L267.333 120L268.667 118L269.333 117L269.972 116L270.611 115L271.75 113L272.25 112L273.389 110L274.611 108L275.75 106L276.25 105L277.389 103L278.611 101L279.806 99L280.389 98L281.611 96L282.75 94L283.25 93L284.389 91L285.611 89L286.194 88L287.389 86L288.611 84L289.167 83L289.75 82L290.222 81L290.75 80L291.167 79L291.639 78L292.056 77L293.056 75L293.639 74L294.75 72L295.222 71L295.778 70L296.222 69L297.222 67L297.778 66L298.222 65L299.25 63L299.833 62L300.361 61L300.944 60L301.944 58L302.806 56.0555L303.194 55.0555L303.5 54.5L304 53L383 53M190 319L191 320L276 320L297 320L300 320L302 319.972L303.972 319.667L304.889 319.278L305.667 318.667L306.278 317.889L306.667 316.972L306.889 316L307 314L307 312L307 308L307 279L307 162L306 161L304.5 161.028L302.972 161.333L302.083 161.722L300.417 163.111L299.694 164.028L298.389 166L297.806 167L296.611 169L296 170L294.806 172L294.194 173L293.611 174L292.389 176L291.806 177L290.611 179L289.389 181L288.806 182L287.611 184L286.389 186L285.194 188L284.611 189L283.972 190L283.333 191L282 193L280 196L279.333 197L278 199L277.306 200L276.611 201L275.861 202L274.389 204L273 206L271.667 208L268.333 213L267 215L266.306 216L265.611 217L264.139 219L263.389 220L262.694 221L261.306 223L260.611 224L259.139 226L258.361 227L257.639 228L256.139 230L255.361 231L254.639 232L253.861 233L253.139 234L251.639 236L250.861 237L249.389 239L248.694 240L247.306 242L246.611 243L245.139 245L244.361 246L243.639 247L242.861 248L242.139 249L240.611 251L239.806 252L238.194 254L236.611 256L235 258L233.389 260L231.861 262L231.139 263L230.361 264L229.611 265L228 267L226.389 269L224.806 271L223.194 273L222.389 274L220.861 276L220.139 277L219.361 278L218.611 279L217.806 280L216.194 282L214.611 284L212.944 286L212.056 287L210.389 289L209.611 290L207.944 292L207.056 293L205.389 295L203.806 297L202.194 299L201.389 300L200.611 301L199.806 302L198.194 304L197.389 305L196.611 306L195.806 307L194.194 309L193.389 310L191.889 312L190.694 314L190.333 315L190.028 316.944L190 319M304 165L304 316L303 317L193 317L193.75 315.5L194.222 314.944L194.889 313.944L195.639 313L196.389 312L197.194 311L198.806 309L199.611 308L200.389 307L202 305L203.611 303L204.389 302L205.194 301L206.806 299L207.611 298L208.389 297L210.056 295L210.944 294L212.611 292L213.389 291L215.056 289L215.944 288L217.611 286L219.194 284L220.806 282L221.611 281L222.361 280L223.139 279L223.861 278L225.389 276L226.194 275L227.806 273L229.389 271L231 269L232.611 267L234.139 265L234.861 264L235.639 263L236.389 262L238 260L239.611 258L241.194 256L242.806 254L243.611 253L245.139 251L245.861 250L246.639 249L247.361 248L248.139 247L249.611 245L250.306 244L251.694 242L252.389 241L253.861 239L254.639 238L256.139 236L256.861 235L257.639 234L258.361 233L259.139 232L260.639 230L261.361 229L262.139 228L263.611 226L264.306 225L265.694 223L266.389 222L267.139 221L268.611 219L270 217L271.333 215L274.667 210L276 208L277.389 206L278.861 204L279.611 203L280.306 202L281 201L281.667 200L283.667 197L285.667 194L286.333 193L287.611 191L288.806 189L289.389 188L290.611 186L291.806 184L292.389 183L293.611 181L294.806 179L295.389 178L296.611 176L297.806 174L298.389 173L299.611 171L300.806 169L301.972 167.111L302.611 166.306L302.944 165.778L304 165M73 455.389L72 455.639L70 456.167L69 456.444L67 457.278L66 457.861L65 458.472L63 460.083L62 461.028L60.0833 463L59.25 464L58.4722 465L57.25 467L56.7778 468L56.25 469L55.4722 471L55.2222 472L55 473L54.6111 475L54.2222 477L54.0833 478L54.0833 480L54.3889 482L54.6111 483L55 485L55.4167 487L55.6944 488L56.0278 489L56.4167 490L57.4167 492L58.6944 494L60.2222 495.972L61.0833 496.917L63 498.528L65 499.75L66 500.222L67 500.75L69 501.611L71 502.306L72 502.583L73 502.778L74 502.917L76 503L77 503L79 503L81 503L82 503L84 502.917L86 502.583L87 502.306L89 501.583L91 500.583L92 499.972L94 498.583L94.9722 497.778L95.9167 496.917L97.5833 495L98.3056 494L99.6111 492L100.722 490L101.528 488L101.778 487L102 486L102.389 484L102.611 483L102.917 481L103 479L102.972 478L102.917 477L102.611 475L102.361 474L101.861 472L101.611 471L100.972 469L100.583 468L99.5833 466L98.3056 464L97.5833 463.028L95.9167 461.222L94.9722 460.417L93 459.028L91 457.833L90 457.278L89 456.861L88 456.444L87 456.167L86 455.861L84 455.389L82 455.083L81 455.028L80 455L78 455L77 455L75 455.083L73 455.389M474 455.389L473 455.639L472 455.861L470 456.444L468 457.25L467 457.778L466 458.25L464 459.472L462.083 461.083L461.222 462.028L460.417 463L459.028 465L457.833 467L457.278 468L456.444 470L455.861 472L455.389 474L455.083 476L455.028 477L455 479L455 480L455 481L455.083 483L455.417 485L455.694 486L456.389 488L456.833 489L457.25 490L457.778 491L458.25 492L459.472 494L461.083 495.972L463 497.778L465 499.306L467 500.583L469 501.583L471 502.306L472 502.583L473 502.778L474 502.917L476 503L477 503L478 503L480 503L482 503L483 503L485 502.917L486 502.75L487 502.528L489 501.75L490 501.222L492 500.167L493 499.611L495 498.306L495.972 497.583L497.75 495.917L498.528 494.972L499.806 493L500.361 492L500.944 491L501.917 489L502.278 488L502.806 486L503.194 484L503.611 482L503.778 481L503.917 480L503.917 478L503.611 476L503.389 475L503 473L502.778 472L502.528 471L501.75 469L501.222 468L500.75 467L499.528 465L497.917 463L496.972 462L496 461.028L495 460.083L493 458.472L491 457.278L490 456.861L488 456.167L487 455.861L485 455.389L483 455.083L482 455.028L480 455L479 455L478 455L476 455.083L474 455.389M76 458.222L77 458.083L78 458.028L80 458.083L82 458.389L83 458.639L84 458.861L86 459.444L87 459.861L88 460.278L89 460.833L91 462.028L92.9167 463.417L94.5833 465.083L95.3056 466.028L96.5833 468L97.5833 470L97.9722 471L98.6111 473L98.8611 474L99.3611 476L99.6111 477L99.8333 479L99.75 480L99.6111 481L99.1944 483L98.7778 485L98.5278 486L97.7222 488L96.6111 490L95.9722 491L95.3056 492L93.7778 493.917L91.9722 495.583L91 496.306L90 496.972L89 497.583L87 498.583L86 498.972L84 499.583L83 499.778L82 499.917L80 500L79 500L77 499.972L76 499.917L74 499.583L73 499.306L71 498.611L70 498.167L69 497.75L68 497.222L67 496.75L65.0278 495.528L63.2222 493.917L61.6944 492L60.4167 490L59.4167 488L58.6944 486L58.4167 485L58 483L57.6389 481L57.4722 480L57.4722 478L57.8056 476L58.2222 474L58.4722 473L59.25 471L59.7778 470L60.25 469L61.4722 467L62.25 466L64.0278 464.028L66 462.25L67 461.472L69 460.278L71 459.444L72 459.167L74 458.639L76 458.222M477 458.222L478 458.083L479 458.028L481 458.083L483 458.389L484 458.639L486 459.167L487 459.444L488 459.861L489 460.278L491 461.472L492 462.25L493.972 464.028L495.75 466L496.528 467L497.75 469L498.222 470L498.75 471L499.528 473L499.778 474L500.194 476L500.528 478L500.528 480L500.361 481L500 483L499.583 485L498.917 487L497.944 489L497.361 490L496.806 491L495.528 492.917L494.75 493.778L493.917 494.583L492.972 495.306L491 496.611L490 497.167L488 498.222L487 498.75L485 499.528L483 499.917L482 499.972L480 500L478 500L476 499.917L474 499.583L472 498.972L471 498.583L469 497.583L467 496.306L465.028 494.778L464.083 493.917L462.472 492L461.25 490L460.778 489L460.25 488L459.389 486L458.694 484L458.417 483L458.083 481L458.028 479L458.083 478L458.389 476L458.639 475L459.167 473L459.444 472L460.278 470L460.833 469L462.028 467L463.417 465.028L464.222 464.083L466.028 462.472L467 461.861L469 460.778L470 460.25L472 459.444L474 458.861L475 458.639L477 458.222z"/>
</svg>
