<?xml version="1.0" encoding="utf-8"?>
<!DOCTYPE svg PUBLIC "-//W3C//DTD SVG 20010904//EN" "http://www.w3.org/TR/2001/REC-SVG-20010904/DTD/svg10.dtd">
<svg version="1.0" xmlns="http://www.w3.org/2000/svg" width="780px" height="725px" viewBox="0 0 780 725" preserveAspectRatio="xMidYMid meet">
 <g fill="#00ff00">
  <path d="M15.5 710.3 l-11.5 -11.8 0 -78.5 0 -78.5 14.4 -14.5 c13.7 -13.9 17 -18.2 19.5 -26.1 0.8 -2.6 1.1 -40.1 1.1 -137.5 -0.1 -139.4 -0.1 -139.3 -4.2 -145.7 -1 -1.4 -1.8 -3 -1.8 -3.4 0 -0.4 -6.5 -7.3 -14.5 -15.3 l-14.5 -14.5 0 -75.1 c0 -41.3 -0.3 -76.5 -0.6 -78.1 -0.5 -2.7 0.3 -3.8 9.8 -13.2 5.6 -5.7 11.4 -11.2 12.7 -12.2 2.3 -1.9 11.2 -1.9 365.4 -1.9 l363 0 9 8.8 c5 4.8 10.6 10.3 12.4 12.2 l3.3 3.5 0 77.4 0 77.3 -15.2 15.7 c-8.4 8.6 -16.3 17.6 -17.5 20 l-2.3 4.3 0 139.5 0 139.5 2.6 5.2 c1.7 3.5 7.3 9.9 17.5 20.1 l14.9 15 0 77.5 -0.1 77.5 -11.8 12.3 -11.9 12.2 -364.1 0 -364.1 0 -11.5 -11.7z m733.5 5.7 c0 -1.9 5.1 -5.9 6.7 -5.3 1 0.4 4.3 -2.3 9.9 -7.8 l8.4 -8.4 0 -74.5 0 -74.5 -14.6 -14.5 c-10.5 -10.4 -15.4 -16.1 -17.5 -20.2 l-2.9 -5.7 0 -142.1 0 -142 2.2 -4.8 c1.5 -3.1 7.3 -9.8 17.5 -20.3 l15.3 -15.6 0 -74.6 0 -74.6 -11.2 -11 -11.3 -11.1 -360.6 0 -360.5 0 -10.7 10.6 -10.7 10.5 0 75.7 0 75.7 14.3 14.3 c7.8 7.9 15 16 16.1 18 4.7 9.4 4.6 5.8 4.6 149.9 0 97.7 -0.3 136.7 -1.1 139.2 -3.2 10.2 -5.2 12.9 -19.5 27.2 l-14.4 14.4 0 75.5 0 75.5 10.3 10.7 10.2 10.6 359.8 0.1 c250.1 0.1 359.7 -0.2 359.7 -0.9z"/>
  <path d="M97.5 700 c-6.2 -3.1 -13 -9.5 -15.4 -14.6 -0.7 -1.6 -1.7 -3.7 -2.2 -4.6 -1.2 -2.3 -1.2 -19.3 0 -21.6 0.5 -0.9 1.5 -3 2.2 -4.5 3.4 -7.4 13 -14.7 22.4 -17.2 3.7 -1 12 -1 16 0 4.9 1.2 13.1 6.3 16.9 10.5 6.1 6.8 8.1 12.2 8.1 22.1 0 4.7 -0.5 9.7 -1.1 11 -0.6 1.3 -1.7 3.7 -2.5 5.3 -2.2 4.7 -8.4 10.3 -14.8 13.6 -5.4 2.7 -7 3 -14.8 3 -7.7 0 -9.5 -0.4 -14.8 -3z m26.6 -4 c13.5 -7 20.1 -23.7 14.1 -36.3 -5.2 -11 -15.1 -18 -25 -17.8 -10.5 0.2 -16.3 2.7 -22.1 9.7 -11.9 14.5 -8.5 33.2 7.8 43.5 4.1 2.6 5.5 2.9 12.9 2.9 6.4 0 9.2 -0.5 12.3 -2z"/>
  <path d="M653.2 699.3 c-6 -3.6 -11.2 -8.1 -11.2 -9.6 0 -0.5 -0.8 -2.1 -1.8 -3.5 -3.9 -5.6 -5.3 -17.6 -3 -25.6 1.5 -5.2 7.2 -14 10.6 -16.5 8.6 -6 21.1 -9.1 28.2 -6.9 12.5 3.8 19.2 8.8 23.2 17.5 2.4 5.4 2.8 7.5 2.8 15.5 0 5.1 -0.6 10.9 -1.3 12.9 -2.2 6.4 -8.3 12.7 -15.9 16.5 -6.6 3.3 -7.4 3.5 -16.4 3.3 -8.8 -0.1 -9.8 -0.4 -15.2 -3.6z m29.1 -3.9 c4.8 -2.6 11.4 -9.9 13.5 -14.7 0.7 -1.5 1.2 -6.2 1.2 -10.3 0 -6.3 -0.5 -8.4 -2.9 -13.3 -7.4 -14.5 -24.1 -19.6 -38.2 -11.7 -4.9 2.8 -9.4 7.8 -12.5 14.1 -2.2 4.5 -2.5 15.3 -0.6 19.5 3 6.5 6.3 10.8 10.7 14.2 5.7 4.3 6.4 4.5 16.6 4.7 6.5 0.1 8.3 -0.3 12.2 -2.5z"/>
  <path d="M312 666.9 c-13.3 -0.9 -33.7 -3.5 -45.5 -5.8 -2.7 -0.5 -7.7 -1.4 -11 -1.9 -8.1 -1.4 -23.7 -5.5 -31 -8.2 -3.3 -1.2 -7.5 -2.6 -9.3 -3.1 -2.1 -0.7 -3.6 -1.9 -4.2 -3.5 -0.6 -1.5 -1 -23.6 -1 -53.4 0 -60.4 -0.7 -57.4 11.4 -50.6 9.9 5.6 15.2 8.3 18.2 9.4 1.6 0.6 6.3 2.5 10.4 4.3 4.1 1.7 9.5 3.8 12 4.6 13 4.2 21.1 6.5 26 7.5 3 0.5 7.5 1.4 10 2 11.2 2.4 20.2 3 43 3.1 27.9 0 38.6 -1.4 52 -6.5 16.8 -6.5 29.6 -15 39 -25.9 4.1 -4.8 5.7 -7 9.7 -13.4 2.1 -3.4 4.9 -9.7 6.8 -15.5 1 -3 2.1 -6.4 2.6 -7.5 2 -5.1 3.5 -31.3 2 -36.5 -0.5 -1.9 -1.5 -6.2 -2.1 -9.5 -1.3 -6.6 -2 -8.4 -7.6 -20 -4.6 -9.5 -14.2 -20.1 -24.2 -26.8 -6.7 -4.5 -21.6 -11.1 -32.2 -14.1 -12.3 -3.5 -38.7 -6.5 -59.5 -6.6 -7.9 -0.1 -57.5 1.8 -61.5 2.4 -12.5 1.6 -43.1 3.8 -45.4 3.2 -3.1 -0.8 -3.2 -2.1 -1.6 -21.7 0.5 -6.8 1.5 -19.6 2.1 -28.4 0.5 -8.8 1.5 -22.1 2 -29.5 0.5 -7.4 1.4 -20.2 1.9 -28.5 1.2 -18 2.7 -39.4 3.5 -49 0.3 -3.8 1.2 -17.8 2 -31 0.8 -13.2 1.8 -26.9 2.1 -30.5 0.6 -7.2 1.9 -26.5 3.4 -49.5 2.8 -43.2 3.9 -53.7 5.4 -54.7 1.3 -0.9 310.7 -1.1 313 -0.2 1.4 0.5 1.6 5.9 1.6 50.5 0 27.4 -0.1 50 -0.2 50.1 -0.2 0.2 -48.7 0.5 -107.8 0.8 l-107.5 0.5 -0.7 12 c-0.4 6.6 -1.2 18.8 -1.8 27 -0.6 8.3 -1.4 21.1 -1.8 28.5 -0.4 7.4 -1.1 14.2 -1.4 15 -0.4 0.8 -0.9 10 -1.3 20.3 l-0.6 18.8 11.8 -0.6 c18.6 -1 65.9 -0.8 76.3 0.3 11.9 1.2 22.9 3.4 36.3 7.1 2 0.6 5.2 1.5 7 1.9 3.8 1 21.9 8.5 26.2 10.8 23.4 12.9 36.4 23.2 51.2 40.8 13.5 16.2 22.9 34.5 28.9 56.4 6.4 23.6 9.1 56.8 6.4 77.9 -5.1 38.6 -13.6 63 -31.7 90.5 -12.3 18.8 -37.7 42.5 -59.3 55.4 -8.3 5 -24 12.8 -29 14.4 -1.4 0.5 -6.3 2.2 -11 4 -4.7 1.7 -11.4 3.8 -15 4.6 -3.6 0.9 -8.3 2 -10.5 2.5 -8.7 2.2 -24.8 4.7 -38.5 5.9 -12 1 -54.4 1 -70 -0.1z m70 -4.9 c15.1 -1.4 30 -3.7 41.5 -6.5 29.9 -7.3 55.4 -19.4 78 -37 11.9 -9.3 31.4 -30 38.8 -41.4 18.8 -28.6 26.6 -50.7 31.7 -89.4 2.6 -19.8 0 -50.2 -6.3 -73.2 -10.6 -38.9 -36.8 -72.4 -72.2 -92.3 -9.2 -5.1 -27.2 -13.2 -29.6 -13.2 -0.7 0 -3.8 -0.9 -6.8 -1.9 -3.1 -1.1 -9 -2.6 -13.1 -3.5 -4.1 -0.8 -8.8 -1.8 -10.5 -2.1 -11.2 -2.5 -52.8 -3.5 -89 -2 -7.7 0.3 -14.6 0.1 -15.4 -0.4 -1.1 -0.7 -1.2 -4.5 -0.2 -23.7 0.6 -12.6 1.6 -29 2.1 -36.4 2.4 -33 2.9 -41.3 3.6 -54.3 l0.6 -13.8 2.9 -1.4 c2.4 -1.3 17.5 -1.5 107.9 -1.5 l105 0 0 -46 0 -46 -152.9 0 -152.8 0 -0.7 5.8 c-0.8 5.9 -1.9 20.6 -3.6 46.7 -1.5 23.2 -2.8 42.3 -3.4 49.5 -0.3 3.6 -1.3 17.5 -2.1 31 -0.8 13.5 -1.9 30.1 -2.5 37 -0.5 6.9 -1.4 20.4 -2 30 -0.6 9.6 -1.5 21.6 -2 26.7 -0.6 5 -1 11.8 -1 14.9 0 3.2 -0.5 10.6 -1 16.4 -1.7 17.7 -4.1 55.2 -3.6 55.7 0.5 0.5 29.3 -1.8 42.1 -3.3 4.5 -0.5 54.4 -2.5 62 -2.4 11.2 0.1 36.6 2 44.5 3.4 19.5 3.4 40.5 11.1 52.1 19.1 12.5 8.6 22.2 20.4 26.8 32.5 1.2 3 2.5 6.4 3 7.5 0.5 1.1 1.4 4.7 2.1 8 0.6 3.3 1.6 7.6 2.1 9.5 2.3 7.9 -0.4 38.9 -4.1 47.5 -0.5 1.1 -1.9 4.8 -3.1 8.2 -1.2 3.5 -2.8 6.8 -3.5 7.4 -0.8 0.6 -1.4 1.5 -1.4 2 0 2.9 -11.8 16.6 -20.3 23.5 -10.3 8.4 -30.5 17.9 -43.7 20.6 -13.1 2.7 -18.5 3.1 -41 3.1 -22.8 -0.1 -31.8 -0.7 -43 -3.1 -2.5 -0.6 -7 -1.5 -10 -2.1 -18.3 -3.6 -48.5 -14.7 -64.2 -23.7 -4.2 -2.4 -8 -4.4 -8.3 -4.4 -0.3 0 -0.5 22 -0.5 48.9 0 40.8 0.2 49.2 1.4 50.4 2.4 2.4 26.9 9.9 39.1 11.9 3.3 0.5 8.3 1.4 11 1.9 11.8 2.3 32.2 4.9 45.5 5.8 15.6 1.1 58 1.1 70 0.1z"/>
  <path d="M97.1 85.5 c-8.1 -4.3 -11.2 -7.4 -14.1 -13.3 -1.2 -2.6 -2.6 -5.5 -3.1 -6.4 -1.3 -2.6 -1.1 -16.7 0.4 -20.8 5.4 -15.4 21.2 -24.6 37.8 -21.9 3.4 0.5 8.1 2.1 10.5 3.5 5.2 3 14.4 12.8 14.4 15.3 0 0.9 0.6 2.3 1.3 2.9 1.9 2 1.6 19.9 -0.4 23.7 -0.9 1.7 -2.4 4.4 -3.2 6 -2.4 4.5 -6.4 8 -13.2 11.4 -5.4 2.8 -6.9 3.1 -15 3.1 -8.4 0 -9.5 -0.3 -15.4 -3.5z m27.7 -3.9 c4.7 -2.4 8.5 -6 11.1 -10.6 5.3 -9.2 6.2 -15.4 3.5 -23.1 -2.4 -6.7 -10.8 -16.1 -16.7 -18.4 -5.4 -2.2 -15.9 -2.3 -21.1 0 -5.1 2.2 -12.6 9.9 -15.4 15.7 -5.7 12.3 0.2 28.4 13.2 35.8 4.4 2.6 6.1 3 12.9 3 6.2 0 8.7 -0.5 12.5 -2.4z"/>
  <path d="M656.2 87 c-5.4 -2.4 -14.5 -11 -17.2 -16.2 -1.2 -2.2 -2.4 -6.9 -2.7 -10.4 -1.3 -14.1 4.2 -25.7 15.7 -32.9 l6.5 -4 10.5 0 c9.1 0 11.2 0.3 15.4 2.4 6.6 3.3 12.3 9.1 15.2 15.7 1.9 4.4 2.4 7.2 2.4 13.9 0 4.7 -0.6 10.4 -1.2 12.7 -1.7 5.4 -9.4 13.8 -16.3 17.7 -5 2.9 -6.2 3.1 -14.7 3.1 -7 0 -10.3 -0.5 -13.6 -2z m25.3 -5.5 c5.4 -3.2 11.9 -10.2 14 -15.1 2 -4.9 1.9 -14.5 -0.2 -20.6 -2.1 -5.8 -9 -13.5 -14.5 -16.1 -2.4 -1.1 -6.1 -1.7 -11 -1.7 -12.2 0 -19.9 5 -25.9 16.8 -1.9 3.7 -2.4 6.2 -2.3 11.7 0 8.4 2.1 12.8 9.1 19.6 7.8 7.5 8.8 7.9 18.1 7.9 7.1 0 9 -0.4 12.7 -2.5z"/>
 </g>
</svg>