<?xml version="1.0" standalone="yes"?>
<svg xmlns="http://www.w3.org/2000/svg" width="557" height="516">
<path style="fill:#00ff00; stroke:none;" d="M18 1.72223L16 3.11108L15 4.02777L13 6L12 7L9 10L7 12L6 13L4.02778 15L3.11111 16L1.72222 18L1.33333 19L1.11111 20L1 22L1 23L1 26L1 40L1 88L1 117L1 122L1 124L1 125L1.02778 127L1.11111 128L1.72222 130L3.11111 132L4.02778 133L6 135L8 137L10 139L10.9722 140L11.9167 141L13.6111 143L15.2222 144.917L17 146.611L17.9167 147.389L19.6111 149.083L20.3611 150.028L21.8333 152L22.5556 153L23.7222 155L24.1667 156L24.6111 157L25.3056 159L25.5833 160L25.7778 161L25.9167 162L26 164L26 165L26 166L26 168L26 179L26 214L26 323L26 346L26 351L26 353L25.9722 354L25.9167 355L25.5833 357L25 359L24.6667 360L23.9167 362L23.4444 363L22.9167 364L22.2778 365L21.5833 366L19.9167 368L18.9722 369L18 370L16 372L15 373L13 375L8 380L6 382L4.02778 384L2.33333 386L1.72222 387L1.33333 388L1.11111 389L1 391L1 392L1 395L1 410L1 458L1 488L1 492L1 494L1 495L1.08333 497L1.5 499L1.94444 500L3.25 502L5.02778 504L7 506L9 508L11 510L13 512L14 512.972L15 513.889L17 515.278L19 515.889L20 515.972L22 516L24 516L27 516L49 516L127 516L223 516L424 516L507 516L530 516L533 516L535 516L537 515.972L538 515.889L540 515.278L542 513.889L543 512.972L545 511L546 510L549 507L551 505L552 504L553 503L554.889 501L556.278 499L556.667 498L556.889 497L557 495L557 494L557 491L557 477L557 429L557 427L557 400L557 395L557 393L557 392L557 391L556.889 389L556.278 387L554.889 385L553.972 384L552 382L550 380L544 374L542 372L541 371L540 370L538.083 368L536.417 366L535.028 364L534.417 363L533.417 361L533.028 360L532.417 358L532.222 357L532.083 356L532 354L532 353L532 352L532 350L532 339L532 303L532 194L532 172L532 168L532 166L532 164L532.083 162L532.222 161L532.417 160L532.694 159L533.389 157L533.833 156L534.778 154L535.25 153L536.472 151L538.083 149L540 147L542 145L543 144L545 142L550 137L552 135L553.972 133L555.667 131L556.278 130L556.667 129L556.889 128L557 126L557 125L557 122L557 108L557 60L557 30L557 26L557 24L557 22L556.972 21L556.889 20L556.667 19L555.667 17L553.972 15L552 13L551 12L548 9L546 7L545 6L543 4.02777L542 3.11108L540 1.72223L539 1.33337L537 1.02777L535 1L533 1L528 1L506 1L432 1L376 1L135 1L52 1L29 1L25 1L23 1L22 1L20 1.11108L18 1.72223M21 4.33331L23 4.02777L24 4L26 4L28 4L33 4L58 4L143 4L427 4L509 4L528 4L531 4L533 4L535 4.02777L537 4.33331L538 4.72223L540 6.11111L541 7.02777L543 9L545 11L548 14L549 15L550.972 17L552.667 19L553.667 21L553.889 22L553.972 23L554 24L554 25L554 28L554 45L554 104L554 120L554 123L554 124L553.889 126L553.278 128L551.889 130L550.972 131L549 133L547 135L540 142L538 144L536.028 146L535.083 147L533.472 149L532.25 151L531.778 152L531.25 153L530.389 155L529.694 157L529.417 158L529.222 159L529.083 160L529 162L529 164L529 166L529 171L529 192L529 259L529 326L529 347L529 352L529 354L529 356L529.083 358L529.222 359L529.417 360L530.028 362L530.417 363L531.417 365L532.028 366L533.417 368L535.083 370L537 372L538 373L539 374L541 376L547 382L549 384L550.972 386L551.889 387L553.278 389L553.889 391L554 393L554 394L554 395L554 398L554 400L554 464L554 485L554 491L554 493L553.972 494L553.889 495L553.278 497L551.889 499L550 501L549 502L548 503L546 505L544 507L543 508L542 509L540 510.889L538 512.278L537 512.667L535 512.972L534 513L532 513L530 513L525 513L500 513L415 513L133 513L49 513L29 513L26 513L24 513L22 512.972L21 512.889L19 512.278L17 510.889L16 509.972L15 509L13 507L12 506L10 504L9 503L8.02778 502L6.25 500L4.94444 498L4.5 497L4.08333 495L4 493L4 492L4 491L4 489L4 474L4 414L4 397L4 394L4 393L4.11111 391L4.72222 389L6.11111 387L7.02778 386L9 384L11 382L16 377L18 375L19 374L20 373L21.9722 371L22.9167 370L24.5833 368L25.9167 366L26.9167 364L27.6667 362L28.3056 360L28.7778 358L28.9167 357L29 355L29 353L29 351L29 346L29 324L29 257L29 192L29 171L29 166L29 164L29 162L28.9167 160L28.7778 159L28.5833 158L28.3056 157L27.6111 155L27.1667 154L26.7222 153L25.5556 151L24.8333 150L23.3611 148L22.6111 147.028L21.7778 146.083L20 144.389L19.0833 143.611L18.2222 142.778L17.3889 141.917L16.6111 140.972L14.9167 139L13.9722 138L13 137L11 135L9 133L7.02778 131L6.11111 130L4.72222 128L4.11111 126L4 124L4 123L4 122L4 119L4 53L4 32L4 26L4 24L4.02778 23L4.11111 22L4.72222 20L5.33333 19L6.11111 18L8 16L9 15L11 13L14 10L15 9L17 7.02777L18 6.11111L20 4.72223L21 4.33331M72 14.4167L70 15.0278L69 15.3889L67 16.2778L65 17.4722L64 18.25L63 19.0833L61.0278 21L59.25 23L58.4722 24L57.25 26L56.7778 27L56.25 28L55.4722 30L55 32L54.6111 34L54.2222 36L54.0833 37L54.0833 39L54.3889 41L54.8056 43L55.1944 45L55.4167 46L56.0278 48L56.4167 49L57.4167 51L58.6944 53L60.2222 54.9722L61.0833 55.9167L63 57.5833L65 58.9722L66 59.5833L68 60.5833L69 60.9722L71 61.5833L72 61.7778L73 61.9167L75 62L76 62L77 62L79 62L81 62L82 62L84 61.9167L86 61.5833L87 61.3055L89 60.5833L91 59.5833L92 58.9722L94 57.5833L95.9722 55.9167L97.75 54L98.5278 53L99.75 51L100.222 50L100.75 49L101.528 47L101.778 46L102 45L102.389 43L102.611 42L102.917 40L103 38L102.972 37L102.917 36L102.611 34L102.361 33L101.861 31L101.611 30L100.972 28L100.583 27L99.5833 25L98.3056 23L97.5833 22.0278L95.9167 20.2222L94.9722 19.4167L94 18.6945L92 17.3889L91 16.8333L90 16.2778L88 15.3889L86 14.6945L85 14.4167L84 14.2222L83 14.0833L81 14L80 14L78 14L76 14L74 14.0833L72 14.4167M473 14.4167L472 14.6945L470 15.3889L468 16.2778L467 16.8333L466 17.3889L464 18.6945L463.028 19.4167L461.222 21.0833L459.694 23L459.028 24L458.389 25L457.278 27L456.444 29L456.167 30L455.861 31L455.389 33L455.083 35L455.028 36L455 38L455.028 40L455.083 41L455.389 43L455.639 44L455.861 45L456.444 47L457.25 49L457.778 50L458.861 52L459.472 53L460.25 54L462.028 55.9167L463 56.7778L465 58.3055L467 59.5833L469 60.5833L471 61.3055L472 61.5833L474 61.9167L476 62L477 62L478 62L480 62L482 62L483 62L485 61.9167L487 61.5278L488 61.1389L489 60.75L490 60.2222L492 59.1667L493 58.6111L495 57.3055L495.972 56.5833L497.75 54.9167L498.528 53.9722L499.75 52L500.222 51L501.222 49L501.75 48L502.556 46L503.139 44L503.361 43L503.611 42L503.917 40L503.972 38L503.917 37L503.611 35L503.389 34L503 32L502.778 31L502.528 30L501.75 28L501.222 27L500.75 26L499.528 24L498.75 23L496.972 21L495 19.0833L494 18.25L493 17.4722L491 16.2778L489 15.3889L488 15.0278L486 14.4167L484 14.0833L482 14L481 14L479 14L477 14L475 14.0833L473 14.4167M75 17.2222L77 17.0278L78 17L80 17.0278L81 17.0833L83 17.4167L84 17.6945L86 18.3889L87 18.8333L88 19.2778L89 19.8333L90 20.3889L91.9722 21.6945L92.9167 22.4167L94.5833 24.0833L95.3056 25.0278L96.5833 27L97.1111 28L97.5833 29L97.9722 30L98.6111 32L98.8611 33L99.3611 35L99.6111 36L99.8333 38L99.75 39L99.6111 40L99.1944 42L98.7778 44L98.5278 45L97.75 47L97.2222 48L96.1389 50L95.5278 51L93.9167 52.9167L92 54.5833L91 55.3055L89 56.5833L88 57.1111L87 57.5833L85 58.3055L84 58.5833L83 58.7778L82 58.9167L80 59L79 59L77 59L75 58.9167L74 58.7778L73 58.5833L71 57.9722L70 57.5833L68 56.5833L67 55.9722L66 55.3055L65.0278 54.5833L63.2222 52.9167L61.6944 51L61.0278 50L60.4167 49L59.4167 47L59.0278 46L58.6944 45L58.4167 44L58 42L57.6389 40L57.4722 39L57.4722 37L57.8056 35L58.2222 33L58.4722 32L59.25 30L59.7778 29L60.25 28L61.4722 26L62.25 25L64.0278 23.0278L66 21.25L67 20.4722L68 19.8611L70 18.8333L71 18.3889L73 17.6945L74 17.4167L75 17.2222M476 17.2222L478 17.0278L479 17L480 17L482 17.0833L484 17.4167L485 17.6945L487 18.3889L488 18.8333L490 19.8611L491 20.4722L492 21.25L493.972 23.0278L495.75 25L496.528 26L497.75 28L498.222 29L498.75 30L499.528 32L499.778 33L500.194 35L500.389 36L500.694 38L500.583 40L500.361 41L499.833 43L499.556 44L498.75 46L498.222 47L497.778 48L497.222 49L496.75 50L495.528 51.9167L494.75 52.7778L493.917 53.5833L492.972 54.3055L491 55.6111L490 56.1667L488 57.2222L487 57.75L485 58.5278L484 58.75L483 58.9167L481 59L480 59L478 59L476 58.9167L474 58.5833L472 57.9722L471 57.5833L469 56.5833L467 55.3055L465.028 53.7778L464.083 52.9167L462.472 51L461.25 49L460.778 48L460.25 47L459.444 45L459.167 44L458.639 42L458.389 41L458.083 39L458.083 37L458.222 36L458.639 34L459.167 32L459.444 31L460.278 29L461.389 27L462.694 25.0278L463.417 24.0833L464.222 23.2222L466.028 21.6945L468 20.3889L469 19.8333L471 18.8333L472 18.3889L474 17.6945L475 17.4167L476 17.2222M172 49L171 50L171 53.0555L171 54L170.972 56L170.917 57L170.611 59L170.389 60L170.083 62L170.028 63L170 65L170 66L170 71L170 73L169.972 74L169.917 75L169.611 77L169.389 78L169.083 80L169.028 81L169 83L169 86L169 87L168.972 89L168.917 90L168.611 92L168.389 93L168.083 95L168.028 96L168 98L167.972 99L167.917 100L167.611 102L167.389 103L167.083 105L167.028 106L167 108L167 109L167 112L166.972 114L166.917 115L166.611 117L166.389 118L166.083 120L166.028 121L166 123L166 125L166 128L166 129L165.972 131L165.917 132L165.611 134L165.389 135L165.083 137L165.028 138L165 140L165 141L165 143L164.972 145L164.917 146L164.611 148L164.389 149L164.083 151L164.028 152L164 153L164 155L163.972 157L163.917 158L163.611 160L163.389 161L163.083 163L163.028 164L163 166L163 168L163 171L163 172L162.972 174L162.917 175L162.611 177L162.389 178L162.083 180L162.028 181L162 183L162 184L162 187L161.972 189L161.917 190L161.611 192L161.389 193L161.083 195L161.028 196L161 198L161 199L161 201L161 202L160.972 204L160.917 205L160.611 207L160.389 208L160.083 210L160.028 211L160 213L160 214L160 216L159.917 218L159.611 220L159.389 221L159.083 223L159.028 224L159 226L159 227L159 229L158.972 231L158.917 232L158.611 234L158.389 235L158.083 237L158.028 238L158 240L158 241L158 244L158 245L157.972 247L157.917 248L157.611 250L157.389 251L157.083 253L157.028 254L157 256L157 257L157 259L156.972 261L156.917 262L156.611 264L156.389 265L156.083 267L156.028 268L156 270L156 272L156 279L157 280L162 280L164 280L165 279.972L166 279.917L168 279.611L169 279.389L171 279.083L173 279L175 279L176 279L178 278.972L179 278.917L181 278.611L182 278.389L184 278.083L185 278.028L186 278L187 278L189 278L191 277.972L192 277.917L194 277.611L195 277.389L197 277.083L198 277.028L200 277L202 277L205 277L206 277L208 276.972L209 276.917L211 276.611L212 276.389L214 276.083L215 276.028L217 276L221 276L232 276L240 276L242 276L244 276.028L245 276.083L247 276.389L248 276.611L250 276.917L251 276.972L253 277.028L254 277.083L256 277.389L257 277.611L259 277.917L261 278.028L262 278.083L264 278.389L266 278.778L267 278.944L268 279.056L270 279.417L271 279.694L273 280.333L275 281L276 281.306L277 281.611L279 282.139L280 282.389L281 282.694L282 283L284 283.667L285 284.028L286 284.389L288 285.25L289 285.75L291 286.639L292 287.056L294 288.056L296 289.194L297 289.806L298 290.389L300 291.694L301 292.417L302 293.194L304 294.806L306 296.389L306.972 297.222L307.917 298.083L308.778 299.028L309.611 300L311.194 302L312.806 304L313.583 305L314.972 307L315.611 308L316.75 310L317.222 311L317.778 312L318.222 313L318.75 314L319.611 316L319.972 317L320.667 319L321 320L321.611 322L322.139 324L322.361 325L322.611 326L323 328L323.389 330L323.611 331L323.917 333L323.972 334L324.028 336L324.083 337L324.222 338L324.528 340L324.556 341L324.528 342L324.222 344L324.083 345L324 347L323.917 349L323.611 351L323.389 352L323.222 353L322.944 355L322.778 356L322.611 357L322.361 358L322.139 359L321.611 361L320.972 363L320.194 365L319.389 367L318.611 369L318.167 370L317.722 371L317.167 372L316.611 373L315.389 375L314.167 377L313.528 378L312 380L311.194 381L310.389 382L309.611 383L307.917 385L306.972 386L306 387L304 388.917L302 390.611L301 391.389L299 393L297 394.583L295 395.972L294 396.611L292 397.75L291 398.222L290 398.778L289 399.222L288 399.778L287 400.222L286 400.75L284 401.611L283 401.972L282 402.333L280 403.028L278 403.806L277 404.167L276 404.556L274 405.139L273 405.361L271 405.861L269 406.361L268 406.611L266 406.917L264 407.083L263 407.222L261 407.611L259 407.917L258 407.972L257 408L255 408L253 408.028L252 408.083L250 408.389L248 408.778L247 408.917L245 409L244 409L242 408.917L240 408.611L239 408.389L237 408.083L236 408.028L234 408L231 408L229 407.972L228 407.917L226 407.611L225 407.389L223 407.083L222 407.028L220 406.972L218 406.778L216 406.389L215 406.194L213 405.806L212 405.611L211 405.389L210 405.194L208 404.806L207 404.611L205 404.139L204 403.861L203 403.639L202 403.361L201 403.139L199 402.611L198 402.306L197 402L196 401.667L193 400.667L191 400L189 399.389L187 398.861L186 398.611L184 397.972L182 397.167L181 396.75L180 396.25L178 395.389L176 394.611L175 394.194L173 393.389L171 392.611L169 391.75L168 391.222L167 390.778L166 390.222L165 389.75L163 388.611L161 387.389L159 386.25L158 385.778L157 385.25L155 384.472L154.056 384.25L152.5 384.028L151 384L150 385L150 439L150 453L150 455L150.028 457L150.111 458L150.722 459.889L152.111 461.361L154 462.306L155 462.667L157 463.333L159 464L161 464.667L163 465.306L164 465.611L166 466.139L167 466.361L168 466.639L169 466.861L170 467.139L172 467.639L173 467.861L175 468.389L176 468.694L178 469.306L179 469.583L181 469.944L182 470.056L183 470.222L184 470.389L185 470.611L187 470.917L189 471.083L190 471.222L192 471.611L194 471.917L196 472.083L197 472.222L199 472.611L201 472.944L202 473.056L204 473.389L206 473.778L207 473.917L209 474.028L210 474.083L211 474.222L213 474.611L215 474.917L216 474.972L218 475L219 475L222 475L223 475L225 475.028L226 475.083L228 475.389L229 475.611L231 475.917L232 475.972L234 476L235 476L237 476L248 476L259 476L263 476L265 475.972L266 475.917L268 475.611L269 475.389L271 475.083L273 475L275 475L276 475L278 474.972L279 474.917L281 474.611L283 474.222L284 474.083L286 473.917L287 473.778L289 473.389L290 473.194L292 472.806L293 472.611L294 472.389L296 472.056L297 471.944L299 471.611L301 471.194L303 470.806L304 470.611L305 470.361L306 470.139L307 469.861L308 469.611L310 469L311 468.667L314 467.667L316 467L318 466.389L319 466.139L320 465.833L321 465.556L323 464.75L324 464.25L326 463.389L328 462.611L330 461.75L331 461.222L333 460.25L334 459.833L335 459.389L337 458.611L338 458.167L339 457.722L340 457.167L341 456.611L343 455.389L345 454.25L346 453.75L348 452.611L350 451.389L352 450.167L353 449.556L355 448.139L356 447.361L358 445.861L359 445.139L360 444.361L361 443.639L362 442.861L364 441.361L365 440.611L367 438.917L369 437L370 436L372 434L374 432L375 431L376.972 429L377.917 428L379.611 426L380.389 425L381.222 424L382.056 423L382.944 422L384.611 420L385.361 419L386.139 418L387.611 416L388.972 414L390.194 412L390.806 411L391.389 410L392.667 408L393.333 407L393.972 406L394.611 405L395.75 403L396.222 402L396.778 401L397.222 400L397.778 399L398.222 398L399.222 396L399.75 395L400.167 394L400.611 393L401.389 391L402.194 389L402.611 388L403.333 386L403.667 385L404.333 383L405.333 380L405.667 379L406.306 377L406.611 376L407.139 374L407.361 373L407.611 372L407.806 371L408 370L408.417 368L409 366L409.583 364L409.778 363L410 361L410.083 360L410.389 358L410.611 357L410.917 355L410.972 354L411.083 352L411.389 350L411.611 349L411.917 347L411.972 346L412 344L412 342L412 334L412 325L412 323L412 322L411.972 320L411.917 319L411.611 317L411.389 316L411.083 314L410.972 312L410.917 311L410.611 309L410.222 307L410.056 306L409.944 305L409.611 303L409.361 302L408.861 300L408.639 299L408.139 297L407.861 296L407.639 295L407.361 294L407.139 293L406.611 291L406.306 290L406 289L405.333 287L404.667 285L404.333 284L403.611 282L403.194 281L402.389 279L401.611 277L401.167 276L400.75 275L399.778 273L399.222 272L398.778 271L397.75 269L397.167 268L396.611 267L395.389 265L394.194 263L393.611 262L392.306 260L391.583 259L390.806 258L389.194 256L388.389 255L386.806 253L385.194 251L384.389 250L383.611 249L381.917 247L380.972 246L379 244.083L377 242.389L376 241.611L374 239.917L373 238.972L371 237.083L369 235.417L368 234.694L366 233.306L365 232.611L363 231.167L362 230.444L360 229.194L359 228.611L357 227.389L355 226.25L354 225.75L353 225.167L352 224.639L351 224.056L349 223.056L348 222.639L346 221.75L345 221.25L343 220.389L341 219.611L339 218.806L338 218.389L337 218.028L336 217.667L335 217.333L333 216.667L331 216L330 215.694L329 215.389L327 214.861L326 214.639L325 214.361L324 214.139L323 213.861L321 213.361L320 213.139L319 212.861L317 212.361L316 212.139L315 211.861L313 211.389L311 211.056L310 210.944L309 210.778L308 210.611L307 210.389L305 210.083L304 210.028L302 210L300 210L299 209.972L298 209.917L296 209.611L295 209.389L293 209.083L292 209.028L290 209L288 209L279 209L265 209L260 209L258 209L256 209.083L255 209.222L253 209.611L251 209.917L250 209.972L248 210L247 210L245 210L236 210L236.028 208.5L236.222 206.944L236.611 205L236.917 203L236.972 202L237 201L237.028 199L237.083 198L237.389 196L237.611 195L237.917 193L237.972 192L238 191L238 189L238 184L238 182L238.083 180L238.222 179L238.611 177L238.917 175L238.972 174L239 172L239 171L239 169L239.028 167L239.083 166L239.389 164L239.611 163L239.917 161L239.972 160L240 158L240 157L240 154L240.028 152L240.083 151L240.389 149L240.611 148L240.917 146L240.972 145L241 143L241 142L241 139L241.028 137L241.083 136L241.389 134L241.611 133L241.917 131L241.972 130L242 128L242 126.056L242 123L243 122L396 122L397 121L397 50L396 49L172 49M394 52L394 119L279 119L251 119L248 119L247 119L246 119L244 119.111L243 119.333L241.111 120.333L240.333 121.111L239.722 122.028L239.111 124L239 126L238.972 128L238.917 129L238.611 131L238.389 132L238.083 134L238.028 135L238 137L238 140L238 141L237.972 143L237.917 144L237.611 146L237.389 147L237.083 149L237.028 150L237 152L237 153L237 155L237 156L236.972 158L236.917 159L236.611 161L236.389 162L236.083 164L236.028 165L236 167L236 168L236 170L235.972 172L235.917 173L235.611 175L235.389 176L235.083 178L235.028 179L235 180L235 182L235 186L235 188L234.972 190L234.917 191L234.611 193L234.389 194L234.083 196L234.028 197L234 199L233.972 200L233.917 201L233.611 203L233.389 204L233.083 206L233.028 207L233 208.944L233 209.944L233 212L234 213L246 213L250 213L252 212.972L253 212.917L255 212.611L256 212.389L258 212.083L259 212.028L261 212L265 212L277 212L286 212L288 212L290 212.028L291 212.083L293 212.389L294 212.611L296 212.917L297 212.972L298 213L300 213L302 213.028L303 213.083L305 213.389L306 213.611L307 213.778L308 213.944L309 214.056L311 214.389L313 214.861L314 215.139L315 215.361L317 215.861L318 216.139L319 216.361L321 216.861L322 217.139L323 217.361L324 217.639L325 217.861L327 218.389L328 218.694L329 219L331 219.667L333 220.333L334 220.667L335 221.028L336 221.389L337 221.806L339 222.611L341 223.389L343 224.25L344 224.75L346 225.639L347 226.056L349 227.056L350 227.639L351 228.167L352 228.75L353 229.25L355 230.389L357 231.611L358 232.194L360 233.444L361 234.167L363 235.611L364 236.306L366 237.694L367 238.417L368 239.222L370 241.028L371 241.972L372 242.917L374 244.611L375 245.389L377 247.083L377.972 248.028L378.917 249L380.611 251L381.389 252L382.194 253L383.806 255L385.389 257L386.194 258L387.806 260L388.583 261L389.306 262L390.611 264L391.194 265L392.389 267L393.611 269L394.167 270L394.75 271L395.778 273L396.222 274L396.778 275L397.75 277L398.167 278L398.611 279L399.389 281L400.194 283L400.611 284L401.333 286L401.667 287L402.333 289L403 291L403.306 292L403.611 293L404.139 295L404.361 296L404.639 297L404.861 298L405.139 299L405.639 301L405.861 302L406.361 304L406.611 305L406.944 307L407.056 308L407.222 309L407.611 311L407.917 313L407.972 314L408.083 316L408.389 318L408.611 319L408.917 321L408.972 322L409 323L409 325L409 331L409 340L409 342L408.972 344L408.917 345L408.611 347L408.389 348L408.083 350L407.972 352L407.917 353L407.611 355L407.389 356L407.083 358L407 359L406.778 361L406.583 362L406 364L405.417 366L405 368L404.806 369L404.611 370L404.361 371L404.139 372L403.611 374L403.306 375L402.667 377L402.333 378L401.333 381L400.667 383L400.333 384L399.611 386L399.194 387L398.389 389L397.611 391L397.167 392L396.75 393L396.222 394L395.222 396L394.778 397L394.222 398L393.778 399L393.222 400L392.75 401L391.611 403L390.972 404L390.333 405L389.667 406L388.389 408L387.194 410L386.611 411L385.972 412L384.611 414L383.861 415L382.361 417L381.611 418L379.944 420L379.056 421L377.389 423L376.611 424L374.917 426L373.972 427L373 428L371 430L368 433L366 434.972L365 435.917L363 437.611L361 439.139L360 439.861L359 440.639L358 441.361L357 442.139L356 442.861L354 444.361L353 445.139L351 446.556L350 447.167L348 448.389L346 449.611L344 450.75L343 451.25L341 452.389L339 453.611L338 454.167L337 454.722L336 455.167L335 455.611L333 456.389L332 456.833L331 457.25L329 458.222L328 458.75L326 459.611L324 460.389L322 461.25L321 461.75L319 462.556L318 462.833L317 463.139L316 463.389L314 464L312 464.667L309 465.667L308 466L306 466.611L305 466.861L304 467.139L303 467.361L302 467.611L301 467.806L299 468.194L297 468.611L295 468.944L294 469.056L292 469.389L291 469.611L290 469.806L288 470.194L287 470.389L285 470.778L284 470.917L282 471.083L281 471.222L279 471.611L277 471.917L276 471.972L274 472L273 472L271 472L269 472.083L267 472.389L266 472.611L264 472.917L263 472.972L261 473L259 473L252 473L240 473L237 473L236 473L234 472.972L233 472.917L231 472.611L230 472.389L228 472.083L227 472.028L225 472L224 472L221 472L220 472L218 471.972L217 471.917L215 471.611L214 471.389L212 471.083L210 470.972L209 470.917L207 470.611L206 470.389L204 470.056L203 469.944L201 469.611L200 469.389L198 469.083L196 468.917L194 468.611L193 468.389L191 468.083L189 467.917L187 467.611L186 467.389L184 467.056L182 466.778L181 466.583L179 466L178 465.694L177 465.389L175 464.861L174 464.639L173 464.361L172 464.139L170 463.639L169 463.361L168 463.139L166 462.611L165 462.306L163 461.667L162 461.333L160 460.667L159 460.333L157 459.667L156.056 459.361L155.056 458.972L154.5 458.806L153 458L153 388L154.5 388.278L156.056 388.861L157 389.278L159 390.389L161 391.611L163 392.75L164 393.222L165 393.778L166 394.222L167 394.75L169 395.611L171 396.389L172 396.806L174 397.611L176 398.389L178 399.25L179 399.75L180 400.167L182 400.972L184 401.611L185 401.861L187 402.389L189 403L191 403.667L194 404.667L195 405L196 405.306L197 405.611L199 406.139L200 406.361L201 406.639L202 406.861L203 407.139L205 407.611L206 407.806L208 408.194L209 408.389L210 408.611L211 408.806L213 409.194L214 409.389L215 409.611L217 409.917L218 409.972L220 410.028L221 410.083L223 410.389L224 410.611L226 410.917L227 410.972L229 411L231 411L232 411L234 411.028L235 411.083L237 411.389L238 411.611L240 411.917L241 411.972L243 412L245 412L247 412L248 411.972L249 411.917L251 411.611L252 411.389L254 411.083L255 411.028L257 411L259 411L260 410.972L261 410.917L263 410.611L265 410.222L266 410.083L268 409.917L270 409.611L271 409.361L273 408.861L274 408.639L275 408.361L276 408.139L278 407.556L279 407.167L281 406.389L283 405.667L284 405.333L285 404.972L286 404.611L288 403.75L289 403.222L290 402.778L291 402.222L292 401.778L293 401.222L294 400.75L296 399.611L297 398.972L299 397.583L300 396.806L302 395.194L304 393.611L305 392.778L306 391.917L308 390L309 389L310.917 387L312.611 385L313.389 384L315 382L315.778 381L316.528 380L317.806 378L318.389 377L319.611 375L320.167 374L320.722 373L321.167 372L321.611 371L322.389 369L323.194 367L323.611 366L323.972 365L324.611 363L324.861 362L325.361 360L325.611 359L325.944 357L326.056 356L326.222 355L326.611 353L326.917 351L326.972 350L327.028 348L327.083 347L327.389 345L327.611 344L327.917 342L327.944 341L327.917 340L327.611 338L327.389 337L327.083 335L327.028 334L326.972 332L326.917 331L326.611 329L326.389 328L326 326L325.611 324L325.139 322L324.861 321L324.611 320L324.306 319L323.667 317L322.972 315L322.611 314L321.75 312L321.222 311L320.222 309L319.75 308L319.167 307L318.611 306L317.306 304L315.806 302L314.194 300L312.611 298L310.917 296.028L309.972 295.083L308 293.389L307 292.611L306 291.806L304 290.194L302 288.694L300 287.389L299 286.806L298 286.194L297 285.639L296 285.056L294 284.056L293 283.639L292 283.167L291 282.75L290 282.25L288 281.389L287 281.028L286 280.667L284 280L282 279.389L280 278.861L279 278.611L278 278.306L277 278L275 277.333L273 276.694L272 276.417L270 276.056L269 275.944L268 275.778L266 275.389L264 275.083L263 275.028L261 274.917L259 274.611L258 274.389L256 274.083L255 274.028L253 273.972L252 273.917L250 273.611L249 273.389L247 273.083L246 273.028L244 273L242 273L239 273L226 273L217 273L215 273L213 273.028L212 273.083L210 273.389L209 273.611L207 273.917L206 273.972L204 274L202 274L199 274L197 274L195 274.083L194 274.222L192 274.611L190 274.917L189 274.972L187 275L186 275L184 275L182 275.083L180 275.389L179 275.611L177 275.917L176 275.972L174 276L173 276L171 276L169 276.083L167 276.389L166 276.611L164 276.917L163 276.972L161.056 277L159 277L159 273.944L159 272L159.028 270L159.083 269L159.389 267L159.611 266L159.917 264L159.972 263L160 261L160 260L160 258L160.028 256L160.083 255L160.389 253L160.611 252L160.917 250L160.972 249L161 247L161 246L161 243L161 242L161.028 240L161.083 239L161.389 237L161.611 236L161.917 234L161.972 233L162 231L162 230L162 228L162.028 226L162.083 225L162.389 223L162.611 222L162.917 220L162.972 219L163 217L163 216L163 214L163.083 212L163.389 210L163.611 209L163.917 207L163.972 206L164 204L164 203L164 201L164 200L164.028 198L164.083 197L164.389 195L164.611 194L164.917 192L164.972 191L165 189L165 186L165 185L165.028 183L165.083 182L165.389 180L165.611 179L165.917 177L165.972 176L166 174L166 173L166 170L166 168L166.028 166L166.083 165L166.389 163L166.611 162L166.917 160L166.972 159L167 157L167 155L167.028 154L167.083 153L167.389 151L167.611 150L167.917 148L167.972 147L168 145L168 144L168 142L168.028 140L168.083 139L168.389 137L168.611 136L168.917 134L168.972 133L169 131L169 130L169 127L169 125L169.028 123L169.083 122L169.389 120L169.611 119L169.917 117L169.972 116L170 114L170 111L170 110L170.028 108L170.083 107L170.389 105L170.611 104L170.917 102L170.972 101L171 99L171.028 98L171.083 97L171.389 95L171.611 94L171.917 92L171.972 91L172 89L172 88L172 85L172.028 83L172.083 82L172.389 80L172.611 79L172.917 77L172.972 76L173 75L173 73L173 68L173 67L173.028 65L173.083 64L173.389 62L173.611 61L173.917 59L173.972 58L174 56L174 55.0555L174 52L394 52M73 455.389L72 455.639L70 456.167L69 456.444L67 457.278L66 457.861L65 458.472L63 460.083L62 461.028L60.0833 463L59.25 464L58.4722 465L57.25 467L56.7778 468L56.25 469L55.4722 471L55.2222 472L55 473L54.6111 475L54.2222 477L54.0833 478L54.0833 480L54.3889 482L54.6111 483L55 485L55.4167 487L55.6944 488L56.0278 489L56.4167 490L57.4167 492L58.6944 494L60.2222 495.972L61.0833 496.917L63 498.528L65 499.75L66 500.222L67 500.75L69 501.611L71 502.306L72 502.583L73 502.778L74 502.917L76 503L77 503L79 503L81 503L82 503L84 502.917L86 502.583L87 502.306L89 501.583L91 500.583L92 499.972L94 498.583L94.9722 497.778L95.9167 496.917L97.5833 495L98.3056 494L99.6111 492L100.722 490L101.528 488L101.778 487L102 486L102.389 484L102.611 483L102.917 481L103 479L102.972 478L102.917 477L102.611 475L102.361 474L101.861 472L101.611 471L100.972 469L100.583 468L99.5833 466L98.3056 464L97.5833 463.028L95.9167 461.222L94.9722 460.417L93 459.028L91 457.833L90 457.278L89 456.861L88 456.444L87 456.167L86 455.861L84 455.389L82 455.083L81 455.028L80 455L78 455L77 455L75 455.083L73 455.389M474 455.389L473 455.639L472 455.861L470 456.444L468 457.25L467 457.778L466 458.25L464 459.472L462.083 461.083L461.222 462.028L460.417 463L459.028 465L457.833 467L457.278 468L456.444 470L455.861 472L455.389 474L455.083 476L455.028 477L455 479L455 480L455 481L455.083 483L455.417 485L455.694 486L456.389 488L456.833 489L457.25 490L457.778 491L458.25 492L459.472 494L461.083 495.972L463 497.778L465 499.306L467 500.583L469 501.583L471 502.306L472 502.583L473 502.778L474 502.917L476 503L477 503L478 503L480 503L482 503L483 503L485 502.917L486 502.75L487 502.528L489 501.75L490 501.222L492 500.167L493 499.611L495 498.306L495.972 497.583L497.75 495.917L498.528 494.972L499.806 493L500.361 492L500.944 491L501.917 489L502.278 488L502.806 486L503.194 484L503.611 482L503.778 481L503.917 480L503.917 478L503.611 476L503.389 475L503 473L502.778 472L502.528 471L501.75 469L501.222 468L500.75 467L499.528 465L497.917 463L496.972 462L496 461.028L495 460.083L493 458.472L491 457.278L490 456.861L488 456.167L487 455.861L485 455.389L483 455.083L482 455.028L480 455L479 455L478 455L476 455.083L474 455.389M76 458.222L77 458.083L78 458.028L80 458.083L82 458.389L83 458.639L84 458.861L86 459.444L87 459.861L88 460.278L89 460.833L91 462.028L92.9167 463.417L94.5833 465.083L95.3056 466.028L96.5833 468L97.5833 470L97.9722 471L98.6111 473L98.8611 474L99.3611 476L99.6111 477L99.8333 479L99.75 480L99.6111 481L99.1944 483L98.7778 485L98.5278 486L97.7222 488L96.6111 490L95.9722 491L95.3056 492L93.7778 493.917L91.9722 495.583L91 496.306L90 496.972L89 497.583L87 498.583L86 498.972L84 499.583L83 499.778L82 499.917L80 500L79 500L77 499.972L76 499.917L74 499.583L73 499.306L71 498.611L70 498.167L69 497.75L68 497.222L67 496.75L65.0278 495.528L63.2222 493.917L61.6944 492L60.4167 490L59.4167 488L58.6944 486L58.4167 485L58 483L57.6389 481L57.4722 480L57.4722 478L57.8056 476L58.2222 474L58.4722 473L59.25 471L59.7778 470L60.25 469L61.4722 467L62.25 466L64.0278 464.028L66 462.25L67 461.472L69 460.278L71 459.444L72 459.167L74 458.639L76 458.222M477 458.222L478 458.083L479 458.028L481 458.083L483 458.389L484 458.639L486 459.167L487 459.444L488 459.861L489 460.278L491 461.472L492 462.25L493.972 464.028L495.75 466L496.528 467L497.75 469L498.222 470L498.75 471L499.528 473L499.778 474L500.194 476L500.528 478L500.528 480L500.361 481L500 483L499.583 485L498.917 487L497.944 489L497.361 490L496.806 491L495.528 492.917L494.75 493.778L493.917 494.583L492.972 495.306L491 496.611L490 497.167L488 498.222L487 498.75L485 499.528L483 499.917L482 499.972L480 500L478 500L476 499.917L474 499.583L472 498.972L471 498.583L469 497.583L467 496.306L465.028 494.778L464.083 493.917L462.472 492L461.25 490L460.778 489L460.25 488L459.389 486L458.694 484L458.417 483L458.083 481L458.028 479L458.083 478L458.389 476L458.639 475L459.167 473L459.444 472L460.278 470L460.833 469L462.028 467L463.417 465.028L464.222 464.083L466.028 462.472L467 461.861L469 460.778L470 460.25L472 459.444L474 458.861L475 458.639L477 458.222z"/>
</svg>
