<?xml version="1.0" encoding="utf-8"?>
<!DOCTYPE svg PUBLIC "-//W3C//DTD SVG 20010904//EN" "http://www.w3.org/TR/2001/REC-SVG-20010904/DTD/svg10.dtd">
<svg version="1.0" xmlns="http://www.w3.org/2000/svg" width="1180px" height="660px" viewBox="0 0 1180 660" preserveAspectRatio="xMidYMid meet">
 <g fill="#00ff00">
  <path d="M17.9 639.3 l-9.9 -9.7 0 -69.9 0 -69.9 14.5 -15.3 c8.2 -8.7 14.7 -16.5 15.2 -18.1 0.4 -1.6 0.8 -59.1 0.8 -127.9 l0 -125 -2.2 -3.5 c-1.2 -1.9 -8.1 -9.3 -15.3 -16.5 l-13 -13 0 -70 0 -70.1 10.3 -10.1 10.2 -10.1 13 -0.6 c7.2 -0.3 25.6 -1.1 41 -1.6 15.4 -0.6 37.7 -1.5 49.5 -2.1 11.8 -0.5 32.8 -1.4 46.5 -1.9 13.8 -0.6 35.1 -1.5 47.5 -2.1 12.4 -0.6 50.5 -1.3 84.8 -1.6 l62.2 -0.5 3.8 3.8 c2 2.2 9.9 10.3 17.4 18.2 l13.7 14.2 182.7 0 182.6 0 13.8 -14.2 c7.5 -7.9 15.2 -16 17 -18.2 l3.4 -3.8 62.6 0.5 c34.4 0.3 72.4 1 84.5 1.6 12.1 0.6 33.5 1.5 47.5 2.1 14 0.5 35 1.4 46.5 1.9 11.6 0.6 33.8 1.5 49.5 2.1 15.7 0.5 34.4 1.3 41.5 1.6 l13 0.6 10.5 10.4 10.5 10.3 0.3 69.2 0.2 69.2 -14.9 15.1 c-9.4 9.5 -15.3 16.3 -15.8 18.1 -0.4 1.7 -0.8 59.3 -0.8 128 0 120 0.1 125.1 1.9 128.5 1 1.9 8.1 9.8 15.7 17.6 l13.9 14.1 0 68.1 0 68.2 -9.6 10.4 c-5.2 5.7 -10.2 10.7 -11.1 11 -0.8 0.3 -78.7 0.6 -173 0.6 l-171.6 0 -12.9 -12.7 -12.9 -12.8 -192.4 0 -192.4 0 -12.9 12.8 -12.9 12.7 -172.3 0 -172.3 0 -9.8 -9.7z m363.6 -7.2 c9.2 -9.1 12.9 -12.1 16 -13 5.7 -1.5 380.3 -1.5 386 0 3.1 0.9 6.8 3.9 16 13 l12.1 11.9 169.5 0 169.6 0 9.1 -9.9 9.2 -9.9 0 -65.4 0 -65.3 -13.6 -13.5 c-8.7 -8.6 -14.4 -15.1 -15.8 -18 l-2.1 -4.5 -0.3 -125 c-0.2 -89.6 0.1 -126.6 0.9 -130.5 1.1 -5.3 1.7 -6.1 16 -20.5 l14.9 -15.1 0 -65.8 0 -65.9 -9.7 -9.9 -9.8 -9.8 -24.5 -1 c-13.5 -0.5 -37.1 -1.4 -52.5 -2 -15.4 -0.5 -35.9 -1.4 -45.5 -2 -9.6 -0.5 -31.4 -1.4 -48.5 -2 -17 -0.6 -39.5 -1.6 -50 -2.2 -10.4 -0.5 -41 -1.2 -68 -1.4 l-49 -0.5 -15.5 16.6 c-8.5 9.1 -17.2 17.5 -19.2 18.5 -3.7 2 -7 2 -186.3 2 -180.3 0 -182.6 0 -186.3 -2 -2 -1.1 -10.7 -9.4 -19.2 -18.5 l-15.5 -16.6 -48.5 0.5 c-26.7 0.2 -57.5 0.8 -68.5 1.4 -11 0.6 -33.5 1.6 -50 2.2 -16.5 0.6 -38.3 1.5 -48.5 2 -10.2 0.6 -30.9 1.5 -46 2 -15.1 0.6 -38.5 1.5 -52 2 l-24.5 1 -9.2 9.2 -9.3 9.3 0 66.9 0 67 14.4 14.6 c12 12.1 14.6 15.3 15.3 18.6 1 5.1 1.1 252.7 0 257.8 -0.7 3.1 -3.6 6.8 -15.3 19.2 l-14.4 15.2 0 66.8 0 66.9 8.7 8.7 8.8 8.8 169.4 0 169.5 0 12.1 -11.9z"/>
  <path d="M44.5 583.7 c-13.8 -4.6 -22.8 -18.7 -21.1 -33.1 1.4 -10.8 7.3 -19.3 17 -24.4 4.4 -2.3 6.3 -2.7 14.1 -2.7 8.1 0 9.5 0.3 14.4 3 13.8 7.6 19.8 24.9 13.7 39.7 -3.2 7.8 -6.1 11.1 -13.1 14.9 -4.9 2.7 -7.2 3.3 -13.5 3.6 -4.4 0.2 -9.2 -0.3 -11.5 -1z m20.1 -5.6 c2.3 -1 5.3 -3.2 6.9 -4.7 4.2 -4.5 8.5 -14.2 8.5 -19.4 0 -9.7 -9.5 -22.7 -18.2 -25 -5.2 -1.5 -14.4 -0.8 -18.5 1.4 -6.8 3.4 -13.2 12.6 -14.7 20.8 -1.9 10.3 7.4 24.6 18.2 27.8 4.9 1.5 13.5 1 17.8 -0.9z"/>
  <path d="M1115.4 583 c-6.9 -2.8 -13.2 -8.4 -16 -14.4 -2 -4.2 -2.4 -6.7 -2.4 -14.4 0 -10.5 1.2 -14.3 6.6 -20.9 11.9 -14.5 37.6 -13.2 48.2 2.6 14.3 21.4 1.6 47.6 -23.8 48.8 -5.8 0.2 -8.7 -0.1 -12.6 -1.7z m22.3 -5.4 c1.8 -0.9 4.8 -3.2 6.8 -5.1 8.3 -8.3 10.2 -18.5 5.3 -28.6 -5.6 -11.4 -14.4 -16.7 -25.9 -15.6 -7.5 0.7 -11.3 2.9 -16.9 10.1 -4.4 5.7 -4.5 6 -4.9 14.2 -0.3 7.1 0 8.9 2 13 2.7 5.4 9.8 12 14.3 13.4 4.5 1.4 15.6 0.6 19.3 -1.4z"/>
  <path d="M331.3 525.3 c-1 -0.3 -1.3 -5.4 -1.3 -20.6 l0 -20.2 15.2 -8 15.2 -8 5.4 -15.5 c4.5 -13.2 22.6 -65.2 25.4 -73.1 1.2 -3.6 4.7 -4.9 12.8 -4.9 l6.9 0 7.2 -22.2 c3.9 -12.3 7.9 -24.5 8.9 -27.3 1.1 -2.7 9.6 -28.4 19 -57 9.4 -28.6 21.1 -64.4 26.1 -79.5 l9.1 -27.5 6.1 -5.9 c7.8 -7.6 19.7 -18.7 26.4 -24.9 l5.2 -4.7 83.1 0 83.1 0 5.2 4.7 c19.1 17.5 29.7 27.7 29.7 28.7 0 0.7 1.5 6.2 3.4 12.2 1.9 6 10.9 34.8 20.1 63.9 9.1 29.2 18.7 59.5 21.1 67.5 2.5 8 5.7 18.1 7.1 22.5 3.8 12.2 6.8 21.7 11.3 36.3 l4.1 13.2 9.3 0 c5.1 0 10.6 0.5 12.2 1 3.2 1.1 3.2 1.1 13.3 33.5 14.9 48.3 18.4 59.2 19.4 60.3 0.6 0.8 6.8 4.2 13.8 7.7 6.9 3.5 12.9 7.1 13.3 8 0.3 0.9 0.6 10.1 0.6 20.5 0 16.2 -0.2 18.9 -1.6 19.4 -1.9 0.7 -534.3 0.7 -536.1 -0.1z m532.5 -21 l-0.3 -16.8 -13.4 -7 c-7.4 -3.8 -13.8 -7.7 -14.3 -8.5 -0.4 -0.8 -5.1 -15.4 -10.3 -32.5 -5.3 -17 -11.6 -37.4 -14.1 -45.2 l-4.5 -14.3 -10.7 0 c-7.1 0 -11.4 -0.4 -12.4 -1.2 -1 -0.8 -6.4 -16.5 -12.8 -37.3 -6.1 -19.8 -12.2 -39.4 -13.5 -43.5 -7.2 -22.5 -40.5 -129.2 -41.6 -132.9 -1.1 -3.8 -3.5 -6.5 -17.4 -19.2 l-16 -14.9 -80.5 0 -80.5 0 -4.5 4.3 c-2.5 2.3 -10.5 9.8 -17.8 16.6 l-13.2 12.4 -26.1 79.1 c-14.4 43.5 -30.4 92 -35.6 107.8 -5.3 16.2 -9.9 28.8 -10.6 28.9 -0.7 0 -4.8 0.1 -9.1 0.2 l-8 0.2 -9.2 26.5 c-7.7 22.2 -20.5 59.5 -21.9 63.6 -0.2 0.7 -7.1 4.7 -15.4 9 l-15.1 7.9 0 16.7 0 16.8 264.5 0 264.5 0 -0.2 -16.7z"/>
  <path d="M376.3 497.3 c-2.9 -1.1 -1.3 -4.8 2.8 -6.8 l4.1 -2 7.7 -22.5 c4.3 -12.4 10.6 -30.8 14.1 -41 3.5 -10.2 7 -19.1 7.8 -19.7 1.9 -1.5 78.8 -1.9 81.1 -0.4 1.6 1 1.5 2.1 -4 39.6 -6.8 46.4 -7.7 51.8 -9.1 52.6 -1.4 0.9 -102.4 1.1 -104.5 0.2z m101.2 -5.5 c0.4 -1.2 4.8 -31 9.9 -67 l2.2 -15.8 -36.7 0 -36.7 0 -4.5 13.3 c-15.2 44.8 -24 69.2 -25 69.9 -0.7 0.4 19.4 0.8 44.6 0.8 35.7 0 45.9 -0.3 46.2 -1.2z"/>
  <path d="M507 497 c-1.6 -1 -1 -7.2 3.5 -37 1.3 -8.5 3.6 -24 5.1 -34.4 1.7 -11.1 3.4 -19.5 4.2 -20.2 1.1 -1.2 15.5 -1.4 81.5 -1.4 44.1 0 80.8 0.4 81.6 0.9 0.9 0.6 3.4 15.1 7.9 46 5.7 38.8 6.4 45.4 5.2 46.1 -2 1.3 -187 1.3 -189 0z m179.4 -40.2 c-3 -20 -5.7 -38.8 -6.1 -41.8 l-0.8 -5.5 -78.1 -0.3 -78.1 -0.2 -1.1 7.7 c-0.7 4.3 -2.5 17 -4.2 28.3 -5.5 38.5 -6 41.5 -6.5 44.8 l-0.6 3.2 90.4 0 90.4 0 -5.3 -36.2z"/>
  <path d="M721.4 497.2 c-1.1 -0.6 -11.6 -69.3 -13.1 -84.5 -0.5 -5.4 -0.3 -7.1 0.8 -7.8 2.3 -1.5 79.2 -1.1 81.1 0.4 0.8 0.6 5 12.5 9.2 26.2 18.3 59.1 17.9 57.7 20.8 59.4 3.1 1.8 3.8 5.5 1.2 6.5 -2.3 0.9 -98.7 0.7 -100 -0.2z m91.3 -5.6 c-0.9 -2.3 -23.2 -73.5 -25.3 -80.8 -0.5 -1.7 -3.2 -1.8 -37.5 -1.8 l-37 0 0.6 4.3 c0.3 2.3 3 21.1 6 41.7 3 20.6 5.5 37.5 5.5 37.7 0 0.2 19.8 0.3 44.1 0.3 36.9 0 44 -0.2 43.6 -1.4z"/>
  <path d="M441.3 379.3 c-0.7 -0.2 -1.3 -1.1 -1.3 -2 0 -0.8 8.3 -26.5 18.4 -57.1 10.1 -30.7 24.8 -75.4 32.6 -99.4 l14.4 -43.7 12.3 -11.6 c11.7 -11 12.5 -11.5 16.6 -11.5 7.4 0 7.4 -0.1 5.2 16.7 -2.8 22.1 -3.1 20.7 3.5 21.4 6.4 0.8 8.7 1.6 9.3 3.3 0.5 1.3 -2.1 34.8 -8.9 114.4 -0.8 9.4 -1.1 9.6 -17 8.9 l-12.3 -0.5 -0.5 2.7 c-0.3 1.4 -2 14.1 -3.6 28.1 -3.2 26.8 -3.6 29.1 -5.4 30.2 -1.2 0.8 -61.4 0.9 -63.3 0.1z m60.2 -5.5 c0.3 -0.7 1.8 -12.8 3.5 -26.8 3.8 -32.2 3.7 -31.5 6.4 -32.8 1.4 -0.6 7 -0.8 14.4 -0.5 l12 0.6 0.6 -6.4 c0.6 -6.4 2.9 -33.8 6.6 -78.9 1.1 -12.9 2 -25.4 2 -27.7 0 -4.3 0 -4.3 -3.7 -4.3 -2.1 0 -5.5 -0.5 -7.5 -1.1 -3.5 -0.9 -3.8 -1.3 -3.8 -4.8 0 -3.4 2.1 -20.6 3.5 -28.8 1 -5.5 -1.9 -4 -14.1 7.5 l-11.5 10.7 -11 33.5 c-18.6 56.8 -52 158 -52.6 159.6 -0.4 1.2 3.5 1.4 27.1 1.4 21.2 0 27.8 -0.3 28.1 -1.2z"/>
  <path d="M531.3 379.3 c-1.7 -0.6 -1.6 -4.1 0.3 -21 1.5 -12.9 1.9 -14.3 3.8 -14.9 1.2 -0.4 8 -0.6 15.2 -0.5 l13.1 0.2 1.2 -17.3 c0.7 -9.5 1.6 -21.1 2.2 -25.8 0.5 -4.7 2 -22.4 3.4 -39.5 1.3 -17 3.3 -41.3 4.4 -54 1.1 -12.6 2.1 -25.5 2.3 -28.5 l0.3 -5.5 -5 -0.6 c-9.1 -1.1 -9.8 -1.6 -9.1 -5.8 0.3 -2 0.6 -4.8 0.6 -6.3 0 -5.8 -0.1 -5.8 37.3 -5.8 18.8 0 34.8 0.4 35.6 0.9 0.8 0.5 1.5 3.5 1.8 7.8 l0.5 7 -3.2 1.2 c-1.8 0.6 -4.8 1.1 -6.7 1.1 -1.8 0 -3.6 0.6 -3.8 1.3 -0.3 0.6 0.4 11.8 1.5 24.7 1.1 12.9 3.2 36.8 4.5 53 1.4 16.2 3.4 40.1 4.5 53 1 12.9 2.2 27 2.6 31.3 l0.6 7.9 12.7 -0.3 c13.5 -0.3 16.7 0.2 17.5 2.9 0.2 0.9 1.2 8.6 2.2 17 1.5 13.2 1.5 15.5 0.3 16.3 -1.4 0.9 -138.4 1.2 -140.6 0.2z m136 -8 c-0.2 -2.1 -1 -8.3 -1.6 -13.8 l-1.2 -9.9 -13.2 0.3 c-7.9 0.2 -13.9 -0.1 -15.1 -0.8 -1.6 -0.9 -2.1 -2.5 -2.7 -9.8 -0.3 -4.8 -1.5 -19.1 -2.6 -31.8 -1.1 -12.6 -3 -36.3 -4.4 -52.5 -1.3 -16.2 -3.4 -39.8 -4.5 -52.5 -1.1 -12.6 -2 -24.9 -2 -27.2 0 -4 0.2 -4.3 3.8 -5.2 2 -0.6 5.2 -1.1 7 -1.1 2.7 0 3.2 -0.4 3.2 -2.4 0 -5.9 1.6 -5.6 -33.1 -5.6 l-31.9 0 0 4 c0 3.8 0.1 4 3.3 4 1.7 0 4.9 0.5 7 1.1 l3.9 1 -0.6 7.7 c-0.4 4.2 -1.6 18.3 -2.7 31.2 -1.1 12.9 -3.1 37.5 -4.4 54.5 -1.4 17.1 -2.9 35.1 -3.5 40 -0.5 5 -1.4 16 -2 24.5 -1.3 18.6 -1.5 19.6 -3.7 20.5 -2 0.8 -22.7 0.7 -25.9 -0.1 -2 -0.5 -2.2 0 -3.3 9.3 -0.7 5.4 -1.4 11.7 -1.8 14.1 l-0.5 4.2 66.5 0 66.5 0 -0.5 -3.7z"/>
  <path d="M697.8 378.8 c-1.7 -1.4 -1.7 -1.5 -5.3 -32.3 -1.4 -11.5 -2.8 -22.6 -3.1 -24.7 l-0.5 -3.6 -13.2 0.5 c-7.9 0.2 -13.8 0 -14.6 -0.6 -1.1 -0.7 -2.1 -8.8 -4.3 -34.8 -1.5 -18.6 -3.6 -45 -4.8 -58.7 -2.7 -32.8 -2.8 -30.3 1.8 -31.5 2 -0.6 5.4 -1.1 7.4 -1.1 2 0 3.9 -0.3 4.1 -0.7 0.2 -0.5 -0.7 -8.6 -2 -18.2 -2.7 -19.6 -2.8 -19.1 4.7 -19.1 5.6 0 8.1 1.6 18.7 11.7 l8.2 7.8 22.7 72.5 c12.4 39.9 26.6 85.3 31.5 101 4.9 15.6 8.9 29.2 8.9 30.1 0 0.9 -0.7 2 -1.6 2.3 -0.9 0.3 -14 0.6 -29.3 0.6 -20.7 0 -28.1 -0.3 -29.3 -1.2z m54.2 -4.3 c0 -0.2 -4.8 -15.6 -10.6 -34.2 -5.8 -18.6 -19.8 -63 -30.9 -98.8 l-20.4 -65 -9.3 -8.7 c-5.9 -5.5 -10.1 -8.7 -11.5 -8.8 -2.8 0 -2.8 -0.2 -0.3 17.5 2.7 18.8 2.7 18.2 -1.7 19.4 -2.1 0.6 -5.5 1.1 -7.5 1.1 -2 0 -3.9 0.4 -4.2 0.8 -0.3 0.5 0.3 11.2 1.4 23.8 1 12.6 3.1 38.6 4.7 57.8 l2.8 34.9 13.1 -0.6 c9.6 -0.5 13.5 -0.3 14.7 0.6 1.3 0.9 2.3 6.5 4.7 26.2 1.6 13.8 3.2 27.1 3.6 29.8 l0.7 4.7 25.3 0 c14 0 25.4 -0.2 25.4 -0.5z"/>
  <path d="M48.5 136.4 c-12.3 -3.1 -20.2 -10.3 -23.6 -21.6 -2.7 -8.7 -2.2 -15.8 1.6 -23.1 3.7 -7.2 6.9 -10.3 14.2 -13.9 5.8 -2.9 6.8 -3 15.1 -2.6 7.3 0.3 9.6 0.9 13.4 3.1 10.3 6 14.8 13.4 15.6 25.4 0.9 13.3 -5.8 24.7 -17.8 30.2 -5.3 2.4 -14 3.6 -18.5 2.5z m13.8 -6 c5.8 -2 12.1 -8.2 15.4 -15.3 4.4 -9.3 1.9 -20.5 -6.3 -28.5 -5.3 -5.2 -9.1 -6.6 -17.6 -6.6 -6.4 0 -8 0.4 -11.9 2.8 -5.1 3.4 -6.5 4.9 -10.4 11.7 -5.3 9.1 -3.4 20.1 5.1 29.5 6.6 7.3 16.2 9.7 25.7 6.4z"/>
  <path d="M1119 136.1 c-8.4 -2.7 -16.3 -9.2 -19.7 -16.1 -2.2 -4.5 -3 -19.7 -1.3 -25.4 1.9 -6.3 7.2 -12.9 13.2 -16.1 6.9 -3.8 18.8 -4.7 26.9 -2 7.7 2.6 14.9 10 17.7 18.5 2.7 8 2.8 12 0.1 20.5 -3.8 12.4 -14.4 20.4 -27.7 21.1 -3.7 0.2 -7.8 0 -9.2 -0.5z m14.6 -5.2 c9.7 -2.5 18.7 -14.7 18.8 -25.4 0 -9.1 -6.3 -19.3 -14.6 -23.6 -2.7 -1.4 -5.8 -1.9 -11.1 -1.9 -9.7 0 -14.5 2.5 -20.1 10.3 -3.8 5.4 -4.1 6.4 -4.4 13.7 -0.3 6.6 0 8.7 1.7 12.2 6.3 12.7 16.8 17.9 29.7 14.7z"/>
 </g>
</svg>