<?xml version="1.0" standalone="yes"?>
<svg xmlns="http://www.w3.org/2000/svg" width="871" height="478">
<path style="fill:#00ff00; stroke:none;" d="M199 1.38889L198 1.61111L196 1.91666L194 2L193 2L191 2L184 2L181 2L180 2L178 2.08334L176 2.38889L175 2.61111L173 2.91666L172 2.97223L170 3L168 3L160 3L158 3L156 3.02777L155 3.08334L153 3.38889L152 3.61111L150 3.91666L149 3.97223L147 4L144 4L134 4L131 4L129 4.02777L128 4.08334L126 4.38889L125 4.61111L123 4.91666L121 5L120 5L117 5L109 5L107 5L105 5.02777L104 5.08334L102 5.38889L101 5.61111L99 5.91666L98 5.97223L96 6L95 6L91 6L80 6L76 6L74 6L72 6.08334L70 6.38889L69 6.61111L67 6.91666L66 6.97223L64 7L63 7L61 7L55 7L52 7L50 7.02777L49 7.08334L47 7.38889L46 7.61111L44 7.91666L43 7.97223L42 8L40 8L35 8L32 8L30 8L28 8.02777L27 8.08334L25 8.38889L24 8.61111L22 8.91666L21 8.97223L19 9.02777L18 9.11111L16 9.69446L15 10.25L13 11.6389L12 12.3889L10 14.0833L9 15.0278L7 17L5 19L3.11111 21L1.72222 23L1.33333 24L1.11111 25L1.02778 26L1 28L1 29L1 31L1 46L1 113L1 119L1 121L1 122L1.02778 124L1.11111 125L1.72222 127L3.11111 129L4.02778 130L5 131L7 133L9 135L14 140L16 142L17 143L18.9722 145L20.75 147L21.5 148L22.5 150L22.9444 152L23.2222 154L23.3889 155L23.6111 156L23.9167 158L23.9722 159L24 161L24 163L24 166L24 180L24 222L24 292L24 315L24 323L24 326L24 327L23.9167 329L23.6111 331L23.1944 333L22.7778 335L22.5 336L22.0833 337L20.9722 339L20.3056 340L19.5833 341L17.9167 343L16.9722 344L15 346L13 348L9 352L6 355L5 356L3.11111 358L2.33333 359L1.72222 360L1.11111 362L1.02778 363L1 365L1 367L1 372L1 434L1 453L1 456L1 458L1.02778 460L1.33333 462L1.72222 463L3.11111 465L4.02778 466L6 468L8 470L10 472L11 473L13 474.972L15 476.667L17 477.667L18 477.889L19 477.972L20 478L21 478L23 478L36 478L88 478L210 478L250 478L263 478L266 478L267 478L269 477.972L270 477.917L272 477.5L274 476.5L276 474.917L278 473L279 472L281 470L284 467L286 465L287 464L289 462.083L290 461.25L291 460.5L293 459.417L294 459.028L296 458.417L297 458.222L298 458.083L300 458L301 458L303 458L312 458L339 458L423 458L524 458L537 458L555 458L557 458L567 458L569 458L570 458L571 458L573 458.083L574 458.222L576 458.639L577 458.861L579 459.472L581 460.5L582 461.25L583 462.083L585 464L586 465L588 467L591 470L592 471L594 473L595 473.972L596 474.917L598 476.5L600 477.5L601 477.75L603 477.972L604 478L605 478L607 478L618 478L630 478L647 478L648 478L653 478L666 478L684 478L686 478L691 478L702 478L707 478L715 478L721 478L722 478L730 478L734 478L738 478L754 478L759 478L764 478L780 478L800 478L803 478L805 478L813 478L817 478L818 478L823 478L825 478L827 478L832 478L840 478L844 478L848 478L850 478L852 477.972L854 477.75L855 477.5L857 476.5L859 474.917L861 473L862 472L864 470L866 468L867 467L868.889 465L869.667 464L870.278 463L870.889 461L870.972 460L871 459L871 457L871 451L871 449L871 431L871 429L871 423L871 421L871 402L871 369L871 366L871 365L871 364L870.889 362L870.278 360L868.889 358L867.972 357L867 356L865 354L864 353L862 351L859 348L857 346L855 344L853.028 342L852.083 341L850.5 339L849.417 337L848.694 335L848.417 334L848.083 332L848 330L848 329L848 326L848 318L848 317L848 316L848 293L848 291L848 283L848 220L848 218L848 214L848 213L848 211L848 210L848 177L848 176L848 163L848 160L848 158L848.028 156L848.083 155L848.417 153L849.028 151L849.417 150L850.5 148L851.25 147L852.083 146L854 144L855 143L856 142L858 140L864 134L866 132L867 131L868.889 129L869.667 128L870.667 126L870.889 125L870.972 124L871 123L871 122L871 119L871 103L871 101L871 99L871 81L871 49L871 33L871 30L871 28L870.889 26L870.667 25L870.278 24L868.889 22L867.972 21L866 19L864 17L862 15L861 14L859 12.0278L858 11.1111L856 9.72223L855 9.33331L854 9.11111L853 9.02777L851 8.97223L850 8.91666L848 8.61111L847 8.38889L845 8.08334L843 8L842 8L840 8L834 8L833 8L830 8L829 8L827 7.91666L826 7.77777L824 7.38889L822 7.08334L821 7.02777L820 7L818 7L815 7L811 7L808 7L807 7L805 6.97223L804 6.91666L802 6.61111L800 6.22223L799 6.08334L797 6L795 6L791 6L788 6L780 6L776 6L774 5.97223L773 5.91666L771 5.61111L770 5.38889L768 5.08334L766 5L765 5L762 5L754 5L752 5L750 4.97223L749 4.91666L747 4.61111L746 4.38889L744 4.08334L743 4.02777L741 4L738 4L734 4L728 4L726 4L725 4L723 3.97223L722 3.91666L720 3.61111L719 3.38889L717 3.08334L715 3L714 3L711 3L708 3L704 3L702 3L700 2.97223L699 2.91666L697 2.61111L696 2.38889L694 2.08334L693 2.02777L691 2L689 2L681 2L679 2L677 1.97223L676 1.91666L674 1.61111L673 1.38889L671 1.08334L670 1.02777L668 1L666 1L665 1L656 1L652 1L646 1L644 1L639 1L629 1L624 1L622 1L609 1L605 1L603 1L601 1.02777L599 1.33331L598 1.72223L597 2.33331L595 4.02777L594 5L592 7L590 9L589.028 10L588.083 11L586.389 13L585.611 14L583.917 16L582.972 17L581 19L579 21L578 22L576 23.9167L575 24.75L574 25.5278L572 26.7222L570 27.5278L568 27.9167L567 27.9722L565 28L563 28L561 28L560 28L546 28L542 28L538 28L522 28L514 28L502 28L368 28L322 28L308 28L306 28L304 27.9722L302 27.75L301 27.5L299 26.5L297 24.9167L296 23.9722L295 23L293 21L292 20L289 17L280 8L278 6L276 4.02777L275 3.11111L273 1.72223L271 1.11111L269 1L268 1L266 1L252 1L218 1L207 1L204 1L203 1L201 1.08334L199 1.38889M202 4.22223L203 4.08334L205 4L206 4L209 4L219 4L251 4L264 4L266 4L267 4L269 4.11111L271 4.72223L273 6.11111L274 7.02777L276 9L278 11L287 20L290 23L291 24L293 26L294 26.9722L295 27.9167L297 29.5L299 30.5L300 30.75L302 30.9722L304 31L307 31L323 31L376 31L506 31L549 31L553 31L563 31L566 31L567 31L569 30.9722L570 30.9167L572 30.5278L574 29.7222L576 28.5278L577 27.75L578 26.9167L580 25L581 24L582 23L584 21L585.972 19L586.917 18L588.611 16L589.389 15L591.083 13L592.028 12L594 10L596 8L597 7.02777L599 5.33331L600 4.72223L601 4.33331L603 4.02777L605 4L607 4L610 4L613 4L630 4L655 4L663 4L666 4L668 4.02777L669 4.08334L671 4.38889L672 4.61111L674 4.91666L675 4.97223L677 5L679 5L687 5L689 5L691 5.02777L692 5.08334L694 5.38889L695 5.61111L697 5.91666L698 5.97223L700 6L702 6L705 6L709 6L712 6L713 6L715 6.08334L717 6.38889L718 6.61111L720 6.91666L721 6.97223L723 7L726 7L730 7L736 7L739 7L741 7.02777L742 7.08334L744 7.38889L745 7.61111L747 7.91666L749 8L750 8L753 8L761 8L763 8L765 8.02777L766 8.08334L768 8.38889L769 8.61111L771 8.91666L772 8.97223L774 9L778 9L779 9L789 9L793 9L795 9L797 9.08334L798 9.22223L800 9.61111L802 9.91666L803 9.97223L805 10L807 10L815 10L817 10L819 10.0278L820 10.0833L822 10.3889L823 10.6111L825 10.9167L826 10.9722L828 11L831 11L836 11L838 11L839 11L841 11L842 11.0278L843 11.0833L845 11.3889L846 11.6111L848 11.9167L849 11.9722L851 12.0278L852 12.1111L853 12.3333L855 13.3333L856 14.1111L858 16L860 18L862 20L863 21L864.972 23L865.889 24L867.278 26L867.667 27L867.889 28L868 30L868 32L868 35L868 51L868 52L868 104L868 118L868 120L868 121L867.972 122L867.889 123L867.667 124L866.667 126L864.972 128L864 129L862 131L861 132L859 134L856 137L854 139L852 141L850.028 143L849.083 144L847.5 146L846.417 148L845.694 150L845.417 151L845.083 153L845 155L845 156L845 159L845 168L845 172L845 193L845 194L845 205L845 268L845 312L845 326L845 329L845 331L845.028 333L845.083 334L845.417 336L846.028 338L846.417 339L847.5 341L849.083 343L850.028 344L852 346L853 347L854 348L856 350L861 355L863 357L864 358L864.972 359L865.889 360L867.278 362L867.667 363L867.889 364L868 366L868 367L868 369L868 371L868 374L868 387L868 389L868 392L868 429L868 437L868 449L868 455L868 457L867.972 458L867.889 459L867.278 461L866.667 462L865.889 463L864 465L862 467L860 469L859 470L857 471.917L855 473.5L853 474.5L852 474.75L850 474.972L849 475L848 475L846 475L845 475L843 475L839 475L835 475L831 475L821 475L818 475L816 475L806 475L802 475L801 475L800 475L792 475L776 475L771 475L769 475L762 475L757 475L754 475L750 475L747 475L743 475L738 475L735 475L731 475L729 475L728 475L726 475L720 475L719 475L711 475L708 475L702 475L701 475L699 475L698 475L693 475L692 475L690 475L689 475L687 475L680 475L673 475L670 475L664 475L660 475L654 475L646 475L641 475L634 475L632 475L630 475L625 475L620 475L617 475L613 475L609 475L607 475L605 474.972L603 474.75L602 474.5L600 473.5L598 471.917L597 470.972L596 470L594 468L593 467L590 464L588 462L587 461L585 459.083L584 458.25L583 457.5L581 456.472L579 455.861L578 455.639L576 455.222L575 455.083L573 455L572 455L571 455L569 455L564 455L558 455L551 455L550 455L525 455L423 455L337 455L310 455L301 455L299 455L298 455L296 455.083L295 455.222L294 455.417L292 456.028L291 456.417L289 457.5L288 458.25L287 459.083L285 461L284 462L282 464L278 468L277 469L276 470L274 471.917L272 473.5L270 474.5L268 474.917L267 474.972L265 475L264 475L261 475L248 475L209 475L89 475L37 475L25 475L23 475L22 475L21 474.972L20 474.889L19 474.667L17 473.667L16 472.889L14 471L12 469L10 467L9 466L7.02778 464L6.11111 463L4.72222 461L4.33333 460L4.02778 458L4 456L4 454L4 451L4 432L4 370L4 367L4 366L4.11111 364L4.72222 362L5.33333 361L6.11111 360L8 358L9 357L12 354L16 350L18 348L19.9722 346L20.9167 345L22.5833 343L23.3056 342L23.9722 341L25.0833 339L25.5 338L25.7778 337L26.1944 335L26.6111 333L26.9167 331L27 329L27 328L27 325L27 317L27 293L27 221L27 178L27 164L27 161L27 159L26.9722 157L26.9167 156L26.6111 154L26.3889 153L26.2222 152L25.9444 150L25.5 148L24.5 146L23.75 145L21.9722 143L20 141L19 140L17 138L12 133L10 131L8 129L7.02778 128L6.11111 127L4.72222 125L4.11111 123L4.02778 122L4 120L4 118L4 114L4 48L4 33L4 31L4 30L4.02778 28L4.11111 27L4.33333 26L4.72222 25L6.11111 23L8 21L10 19L12 17.0833L14 15.3889L15 14.6389L17 13.25L18 12.6945L20 12.1111L21 12.0278L23 11.9722L24 11.9167L26 11.6111L27 11.3889L29 11.0833L30 11.0278L32 11L34 11L37 11L42 11L44 11L45 10.9722L46 10.9167L48 10.6111L49 10.3889L51 10.0833L52 10.0278L54 10L57 10L63 10L65 10L66 10L68 9.97223L69 9.91666L71 9.61111L72 9.38889L74 9.08334L75 9.02777L77 9L78 9L82 9L94 9L98 9L100 8.97223L101 8.91666L103 8.61111L104 8.38889L106 8.08334L107 8.02777L109 8L111 8L119 8L122 8L124 7.97223L125 7.91666L127 7.61111L128 7.38889L130 7.08334L132 7L134 7L137 7L146 7L149 7L151 6.97223L152 6.91666L154 6.61111L155 6.38889L157 6.08334L158 6.02777L160 6L162 6L169 6L172 6L173 6L175 5.91666L177 5.61111L178 5.38889L180 5.08334L181 5.02777L183 5L185 5L193 5L195 5L196 5L198 4.91666L199 4.77777L200 4.61111L202 4.22223M29 57.4167L28 57.6945L26 58.4167L24 59.4167L23 60.0278L21 61.4167L20.0278 62.2222L19.0833 63.0833L17.4722 65L16.25 67L15.7778 68L14.8333 70L14.3889 71L13.6944 73L13.4167 74L13.2222 75L13.0278 77L13 78L13.0278 80L13.0833 81L13.3889 83L13.8611 85L14.4444 87L15.2778 89L15.8333 90L17.0278 92L17.6944 93L19.2222 94.9167L21.0278 96.5833L23 97.9167L25 98.9167L27 99.6667L28 100L30 100.583L32 100.917L33 100.972L34 101L36 101L37 101L39 100.917L41 100.583L43 99.9722L44 99.6111L46 98.7222L47 98.1667L48 97.6111L49.9722 96.3055L50.9167 95.5833L52.5833 93.9167L53.3056 92.9722L54.5833 91L55.5833 89L56.3056 87L56.5833 86L57 84L57.3889 82L57.6111 81L57.8889 79L57.8889 78L57.6111 76L57.3611 75L56.8611 73L56.6111 72L55.9722 70L55.5833 69L54.5833 67L53.9722 66L53.3056 65L51.7778 63.0833L49.9722 61.4167L49 60.6945L48 60.0278L47 59.4167L45 58.4167L44 58.0278L42 57.4167L41 57.2222L40 57.0833L38 57L37 57L35 57L33 57L31 57.0833L29 57.4167M830 57.4167L829 57.6945L827 58.3889L825 59.2778L823 60.4722L821.028 62.0833L820.083 63.0278L818.417 65L817.694 66L817.028 67L816.417 68L815.472 70L815.167 71L814.639 73L814.389 74L814.083 76L814.028 77L814 79L814.028 81L814.083 82L814.417 84L815 86L815.333 87L816.083 89L817.083 91L818.417 93L820.083 94.9167L822 96.5833L824 97.9722L825 98.5833L827 99.5833L829 100.306L830 100.583L832 100.917L834 101L836 101L838 101L840 100.917L842 100.583L844 99.9722L846 99.1667L847 98.7222L849 97.5278L850 96.75L851 95.9167L852.917 94L853.778 93L855.278 91L855.917 90L856.917 88L857.278 87L857.583 86L857.917 84L858 82L858 81L858 80L858 78L858 76L857.972 75L857.917 74L857.583 72L857.306 71L856.583 69L855.528 67L854.833 66L854.139 65.0278L852.611 63.2222L851.778 62.3889L850.917 61.6389L849 60.2222L847 59.0833L846 58.6389L844 57.8333L843 57.4722L841 57.0833L839 57L838 57L836 57L834 57L832 57.0833L830 57.4167M32 60.2222L34 60.0278L35 60L36 60L38 60.0833L40 60.4167L42 61.0278L43 61.4167L45 62.4167L46 63.0278L46.9722 63.6945L47.9167 64.4167L49.5833 66.0833L50.3056 67.0278L51.5833 69L52.5833 71L52.9722 72L53.6111 74L53.8611 75L54.2778 77L54.3889 78L54.3056 80L54.1667 81L54 82L53.5833 84L53.3056 85L52.5833 87L51.5833 89L50.3056 90.9167L49.5833 91.7778L48.7778 92.5833L47.9167 93.3055L46 94.6111L45 95.1667L43 96.1667L42 96.6111L40 97.3055L39 97.5833L38 97.7778L37 97.9167L35 97.9722L34 97.9167L32 97.5833L31 97.3055L29 96.6667L27 95.9167L25 94.9167L24.0278 94.2778L23.0833 93.5833L22.2222 92.7778L21.4167 91.9167L20.0278 90L19.3889 89L18.2778 87L17.4444 85L17.1667 84L16.6389 82L16.3889 81L16.1111 79L16.1111 78L16.4167 76L17.0278 74L17.3889 73L17.8333 72L18.7778 70L19.25 69L19.8611 68L20.4722 67.0278L22.0833 65.2222L23.0278 64.4167L25 63.0278L27 61.8889L28 61.4167L30 60.6945L31 60.4167L32 60.2222M833 60.2222L835 60.0278L837 60L839 60.0833L841 60.4722L842 60.8333L844 61.6389L845 62.0833L846.972 63.2222L847.917 63.8889L849.611 65.3889L851.139 67.0833L852.528 69L853.583 71L853.972 72L854.583 74L854.917 76L854.972 77L855 79L854.972 81L854.917 82L854.583 84L853.917 86L852.917 88L851.583 90L850.778 91L848.972 92.9167L848 93.75L847 94.5278L846 95.1389L844 96.1667L843 96.6111L841 97.3055L840 97.5833L839 97.7778L837 97.9722L835 97.9722L834 97.9167L832 97.5833L831 97.3055L829 96.5833L827 95.5833L826 94.9722L824.028 93.5833L823.083 92.7778L821.417 90.9722L820.722 90L820.083 89L819.083 87L818.694 86L818 84L817.417 82L817.222 81L817.083 80L817.083 78L817.389 76L817.639 75L818.167 73L818.472 72L819.417 70L820.694 68L821.417 67L823.083 65.0833L825 63.4722L826 62.8611L828 61.8333L829 61.3889L831 60.6945L832 60.4167L833 60.2222M302 278L289 278L288.194 279.5L288.028 280.056L287.639 281.056L287 283L286.333 285L285 289L284.333 291L283.972 292L283.611 293L283.194 294L282.389 296L281.667 298L281.333 299L280.667 301L278.333 308L277.667 310L277.333 311L276.611 313L276.194 314L275.389 316L274.667 318L274 320L272.667 324L272.333 325L271.611 327L270.806 329L270.389 330L270.028 331L269.667 332L269 334L267.333 339L266.667 341L265.889 342.972L265.361 343.917L263.889 345.528L262 346.75L261 347.25L259 348.389L257 349.611L256 350.167L255 350.75L253 351.778L252 352.222L251 352.778L249 353.778L248 354.222L246 355.25L245.028 355.861L243.333 357.25L242.722 358.083L242.111 360L242 362L242 363L242 364L242 366L242 386L243 387L358 387L402 387L449 387L597 387L608 387L616 387L632 387L642 387L643 386L643 357L641.5 356L640.944 355.778L639.944 355.194L639 354.778L637 353.778L636 353.222L634 352.222L633 351.778L632 351.222L631 350.778L630 350.222L629 349.778L628 349.222L626 348.222L625.028 347.75L623.25 346.528L622.5 345.75L621.472 343.972L620.861 342L620.611 341L620 339L619.667 338L618.667 335L616 327L614.667 323L614 321L613.694 320L613.389 319L613.139 318L612.611 316L612 314L611.333 312L610.333 309L610 308L609.389 306L608.861 304L608.611 303L608.306 302L608 301L607.333 299L607 298L605.333 293L603.333 287L602.667 285L602.333 284L601.667 282L601.361 281.056L600.972 280.056L600.806 279.5L600 278L598.5 278L583 278L582.5 276.5L582.194 275.944L581.389 274L581.028 273L580.667 272L580 270L579.389 268L579.139 267L578.611 265L578 263L577.667 262L576.667 259L574 251L573.333 249L573 248L572.389 246L572.139 245L571.611 243L571 241L570.667 240L570 238L568 232L567.333 230L567 229L566.389 227L566.139 226L565.611 224L565 222L564.333 220L563.333 217L560.333 208L559.333 205L559 204L558.389 202L558.139 201L557.611 199L557 197L556.667 196L555.667 193L553 185L552.333 183L552 182L551.389 180L551.139 179L550.611 177L550 175L549.667 174L549 172L547 166L546.333 164L546 163L545.389 161L544.861 159L544.611 158L544 156L543.333 154L542.333 151L542 150L538.667 140L537.667 137L537.333 136L536.694 134L536.389 133L535.861 131L535.611 130L535 128L534.333 126L534 125L533.333 123L533 122L532.333 120L531.972 119L531.583 118.028L530.5 116.222L529.75 115.389L527.972 113.778L526 111.972L524 110L523 109L522 108.028L521 107.083L519 105.389L518 104.611L516 102.917L514 101L512 99.0278L511 98.0833L509 96.5L507 95.5L506 95.25L504 95.0278L502 95L501 95L500 95L498 95L491 95L456 95L404 95L389 95L387 95L386 95L384 95.1111L382 95.7222L380 97.1111L379 98.0278L377 99.9167L375 101.611L374 102.389L372 104.083L371 105.028L369 107L367 109L365 110.917L363 112.611L362 113.389L360 115.083L358.028 117L356.306 119L355.639 120L354.694 122L354.333 123L353.667 125L353 127L351.333 132L343.333 156L340 166L339 169L338.333 171L337.611 173L337.194 174L336.389 176L335.667 178L335 180L334 183L332.333 188L330.667 193L320.333 224L310.667 253L306.333 266L305 270L304.333 272L303.611 274L303.194 274.944L302.806 275.944L302.5 276.5L302 278M598 281L598.25 282.5L598.417 283.056L598.694 284.056L599.333 286L599.667 287L600.667 290L603.667 299L604.667 302L605 303L605.611 305L606.139 307L606.389 308L606.694 309L607.333 311L607.667 312L608.667 315L609 316L609.611 318L610.139 320L610.389 321L610.694 322L611.333 324L611.667 325L612.667 328L615.667 337L616.667 340L617 341L617.611 343L618.167 345L618.472 346L619.5 347.917L621.083 349.528L623 350.75L624 351.222L625 351.778L626 352.222L627 352.778L628 353.222L630 354.222L631 354.778L632 355.222L633 355.778L634 356.222L636 357.222L636.944 357.75L637.944 358.167L638.5 358.5L640 359L640 384L627 384L626 384L625 384L624 384L619 384L611 384L608 384L607 384L602 384L594 384L593 384L591 384L590 384L561 384L245 384L245 360L246.5 359L247.056 358.778L248.056 358.194L249 357.778L251 356.778L252 356.222L253 355.778L254 355.222L255 354.778L257 353.75L258 353.167L259 352.611L261 351.389L263 350.25L264 349.75L265.972 348.528L267.694 346.917L268.889 345L269.667 343L270 342L271 339L272 336L272.667 334L273.028 333L273.389 332L273.806 331L274.611 329L274.972 328L275.333 327L276 325L276.333 324L277 322L277.333 321L278.028 319L278.389 318L278.806 317L279.611 315L280.333 313L280.667 312L281.333 310L283.667 303L284.333 301L284.667 300L285.028 299L285.389 298L286.194 296L286.611 295L287.333 293L288 291L289 288L289.667 286L290.306 284.056L290.583 283.056L290.75 282.5L291 281L296 281L298 281L300 280.972L301 280.889L302.972 280.278L303.917 279.667L305.5 277.972L306.583 276L307.333 274L308 272L309.333 268L318 242L331.667 201L336.333 187L338 182L338.667 180L339.389 178L339.806 177L340.611 175L341.333 173L341.667 172L342.667 169L345 162L354 135L355.667 130L356.333 128L356.667 127L357.333 125L357.694 124L358.639 122L360.111 120L362 118.083L364 116.389L365 115.611L367 113.917L368 112.972L370 111L372 109L374 107.083L375 106.222L376 105.389L378 103.778L379 102.917L381 101.028L383 99.3333L384 98.7222L385 98.3333L387 98.0278L388 98L390 98L392 98L397 98L421 98L423 98L474 98L492 98L498 98L500 98L501 98L503 98.0833L504 98.25L505 98.5L507 99.5L509 101.083L511 103L513 104.972L514 105.917L516 107.611L517 108.389L519 110.083L520 111.028L522 113L524 114.972L524.972 115.917L525.917 116.778L527.5 118.389L528.083 119.222L528.583 120.083L529.333 122L529.667 123L530 124L530.667 126L531.667 129L532 130L532.306 131L532.611 132L533.139 134L533.389 135L534 137L534.333 138L535 140L539 152L540.333 156L541 158L541.611 160L542.139 162L542.389 163L543 165L543.333 166L544 168L546 174L546.667 176L547 177L547.611 179L548.139 181L548.389 182L549 184L549.333 185L549.667 186L550.333 188L551 190L553 196L553.667 198L554 199L554.611 201L555.139 203L555.389 204L556 206L556.333 207L556.667 208L557.333 210L560.333 219L560.667 220L561.333 222L562 224L562.611 226L563.139 228L563.389 229L564 231L564.333 232L565 234L567 240L567.667 242L568 243L568.306 244L568.611 245L569.139 247L569.389 248L570 250L570.333 251L571 253L572 256L573.333 260L573.667 261L574.667 264L575 265L575.611 267L576.139 269L576.389 270L577 272L577.333 273L578.028 275L578.417 276L579.5 277.972L580.25 278.889L582.028 280.278L584 280.889L585 280.972L586 281L588 281L589 281L591 281L598 281M324 280L325 281L360 281L365 281L367 281L368 281L370 280.889L370.972 280.667L371.889 280.278L372.667 279.667L373.667 277.972L373.889 277L374.083 275L374.389 273L374.611 272L374.917 270L374.972 269L375.083 267L375.389 265L375.611 264L375.917 262L375.972 261L376.028 259L376.083 258L376.389 256L376.611 255L376.917 253L377.028 251L377.083 250L377.389 248L377.611 247L377.917 245L377.972 244L378.083 242L378.389 240L378.778 238.056L378.972 236.5L379 235L380.5 235.083L381.056 235.222L382.056 235.389L383 235.611L385 235.917L386 235.972L388 236L390 236L392 236L393 236L395 236L396 235.972L397 235.889L397.972 235.667L399.667 234.667L400.278 233.889L400.889 232L400.972 231L401.028 229L401.083 228L401.389 226L401.611 225L401.917 223L401.972 222L402 221L402 219L402 218L402.083 216L402.389 214L402.611 213L402.917 211L403 209L403 207L403.028 205L403.083 204L403.389 202L403.611 201L403.917 199L403.972 198L404 196L404.028 194L404.083 193L404.389 191L404.611 190L404.917 188L404.972 187L405 185L405.028 183L405.083 182L405.389 180L405.611 179L405.917 177L405.972 176L406 174L406.028 172L406.083 171L406.389 169L406.611 168L406.917 166L406.972 165L407 163L407.028 161L407.083 160L407.389 158L407.611 157L407.917 155L407.972 154L408 153L408 151L408 144L407 143L405.5 142.917L404.944 142.778L403.944 142.611L403 142.389L401 142.083L400 142.028L398.056 142L396 142L396.583 139.944L396.778 138.944L396.917 138L397.083 136L397.222 135L397.611 133L397.944 131L398.056 130L398.389 128L398.778 126L399 124L399.083 123L399.389 121L399.611 120L399.806 118L399.278 116.111L398.667 115.333L397.889 114.722L396 114.111L394 114.028L393 114.111L391 114.722L389 116.111L388 117.028L387 118L385 119.917L383 121.611L382 122.389L380 124.083L379 125.028L378 126L376 128L374.111 130L373.306 131L372.639 132L371.694 134L371.333 135L370.667 137L370 139L368.667 143L361.333 165L359.333 171L358.667 173L358.333 174L357.972 175L357.611 176L357.194 177L356.389 179L355.667 181L355 183L353.333 188L351.667 193L351 195L350.389 197L350.139 198L349.861 199L349.306 201L348.611 203L348.194 204L347.389 206L346.667 208L346.333 209L345.667 211L344 216L338.667 232L328.667 262L326 270L325.333 272L325 273L324.417 275L324.222 276L324.028 277.944L324 278.5L324 280M418 114L417.028 115.5L416.444 117.056L416.083 119L416 121L416 122L416.028 123L416.111 124L416.333 124.972L416.722 125.889L418.111 127.278L419.028 127.667L421 127.972L422.944 128L426 128L426 133L426 135L425.972 136L425.917 137L425.611 139L425.389 140L425.083 142L425.028 143L425 144L425 146L424.972 148L424.917 149L424.611 151L424.389 152L424.083 154L424 156L424 158L424 159L423.972 161L423.917 162L423.611 164L423.389 165L423.083 167L423.028 168L423 170L422.972 172L422.917 173L422.611 175L422.389 176L422.083 178L422.028 179L422 180L422 182L421.972 184L421.917 185L421.611 187L421.389 188L421.083 190L421.028 191L421 193L421 195L420.972 196L420.917 197L420.611 199L420.389 200L420.083 202L420.028 203L420 205L419.972 207L419.917 208L419.611 210L419.389 211L419.083 213L419.028 214L419 216L418.972 218L418.917 219L418.611 221L418.389 222L418.083 224L418.028 225L418 226L418 228L417.972 230L417.917 231L417.611 233L417.389 234L417.083 236L417.028 237L417 239L416.972 241L416.917 242L416.611 244L416.389 245L416.083 247L416.028 248L416 249.944L416 250.944L416 253L402 253L400 253L398 253.028L396.028 253.333L395.111 253.722L394.333 254.333L393.722 255.111L393.333 256.028L393.111 257L392.917 259L392.611 261L392.389 262L392.083 264L391.972 266L391.917 267L391.611 269L391.389 270L391.083 272L391.028 273L391 275L391 276.944L391 280L392 281L470 281L489 281L491 281L493 280.972L494 280.889L494.972 280.667L496.667 279.667L497.278 278.889L497.861 277L497.778 275L497.611 274L497.222 272L497.083 271L496.972 269L496.917 268L496.611 266L496.389 265L496.083 263L496.028 262L495.917 260L495.611 258L495.389 257.056L495.222 256.056L495.083 255.5L495 254L494 253L473 253L472.917 251.5L472.778 250.944L472.611 249.944L472.389 249L472.083 247L472.028 246L472 244L471.972 242L471.917 241L471.611 239L471.389 238L471.083 236L471.028 235L471 233L470.972 231L470.917 230L470.611 228L470.389 227L470.083 225L470.028 224L470 223L470 221L469.972 219L469.917 218L469.611 216L469.389 215L469.083 213L469.028 212L469 210L468.972 208L468.917 207L468.611 205L468.389 204L468.083 202L468.028 201L468 199L467.972 197L467.917 196L467.611 194L467.389 193L467.083 191L467.028 190L467 189L467 187L466.972 185L466.917 184L466.611 182L466.389 181L466.083 179L466.028 178L466 176L465.972 174L465.917 173L465.611 171L465.389 170L465.083 168L465 166L465 164L465 163L464.972 161L464.917 160L464.611 158L464.389 157L464.083 155L464.028 154L464 153L464 152L464 150L463.972 148L463.917 147L463.611 145L463.389 144L463.083 142L463.028 141L463 139L462.972 137L462.917 136L462.611 134L462.389 133L462.083 131.056L462.028 130.056L462 128L466 128L468 127.972L469.972 127.667L470.889 127.278L471.667 126.667L472.278 125.889L472.667 124.972L472.944 123L472.917 122L472.778 121L472.361 119L472.111 118L471.306 116.111L469.889 114.722L468.972 114.333L467 114.028L466 114L465 114L463 114L453 114L418 114M492 142L489.944 142L488 142.028L487 142.083L485 142.417L484 142.722L482.111 143.639L481.333 144.306L480.722 145.111L480.333 146.028L480.056 148L480.083 149L480.389 151L480.611 152L480.917 154L480.972 155L481 157L481.028 159L481.083 160L481.389 162L481.611 163L481.917 165L481.972 166L482 168L482.028 170L482.083 171L482.389 173L482.611 174L482.917 176L482.972 177L483 179L483.028 181L483.083 182L483.389 184L483.611 185L483.917 187L483.972 188L484 190L484.028 192L484.083 193L484.389 195L484.611 196L484.917 198L484.972 199L485 201L485 203L485.028 204L485.083 205L485.389 207L485.611 208L485.917 210L485.972 211L486 213L486.028 215L486.083 216L486.389 218L486.611 219L486.917 221L486.972 222L487 224L487 226L487.028 227L487.083 228L487.389 230L487.778 231.944L487.972 233.5L488 235L489 236L498 236L500 236L502 235.972L503 235.917L505 235.611L505.944 235.389L506.944 235.222L507.5 235.083L509 235L510 236L510 238.056L510.028 240L510.083 241L510.389 243L510.611 244L510.917 246L510.972 247L511.083 249L511.222 250L511.611 252L511.917 254L512.028 256L512.083 257L512.389 259L512.611 260L512.917 262L512.972 263L513.028 265L513.083 266L513.389 268L513.611 269L513.917 271L514.028 273L514.083 274L514.417 276L514.722 277L515.111 277.972L515.639 278.889L517.111 280.278L518.028 280.667L519 280.889L521 281L522 281L523 281L525 281L530 281L534 281L544 281L560 281L561 280L561 277.944L560.917 276L560.778 275L560.583 274L560 272L559.333 270L558.667 268L557.667 265L557 263L556.389 261L556.139 260L555.611 258L555 256L554.667 255L553.667 252L550.667 243L549.667 240L549 238L548.389 236L548.139 235L547.611 233L547 231L546.667 230L545.667 227L545.333 226L542 216L540.667 212L540 210L539.389 208L539.139 207L538.611 205L538 203L537.667 202L536.667 199L534 191L533.333 189L533 188L532.389 186L532.139 185L531.611 183L531 181L530.667 180L530 178L528 172L527.333 170L527 169L526.389 167L526.139 166L525.611 164L525 162L524.333 160L523.333 157L521 150L520 147L519.667 146L519 144L518.694 143L518.389 142L517.861 140L517.611 139L517.306 138L517 137L516.667 136L516 134L515.667 133L514.972 131L514.583 130L513.5 128.028L511.917 126.222L510.972 125.389L509 123.778L508 122.917L506 121L505 120L504 119L502 117.083L500 115.5L498 114.5L497 114.25L495 114.028L494 114.028L492.028 114.333L490.333 115.333L489.333 117.028L489.111 118L489.028 119L489.083 121L489.222 122L489.389 123L489.778 125L489.917 126L490.083 128L490.389 130L490.611 131L490.944 133L491.056 134L491.389 136L491.611 137L491.917 138.944L491.972 139.944L492 142M396 117L396 119.056L396 120.056L395.972 122L395.917 123L395.611 125L395.389 126L395.056 128L394.944 129L394.611 131L394.389 132L394.083 134L393.917 136L393.778 137L393.389 139L393.083 140.944L393.028 141.944L393 144L394 145L396.056 145L398 145.028L399 145.083L401 145.389L401.944 145.611L402.944 145.778L403.5 145.917L405 146L405 149.056L405 150L404.972 152L404.917 153L404.611 155L404.389 156L404.083 158L404.028 159L404 161L403.972 163L403.917 164L403.611 166L403.389 167L403.083 169L403.028 170L403 172L402.972 174L402.917 175L402.611 177L402.389 178L402.083 180L402.028 181L402 183L401.972 185L401.917 186L401.611 188L401.389 189L401.083 191L401.028 192L401 194L400.972 196L400.917 197L400.611 199L400.389 200L400.083 202L400.028 203L400 204L400 206L399.972 208L399.917 209L399.611 211L399.389 212L399.083 214L399.028 215L399 216L399 218L398.972 220L398.917 221L398.611 223L398.389 224L398.083 226L398.028 227L398 228.944L398 229.944L398 232L397 233L391 233L389 233L388 232.972L387 232.917L385 232.611L384 232.389L382 232.083L381 232.028L379.056 232L377 232L376 233L375.917 235.056L375.611 237L375.389 238L375.083 240L375.028 241L374.917 243L374.778 244L374.389 246L374.083 248L373.972 250L373.917 251L373.611 253L373.389 254L373.083 256L373.028 257L372.972 259L372.778 261L372.389 263L372.083 265L371.972 267L371.917 268L371.611 270L371.389 271L371.083 273L371.028 273.944L371 274.944L371 277L370 278L327 278L327.444 276.5L327.667 275.944L328 274.944L328.333 274L328.667 273L329.333 271L331 266L339 242L346 221L348.333 214L349.333 211L349.667 210L350.389 208L350.806 207L351.194 206L351.972 204L352.611 202L352.861 201L353.389 199L354 197L354.333 196L355 194L357.333 187L358.333 184L358.667 183L359.028 182L359.389 181L359.806 180L360.611 178L361.333 176L362 174L363.667 169L368 156L372.667 142L373.667 139L374 138L374.694 136L375.639 134L376.306 133L377.111 132L379 130L381 128.028L382 127.083L384 125.389L386 123.778L387 122.917L388 121.972L390 120.028L391 119.111L392.944 117.722L394.5 117.111L396 117M468 117L469 118L469.083 119.5L469.222 120.056L469.389 121L469.75 122.5L470 124L468.5 124.722L467.944 124.75L466.944 124.944L466 124.972L465 125L463.056 125L460 125L459 126L459 129.056L459 130L459.028 132L459.083 133L459.389 135L459.611 136L459.917 138L459.972 139L460 141L460.028 143L460.083 144L460.389 146L460.611 147L460.917 149L460.972 150L461 151L461 152L461 154L461.028 156L461.083 157L461.389 159L461.611 160L461.917 162L461.972 163L462 165L462 166L462 168L462.083 170L462.389 172L462.611 173L462.917 175L462.972 176L463 178L463.028 180L463.083 181L463.389 183L463.611 184L463.917 186L463.972 187L464 188L464 190L464.028 192L464.083 193L464.389 195L464.611 196L464.917 198L464.972 199L465 201L465.028 203L465.083 204L465.389 206L465.611 207L465.917 209L465.972 210L466 212L466.028 214L466.083 215L466.389 217L466.611 218L466.917 220L466.972 221L467 223L467 225L467.028 226L467.083 227L467.389 229L467.611 230L467.917 232L467.972 233L468 235L468.028 237L468.083 238L468.389 240L468.611 241L468.917 243L468.972 244L469 246L469.028 248L469.083 249L469.417 251L469.694 252L470.333 253.944L470.556 254.5L471 256L492 256L492.083 257.5L492.222 258.056L492.389 259.056L492.778 261L492.917 262L493.028 264L493.083 265L493.389 267L493.778 269L493.917 270L494.028 272L494.083 273L494.417 274.944L495 277L493.5 277.722L492.944 277.75L491.944 277.944L491 277.972L489 278L487 278L483 278L463 278L394 278L394 275.944L394.028 274.944L394.083 274L394.389 272L394.611 271L394.917 269L395.028 267L395.083 266L395.389 264L395.611 263L395.917 261L395.972 260.056L396 259.056L396 257L397 256L418 256L419 255L419 252.944L419 251.944L419.028 250L419.083 249L419.389 247L419.611 246L419.917 244L419.972 243L420 241L420.028 239L420.083 238L420.389 236L420.611 235L420.917 233L420.972 232L421 230L421 228L421.028 227L421.083 226L421.389 224L421.611 223L421.917 221L421.972 220L422 218L422.028 216L422.083 215L422.389 213L422.611 212L422.917 210L422.972 209L423 207L423.028 205L423.083 204L423.389 202L423.611 201L423.917 199L423.972 198L424 196L424 194L424.028 193L424.083 192L424.389 190L424.611 189L424.917 187L424.972 186L425 184L425 182L425.028 181L425.083 180L425.389 178L425.611 177L425.917 175L425.972 174L426 172L426.028 170L426.083 169L426.389 167L426.611 166L426.917 164L426.972 163L427 161L427 160L427 158L427.083 156L427.389 154L427.611 153L427.917 151L427.972 150L428 148L428 146L428.028 145L428.083 144L428.389 142L428.611 141L428.917 139L428.972 138L429 137L429 135L429.083 133L429.361 131L429.5 130L429.194 128.028L428.639 127.111L427.889 126.333L426 125.333L425 125.111L423.056 125L422.056 125L420 125L419 124L419.028 121.944L419.083 120.944L419.417 119.056L420 117L468 117M558 278L539 278L536 278L532 278L519 278L518.194 276.5L518.028 275.944L517.417 274L517.083 272L516.972 270L516.917 269L516.611 267L516.389 266L516.083 264L516.028 263L515.972 261L515.917 260L515.611 258L515.222 256L515.083 255L514.972 253L514.917 252L514.611 250L514.222 248L514.028 246L513.917 244L513.611 242L513.222 240L513.083 239L512.889 237L512.278 235.028L510.889 233.333L509.972 232.722L509 232.333L507 232.056L506 232.083L504 232.389L503 232.611L501 232.917L500 232.972L499 233L497 233L491 233L490.972 231.5L490.778 229.944L490.389 228L490.083 226L490.028 225L490 224L490 222L489.972 220L489.917 219L489.611 217L489.389 216L489.083 214L489.028 213L489 211L488.972 209L488.917 208L488.611 206L488.389 205L488.083 203L488.028 202L488 200L488 198L487.972 197L487.917 196L487.611 194L487.389 193L487.083 191L487.028 190L487 188L486.972 186L486.917 185L486.611 183L486.389 182L486.083 180L486.028 179L486 177L485.972 175L485.917 174L485.611 172L485.389 171L485.083 169L485.028 168L485 166L484.972 164L484.917 163L484.611 161L484.389 160L484.083 158L484.028 157L484 155L483.972 153L483.917 152L483.611 150.056L483.25 148.5L483 147L484.5 146.194L485.056 146.028L487 145.417L489 145.083L491 144.972L492 144.917L493.944 144.583L496 144L495.75 142.5L495.611 141.944L495.222 140L495.083 139L494.917 137L494.611 135L494.389 134L494.056 132L493.944 131L493.611 129L493.222 127L493.083 126L492.917 124L492.778 123L492.389 121.056L492.222 120.056L492.083 119.5L492 118L493 117L495.056 117.25L496.056 117.5L498 118.5L500 120.083L502 122L504 124L506 125.917L507 126.778L508.917 128.389L509.75 129.222L510.5 130.083L511.083 131.028L511.583 132L512.333 134L513 136L513.667 138L514.306 140L514.611 141L515.139 143L515.389 144L515.694 145L516 146L516.667 148L518.667 154L519 155L521 161L521.667 163L522 164L522.611 166L523.139 168L523.389 169L524 171L524.333 172L525 174L526.667 179L527 180L527.667 182L528 183L528.611 185L529.139 187L529.389 188L530 190L530.333 191L530.667 192L531.333 194L534 202L534.667 204L535 205L535.611 207L536.139 209L536.389 210L537 212L537.667 214L538 215L539 218L539.333 219L539.667 220L542.667 229L543.667 232L544 233L544.611 235L545.139 237L545.389 238L546 240L546.667 242L547.667 245L550.667 254L551.667 257L552 258L552.611 260L553.139 262L553.389 263L554 265L554.667 267L555.667 270L556.333 272L556.667 273L557.306 274.944L557.583 275.944L557.75 276.5L558 278M276 366L277.5 366.722L278.056 366.75L279.056 366.944L280 366.972L281 367L282 367L285 367L296 367L336 367L345 367L348 367L349 367L350 367L352 366.889L353.889 366.278L354.667 365.667L355.694 363.972L355.972 363L356.389 361L356.611 360L356.917 358L357.083 356L357.389 354L357.778 352L357.917 351L358.083 349L358.222 348L358.611 346L358.944 344L359.056 343L359.389 341L359.778 339L359.917 338L360.083 336L360.222 335L360.611 333L360.944 331L361.056 330L361.389 328L361.611 327L361.944 325L362.056 324L362.389 322L362.778 320L362.917 319L363.083 317L363.222 316L363.611 314L363.778 313L363.917 312L364.083 310L364.222 309L364.611 307L364.917 305L364.972 304L365 302.056L365 301.056L365 299L364 298L321 298L314 298L311 298L310 298L308 298L307 298.028L306 298.111L304.083 298.722L302.5 300.111L301.417 302L300.667 304L300 306L299 309L298.333 311L297.611 313L296.806 315L296.389 316L295.667 318L295.333 319L294.333 322L292.333 328L291.667 330L291.333 331L290.611 333L289.806 335L289.389 336L289.028 337L288.667 338L288.333 339L287.333 342L284.667 350L283.667 353L282.972 355L282.583 356L282.083 357L280.75 358.917L279.917 359.778L278.111 361.389L276.722 363.028L276.111 364.5L276 366M383 298L382 299L381.917 301.056L381.611 303L381.222 305L381.083 306L380.917 308L380.778 309L380.389 311L380.056 313L379.944 314L379.611 316L379.222 318L379.083 319L378.917 321L378.778 322L378.389 324L378.056 326L377.944 327L377.611 329L377.222 331L377 333L376.917 334L376.611 336L376.389 337L376.083 339L375.972 341L375.917 342L375.611 344L375.222 346L375.083 347L374.917 349L374.611 351L374.222 353L374.083 354L373.917 356L373.778 357L373.389 359L373.083 361L373.028 362L373 363.944L373 366L374 367L515 367L516 366L515.917 363.944L515.611 362L515.222 360L515.083 359L514.917 357L514.778 356L514.389 354L514.083 352L513.917 350L513.611 348L513.222 346L513.083 345L512.917 343L512.778 342L512.389 340L512.222 339L512.083 338L511.917 336L511.778 335L511.389 333L511.056 331L510.944 330L510.611 328L510.222 326L510.083 325L509.917 323L509.778 322L509.611 321L509.222 319L509.083 318L508.917 316L508.778 315L508.389 313L508.056 311L507.944 310L507.611 308L507.389 307L507.083 305L506.917 303L506.556 301.056L505.972 299.5L505 298L383 298M534 367L550 367L584 367L585 367L599 367L602 367L604 367L605 366.972L605.944 366.944L606.944 366.75L607.5 366.722L609 366L608.889 364.5L608.278 362.944L607.694 362L607 361L605.639 359L605.111 358L604.694 357L604 355L603.333 353L603 352L602.389 350L602.139 349L601.611 347L601 345L600.333 343L599.333 340L596.333 331L595.333 328L595 327L594.389 325L593.861 323L593.611 322L593.306 321L592.667 319L592.333 318L591.333 315L590.333 312L590 311L589.694 310L589.389 309L589.139 308L588.861 307L588.611 306L588 304L587.306 302L586.889 301.028L586.361 300.111L585.694 299.333L584.889 298.722L583.972 298.333L583 298.111L581 298L580 298L579 298L577 298L571 298L566 298L565 298L561 298L558 298L551 298L546 298L538 298L532 298L530 298L528 298.028L527 298.111L526.028 298.333L525.111 298.722L523.75 300.111L523.333 302L523.417 303L523.611 304L523.917 306L524.083 308L524.389 310L524.778 312L524.917 313L525.083 315L525.389 317L525.611 318L525.917 320L526.083 322L526.222 323L526.611 325L526.944 327L527.056 328L527.389 330L527.778 332L528.056 334L528.389 336L528.611 337L528.917 339L529.083 341L529.222 342L529.611 344L529.944 346L530.056 347L530.389 349L530.778 351L530.917 352L531.083 354L531.222 355L531.611 357L531.917 359L532.083 361L532.417 363L532.667 363.944L533.194 365.5L534 367M362 301L361.917 303.056L361.611 305L361.222 307L361.083 308L360.917 310L360.778 311L360.389 313L360.083 315L360 316L359.778 318L359.389 320L359.056 322L358.944 323L358.611 325L358.389 326L358.056 328L357.944 329L357.778 330L357.611 331L357.222 333L357.083 334L356.917 336L356.778 337L356.389 339L356.056 341L355.944 342L355.611 344L355.222 346L355.083 347L354.917 349L354.778 350L354.389 352L354.222 353L354.083 354L353.917 356L353.778 357L353.389 359L353.083 360.944L353 363L352 364L282 364L282.75 362.5L283.222 361.944L283.861 360.944L284.528 360L285.583 358L285.972 357L286.667 355L287 354L287.667 352L290.333 344L291.333 341L291.667 340L292.389 338L292.806 337L293.611 335L294.333 333L294.667 332L295.333 330L297.667 323L298.333 321L298.667 320L299.389 318L300.194 316L300.611 315L300.972 314L301.667 312L302 311L303 308L303.333 307L304.028 305L304.361 304.056L304.833 303.056L305.028 302.5L306 301L362 301M503 301L503.417 302.5L503.778 304.056L503.917 305L504.083 307L504.389 309L504.611 310L504.944 312L505.056 313L505.389 315L505.778 317L505.917 318L506.083 320L506.222 321L506.611 323L506.917 325L507.083 327L507.222 328L507.611 330L507.944 332L508.056 333L508.389 335L508.778 337L508.917 338L509.083 340L509.222 341L509.611 343L509.917 345L510.083 347L510.222 348L510.611 350L510.778 351L510.917 352L511.083 354L511.222 355L511.611 357L511.917 359L511.972 360L512 361.944L512 364L376 364L376.083 362.5L376.222 361.944L376.389 360.944L376.778 359L376.917 358L377.083 356L377.222 355L377.389 354L377.778 352L377.917 351L378.083 349L378.222 348L378.611 346L378.778 345L378.917 344L379.028 342L379.083 341L379.389 339L379.778 337L379.917 336L380.083 334L380.222 333L380.611 331L380.944 329L381.056 328L381.389 326L381.778 324L381.917 323L382.083 321L382.222 320L382.611 318L382.944 316L383.056 315L383.389 313L383.778 311L383.917 310L384.083 308L384.222 307L384.611 305L384.917 303.056L385 301L503 301M583 301L583.806 302.5L583.972 303.056L584.361 304.056L584.667 305L585 306L585.611 308L585.861 309L586.389 311L586.694 312L587.333 314L588 316L589.333 320L590 322L590.611 324L591.139 326L591.389 327L592 329L592.667 331L593.667 334L596.667 343L597.667 346L598 347L598.611 349L599.139 351L599.389 352L599.694 353L600 354L600.667 356L601 357L601.694 359L602.083 360L603 361.944L603.333 362.5L604 364L595 364L594 364L585 364L582 364L575 364L570 364L564 364L563 364L536 364L535.75 362.5L535.611 361.944L535.222 360L535.083 359L534.917 357L534.778 356L534.389 354L534.083 352L533.917 350L533.778 349L533.389 347L533.056 345L532.944 344L532.611 342L532.222 340L532.083 339L531.917 337L531.611 335L531.389 334L531.056 332L530.944 331L530.611 329L530.389 328L530.056 326L529.944 325L529.611 323L529.222 321L529.083 320L528.917 318L528.611 316L528.222 314L528.083 313L527.917 311L527.611 309L527.389 308L527.083 306L527.028 305L527 303.056L527 301L530.056 301L583 301M28 386.472L27 386.861L25 387.778L23 388.861L22 389.472L20.0278 391.083L19.0833 392.028L17.4167 394L16.0833 396L15.0833 398L14.3333 400L14 401L13.4167 403L13.0833 405L13 407L13.0278 409L13.0833 410L13.3889 412L13.8611 414L14.1667 415L14.4444 416L15.2778 418L15.8333 419L17.0278 421L18.4167 422.917L20.0833 424.583L21.0278 425.306L23 426.611L24 427.167L25 427.722L27 428.611L29 429.306L30 429.583L31 429.778L32 429.917L34 430L35 430L36 430L38 429.972L39 429.917L41 429.583L42 429.306L44 428.611L45 428.167L46 427.722L48 426.528L49 425.75L50 424.917L51.9722 423L53.75 421L54.5 420L55.0833 419L55.5833 418L56.3056 416L56.5833 415L57 413L57.3889 411L57.6111 410L57.8889 408L57.8889 407L57.6111 405L57.3889 404L57 402L56.7778 401L56.5278 400L55.7222 398L54.6111 396L53.9722 395L52.5833 393L51.7778 392.028L50.9167 391.083L49 389.472L47 388.25L46 387.778L45 387.25L43 386.472L41 386.083L40 386.028L38 386L37 386L35 386L33 386L32 386L30 386.083L28 386.472M829 386.417L828 386.722L827 387.083L825 388.083L824 388.722L822 390.222L821 391.083L819.083 393L817.472 395L816.861 396L816.278 397L815.861 398L815.444 399L815.167 400L814.639 402L814.389 403L814.083 405L814.028 406L814 408L814 409L814.083 411L814.417 413L814.694 414L815.389 416L815.833 417L816.25 418L816.778 419L817.861 421L818.472 422L820.083 423.917L822 425.583L824 426.917L825 427.444L826 427.917L828 428.667L830 429.306L832 429.778L833 429.917L835 430L836 430L838 429.972L839 429.917L841 429.611L842 429.361L843 429.139L845 428.556L846 428.139L847 427.722L849 426.528L851 424.917L852.917 423L854.528 421L855.139 420L856.222 418L857.139 416L857.528 415L857.917 413L858 411L858 410L858 409L858 407L858 405L857.917 403L857.778 402L857.583 401L857.306 400L856.583 398L856.111 397L854.972 395L853.583 393.028L851.917 391.222L850.972 390.417L849 389.028L847 387.889L846 387.417L844 386.694L843 386.417L842 386.222L841 386.083L839 386L838 386L836 386L834 386L833 386L831 386.083L829 386.417M31 389.25L32 389.083L34 389L35 389L37 389L38 389.028L39 389.083L41 389.472L43 390.25L44 390.778L46 391.861L46.9722 392.472L48.7778 394.083L49.5833 395.028L50.9722 397L52.1667 399L52.7222 400L53.5278 402L53.7778 403L54 404L54.3056 406L54.3889 408L54.1667 410L53.8056 412L53.3056 414L52.5833 416L52.0833 417L51.5 418L49.9167 420L48.9722 420.972L47 422.75L46 423.528L44 424.722L43 425.167L41 425.972L39 426.583L37 426.917L35 426.972L34 426.917L32 426.583L30 425.972L29 425.611L27 424.722L26 424.167L25 423.611L23.0833 422.306L21.4167 420.778L20.0278 418.972L19.3889 418L18.2778 416L17.4444 414L17.1667 413L16.6389 411L16.3889 410L16.1111 408L16.2222 406L16.4167 405L16.6944 404L17.3333 402L18.0833 400L19.0833 398L20.4167 396L22.0833 394.083L24 392.472L25 391.861L27 390.778L28 390.25L30 389.472L31 389.25M832 389.222L834 389.028L836 389L838 389.028L840 389.222L841 389.417L842 389.694L844 390.417L846 391.417L847 392.028L848.917 393.417L849.778 394.222L851.306 396.028L851.972 397L852.583 398L853.583 400L853.972 401L854.583 403L854.917 405L855 407L855 408L855 409L854.917 411L854.528 413L854.139 414L853.222 416L852.139 418L851.528 419L849.917 420.972L848.972 421.917L847 423.528L846 424.139L845 424.722L843 425.556L842 425.833L840 426.361L839 426.611L837 426.917L836 426.944L835 426.917L833 426.583L831 426L830 425.667L828 424.917L826 423.917L825 423.278L823.083 421.778L821.472 419.972L820.25 418L819.778 417L818.833 415L818.389 414L817.694 412L817.417 411L817.083 409L817.083 407L817.389 405L817.639 404L818.167 402L818.444 401L818.861 400L819.278 399L819.861 398L820.472 397L822.083 395.028L823.028 394.083L825 392.417L827 391.083L829 390.083L831 389.417L832 389.222z"/>
</svg>
