<?xml version="1.0" standalone="yes"?>
<svg xmlns="http://www.w3.org/2000/svg" width="557" height="516">
<path style="fill:#00ff00; stroke:none;" d="M18 1.72223L16 3.11108L15 4.02777L13 6L12 7L9 10L7 12L6 13L4.02778 15L3.11111 16L1.72222 18L1.33333 19L1.11111 20L1 22L1 23L1 26L1 40L1 88L1 117L1 122L1 124L1 125L1.02778 127L1.11111 128L1.72222 130L3.11111 132L4.02778 133L6 135L8 137L10 139L10.9722 140L11.9167 141L13.6111 143L15.2222 144.917L17 146.611L17.9167 147.389L19.6111 149.083L20.3611 150.028L21.8333 152L22.5556 153L23.7222 155L24.1667 156L24.6111 157L25.3056 159L25.5833 160L25.7778 161L25.9167 162L26 164L26 165L26 166L26 168L26 179L26 214L26 323L26 346L26 351L26 353L25.9722 354L25.9167 355L25.5833 357L25 359L24.6667 360L23.9167 362L23.4444 363L22.9167 364L22.2778 365L21.5833 366L19.9167 368L18.9722 369L18 370L16 372L15 373L13 375L8 380L6 382L4.02778 384L2.33333 386L1.72222 387L1.33333 388L1.11111 389L1 391L1 392L1 395L1 410L1 458L1 488L1 492L1 494L1 495L1.08333 497L1.5 499L1.94444 500L3.25 502L5.02778 504L7 506L9 508L11 510L13 512L14 512.972L15 513.889L17 515.278L19 515.889L20 515.972L22 516L24 516L27 516L49 516L127 516L223 516L424 516L507 516L530 516L533 516L535 516L537 515.972L538 515.889L540 515.278L542 513.889L543 512.972L545 511L546 510L549 507L551 505L552 504L553 503L554.889 501L556.278 499L556.667 498L556.889 497L557 495L557 494L557 491L557 477L557 429L557 427L557 400L557 395L557 393L557 392L557 391L556.889 389L556.278 387L554.889 385L553.972 384L552 382L550 380L544 374L542 372L541 371L540 370L538.083 368L536.417 366L535.028 364L534.417 363L533.417 361L533.028 360L532.417 358L532.222 357L532.083 356L532 354L532 353L532 352L532 350L532 339L532 303L532 194L532 172L532 168L532 166L532 164L532.083 162L532.222 161L532.417 160L532.694 159L533.389 157L533.833 156L534.778 154L535.25 153L536.472 151L538.083 149L540 147L542 145L543 144L545 142L550 137L552 135L553.972 133L555.667 131L556.278 130L556.667 129L556.889 128L557 126L557 125L557 122L557 108L557 60L557 30L557 26L557 24L557 22L556.972 21L556.889 20L556.667 19L555.667 17L553.972 15L552 13L551 12L548 9L546 7L545 6L543 4.02777L542 3.11108L540 1.72223L539 1.33337L537 1.02777L535 1L533 1L528 1L506 1L432 1L376 1L135 1L52 1L29 1L25 1L23 1L22 1L20 1.11108L18 1.72223M21 4.33331L23 4.02777L24 4L26 4L28 4L33 4L58 4L143 4L427 4L509 4L528 4L531 4L533 4L535 4.02777L537 4.33331L538 4.72223L540 6.11111L541 7.02777L543 9L545 11L548 14L549 15L550.972 17L552.667 19L553.667 21L553.889 22L553.972 23L554 24L554 25L554 28L554 45L554 104L554 120L554 123L554 124L553.889 126L553.278 128L551.889 130L550.972 131L549 133L547 135L540 142L538 144L536.028 146L535.083 147L533.472 149L532.25 151L531.778 152L531.25 153L530.389 155L529.694 157L529.417 158L529.222 159L529.083 160L529 162L529 164L529 166L529 171L529 192L529 259L529 326L529 347L529 352L529 354L529 356L529.083 358L529.222 359L529.417 360L530.028 362L530.417 363L531.417 365L532.028 366L533.417 368L535.083 370L537 372L538 373L539 374L541 376L547 382L549 384L550.972 386L551.889 387L553.278 389L553.889 391L554 393L554 394L554 395L554 398L554 400L554 464L554 485L554 491L554 493L553.972 494L553.889 495L553.278 497L551.889 499L550 501L549 502L548 503L546 505L544 507L543 508L542 509L540 510.889L538 512.278L537 512.667L535 512.972L534 513L532 513L530 513L525 513L500 513L415 513L133 513L49 513L29 513L26 513L24 513L22 512.972L21 512.889L19 512.278L17 510.889L16 509.972L15 509L13 507L12 506L10 504L9 503L8.02778 502L6.25 500L4.94444 498L4.5 497L4.08333 495L4 493L4 492L4 491L4 489L4 474L4 414L4 397L4 394L4 393L4.11111 391L4.72222 389L6.11111 387L7.02778 386L9 384L11 382L16 377L18 375L19 374L20 373L21.9722 371L22.9167 370L24.5833 368L25.9167 366L26.9167 364L27.6667 362L28.3056 360L28.7778 358L28.9167 357L29 355L29 353L29 351L29 346L29 324L29 257L29 192L29 171L29 166L29 164L29 162L28.9167 160L28.7778 159L28.5833 158L28.3056 157L27.6111 155L27.1667 154L26.7222 153L25.5556 151L24.8333 150L23.3611 148L22.6111 147.028L21.7778 146.083L20 144.389L19.0833 143.611L18.2222 142.778L17.3889 141.917L16.6111 140.972L14.9167 139L13.9722 138L13 137L11 135L9 133L7.02778 131L6.11111 130L4.72222 128L4.11111 126L4 124L4 123L4 122L4 119L4 53L4 32L4 26L4 24L4.02778 23L4.11111 22L4.72222 20L5.33333 19L6.11111 18L8 16L9 15L11 13L14 10L15 9L17 7.02777L18 6.11111L20 4.72223L21 4.33331M72 14.4167L70 15.0278L69 15.3889L67 16.2778L65 17.4722L64 18.25L63 19.0833L61.0278 21L59.25 23L58.4722 24L57.25 26L56.7778 27L56.25 28L55.4722 30L55 32L54.6111 34L54.2222 36L54.0833 37L54.0833 39L54.3889 41L54.8056 43L55.1944 45L55.4167 46L56.0278 48L56.4167 49L57.4167 51L58.6944 53L60.2222 54.9722L61.0833 55.9167L63 57.5833L65 58.9722L66 59.5833L68 60.5833L69 60.9722L71 61.5833L72 61.7778L73 61.9167L75 62L76 62L77 62L79 62L81 62L82 62L84 61.9167L86 61.5833L87 61.3055L89 60.5833L91 59.5833L92 58.9722L94 57.5833L95.9722 55.9167L97.75 54L98.5278 53L99.75 51L100.222 50L100.75 49L101.528 47L101.778 46L102 45L102.389 43L102.611 42L102.917 40L103 38L102.972 37L102.917 36L102.611 34L102.361 33L101.861 31L101.611 30L100.972 28L100.583 27L99.5833 25L98.3056 23L97.5833 22.0278L95.9167 20.2222L94.9722 19.4167L94 18.6945L92 17.3889L91 16.8333L90 16.2778L88 15.3889L86 14.6945L85 14.4167L84 14.2222L83 14.0833L81 14L80 14L78 14L76 14L74 14.0833L72 14.4167M473 14.4167L472 14.6945L470 15.3889L468 16.2778L467 16.8333L466 17.3889L464 18.6945L463.028 19.4167L461.222 21.0833L459.694 23L459.028 24L458.389 25L457.278 27L456.444 29L456.167 30L455.861 31L455.389 33L455.083 35L455.028 36L455 38L455.028 40L455.083 41L455.389 43L455.639 44L455.861 45L456.444 47L457.25 49L457.778 50L458.861 52L459.472 53L460.25 54L462.028 55.9167L463 56.7778L465 58.3055L467 59.5833L469 60.5833L471 61.3055L472 61.5833L474 61.9167L476 62L477 62L478 62L480 62L482 62L483 62L485 61.9167L487 61.5278L488 61.1389L489 60.75L490 60.2222L492 59.1667L493 58.6111L495 57.3055L495.972 56.5833L497.75 54.9167L498.528 53.9722L499.75 52L500.222 51L501.222 49L501.75 48L502.556 46L503.139 44L503.361 43L503.611 42L503.917 40L503.972 38L503.917 37L503.611 35L503.389 34L503 32L502.778 31L502.528 30L501.75 28L501.222 27L500.75 26L499.528 24L498.75 23L496.972 21L495 19.0833L494 18.25L493 17.4722L491 16.2778L489 15.3889L488 15.0278L486 14.4167L484 14.0833L482 14L481 14L479 14L477 14L475 14.0833L473 14.4167M75 17.2222L77 17.0278L78 17L80 17.0278L81 17.0833L83 17.4167L84 17.6945L86 18.3889L87 18.8333L88 19.2778L89 19.8333L90 20.3889L91.9722 21.6945L92.9167 22.4167L94.5833 24.0833L95.3056 25.0278L96.5833 27L97.1111 28L97.5833 29L97.9722 30L98.6111 32L98.8611 33L99.3611 35L99.6111 36L99.8333 38L99.75 39L99.6111 40L99.1944 42L98.7778 44L98.5278 45L97.75 47L97.2222 48L96.1389 50L95.5278 51L93.9167 52.9167L92 54.5833L91 55.3055L89 56.5833L88 57.1111L87 57.5833L85 58.3055L84 58.5833L83 58.7778L82 58.9167L80 59L79 59L77 59L75 58.9167L74 58.7778L73 58.5833L71 57.9722L70 57.5833L68 56.5833L67 55.9722L66 55.3055L65.0278 54.5833L63.2222 52.9167L61.6944 51L61.0278 50L60.4167 49L59.4167 47L59.0278 46L58.6944 45L58.4167 44L58 42L57.6389 40L57.4722 39L57.4722 37L57.8056 35L58.2222 33L58.4722 32L59.25 30L59.7778 29L60.25 28L61.4722 26L62.25 25L64.0278 23.0278L66 21.25L67 20.4722L68 19.8611L70 18.8333L71 18.3889L73 17.6945L74 17.4167L75 17.2222M476 17.2222L478 17.0278L479 17L480 17L482 17.0833L484 17.4167L485 17.6945L487 18.3889L488 18.8333L490 19.8611L491 20.4722L492 21.25L493.972 23.0278L495.75 25L496.528 26L497.75 28L498.222 29L498.75 30L499.528 32L499.778 33L500.194 35L500.389 36L500.694 38L500.583 40L500.361 41L499.833 43L499.556 44L498.75 46L498.222 47L497.778 48L497.222 49L496.75 50L495.528 51.9167L494.75 52.7778L493.917 53.5833L492.972 54.3055L491 55.6111L490 56.1667L488 57.2222L487 57.75L485 58.5278L484 58.75L483 58.9167L481 59L480 59L478 59L476 58.9167L474 58.5833L472 57.9722L471 57.5833L469 56.5833L467 55.3055L465.028 53.7778L464.083 52.9167L462.472 51L461.25 49L460.778 48L460.25 47L459.444 45L459.167 44L458.639 42L458.389 41L458.083 39L458.083 37L458.222 36L458.639 34L459.167 32L459.444 31L460.278 29L461.389 27L462.694 25.0278L463.417 24.0833L464.222 23.2222L466.028 21.6945L468 20.3889L469 19.8333L471 18.8333L472 18.3889L474 17.6945L475 17.4167L476 17.2222M132 293L126 293L124 293L123 293L121 293.083L119.028 293.5L117.25 294.5L115.917 296.083L115.417 297.028L115.028 298L114.333 300L113.972 301L113.611 302L112.806 304L112.389 305L111.667 307L111 309L109.333 314L108.667 316L108.333 317L107.972 318L107.611 319L107.194 320L106.389 322L105.667 324L105.333 325L104.667 327L103 332L102.333 334L101.611 336L101.194 337L100.389 339L99.6667 341L99.3333 342L98.6667 344L96.3333 351L95.6667 353L95.3333 354L94.9722 355L94.6111 356L93.8056 358L93.3889 359L93.0278 360L92.6667 361L92 363L91.4167 364.944L91.2222 365.944L91.0833 366.5L91 368L89.5 368.278L87.9444 368.861L87 369.25L86 369.778L85 370.222L84 370.778L82 371.778L81 372.25L79 373.389L77 374.611L76 375.167L75 375.75L73 376.778L72 377.222L70 378.222L69 378.778L68.0556 379.194L67.0556 379.778L66.5 380L65 381L65 412L66 413L505 413L506 412L506 392L506 388L506 386L505.972 384L505.667 382.028L505.278 381.083L503.889 379.472L502 378.25L500 377.222L499 376.778L498 376.222L497 375.778L495 374.778L494 374.222L493 373.778L492 373.222L491 372.778L490 372.222L489 371.778L488 371.222L487 370.75L485.083 369.528L484.25 368.75L482.917 366.972L482.028 365L481.667 364L481.333 363L480.333 360L478.667 355L478 353L477.389 351L477.139 350L476.611 348L476.306 347L476 346L475.667 345L475 343L473 337L472.333 335L472 334L471.389 332L470.861 330L470.611 329L470 327L469.667 326L468.667 323L466.333 316L465.667 314L465.333 313L464.694 311L464.389 310L463.861 308L463.611 307L463.306 306L463 305L462.333 303L461.667 301L461.333 300L460.667 298L460.306 297.028L459.889 296.083L458.694 294.5L457.889 293.944L456.972 293.5L455 293.083L453 293L452 293L451 293L448 293L439 293L438.917 291.5L438.778 290.944L438.583 289.944L438 288L437.667 287L437 285L435 279L434.333 277L434 276L433.389 274L433.139 273L432.611 271L432 269L431.333 267L430.333 264L426.667 253L425.667 250L425 248L424.694 247L424.389 246L424.139 245L423.611 243L423 241L422.333 239L421.333 236L418.333 227L417.333 224L417 223L416.389 221L416.139 220L415.611 218L415 216L414.667 215L414 213L411.333 205L410.333 202L410 201L409.389 199L409.139 198L408.611 196L408 194L407.667 193L407 191L404.333 183L403.333 180L403 179L402.389 177L402.139 176L401.611 174L401 172L400.667 171L400 169L397.333 161L396.333 158L396 157L395.389 155L395.139 154L394.556 152L394.167 151L393.444 149L392.861 147L392.611 146L392.306 145L392 144L391.333 142L391 141L390.333 139L388.333 133L387.333 130L387 129L386.694 128L386.389 127L386.139 126L385.611 124L385.306 123L384.667 121L384.306 120L383.361 118L382.694 117L381.889 116L380.972 115L379 113L377 111L376 110.028L375 109.083L373 107.389L372 106.611L370 104.917L369 103.972L367 102L365 100.083L364 99.2222L363 98.3889L361 96.7778L359 95L358 94.1111L356 92.7222L354 92.1111L352 92L351 92L349 92L334 92L281 92L237 92L230 92L227 92L226 92L224 92L223 92.0278L222 92.1111L221 92.3333L219 93.3333L217 95.0278L215 96.9167L213 98.6111L212 99.3889L210 101.083L209 102.028L207 104L206 105L204 107L202 108.917L200 110.611L198 112.222L197 113.083C195.979 114.034 194.979 115.007 194 116L192.083 118L191.25 119L190.472 120L189.861 121L189.278 122L188.389 124L187.667 126L187.333 127L186.667 129L185.667 132L179.333 151L172 173L169.667 180L168.667 183L168.333 184L167.611 186L166.833 188L166.444 189L166.167 190L165.611 192L165 194L164.667 195L164 197L162.667 201L161.667 204L161.333 205L160.611 207L159.833 209L159.444 210L159.167 211L158.611 213L158.306 214L158 215L157.333 217L156.611 219L156.194 220L155.389 222L154.667 224L154.333 225L153.667 227L153 229L152.694 230L152.389 231L152.139 232L151.611 234L150.972 236L150.194 238L149.806 239L149.389 240L148.667 242L148.333 243L147.667 245L146 250L140.667 266L135.333 282L134.333 285L133.667 287L133.333 288L132.694 289.944L132.417 290.944L132.25 291.5L132 293M437 296L446 296L449 296L450 296L451 296L453 296.083L453.944 296.222L454.944 296.417L457 297L457.25 298.5L457.417 299.056L457.694 300.056L458.333 302L458.667 303L459.333 305L459.667 306L460.306 308L460.611 309L460.861 310L461.389 312L462 314L462.333 315L463.333 318L466 326L466.667 328L467 329L467.611 331L467.861 332L468.389 334L469 336L469.333 337L470 339L472 345L472.667 347L473 348L473.611 350L474.139 352L474.389 353L474.694 354L475 355L475.667 357L477.667 363L478.333 365L478.667 366L479.417 368L480.5 369.972L481.25 370.917L483.028 372.528L485 373.75L486 374.222L488 375.222L489 375.778L490 376.222L491 376.778L492 377.222L493 377.778L494 378.222L496 379.222L497 379.778L499 380.778L499.944 381.194L500.944 381.778L501.5 382L503 383L503 410L495 410L68 410L68 383L69.5 382.5L70.0556 382.167L71.0556 381.75L72 381.222L74 380.222L75 379.778L77 378.75L78 378.167L79 377.611L81 376.389L83 375.25L84 374.778L85 374.222L86 373.778L87 373.222L89 372.222L90 371.75L91.8889 370.528L93.3611 368.917L93.8889 367.972L94.6667 366L95 365L95.6667 363L96.0278 362L96.3889 361L97.1944 359L97.6111 358L98.3333 356L99 354L100.333 350L102 345L102.667 343L103.028 342L103.389 341L103.806 340L104.611 338L105.333 336L106 334L107.667 329L108.333 327L108.667 326L109.389 324L110.194 322L110.611 321L110.972 320L111.333 319L112 317L112.667 315L113.667 312L114.333 310L114.667 309L115.389 307L115.806 306L116.611 304L116.972 303L117.667 301L118.417 299.083L119.5 297.5L120.25 296.944L122.028 296.25L123 296.083L125 296L126 296L127 296L129 296L134 296L134.5 294.5L134.806 293.944L135.611 292L135.972 291L136.333 290L136.667 289L137.667 286L140.333 278L148 255L150.333 248L151.333 245L151.667 244L152.389 242L153.194 240L153.611 239L154.306 237L154.861 235L155.139 234L155.389 233L156 231L156.667 229L157.333 227L157.667 226L158.389 224L159.194 222L159.611 221L160.333 219L161 217L161.306 216L161.611 215L162.167 213L162.444 212L162.833 211L163.611 209L164.333 207L165 205L166.333 201L167.333 198L168 196L168.611 194L169.167 192L169.444 191L169.833 190L170.611 188L171.333 186L171.667 185L172.667 182L175 175L187 139L187.333 138L189 133L189.667 131L190 130L190.667 128L191.028 127L191.389 126L192.278 124L192.861 123L194.25 121L196.028 119L197 118L199 116.083L200 115.222L202 113.611L204 111.917L205 110.972L207 109L209 107L210 106L212 104.083L214 102.389L215 101.611L217 99.9167L218 98.9722L220 97.1111L222 95.7222L223 95.3333L225 95.0278L226 95L228 95L230 95L235 95L259 95L324 95L344 95L347 95L349 95L351 95.0278L353 95.3333L354 95.7222L355 96.3333L357 98L358 98.9167L360 100.611L361 101.389L363 103.083L365 105L366 106L368 107.917L369 108.778L371 110.389L373 112.083L374 113.028L375 114L377 116L378.889 118L379.694 119L380.889 121L381.667 123L382.306 125L382.611 126L383.139 128L383.389 129L383.694 130L384 131L384.667 133L386 137L388 143L388.667 145L389 146L389.611 148L389.861 149L390.444 151L390.833 152L391.556 154L391.833 155L392.389 157L393 159L393.333 160L394.333 163L397 171L397.667 173L398 174L398.611 176L399.139 178L399.389 179L399.694 180L400 181L400.333 182L401 184L403.667 192L404.667 195L405 196L405.611 198L405.861 199L406.389 201L407 203L407.333 204L408.333 207L411 215L411.667 217L412 218L412.611 220L413.139 222L413.389 223L414 225L414.333 226L415.333 229L418.333 238L419.333 241L420 243L420.611 245L421.139 247L421.389 248L422 250L422.667 252L424 256L427.667 267L428.667 270L429 271L429.611 273L430.139 275L430.389 276L431 278L431.667 280L432.667 283L434.667 289L435.333 291L435.667 292L436 292.944L436.333 293.944L436.556 294.5L437 296M155 295L156 296L195 296L201 296L203 296L204 296L206 295.889L206.972 295.667L207.889 295.278L208.667 294.667L209.667 292.972L209.889 292L210.083 290L210.389 288L210.611 287L210.917 285L210.972 284L211.028 282L211.083 281L211.389 279L211.611 278L211.917 276L212.028 274L212.083 273L212.389 271L212.611 270L212.917 268L212.972 267L213.083 265L213.389 263L213.611 262L213.917 260L213.972 259L214.083 257L214.389 255L214.611 254L214.917 252L214.972 251L215 249.056L215 247L238 247L238.806 245.5L238.972 244.944L239.333 243.944L239.583 243L239.917 241L239.972 240L240 238L240.028 236L240.083 235L240.389 233L240.611 232L240.917 230L240.972 229L241 227L241.028 225L241.083 224L241.389 222L241.611 221L241.917 219L241.972 218L242 217L242 215L242.028 213L242.083 212L242.389 210L242.611 209L242.917 207L242.972 206L243 205L243 203L243.028 201L243.083 200L243.389 198L243.611 197L243.917 195L243.972 194L244 192L244 190L244.028 189L244.083 188L244.389 186L244.611 185L244.917 183L244.972 182L245 181L245 179L245.083 177L245.222 176L245.611 174L245.778 173L245.917 172L246 170L246 169L246.028 167L246.083 166L246.389 164L246.611 163L246.917 161L246.972 160L247 159L247 157L247.028 155L247.083 154L247.389 152L247.583 151L247.667 150L247.25 148.028L245.889 146.333L244.972 145.722L244 145.333L243 145.111L242 145.028L240 144.917L238 144.611L237.056 144.389L236.056 144.222L235.5 144.083L234 144L234.722 142.5L234.75 141.944L234.944 140.944L235.083 139L235.389 137L235.611 136L235.944 134L236.056 133L236.389 131L236.611 130L236.917 128L236.972 127L237.083 125L237.389 123L237.611 122L237.917 120L237.972 119L238 117.056L238 115L237 114L233.944 114L233 114L231 114.111L230 114.333L229 114.722L227 116.083L225 117.778L224 118.611L223 119.389L221 121.083L219 123L217 125L216 126L214 127.917L213 128.778L211.083 130.389L209.5 132.083L208.917 133.028L208.028 135L207.667 136L207.333 137L206.667 139L206.333 140L205.611 142L205.194 143L204.389 145L203.667 147L203.333 148L202.333 151L200 158L192.667 180L170.333 247L169 251L168.333 253L167.972 254L167.611 255L167.194 256L166.389 258L165.667 260L165.333 261L164.667 263L164 265L163.389 267L163.139 268L162.556 270L161.806 272L161.389 273L160.667 275L160.333 276L159.667 278L157 286L156.333 288L156 289L155.417 291L155.222 291.944L155.028 293.5L155 295M256 127L257.5 127.806L258.056 127.972L260 128.583L262 128.917L264 129L264.944 129L268 129L268 131.056L268 132.056L267.972 134L267.917 135L267.611 137L267.389 138L267.083 140L267.028 141L267 143L266.972 145L266.917 146L266.611 148L266.389 149L266.083 151L266.028 152L266 153L266 155L265.972 157L265.917 158L265.611 160L265.389 161L265.083 163L265.028 164L265 166L265 168L264.972 169L264.917 170L264.611 172L264.389 173L264.083 175L264.028 176L264 178L263.972 180L263.917 181L263.611 183L263.389 184L263.083 186L263.028 187L263 189L263 191L262.972 192L262.917 193L262.611 195L262.389 196L262.083 198L262.028 199L262 201L262 203L261.972 204L261.917 205L261.611 207L261.389 208L261.083 210L261.028 211L261 213L260.972 215L260.917 216L260.611 218L260.389 219L260.083 221L260.028 222L260 223L260 225L259.972 227L259.917 228L259.611 230L259.389 231L259.083 233L259.028 234L259 236L258.972 238L258.917 239L258.611 241L258.389 242L258.083 244L258.028 245L258 247L258 249L257.972 250L257.917 251L257.611 253L257.389 254L257.083 256L257.028 257L257 258L257 260L257 266L233 266L232.028 267.5L231.444 269.056L231.083 271L231.028 272L230.917 274L230.778 275L230.389 277L230.083 279L230.028 280L229.917 282L229.778 283L229.389 285L229.083 287L229.028 288L229 290L229 291.944L229 295L230 296L345 296L346 295L346 291.944L346 291L345.972 289L345.917 288L345.611 286L345.222 284L345.083 283L344.972 281L344.917 280L344.611 278L344.222 276L344.083 275L343.972 273L343.917 272L343.583 270L342.972 268.056L342.806 267.5L342 266L319 266L318 265L318 259L318 257L317.972 256L317.917 255L317.611 253L317.389 252L317.083 250L317.028 249L317 247L317 246L317 244L316.917 242L316.611 240L316.389 239L316.083 237L316.028 236L316 234L315.972 232L315.917 231L315.611 229L315.389 228L315.083 226L315.028 225L315 223L314.972 221L314.917 220L314.611 218L314.389 217L314.083 215L314.028 214L314 212L313.972 210L313.917 209L313.611 207L313.389 206L313.083 204L313.028 203L313 201L313 199L312.972 198L312.917 197L312.611 195L312.389 194L312.083 192L312.028 191L312 189L312 187L311.972 186L311.917 185L311.611 183L311.389 182L311.083 180L311.028 179L311 178L311 176L310.972 174L310.917 173L310.611 171L310.389 170L310.083 168L310.028 167L310 165L310 163L309.972 162L309.917 161L309.611 159L309.389 158L309.083 156L309.028 155L309 154L309 152L308.972 150L308.917 149L308.611 147L308.389 146L308.083 144L308.028 143L307.972 141L307.917 140L307.611 138L307.389 137L307.083 135L307.028 134L307 132.056L307 131.056L307 129L310.056 129L311 129L313 128.917L315 128.583L316.944 127.972L317.5 127.806L319 127L318.972 124.944L318.917 123.944L318.611 122L318.389 121L318.056 119L317.917 118L317.278 116.111L315.889 114.722L314.972 114.333L314 114.111L312 114L311 114L310 114L308 114L303 114L272 114L267 114L265 114L264 114L263 114L261 114.111L260.028 114.333L259.111 114.722L257.722 116.111L257.083 118L256.944 119L256.611 121L256.389 122L256.083 123.944L256.028 124.944L256 127M338 114L337 115L337 117.056L337 118.056L337.028 120L337.083 121L337.389 123L337.778 125L337.917 126L338.083 128L338.389 130L338.778 132L338.917 133L339.083 135L339.389 137L339.611 138L339.917 140L339.972 140.944L340 141.944L340 144L338.5 144.25L336.944 144.611L335 144.917L334 144.972L332 145.028L331 145.111L329.111 145.722L327.722 147.111L327.333 148.028L327.056 150L327.083 151L327.389 153L327.611 154L327.917 156L327.972 157L328 159L328 161L328.028 162L328.083 163L328.389 165L328.611 166L328.917 168L328.972 169L329 171L329.028 173L329.083 174L329.389 176L329.611 177L329.917 179L329.972 180L330 182L330.028 184L330.083 185L330.389 187L330.611 188L330.917 190L330.972 191L331 193L331 195L331.028 196L331.083 197L331.389 199L331.611 200L331.917 202L331.972 203L332 204L332 206L332.028 208L332.083 209L332.389 211L332.611 212L332.917 214L332.972 215L333 217L333 219L333.083 221L333.389 223L333.611 224L333.917 226L334 228L334 229L334 231L334.028 232L334.083 233L334.389 235L334.611 236L334.917 238L334.972 239L335 240L335 241L335.111 243L335.722 244.889L336.333 245.667L338.028 246.667L339 246.889L340 246.972L341 247L343 247L345 247L348 247L360 247L360 249.056L360 250.056L360.028 252L360.083 253L360.389 255L360.778 257L360.917 258L361.028 260L361.083 261L361.389 263L361.611 264L361.917 266L362.028 268L362.083 269L362.389 271L362.611 272L362.917 274L362.972 275L363.083 277L363.389 279L363.611 280L363.917 282L363.972 283L364.083 285L364.389 287L364.611 288L364.917 290L364.972 291L365 292.944L365 295L366 296L415 296L416 295L415.917 292.944L415.611 291L415.139 289L414.861 288L414.611 287L414.306 286L414 285L413.333 283L413 282L412.333 280L410.333 274L409.333 271L409 270L408.389 268L408.139 267L407.556 265L406.833 263L406.444 262L405.861 260L405.611 259L405 257L404.333 255L403.333 252L400.333 243L399.333 240L399 239L398.694 238L398.389 237L398.139 236L397.611 234L397 232L396.667 231L396 229L393.333 221L392.333 218L392 217L391.389 215L391.139 214L390.611 212L390 210L389.667 209L389 207L386.333 199L385.333 196L385 195L384.389 193L384.139 192L383.611 190L383 188L382.667 187L381.667 184L378 173L376.667 169L376 167L375.389 165L375.139 164L374.611 162L374 160L373.667 159L373 157L370.667 150L369.667 147L369.333 146L368.694 144L368.389 143L368.139 142L367.611 140L367.306 139L367 138L366.333 136L365.667 134L365.333 133L364.972 132L364.083 130.028L363.5 129.083L361.917 127.389L360.972 126.611L359 124.917L358 123.972L356 122L355 121.028L354 120.083L352 118.389L351 117.611L349 116.028L348 115.306L347 114.722L346 114.333L344 114.028L342 114L341.056 114L338 114M235 117L234.917 118.5L234.778 119.056L234.611 120.056L234.389 121L234.083 123L233.972 125L233.917 126L233.611 128L233.389 129L233.056 131L232.944 132L232.611 134L232.222 136L232 138L231.917 139L231.611 141L231.389 142L231.083 143.944L231 146L232.5 146.444L233.056 146.667L235 147.306L236 147.583L237 147.778L238 147.917L239.944 148L240.944 148L243 148L244 149L244 155L244 157L243.972 158L243.917 159L243.611 161L243.389 162L243.083 164L243.028 165L243 167L242.972 169L242.917 170L242.611 172L242.389 173L242.083 175L242.028 176L242 178L241.972 180L241.917 181L241.611 183L241.389 184L241.083 186L241.028 187L241 189L241 191L240.972 192L240.917 193L240.611 195L240.389 196L240.083 198L240.028 199L240 200L240 202L239.972 204L239.917 205L239.611 207L239.389 208L239.083 210L239.028 211L239 212L239 214L238.972 216L238.917 217L238.611 219L238.389 220L238.083 222L238.028 223L238 225L237.972 227L237.917 228L237.611 230L237.389 231L237.083 233L237.028 234L237 236L236.972 238L236.917 239L236.611 240.944L236.25 242.5L236 244L213 244L212 245L212 247.056L211.972 249L211.917 250L211.611 252L211.389 253L211.083 255L211.028 256L210.917 258L210.778 259L210.389 261L210.083 263L209.972 265L209.917 266L209.611 268L209.389 269L209.083 271L209.028 272L208.917 274L208.611 276L208.389 277L208.083 279L208.028 280L207.972 282L207.917 283L207.611 285L207.389 286L207.083 288L207.028 288.944L207 289.944L207 292L206 293L159 293L159.083 291.5L159.222 290.944L159.417 289.944L160 288L160.333 287L161.333 284L163 279L163.667 277L164.389 275L165.167 273L165.556 272L166.139 270L166.389 269L167 267L167.667 265L168.333 263L168.667 262L169.389 260L170.194 258L170.611 257L170.972 256L171.333 255L172 253L173.667 248L205 154L206 151L206.667 149L207.028 148L207.389 147L207.806 146L208.611 144L209.333 142L209.667 141L210.333 139L210.667 138L211.028 137L211.917 135.083L212.5 134.222L213.25 133.389L215.028 131.778L216 130.917L218 129L220 127L222 125.028L223 124.083L225 122.389L226 121.611L227 120.778L229 119.083L230 118.333L231 117.722L231.944 117.333L232.944 117.111L235 117M314 117L315 118L315.028 120.056L315.083 121.056L315.417 122.944L316 125L314.5 125.25L312.944 125.611L311 125.917L310 125.972L308.056 126L307.056 126L305 126L304 127L304 133L304 135L304.028 136L304.083 137L304.389 139L304.611 140L304.917 142L304.972 143L305.028 145L305.222 147L305.611 149L305.917 151L305.972 152L306 153L306 155L306.028 157L306.083 158L306.389 160L306.611 161L306.917 163L306.972 164L307 166L307 168L307.028 169L307.083 170L307.389 172L307.611 173L307.917 175L307.972 176L308 178L308 180L308.028 181L308.083 182L308.389 184L308.611 185L308.917 187L308.972 188L309 190L309 192L309.028 193L309.083 194L309.389 196L309.611 197L309.917 199L309.972 200L310 202L310 204L310.028 205L310.083 206L310.389 208L310.611 209L310.917 211L310.972 212L311 214L311.028 216L311.083 217L311.389 219L311.611 220L311.917 222L311.972 223L312 225L312.028 227L312.083 228L312.389 230L312.611 231L312.917 233L312.972 234L313 236L313.028 238L313.083 239L313.389 241L313.611 242L313.917 244L313.972 245L314 247L314 249L314 250L314.028 251L314.083 252L314.389 254L314.611 255L314.917 257L314.972 258L315 259L315 261L315 262L315.111 264L315.333 265L316.333 266.889L317.111 267.667L319 268.667L320 268.889L321 268.972L322 269L324 269L326 269L329 269L340 269L340.25 270.5L340.611 272.056L340.917 274L340.972 275L341.083 277L341.389 279L341.611 280L341.917 282L341.972 283L342.083 285L342.389 287L342.611 288L342.917 289.944L342.972 290.944L343 293L232 293L232 290.944L232.028 289.944L232.083 289L232.389 287L232.611 286L232.917 284L233.028 282L233.083 281L233.389 279L233.611 278L233.917 276L233.972 275L234.083 273L234.417 271.056L235 269L259 269L260 268L260 262L260 260L260.028 259L260.083 258L260.389 256L260.611 255L260.917 253L260.972 252L261 250L261 248L261.028 247L261.083 246L261.389 244L261.611 243L261.917 241L261.972 240L262 238L262.028 236L262.083 235L262.389 233L262.611 232L262.917 230L262.972 229L263 227L263 225L263.028 224L263.083 223L263.389 221L263.611 220L263.917 218L263.972 217L264 215L264.028 213L264.083 212L264.389 210L264.611 209L264.917 207L264.972 206L265 205L265 203L265.028 201L265.083 200L265.389 198L265.611 197L265.917 195L265.972 194L266 193L266 191L266.028 189L266.083 188L266.389 186L266.611 185L266.917 183L266.972 182L267 180L267.028 178L267.083 177L267.389 175L267.611 174L267.917 172L267.972 171L268 169L268 167L268.028 166L268.083 165L268.389 163L268.611 162L268.917 160L268.972 159L269 158L269 156L269.028 154L269.083 153L269.389 151L269.611 150L269.917 148L269.972 147L270 145L270.028 143L270.083 142L270.389 140L270.611 139L270.917 137L270.972 136L271 135L271 133L271 127L270 126L267.944 126L266.944 126L265 125.972L264 125.917L262.056 125.611L260.5 125.25L259 125L259.583 122.944L259.917 121.056L259.972 120.056L260 118L261 117L314 117M412 293L368 293L368 290.944L367.972 289L367.917 288L367.611 286L367.389 285L367.083 283L366.972 281L366.917 280L366.611 278L366.389 277L366.083 275L365.972 273L365.917 272L365.611 270L365.389 269L365.083 267L365.028 266L364.917 264L364.611 262L364.389 261L364.083 259L364.028 258L363.917 256L363.778 255L363.389 253L363.083 251L363.028 250L363 248.056L363 247.056L363 245L362 244L339 244L338 243L338 239.944L338 239L337.972 237L337.917 236L337.611 234L337.389 233L337.083 231L337.028 230L337 229L337 227L336.972 225L336.917 224L336.611 222L336.389 221L336.083 219L336.028 218L336 216L336 214L335.972 213L335.917 212L335.611 210L335.389 209L335.083 207L335.028 206L335 205L335 203L334.972 201L334.917 200L334.611 198L334.389 197L334.083 195L334.028 194L334 193L334 191L333.972 189L333.917 188L333.611 186L333.389 185L333.083 183L333.028 182L333 180L332.972 178L332.917 177L332.611 175L332.389 174L332.083 172L332.028 171L332 169L331.972 167L331.917 166L331.611 164L331.389 163L331.083 161L331.028 160L331 158L331 156L330.972 155L330.917 154L330.611 152.056L330.25 150.5L330 149L331.5 148.278L332.056 148.25L333.056 148.056L334 148.028L336 147.972L337 147.917L338 147.778L339 147.583L340 147.306L341.944 146.667L342.5 146.444L344 146L343.917 144.5L343.778 143.944L343.611 142.944L343.389 142L343.083 140L342.917 138L342.611 136L342.222 134L342.083 133L341.917 131L341.778 130L341.389 128L341.083 126L340.917 124L340.611 122L340.389 121L340.083 119.056L340 117L341.5 117L343.056 117.111L344 117.333L345 117.722L346 118.306L348 119.806L349 120.611L350 121.389L352 123.083L353 124.028L355 126L357 127.917L358.917 129.611L359.75 130.389L360.5 131.222L361.083 132.083L361.972 134L362.333 135L363 137L363.667 139L364.306 141L364.611 142L365.139 144L365.389 145L365.694 146L366 147L366.667 149L368.333 154L370.333 160L371 162L371.306 163L371.611 164L371.861 165L372.389 167L373 169L373.667 171L375 175L378.667 186L379.667 189L380 190L380.611 192L380.861 193L381.389 195L382 197L382.333 198L383.333 201L386 209L386.667 211L387 212L387.611 214L388.139 216L388.389 217L389 219L389.333 220L390.333 223L393 231L393.667 233L394 234L394.611 236L395.139 238L395.389 239L395.694 240L396 241L396.333 242L397 244L400.333 254L401.333 257L402 259L402.611 261L402.861 262L403.444 264L403.833 265L404.556 267L405.139 269L405.389 270L405.694 271L406 272L406.667 274L407 275L407.667 277L409.667 283L410.667 286L411 287L411.583 289L411.778 289.944L411.972 291.5L412 293M133 315L132.028 316.5L131.833 317.056L131.361 318.056L130.611 320L129.806 322L129.389 323L128.667 325L128.333 326L127.667 328L126 333L125.333 335L124.611 337L123.806 339L123.389 340L122.667 342L122.333 343L121.667 345L119.333 352L118.667 354L118.333 355L117.611 357L116.806 359L116.389 360L115.667 362L115 364L113.333 369L112.667 371L112.333 372L111.611 374L111.194 375L110.389 377L110.028 378L109.306 380L108.889 380.972L108.361 381.917L106.889 383.528L105.972 384.167L104.111 385.472L102.722 387.028L102.111 388.5L102 390L103.5 390.722L104.056 390.75L105.056 390.944L106 390.972L107 391L109 391L112 391L124 391L168 391L177 391L180 391L182 391L184 391L185 390.972L186.972 390.667L187.889 390.278L188.667 389.667L189.75 387.972L190.111 387L190.361 386L190.611 385L190.944 383L191.056 382L191.389 380L191.778 378L191.917 377L192.083 375L192.222 374L192.611 372L192.917 370L193.028 368L193.222 366L193.389 365L193.778 363L193.917 362L194.083 360L194.222 359L194.389 358L194.778 356L194.917 355L195.083 353L195.222 352L195.611 350L195.944 348L196.056 347L196.389 345L196.611 344L196.944 342L197.056 341L197.389 339L197.778 337L197.917 336L198.083 334L198.222 333L198.611 331L198.778 330L198.917 329L199.083 327L199.222 326L199.611 324L199.917 322L199.972 321L200 319.056L200 318.056L200 316L199 315L133 315M209 390L210 391L365 391L366 390L366 387.944L365.972 386.944L365.917 386L365.611 384L365.389 383L365.056 381L364.778 379L364.389 377L364.083 375L364 374L363.778 372L363.389 370L363.056 368L362.944 367L362.611 365L362.222 363L362.083 362L361.972 360L361.917 359L361.778 358L361.389 356L361.056 354L360.944 353L360.611 351L360.222 349L360.083 348L359.917 346L359.778 345L359.389 343L359.083 341L359 340L358.778 338L358.389 336L358.056 334L357.944 333L357.611 331L357.389 330L357.083 328L356.917 326L356.778 325L356.389 323L356.056 321L355.944 320L355.556 318.056L354.972 316.5L354 315L255 315L230 315L226 315L224 315.028L222.028 315.333L221.111 315.722L220.333 316.333L219.333 318.028L219.083 319L218.944 320L218.611 322L218.389 323L218.083 325L217.917 327L217.778 328L217.389 330L217.083 332L216.917 334L216.778 335L216.389 337L216.056 339L215.944 340L215.611 342L215.222 344L215.083 345L214.917 347L214.778 348L214.611 349L214.222 351L214.083 352L213.917 354L213.611 356L213.222 358L213.083 359L212.917 361L212.611 363L212.389 364L212.056 366L211.944 367L211.611 369L211.222 371L211.083 372L210.917 374L210.611 376L210.389 377L210.056 379L209.944 380L209.611 382L209.389 383L209.083 385L209.028 386L209 387.944L209 390M376 315L375 316L375 319.056L375 320L375.028 322L375.083 323L375.389 325L375.611 326L375.944 328L376.056 329L376.389 331L376.611 332L376.917 334L377.083 336L377.222 337L377.611 339L377.778 340L377.917 341L378.083 343L378.222 344L378.611 346L378.944 348L379.056 349L379.389 351L379.778 353L379.917 354L380.083 356L380.222 357L380.611 359L380.778 360L380.917 361L381.083 363L381.222 364L381.611 366L381.917 368L382.083 370L382.222 371L382.611 373L382.944 375L383.056 376L383.389 378L383.778 380L383.917 381L384.083 383L384.222 384L384.611 386L384.917 387.944L385 390L386 391L442 391L458 391L461 391L463 391L465 390.972L465.944 390.944L466.944 390.75L467.5 390.722L469 390L468.889 388.5L468.278 387.028L466.972 385.389L466.222 384.611L464.917 382.917L464.417 381.972L463.667 380L463.333 379L462.667 377L462 375L461.694 374L461.389 373L461.139 372L460.611 370L460 368L459.667 367L459 365L457 359L456.333 357L456 356L455.389 354L454.861 352L454.611 351L454 349L453.667 348L453 346L450.333 338L449.333 335L449 334L448.389 332L447.861 330L447.611 329L447.306 328L447 327L446.333 325L445.333 322L445 321L444.306 319L443.889 318.028L443.361 317.111L442.694 316.333L441.889 315.722L440 315.111L439 315.028L438 315L436 315L435 315L432 315L423 315L376 315M197 318L196.917 320.056L196.611 322L196.389 323L196.083 325L195.917 327L195.778 328L195.389 330L195.083 332L194.917 334L194.778 335L194.389 337L194.056 339L193.944 340L193.611 342L193.222 344L192.944 346L192.611 348L192.389 349L192.083 351L191.917 353L191.778 354L191.389 356L191.083 358L190.917 360L190.611 362L190.389 363L190.083 365L190.028 366L189.917 368L189.778 369L189.611 370L189.222 372L189.083 373L188.917 375L188.611 377L188.389 378L188.056 380L187.944 381L187.611 383L187.389 383.944L187.222 384.944L187.083 385.5L187 387L186 388L108 388L108.778 386.917L109.278 386.528L110 385.722L111.361 383.972L112.306 382L112.667 381L113.389 379L113.806 378L114.611 376L115.333 374L116 372L117.667 367L118.333 365L118.667 364L119.028 363L119.389 362L120.194 360L120.611 359L121.333 357L121.667 356L122.333 354L124.667 347L125.333 345L125.667 344L126.389 342L126.806 341L127.611 339L128.333 337L128.667 336L129.333 334L131 329L131.667 327L132.389 325L132.806 324L133.611 322L134.333 320.056L134.556 319.5L135 318L197 318M352 318L352.583 320.056L352.944 322L353.056 323L353.389 325L353.611 326L353.917 328L354.083 330L354.222 331L354.611 333L354.944 335L355.056 336L355.389 338L355.778 340L355.917 341L356.083 343L356.222 344L356.611 346L356.917 348L357.083 350L357.389 352L357.611 353L357.944 355L358.056 356L358.389 358L358.778 360L358.917 361L359.028 363L359.083 364L359.389 366L359.611 367L359.944 369L360.222 371L360.389 372L360.778 374L360.917 375L361.083 377L361.222 378L361.611 380L361.944 382L362.222 384L362.611 385.944L362.75 386.5L363 388L212 388L212.083 386.5L212.222 385.944L212.611 384L212.944 382L213.056 381L213.389 379L213.611 378L213.917 376L214.083 374L214.222 373L214.611 371L214.944 369L215.056 368L215.389 366L215.778 364L215.917 363L216.083 361L216.222 360L216.389 359L216.778 357L216.917 356L217.083 354L217.222 353L217.611 351L217.778 350L217.917 349L218.083 347L218.389 345L218.611 344L218.944 342L219.056 341L219.389 339L219.778 337L219.917 336L220.083 334L220.389 332L220.778 330L220.917 329L221.083 327L221.389 325L221.611 324L221.917 322.056L221.972 321.056L222 319L223 318L352 318M440 318L440.806 319.5L440.972 320.056L441.361 321.056L441.667 322L442 323L442.667 325L443.667 328L444 329L444.306 330L444.611 331L444.861 332L445.389 334L445.694 335L446.333 337L446.667 338L447.333 340L449.667 347L450.667 350L451 351L451.611 353L451.861 354L452.389 356L453 358L453.333 359L454 361L456 367L456.667 369L457 370L457.611 372L458.139 374L458.389 375L459 377L459.333 378L460 380L460.667 382L461.028 383L461.389 384L462.194 385.944L462.5 386.5L463 388L388 388L387.917 385.944L387.611 384L387.222 382L387.083 381L386.917 379L386.778 378L386.389 376L386.056 374L385.944 373L385.611 371L385.222 369L385.083 368L384.917 366L384.611 364L384.222 362L384.083 361L383.917 359L383.778 358L383.389 356L383.083 354L382.917 352L382.778 351L382.389 349L382.056 347L381.944 346L381.611 344L381.222 342L381.083 341L380.917 339L380.611 337L380.222 335L380.083 334L379.917 332L379.611 330L379.389 329L379.056 327L378.944 326L378.611 324L378.389 323L378.083 321.056L378.028 320.056L378 318L440 318M73 455.389L72 455.639L70 456.167L69 456.444L67 457.278L66 457.861L65 458.472L63 460.083L62 461.028L60.0833 463L59.25 464L58.4722 465L57.25 467L56.7778 468L56.25 469L55.4722 471L55.2222 472L55 473L54.6111 475L54.2222 477L54.0833 478L54.0833 480L54.3889 482L54.6111 483L55 485L55.4167 487L55.6944 488L56.0278 489L56.4167 490L57.4167 492L58.6944 494L60.2222 495.972L61.0833 496.917L63 498.528L65 499.75L66 500.222L67 500.75L69 501.611L71 502.306L72 502.583L73 502.778L74 502.917L76 503L77 503L79 503L81 503L82 503L84 502.917L86 502.583L87 502.306L89 501.583L91 500.583L92 499.972L94 498.583L94.9722 497.778L95.9167 496.917L97.5833 495L98.3056 494L99.6111 492L100.722 490L101.528 488L101.778 487L102 486L102.389 484L102.611 483L102.917 481L103 479L102.972 478L102.917 477L102.611 475L102.361 474L101.861 472L101.611 471L100.972 469L100.583 468L99.5833 466L98.3056 464L97.5833 463.028L95.9167 461.222L94.9722 460.417L93 459.028L91 457.833L90 457.278L89 456.861L88 456.444L87 456.167L86 455.861L84 455.389L82 455.083L81 455.028L80 455L78 455L77 455L75 455.083L73 455.389M474 455.389L473 455.639L472 455.861L470 456.444L468 457.25L467 457.778L466 458.25L464 459.472L462.083 461.083L461.222 462.028L460.417 463L459.028 465L457.833 467L457.278 468L456.444 470L455.861 472L455.389 474L455.083 476L455.028 477L455 479L455 480L455 481L455.083 483L455.417 485L455.694 486L456.389 488L456.833 489L457.25 490L457.778 491L458.25 492L459.472 494L461.083 495.972L463 497.778L465 499.306L467 500.583L469 501.583L471 502.306L472 502.583L473 502.778L474 502.917L476 503L477 503L478 503L480 503L482 503L483 503L485 502.917L486 502.75L487 502.528L489 501.75L490 501.222L492 500.167L493 499.611L495 498.306L495.972 497.583L497.75 495.917L498.528 494.972L499.806 493L500.361 492L500.944 491L501.917 489L502.278 488L502.806 486L503.194 484L503.611 482L503.778 481L503.917 480L503.917 478L503.611 476L503.389 475L503 473L502.778 472L502.528 471L501.75 469L501.222 468L500.75 467L499.528 465L497.917 463L496.972 462L496 461.028L495 460.083L493 458.472L491 457.278L490 456.861L488 456.167L487 455.861L485 455.389L483 455.083L482 455.028L480 455L479 455L478 455L476 455.083L474 455.389M76 458.222L77 458.083L78 458.028L80 458.083L82 458.389L83 458.639L84 458.861L86 459.444L87 459.861L88 460.278L89 460.833L91 462.028L92.9167 463.417L94.5833 465.083L95.3056 466.028L96.5833 468L97.5833 470L97.9722 471L98.6111 473L98.8611 474L99.3611 476L99.6111 477L99.8333 479L99.75 480L99.6111 481L99.1944 483L98.7778 485L98.5278 486L97.7222 488L96.6111 490L95.9722 491L95.3056 492L93.7778 493.917L91.9722 495.583L91 496.306L90 496.972L89 497.583L87 498.583L86 498.972L84 499.583L83 499.778L82 499.917L80 500L79 500L77 499.972L76 499.917L74 499.583L73 499.306L71 498.611L70 498.167L69 497.75L68 497.222L67 496.75L65.0278 495.528L63.2222 493.917L61.6944 492L60.4167 490L59.4167 488L58.6944 486L58.4167 485L58 483L57.6389 481L57.4722 480L57.4722 478L57.8056 476L58.2222 474L58.4722 473L59.25 471L59.7778 470L60.25 469L61.4722 467L62.25 466L64.0278 464.028L66 462.25L67 461.472L69 460.278L71 459.444L72 459.167L74 458.639L76 458.222M477 458.222L478 458.083L479 458.028L481 458.083L483 458.389L484 458.639L486 459.167L487 459.444L488 459.861L489 460.278L491 461.472L492 462.25L493.972 464.028L495.75 466L496.528 467L497.75 469L498.222 470L498.75 471L499.528 473L499.778 474L500.194 476L500.528 478L500.528 480L500.361 481L500 483L499.583 485L498.917 487L497.944 489L497.361 490L496.806 491L495.528 492.917L494.75 493.778L493.917 494.583L492.972 495.306L491 496.611L490 497.167L488 498.222L487 498.75L485 499.528L483 499.917L482 499.972L480 500L478 500L476 499.917L474 499.583L472 498.972L471 498.583L469 497.583L467 496.306L465.028 494.778L464.083 493.917L462.472 492L461.25 490L460.778 489L460.25 488L459.389 486L458.694 484L458.417 483L458.083 481L458.028 479L458.083 478L458.389 476L458.639 475L459.167 473L459.444 472L460.278 470L460.833 469L462.028 467L463.417 465.028L464.222 464.083L466.028 462.472L467 461.861L469 460.778L470 460.25L472 459.444L474 458.861L475 458.639L477 458.222z"/>
</svg>
