<?xml version="1.0" standalone="yes"?>
<svg xmlns="http://www.w3.org/2000/svg" width="871" height="478">
<path style="fill:#00ff00; stroke:none;" d="M199 1.38889L198 1.61111L196 1.91666L194 2L193 2L191 2L184 2L181 2L180 2L178 2.08334L176 2.38889L175 2.61111L173 2.91666L172 2.97223L170 3L168 3L160 3L158 3L156 3.02777L155 3.08334L153 3.38889L152 3.61111L150 3.91666L149 3.97223L147 4L144 4L134 4L131 4L129 4.02777L128 4.08334L126 4.38889L125 4.61111L123 4.91666L121 5L120 5L117 5L109 5L107 5L105 5.02777L104 5.08334L102 5.38889L101 5.61111L99 5.91666L98 5.97223L96 6L95 6L91 6L80 6L76 6L74 6L72 6.08334L70 6.38889L69 6.61111L67 6.91666L66 6.97223L64 7L63 7L61 7L55 7L52 7L50 7.02777L49 7.08334L47 7.38889L46 7.61111L44 7.91666L43 7.97223L42 8L40 8L35 8L32 8L30 8L28 8.02777L27 8.08334L25 8.38889L24 8.61111L22 8.91666L21 8.97223L19 9.02777L18 9.11111L16 9.69446L15 10.25L13 11.6389L12 12.3889L10 14.0833L9 15.0278L7 17L5 19L3.11111 21L1.72222 23L1.33333 24L1.11111 25L1.02778 26L1 28L1 29L1 31L1 46L1 113L1 119L1 121L1 122L1.02778 124L1.11111 125L1.72222 127L3.11111 129L4.02778 130L5 131L7 133L9 135L14 140L16 142L17 143L18.9722 145L20.75 147L21.5 148L22.5 150L22.9444 152L23.2222 154L23.3889 155L23.6111 156L23.9167 158L23.9722 159L24 161L24 163L24 166L24 180L24 222L24 292L24 315L24 323L24 326L24 327L23.9167 329L23.6111 331L23.1944 333L22.7778 335L22.5 336L22.0833 337L20.9722 339L20.3056 340L19.5833 341L17.9167 343L16.9722 344L15 346L13 348L9 352L6 355L5 356L3.11111 358L2.33333 359L1.72222 360L1.11111 362L1.02778 363L1 365L1 367L1 372L1 434L1 453L1 456L1 458L1.02778 460L1.33333 462L1.72222 463L3.11111 465L4.02778 466L6 468L8 470L10 472L11 473L13 474.972L15 476.667L17 477.667L18 477.889L19 477.972L20 478L21 478L23 478L36 478L88 478L210 478L250 478L263 478L266 478L267 478L269 477.972L270 477.917L272 477.5L274 476.5L276 474.917L278 473L279 472L281 470L284 467L286 465L287 464L289 462.083L290 461.25L291 460.5L293 459.417L294 459.028L296 458.417L297 458.222L298 458.083L300 458L301 458L303 458L312 458L339 458L423 458L524 458L537 458L555 458L557 458L567 458L569 458L570 458L571 458L573 458.083L574 458.222L576 458.639L577 458.861L579 459.472L581 460.5L582 461.25L583 462.083L585 464L586 465L588 467L591 470L592 471L594 473L595 473.972L596 474.917L598 476.5L600 477.5L601 477.75L603 477.972L604 478L605 478L607 478L618 478L630 478L647 478L648 478L653 478L666 478L684 478L686 478L691 478L702 478L707 478L715 478L721 478L722 478L730 478L734 478L738 478L754 478L759 478L764 478L780 478L800 478L803 478L805 478L813 478L817 478L818 478L823 478L825 478L827 478L832 478L840 478L844 478L848 478L850 478L852 477.972L854 477.75L855 477.5L857 476.5L859 474.917L861 473L862 472L864 470L866 468L867 467L868.889 465L869.667 464L870.278 463L870.889 461L870.972 460L871 459L871 457L871 451L871 449L871 431L871 429L871 423L871 421L871 402L871 369L871 366L871 365L871 364L870.889 362L870.278 360L868.889 358L867.972 357L867 356L865 354L864 353L862 351L859 348L857 346L855 344L853.028 342L852.083 341L850.5 339L849.417 337L848.694 335L848.417 334L848.083 332L848 330L848 329L848 326L848 318L848 317L848 316L848 293L848 291L848 283L848 220L848 218L848 214L848 213L848 211L848 210L848 177L848 176L848 163L848 160L848 158L848.028 156L848.083 155L848.417 153L849.028 151L849.417 150L850.5 148L851.25 147L852.083 146L854 144L855 143L856 142L858 140L864 134L866 132L867 131L868.889 129L869.667 128L870.667 126L870.889 125L870.972 124L871 123L871 122L871 119L871 103L871 101L871 99L871 81L871 49L871 33L871 30L871 28L870.889 26L870.667 25L870.278 24L868.889 22L867.972 21L866 19L864 17L862 15L861 14L859 12.0278L858 11.1111L856 9.72223L855 9.33331L854 9.11111L853 9.02777L851 8.97223L850 8.91666L848 8.61111L847 8.38889L845 8.08334L843 8L842 8L840 8L834 8L833 8L830 8L829 8L827 7.91666L826 7.77777L824 7.38889L822 7.08334L821 7.02777L820 7L818 7L815 7L811 7L808 7L807 7L805 6.97223L804 6.91666L802 6.61111L800 6.22223L799 6.08334L797 6L795 6L791 6L788 6L780 6L776 6L774 5.97223L773 5.91666L771 5.61111L770 5.38889L768 5.08334L766 5L765 5L762 5L754 5L752 5L750 4.97223L749 4.91666L747 4.61111L746 4.38889L744 4.08334L743 4.02777L741 4L738 4L734 4L728 4L726 4L725 4L723 3.97223L722 3.91666L720 3.61111L719 3.38889L717 3.08334L715 3L714 3L711 3L708 3L704 3L702 3L700 2.97223L699 2.91666L697 2.61111L696 2.38889L694 2.08334L693 2.02777L691 2L689 2L681 2L679 2L677 1.97223L676 1.91666L674 1.61111L673 1.38889L671 1.08334L670 1.02777L668 1L666 1L665 1L656 1L652 1L646 1L644 1L639 1L629 1L624 1L622 1L609 1L605 1L603 1L601 1.02777L599 1.33331L598 1.72223L597 2.33331L595 4.02777L594 5L592 7L590 9L589.028 10L588.083 11L586.389 13L585.611 14L583.917 16L582.972 17L581 19L579 21L578 22L576 23.9167L575 24.75L574 25.5278L572 26.7222L570 27.5278L568 27.9167L567 27.9722L565 28L563 28L561 28L560 28L546 28L542 28L538 28L522 28L514 28L502 28L368 28L322 28L308 28L306 28L304 27.9722L302 27.75L301 27.5L299 26.5L297 24.9167L296 23.9722L295 23L293 21L292 20L289 17L280 8L278 6L276 4.02777L275 3.11111L273 1.72223L271 1.11111L269 1L268 1L266 1L252 1L218 1L207 1L204 1L203 1L201 1.08334L199 1.38889M202 4.22223L203 4.08334L205 4L206 4L209 4L219 4L251 4L264 4L266 4L267 4L269 4.11111L271 4.72223L273 6.11111L274 7.02777L276 9L278 11L287 20L290 23L291 24L293 26L294 26.9722L295 27.9167L297 29.5L299 30.5L300 30.75L302 30.9722L304 31L307 31L323 31L376 31L506 31L549 31L553 31L563 31L566 31L567 31L569 30.9722L570 30.9167L572 30.5278L574 29.7222L576 28.5278L577 27.75L578 26.9167L580 25L581 24L582 23L584 21L585.972 19L586.917 18L588.611 16L589.389 15L591.083 13L592.028 12L594 10L596 8L597 7.02777L599 5.33331L600 4.72223L601 4.33331L603 4.02777L605 4L607 4L610 4L613 4L630 4L655 4L663 4L666 4L668 4.02777L669 4.08334L671 4.38889L672 4.61111L674 4.91666L675 4.97223L677 5L679 5L687 5L689 5L691 5.02777L692 5.08334L694 5.38889L695 5.61111L697 5.91666L698 5.97223L700 6L702 6L705 6L709 6L712 6L713 6L715 6.08334L717 6.38889L718 6.61111L720 6.91666L721 6.97223L723 7L726 7L730 7L736 7L739 7L741 7.02777L742 7.08334L744 7.38889L745 7.61111L747 7.91666L749 8L750 8L753 8L761 8L763 8L765 8.02777L766 8.08334L768 8.38889L769 8.61111L771 8.91666L772 8.97223L774 9L778 9L779 9L789 9L793 9L795 9L797 9.08334L798 9.22223L800 9.61111L802 9.91666L803 9.97223L805 10L807 10L815 10L817 10L819 10.0278L820 10.0833L822 10.3889L823 10.6111L825 10.9167L826 10.9722L828 11L831 11L836 11L838 11L839 11L841 11L842 11.0278L843 11.0833L845 11.3889L846 11.6111L848 11.9167L849 11.9722L851 12.0278L852 12.1111L853 12.3333L855 13.3333L856 14.1111L858 16L860 18L862 20L863 21L864.972 23L865.889 24L867.278 26L867.667 27L867.889 28L868 30L868 32L868 35L868 51L868 52L868 104L868 118L868 120L868 121L867.972 122L867.889 123L867.667 124L866.667 126L864.972 128L864 129L862 131L861 132L859 134L856 137L854 139L852 141L850.028 143L849.083 144L847.5 146L846.417 148L845.694 150L845.417 151L845.083 153L845 155L845 156L845 159L845 168L845 172L845 193L845 194L845 205L845 268L845 312L845 326L845 329L845 331L845.028 333L845.083 334L845.417 336L846.028 338L846.417 339L847.5 341L849.083 343L850.028 344L852 346L853 347L854 348L856 350L861 355L863 357L864 358L864.972 359L865.889 360L867.278 362L867.667 363L867.889 364L868 366L868 367L868 369L868 371L868 374L868 387L868 389L868 392L868 429L868 437L868 449L868 455L868 457L867.972 458L867.889 459L867.278 461L866.667 462L865.889 463L864 465L862 467L860 469L859 470L857 471.917L855 473.5L853 474.5L852 474.75L850 474.972L849 475L848 475L846 475L845 475L843 475L839 475L835 475L831 475L821 475L818 475L816 475L806 475L802 475L801 475L800 475L792 475L776 475L771 475L769 475L762 475L757 475L754 475L750 475L747 475L743 475L738 475L735 475L731 475L729 475L728 475L726 475L720 475L719 475L711 475L708 475L702 475L701 475L699 475L698 475L693 475L692 475L690 475L689 475L687 475L680 475L673 475L670 475L664 475L660 475L654 475L646 475L641 475L634 475L632 475L630 475L625 475L620 475L617 475L613 475L609 475L607 475L605 474.972L603 474.75L602 474.5L600 473.5L598 471.917L597 470.972L596 470L594 468L593 467L590 464L588 462L587 461L585 459.083L584 458.25L583 457.5L581 456.472L579 455.861L578 455.639L576 455.222L575 455.083L573 455L572 455L571 455L569 455L564 455L558 455L551 455L550 455L525 455L423 455L337 455L310 455L301 455L299 455L298 455L296 455.083L295 455.222L294 455.417L292 456.028L291 456.417L289 457.5L288 458.25L287 459.083L285 461L284 462L282 464L278 468L277 469L276 470L274 471.917L272 473.5L270 474.5L268 474.917L267 474.972L265 475L264 475L261 475L248 475L209 475L89 475L37 475L25 475L23 475L22 475L21 474.972L20 474.889L19 474.667L17 473.667L16 472.889L14 471L12 469L10 467L9 466L7.02778 464L6.11111 463L4.72222 461L4.33333 460L4.02778 458L4 456L4 454L4 451L4 432L4 370L4 367L4 366L4.11111 364L4.72222 362L5.33333 361L6.11111 360L8 358L9 357L12 354L16 350L18 348L19.9722 346L20.9167 345L22.5833 343L23.3056 342L23.9722 341L25.0833 339L25.5 338L25.7778 337L26.1944 335L26.6111 333L26.9167 331L27 329L27 328L27 325L27 317L27 293L27 221L27 178L27 164L27 161L27 159L26.9722 157L26.9167 156L26.6111 154L26.3889 153L26.2222 152L25.9444 150L25.5 148L24.5 146L23.75 145L21.9722 143L20 141L19 140L17 138L12 133L10 131L8 129L7.02778 128L6.11111 127L4.72222 125L4.11111 123L4.02778 122L4 120L4 118L4 114L4 48L4 33L4 31L4 30L4.02778 28L4.11111 27L4.33333 26L4.72222 25L6.11111 23L8 21L10 19L12 17.0833L14 15.3889L15 14.6389L17 13.25L18 12.6945L20 12.1111L21 12.0278L23 11.9722L24 11.9167L26 11.6111L27 11.3889L29 11.0833L30 11.0278L32 11L34 11L37 11L42 11L44 11L45 10.9722L46 10.9167L48 10.6111L49 10.3889L51 10.0833L52 10.0278L54 10L57 10L63 10L65 10L66 10L68 9.97223L69 9.91666L71 9.61111L72 9.38889L74 9.08334L75 9.02777L77 9L78 9L82 9L94 9L98 9L100 8.97223L101 8.91666L103 8.61111L104 8.38889L106 8.08334L107 8.02777L109 8L111 8L119 8L122 8L124 7.97223L125 7.91666L127 7.61111L128 7.38889L130 7.08334L132 7L134 7L137 7L146 7L149 7L151 6.97223L152 6.91666L154 6.61111L155 6.38889L157 6.08334L158 6.02777L160 6L162 6L169 6L172 6L173 6L175 5.91666L177 5.61111L178 5.38889L180 5.08334L181 5.02777L183 5L185 5L193 5L195 5L196 5L198 4.91666L199 4.77777L200 4.61111L202 4.22223M29 57.4167L28 57.6945L26 58.4167L24 59.4167L23 60.0278L21 61.4167L20.0278 62.2222L19.0833 63.0833L17.4722 65L16.25 67L15.7778 68L14.8333 70L14.3889 71L13.6944 73L13.4167 74L13.2222 75L13.0278 77L13 78L13.0278 80L13.0833 81L13.3889 83L13.8611 85L14.4444 87L15.2778 89L15.8333 90L17.0278 92L17.6944 93L19.2222 94.9167L21.0278 96.5833L23 97.9167L25 98.9167L27 99.6667L28 100L30 100.583L32 100.917L33 100.972L34 101L36 101L37 101L39 100.917L41 100.583L43 99.9722L44 99.6111L46 98.7222L47 98.1667L48 97.6111L49.9722 96.3055L50.9167 95.5833L52.5833 93.9167L53.3056 92.9722L54.5833 91L55.5833 89L56.3056 87L56.5833 86L57 84L57.3889 82L57.6111 81L57.8889 79L57.8889 78L57.6111 76L57.3611 75L56.8611 73L56.6111 72L55.9722 70L55.5833 69L54.5833 67L53.9722 66L53.3056 65L51.7778 63.0833L49.9722 61.4167L49 60.6945L48 60.0278L47 59.4167L45 58.4167L44 58.0278L42 57.4167L41 57.2222L40 57.0833L38 57L37 57L35 57L33 57L31 57.0833L29 57.4167M830 57.4167L829 57.6945L827 58.3889L825 59.2778L823 60.4722L821.028 62.0833L820.083 63.0278L818.417 65L817.694 66L817.028 67L816.417 68L815.472 70L815.167 71L814.639 73L814.389 74L814.083 76L814.028 77L814 79L814.028 81L814.083 82L814.417 84L815 86L815.333 87L816.083 89L817.083 91L818.417 93L820.083 94.9167L822 96.5833L824 97.9722L825 98.5833L827 99.5833L829 100.306L830 100.583L832 100.917L834 101L836 101L838 101L840 100.917L842 100.583L844 99.9722L846 99.1667L847 98.7222L849 97.5278L850 96.75L851 95.9167L852.917 94L853.778 93L855.278 91L855.917 90L856.917 88L857.278 87L857.583 86L857.917 84L858 82L858 81L858 80L858 78L858 76L857.972 75L857.917 74L857.583 72L857.306 71L856.583 69L855.528 67L854.833 66L854.139 65.0278L852.611 63.2222L851.778 62.3889L850.917 61.6389L849 60.2222L847 59.0833L846 58.6389L844 57.8333L843 57.4722L841 57.0833L839 57L838 57L836 57L834 57L832 57.0833L830 57.4167M311 58L310 59L310.111 61.0555L310.333 62.0555L311.306 64L312.806 66L313.611 67L315.139 69L315.861 70L317.389 72L319 74L320.611 76L322.194 78L323.806 80L324.611 81L326.139 83L326.861 84L327.639 85L328.389 86L330.056 88L330.944 89L331.778 90L332.611 91L333.361 92L334.139 93L334.861 94L336.389 96L337.194 97L338.806 99L340.389 101L341.194 102L342.806 104L344.389 106L345.194 107L346.806 109L347.611 110L348.389 111L349.194 112L350.806 114L351.611 115L352.361 116L353.139 117L353.861 118L355.389 120L356.194 121L357.806 123L358.611 124L360.139 126L360.861 127L361.639 128L362.389 129L364.056 131L364.944 132L366.611 134L368.139 136L368.861 137L370.389 139L371.194 140L372.806 142L373.611 143L374.389 144L375.194 145L376.806 147L377.611 148L379.222 149.972L380.083 150.889L382 152.278L384 152.889L385 152.972L386 153L388 153L389 153L391 153L398 153L435 153L437 153L555 153L560 153L568 153L569.472 150.944L571 149L572.611 147L574.194 145L575.806 143L576.611 142L578.139 140L578.861 139L579.639 138L580.389 137L581.194 136L582.806 134L583.611 133L584.389 132L585.194 131L586.806 129L587.611 128L588.389 127L589.194 126L590.806 124L591.611 123L593.194 121L594.806 119L595.611 118L597.139 116L597.861 115L598.639 114L599.389 113L600.194 112L601.806 110L602.611 109L603.389 108L604.194 107L605.806 105L606.611 104L607.389 103L608.194 102L609.806 100L610.611 99L611.389 98L612.194 97L613.806 95L614.611 94L616.139 92L616.861 91L618.389 89L619.194 88L620 87L621.611 85L622.389 84L623.194 83L624.806 81L625.611 80L626.389 79L627.194 78L628.806 76L629.611 75L630.389 74L632 72L632.806 71L633.611 70L635.139 68L635.861 67L636.639 66L638.111 64L639.306 62.0555L639.889 60.5L640 59L638.5 58.2778L637.944 58.25L636.944 58.0555L636 58.0278L634 58L632 58L628 58L624 58L619 58L609 58L605 58L602 58L598 58L590 58L589 58L572 58L571 58L561 58L541 58L539 58L523 58L515 58L505 58L486 58L474 58L462 58L311 58M32 60.2222L34 60.0278L35 60L36 60L38 60.0833L40 60.4167L42 61.0278L43 61.4167L45 62.4167L46 63.0278L46.9722 63.6945L47.9167 64.4167L49.5833 66.0833L50.3056 67.0278L51.5833 69L52.5833 71L52.9722 72L53.6111 74L53.8611 75L54.2778 77L54.3889 78L54.3056 80L54.1667 81L54 82L53.5833 84L53.3056 85L52.5833 87L51.5833 89L50.3056 90.9167L49.5833 91.7778L48.7778 92.5833L47.9167 93.3055L46 94.6111L45 95.1667L43 96.1667L42 96.6111L40 97.3055L39 97.5833L38 97.7778L37 97.9167L35 97.9722L34 97.9167L32 97.5833L31 97.3055L29 96.6667L27 95.9167L25 94.9167L24.0278 94.2778L23.0833 93.5833L22.2222 92.7778L21.4167 91.9167L20.0278 90L19.3889 89L18.2778 87L17.4444 85L17.1667 84L16.6389 82L16.3889 81L16.1111 79L16.1111 78L16.4167 76L17.0278 74L17.3889 73L17.8333 72L18.7778 70L19.25 69L19.8611 68L20.4722 67.0278L22.0833 65.2222L23.0278 64.4167L25 63.0278L27 61.8889L28 61.4167L30 60.6945L31 60.4167L32 60.2222M833 60.2222L835 60.0278L837 60L839 60.0833L841 60.4722L842 60.8333L844 61.6389L845 62.0833L846.972 63.2222L847.917 63.8889L849.611 65.3889L851.139 67.0833L852.528 69L853.583 71L853.972 72L854.583 74L854.917 76L854.972 77L855 79L854.972 81L854.917 82L854.583 84L853.917 86L852.917 88L851.583 90L850.778 91L848.972 92.9167L848 93.75L847 94.5278L846 95.1389L844 96.1667L843 96.6111L841 97.3055L840 97.5833L839 97.7778L837 97.9722L835 97.9722L834 97.9167L832 97.5833L831 97.3055L829 96.5833L827 95.5833L826 94.9722L824.028 93.5833L823.083 92.7778L821.417 90.9722L820.722 90L820.083 89L819.083 87L818.694 86L818 84L817.417 82L817.222 81L817.083 80L817.083 78L817.389 76L817.639 75L818.167 73L818.472 72L819.417 70L820.694 68L821.417 67L823.083 65.0833L825 63.4722L826 62.8611L828 61.8333L829 61.3889L831 60.6945L832 60.4167L833 60.2222M635 61L634.472 62.5L634.083 63.0555L633.528 64.0555L632.833 65L632.139 66L630.611 68L629.806 69L628.194 71L627.389 72L626.611 73L625.806 74L624.194 76L623.389 77L622.611 78L621.806 79L620.194 81L619.389 82L618.611 83L617.806 84L616.194 86L615.389 87L614.639 88L613.861 89L613.139 90L611.611 92L610.806 93L609.194 95L608.389 96L607.611 97L606.806 98L605.194 100L604.389 101L603.611 102L602.806 103L601.194 105L600.389 106L599.611 107L598.806 108L597.194 110L596.389 111L595.639 112L594.861 113L594.139 114L592.611 116L591.806 117L590.194 119L589.389 120L588.611 121L587.806 122L586.194 124L585.389 125L584.611 126L583.806 127L582.194 129L581.389 130L579.806 132L578.194 134L577.389 135L576.639 136L575.861 137L575.139 138L573.611 140L572.806 141L571.194 143L570.389 144L569.611 145L568.028 146.944L567.278 147.944L566.778 148.5L566 150L543 150L533 150L526 150L513 150L435 150L399 150L393 150L391 150L390 150L388 150L387 149.972L386 149.889L384.028 149.278L382.222 147.889L381.389 146.972L380.611 146L379 144L377.389 142L376.611 141L375.806 140L374.194 138L373.389 137L371.861 135L371.139 134L370.361 133L369.611 132L367.944 130L367.056 129L366.222 128L365.389 127L364.639 126L363.861 125L363.139 124L361.611 122L360.806 121L359.194 119L358.389 118L356.861 116L356.139 115L355.361 114L354.611 113L353.806 112L352.194 110L351.389 109L350.611 108L349.806 107L348.194 105L347.389 104L346.611 103L345.806 102L344.194 100L343.389 99L342.611 98L341.806 97L340.194 95L339.389 94L337.861 92L337.139 91L336.361 90L335.611 89L334.778 88L333.944 87L333.056 86L331.389 84L330.639 83L329.861 82L329.139 81L327.611 79L326.806 78L325.194 76L323.611 74L322.806 73L321.194 71L320.389 70L318.861 68L318.139 67L317.361 66L316.639 65L315.222 63.0555L314.75 62.5L314 61L315.5 61L368 61L530 61L535 61L539 61L550 61L555 61L560 61L562 61L578 61L586 61L618 61L626 61L630 61L635 61M351 79L351.111 80.5L351.639 82.0555L352.722 84L353.417 85L354.194 86L355.806 88L357.389 90L358.194 91L359.806 93L360.611 94L362.194 96L363.806 98L364.611 99L365.361 100L366.139 101L366.861 102L368.389 104L369.194 105L370.806 107L371.611 108L372.389 109L373.194 110L374.806 112L375.611 113L376.389 114L377.194 115L378.806 117L379.611 118L381.194 120L382.806 122L383.611 123L384.361 124L385.139 125L386.639 127L387.389 128L389.083 129.972L390.028 130.889L392 132.278L394 132.889L396 133L397 133L398 133L400 133L405 133L434 133L518 133L520 133L521 133L532 133L545 133L550 133L552 133L553 133L555 132.972L556.972 132.667L557.917 132.278L559.611 130.889L561.194 129L562 128L563.611 126L565.139 124L565.861 123L567.389 121L568.194 120L569.806 118L570.611 117L571.389 116L572.194 115L573.806 113L574.611 112L575.389 111L576.194 110L577.806 108L578.611 107L579.389 106L580.194 105L581.806 103L582.611 102L583.361 101L584.139 100L584.861 99L586.389 97L587.194 96L588.806 94L590.389 92L591.194 91L592.806 89L593.611 88L594.389 87L595.194 86L596.694 84L597.667 82.0555L597.889 81.0555L598 79L597 78L588 78L566 78L530 78L519 78L426 78L375 78L361 78L358 78L356 78L355 78.0278L354.056 78.0555L353.056 78.25L352.5 78.2778L351 79M594 81L593.25 82.5L592.778 83.0555L592.111 84.0555L591.361 85L590.611 86L589.806 87L588.194 89L587.389 90L585.806 92L584.194 94L583.389 95L581.861 97L581.139 98L580.361 99L579.611 100L578.806 101L577.194 103L576.389 104L575.611 105L574.806 106L573.194 108L572.389 109L571.611 110L570.806 111L569.194 113L568.389 114L567.611 115L566.806 116L565.194 118L564.389 119L563.639 120L562.861 121L562.139 122L560.611 124L559 126L557.472 127.944L556 130L536 130L528 130L518 130L517 130L515 130L510 130L440 130L408 130L402 130L400 130L399 130L397 129.972L396 129.889L394 129.278L392.083 127.889L391.222 126.972L389.639 125L388.861 124L388.139 123L386.611 121L385.806 120L384.194 118L383.389 117L382.611 116L381.806 115L380.194 113L379.389 112L378.611 111L377.806 110L376.194 108L375.389 107L374.611 106L373.806 105L372.194 103L371.389 102L370.639 101L369.861 100L369.139 99L367.611 97L366.806 96L365.194 94L363.611 92L362.806 91L361.194 89L360.389 88L359.611 87L358.028 85L357.306 84.0555L356.722 83.0555L356.361 82.5L356 81L594 81M394 161L393 162L393 199L394 200L412 200L412.25 201.5L412.611 203.056L412.806 204L413.194 206L413.389 207L413.611 208L413.806 209L414.194 211L414.389 212L414.611 213L414.806 214L415.194 216L415.389 217L415.611 218L415.944 220L416.222 222L416.389 223L416.861 225L417.139 226L417.5 228L417.194 230L415.889 231.917L414.972 232.778L413 234.389L412 235.222L411 236.083L409 238L408 239L406.028 241L405.083 242L403.389 244L402.611 245L401 247L400.194 248L399.417 249L398.694 250L397.333 252L396.667 253L395.389 255L394.806 256L393.611 258L392.389 260L391.833 261L391.25 262L390.222 264L389.778 265L389.25 265.944L388.833 266.944L388.5 267.5L388 269L385.944 269L384 269.028L383 269.083L381 269.389L380 269.611L378 269.944L377 270.056L375 270.389L374 270.611L372 270.917L370 271.083L369 271.222L367 271.611L366 271.778L365 271.917L363 272.083L362 272.222L360 272.611L358 272.917L356 273.083L355 273.222L353 273.611L351 273.944L350 274.056L348 274.389L346 274.778L345 274.917L343 275.083L341 275.389L339 275.778L338 275.917L336 276.083L335 276.222L333 276.611L332 276.778L331 276.917L329 277.083L328 277.222L327 277.389L325 277.778L324 277.917L322 278.083L320 278.389L319 278.611L317 278.944L316 279.056L314 279.389L313 279.611L311 279.917L310 279.972L308 280L307 279.972L306 279.917L304 279.611L303 279.389L301 279.083L300 279.028L299 279L297 279.028L296 279.083L294 279.389L292 279.778L290 279.972L288 280.028L287 280.083L285 280.389L284 280.611L282 280.917L281 280.972L279 281L278 281.028L277 281.083L275 281.389L274 281.611L272 281.917L271 281.972L269 282L268 282.028L267 282.083L265 282.389L264 282.611L262 282.917L261 282.972L259 283L258 283.028L257 283.083L255 283.389L254 283.611L252 283.917L251 283.972L250 284L248 284L246 284.083L244.056 284.444L242.5 285.028L241 286L241 288.056L241.028 290L241.083 291L241.389 293L241.611 294L241.917 296L242.028 298L242.083 299L242.389 301L242.778 303L242.917 304L243.083 306L243.222 307L243.389 308L243.778 310L243.917 311L244.083 313L244.222 314L244.611 316L244.917 318L244.972 319L245.028 321L245.083 322L245.389 324L245.611 325L245.917 327L246.028 329L246.083 330L246.389 332L246.611 333L246.917 335L247.028 337L247.083 338L247.389 340L247.611 341L247.917 343L247.972 344L248.083 346L248.389 348L248.611 349L248.917 351L249.028 353L249.083 354L249.389 356L249.611 357L249.917 359L249.972 360L250.083 362L250.389 364L250.611 365L250.917 366.944L250.972 367.944L251 370L252 371L254.056 370.917L256 370.611L258 370.222L259 370.083L261 369.917L262 369.778L264 369.389L266 369.083L268 368.972L269 368.917L271 368.611L272 368.389L274 368.083L275 368.028L277 367.917L279 367.611L281 367.222L282 367.083L284 366.917L285 366.778L286 366.611L288 366.222L289 366.083L291 365.972L292 365.917L294 365.611L296 365.222L297 365.083L299 364.917L300 364.778L302 364.389L304 364.083L306 363.917L308 363.611L309 363.389L310 363.222L312 362.917L314 362.278L316 360.917L317 360.056L319 358.5L321 357.5L323 357.083L324 357.028L326 356.917L327 356.778L328 356.611L330 356.222L331 356.083L333 355.917L335 355.611L337 355.222L338 355.083L340 354.917L341 354.778L342.944 354.389L343.5 354.25L345 354L345.5 355.5L345.806 356.056L346.611 358L347.389 360L347.833 361L348.25 362L349.222 364L349.778 365L350.222 366L350.778 367L351.222 368L351.778 369L352.222 370L352.75 371L353.611 373L354.389 375L355.25 377L355.778 378L356.778 380L357.25 381L358.472 382.889L360.083 384.361L361.028 384.889L363 385.611L364 385.861L366 386.361L367 386.611L368 386.806L370 387.194L371 387.389L373 387.861L374 388.139L375 388.361L376 388.639L378 389.139L379 389.361L380 389.639L381 389.861L382 390.139L384 390.639L385 390.861L386 391.139L387 391.361L388 391.639L390 392.139L391 392.361L392 392.639L394 393.139L395 393.389L396.972 394.111L398.694 395.306L399.889 397.028L400.583 399L400.917 401L400.972 402L401.083 404L401.389 406L401.778 408L401.917 409L402.028 411L402.083 412L402.389 414L402.611 415L402.917 416.944L402.972 417.944L403 420L404 421L406.056 421L408 420.972L409 420.917L411 420.611L412 420.389L414 420.083L416 419.972L417 419.917L419 419.611L420 419.389L422 419.083L423 419.028L425 418.917L427 418.611L428 418.389L430 418.083L432 417.972L433 417.917L435 417.611L436 417.389L438 417.083L439 417.028L441 416.972L442 416.917L444 416.611L446 416.222L447 416.083L449 415.972L450 415.917L452 415.611L453 415.389L455 415.083L456 415.028L458 414.972L459 414.917L461 414.611L462 414.389L464 414.083L465 414.028L467 413.972L468 413.917L470 413.611L472 413.222L473 413.083L475 412.972L476 412.917L478 412.611L479 412.389L481 412.083L482 412.028L484 411.972L485 411.917L487 411.611L488 411.389L490 411.083L491 411.028L493 410.917L494 410.778L496 410.389L498 410.083L499 410.028L501 409.972L502 409.917L504 409.611L505 409.389L507 409.083L508 409.028L510 408.917L512 408.611L513 408.389L515 408.083L516 408.028L518 407.917L519 407.778L521 407.389L523 407.083L525 406.972L526 406.917L528 406.611L529 406.389L531 406.083L532 406.028L534 405.972L535 405.917L537 405.611L538 405.389L540 405.083L542 405L544 404.917L546 404.583L548 403.889L549 403.361L551 401.889L552 400.972L554 399L556 397L559 394L560 393L562 391.028L563 390.111L564 389.306L566 388.111L568 387.389L569 387.139L571 386.639L572 386.361L573 386.139L574 385.861L575 385.639L577 385.139L578 384.861L579 384.639L580 384.361L581 384.139L582 383.861L583 383.639L584 383.361L585 383.139L587 382.639L589 382.139L590 381.861L591 381.639L592 381.361L593 381.139L594 380.861L596 380.361L597 380.139L598 379.861L599 379.639L600 379.361L601 379.139L602 378.861L603 378.639L604 378.361L606 377.861L607 377.639L608 377.361L609 377.139L610 376.861L612 376.389L613 376.194L615 375.806L616 375.611L617 375.361L618 375.139L619 374.861L620.944 374.389L621.944 374.222L622.5 374.083L624 374L625 373L625 370.944L624.972 369L624.917 368L624.611 366L624.389 365L624.083 363L624.028 362L624 360L623.972 359L623.917 358L623.611 356L623.389 355L623.083 353L623.028 352L623 350L622.972 348L622.917 347L622.611 345L622.389 344L622.083 342L622.028 341L622 339L621.972 338L621.917 337L621.611 335L621.389 334L621.083 332L621.028 331L620.972 329L620.778 327L620.389 325L620.083 323L620.028 322L620 320L619.972 319L619.917 318L619.611 316L619.389 315L619.083 313L619.028 312L619 310L618.972 308L618.917 307L618.611 305L618.389 304L618.083 302L618.028 301L618 299L617.972 297L617.917 296L617.611 294L617.389 293L617.083 291L617.028 290L617 288L616.972 286L616.917 285L616.611 283L616.389 282L616.083 280L616.028 279L616 277L615.972 275L615.917 274L615.611 272L615.389 271L615.083 269L615.028 268L615 266L615 265L614.917 263L614.778 262L614.611 261L614.222 259L614.083 258L614 256L614 255L613.917 253L613.556 251.056L612.972 249.5L612 248L605 248L603 248L601 247.972L600 247.917L598 247.611L597 247.389L595 247.083L594 247.028L592 247L591 247L588 247L587 247L585 246.972L584 246.917L582 246.611L580 246.222L579 246.083L577 246L575 246L572 246L570 246L568 245.972L567 245.917L565 245.611L563 245.222L562 245.083L560 245L558 245L555 245L553 245L551 244.972L549 244.75L548.028 244.5L546.222 243.5L545.389 242.75L543.778 240.972L542.917 240L541 238L539.111 236L538.361 235L537.806 234L537.5 232L537.806 230L538 229L538.389 227L538.611 226L539 224L539.389 222L539.611 221L539.806 220L540.194 218L540.389 217L540.611 216L540.806 215L541.194 213L541.389 212L541.611 211L541.806 210L542.194 208L542.389 207L542.611 206L542.917 204.056L542.972 203.056L543 201L544 200L560 200L561 199L561 162L560 161L552 161L544 161L539 161L536 161L532 161L503 161L497 161L394 161M558 164L558 166.056L558 197L554.944 197L551 197L549 197L548 197L546 197.028L545 197.111L543.028 197.722L542.111 198.333L541.333 199.111L540.306 201L539.806 203L539.611 204L539.389 205L539.194 206L538.806 208L538.611 209L538.389 210L538 212L537.611 214L537.389 215L537.194 216L536.806 218L536.611 219L536.389 220L536.194 221L535.806 223L535.611 224L535.389 225L535 227L534.611 229L534.389 230L534.083 232L534.111 234L534.333 235L534.722 236L535.333 237L537.028 239L538 240L539.917 242L541.611 243.972L542.389 244.917L544.083 246.5L546 247.5L548 247.917L550 248L551 248L553 248L556 248L558 248L559 248.028L560 248.083L562 248.389L563 248.611L565 248.917L566 248.972L568 249L569 249L572 249L574 249L576 249.028L577 249.083L579 249.389L580 249.611L582 249.917L583 249.972L585 250L586 250L590 250L592 250.028L593 250.083L595 250.389L596 250.611L598 250.917L599 250.972L601 251L603 251L606 251L610 251L610.583 253.056L610.778 254.056L610.917 255L611 257L611.028 259L611.083 260L611.389 262L611.611 263L611.917 265L611.972 266L612 268L612.028 270L612.083 271L612.389 273L612.611 274L612.917 276L612.972 277L613 279L613.028 281L613.083 282L613.389 284L613.611 285L613.917 287L613.972 288L614 290L614.028 292L614.083 293L614.389 295L614.611 296L614.917 298L614.972 299L615 301L615.028 303L615.083 304L615.389 306L615.611 307L615.917 309L615.972 310L616 312L616.028 314L616.083 315L616.389 317L616.611 318L616.917 320L616.972 321L617 322L617.028 324L617.083 325L617.389 327L617.611 328L617.917 330L617.972 331L618.028 333L618.083 334L618.389 336L618.611 337L618.917 339L618.972 340L619 341L619.028 343L619.083 344L619.389 346L619.611 347L619.917 349L619.972 350L620 352L620.028 354L620.083 355L620.389 357L620.611 358L620.917 360L620.972 361L621 363L621.028 364L621.083 365L621.389 367L621.611 367.944L621.778 368.944L621.917 369.5L622 371L620.5 371.083L619.944 371.222L618.944 371.389L617 371.861L616 372.139L615 372.361L614 372.611L613 372.806L611 373.194L610 373.389L608 373.861L607 374.139L606 374.361L605 374.639L604 374.861L602 375.361L601 375.639L600 375.861L599 376.139L598 376.361L597 376.639L595 377.139L594 377.361L593 377.639L592 377.861L591 378.139L590 378.361L589 378.639L588 378.861L587 379.139L585 379.639L584 379.861L583 380.139L582 380.361L581 380.639L580 380.861L579 381.139L577 381.639L576 381.861L575 382.139L574 382.361L573 382.639L572 382.861L571 383.139L570 383.361L569 383.639L567 384.139L566 384.389L564 385.111L562 386.306L561 387.111L560 388.028L558 390L557 391L554 394L552 396L550 397.972L549 398.889L547 400.361L546 400.889L544 401.583L542 401.917L540 402L538 402.083L536 402.389L535 402.611L533 402.917L532 402.972L530 403.028L529 403.083L527 403.389L525 403.778L524 403.917L522 404.028L521 404.083L519 404.389L518 404.611L516 404.917L514 405.028L513 405.083L511 405.389L510 405.611L508 405.917L507 405.972L505 406.083L503 406.389L502 406.611L500 406.917L499 406.972L497 407.028L496 407.083L494 407.389L493 407.611L491 407.917L490 407.972L488 408.083L487 408.222L485 408.611L483 408.917L482 408.972L480 409.028L479 409.083L477 409.389L476 409.611L474 409.917L473 409.972L471 410.083L470 410.222L468 410.611L466 410.917L465 410.972L463 411.028L462 411.083L460 411.389L459 411.611L457 411.917L456 411.972L454 412.028L453 412.083L451 412.389L449 412.778L448 412.917L446 413.028L445 413.083L443 413.389L442 413.611L440 413.917L439 413.972L437 414.028L436 414.083L434 414.389L433 414.611L431 414.917L429 415.028L428 415.083L426 415.389L425 415.611L423 415.917L422 415.972L420 416.083L418 416.389L417 416.611L415 416.917L414 416.972L412 417.083L410 417.389L409.056 417.611L408.056 417.778L407.5 417.917L406 418L405.972 415.944L405.917 414.944L405.611 413L405.389 412L405.083 410L405.028 409L404.917 407L404.778 406L404.389 404L404.083 402L403.972 400L403.917 399L403.583 397L402.889 395L401.694 393.111L400.889 392.306L399 391.111L397 390.389L396 390.139L394 389.639L393 389.361L391 388.861L390 388.639L388 388.139L387 387.861L386 387.639L385 387.361L384 387.139L383 386.861L381 386.361L380 386.139L379 385.861L378 385.639L377 385.361L376 385.139L375 384.861L373 384.389L372 384.194L370 383.806L369 383.611L368 383.361L366 382.861L364.028 382.278L363.083 381.889L361.472 380.694L360.25 378.972L359.222 377L358.778 376L358.25 375L357.389 373L356.611 371L356.167 370L355.75 369L355.222 368L354.222 366L353.778 365L353.222 364L352.778 363L352.222 362L351.25 360L350.833 359L350.389 358L349.583 356L348.5 354.028L346.917 352.333L345.972 351.722L344 351.139L343 351.111L341 351.389L340 351.611L338 351.917L336 352.083L335 352.222L333 352.611L331 352.917L329 353.083L328 353.222L326 353.611L325 353.778L324 353.917L322 354.028L321 354.083L319 354.5L318 354.944L317 355.5L315 357.056L314 357.917L312 359.278L311 359.667L309 360.056L308 360.222L306 360.611L304 360.917L302 361.083L300 361.389L298 361.778L297 361.917L295 362.083L294 362.222L292 362.611L290 362.917L289 362.972L287 363.083L285 363.389L283 363.778L282 363.917L280 364.083L279 364.222L278 364.389L276 364.778L275 364.917L273 365.028L272 365.083L270 365.389L269 365.611L267 365.917L266 365.972L264 366.083L262 366.389L261 366.611L259 366.917L258 366.972L256.056 367L254 367L253.972 365.5L253.778 363.944L253.389 362L253.083 360L252.972 358L252.917 357L252.611 355L252.389 354L252.083 352L252.028 351L251.917 349L251.611 347L251.389 346L251.083 344L250.972 342L250.917 341L250.611 339L250.389 338L250.083 336L249.972 334L249.917 333L249.611 331L249.389 330L249.083 328L249.028 327L248.917 325L248.611 323L248.389 322L248.083 320L248.028 319L247.972 317L247.917 316L247.611 314L247.389 313L247.083 311L246.917 309L246.778 308L246.389 306L246.083 304L245.917 302L245.778 301L245.389 299L245.083 297L245.028 296L244.917 294L244.611 292L244.389 291.056L244.222 290.056L244.083 289.5L244 288L246.056 287.417L247.056 287.222L248 287.083L250 287L251 287L253 286.972L254 286.917L256 286.611L257 286.389L259 286.083L260 286.028L261 286L263 285.972L264 285.917L266 285.611L267 285.389L269 285.083L270 285.028L272 285L273 284.972L274 284.917L276 284.611L277 284.389L279 284.083L280 284.028L282 284L283 283.972L284 283.917L286 283.611L287 283.389L289 283.083L290 283.028L292 282.972L293 282.917L295 282.611L296 282.389L298 282.111L299 282.111L301 282.389L303 282.861L304 283.139L306 283.528L308 283.528L309 283.361L311 283.083L313 282.917L314 282.778L316 282.389L318 282.056L319 281.944L321 281.611L323 281.222L324 281.083L326 280.917L327 280.778L328 280.611L330 280.222L331 280.083L333 279.917L334 279.778L336 279.389L338 279.083L340 278.917L341 278.778L343 278.389L344 278.222L345 278.083L347 277.917L348 277.778L350 277.389L352 277.056L353 276.944L355 276.611L356 276.389L358 276.083L360 275.917L361 275.778L362 275.611L364 275.222L365 275.083L367 274.917L369 274.611L371 274.222L372 274.083L374 273.917L375 273.778L377 273.389L379 273.056L380 272.944L382 272.611L383 272.389L385 272.083L387 271.889L388 271.667L389.917 270.667L391.528 268.972L392.139 268L392.75 267L393.222 266L393.778 265L394.25 264L394.833 263L395.389 262L396.611 260L397.806 258L398.389 257L399.028 256L399.667 255L401 253L402.417 251L403.194 250L404 249L405.611 247L406.389 246L408.083 244L410 242L412 240.028L413 239.083L415 237.389L417 235.778L417.972 234.917L418.889 233.972L420.278 232L420.889 230L420.917 228L420.778 227L420.361 225L420.139 224L419.639 222L419.389 221L419.056 219L418.944 218L418.611 216L418.389 215L418.194 214L417.806 212L417.611 211L417.389 210L417 208L416.611 206L416.389 205L416 203L415.528 201L414.806 199.056L414.5 198.5L414 197L396 197L396 164L558 164M440 241L438.5 241.278L436.944 241.917L436 242.417L435 243.028L433 244.389L432 245.139L430 246.639L429 247.389L427 249.083L425 251L424 252L422 254L420 256L419.028 257L418.083 258L416.389 260L415.639 261L414.139 263L413.389 264L412.694 265L411.389 267L410.25 269L409.222 271L408.778 272L408.222 273L407.25 275L406.833 276L406.389 277L405.611 279L405.194 280L404.806 281L403.917 283L403.361 283.972L401.889 285.667L400 286.667L398 287L396 287.222L394 287.611L392 287.917L390 288.083L389 288.222L388 288.389L386 288.778L385 288.917L383 289.083L382 289.222L380 289.611L378 289.944L377 290.056L375 290.389L373 290.778L372 290.917L370 291.083L369 291.222L367 291.611L365 291.944L364 292.056L362 292.389L360 292.778L359 292.917L357 293.083L355 293.389L353 293.778L352 293.917L350 294.083L349 294.222L347 294.611L345 294.944L344 295.056L342 295.389L340 295.778L339 295.917L337 296.083L336 296.222L335 296.389L333 296.778L332 296.917L330 297.083L329 297.222L327 297.611L325 297.917L323 298.083L321 298.389L319 298.778L318 298.917L316 299.083L314 299.389L313 299.611L311 299.944L310 300.056L308 300.361L307 300.528L305 300.5L303 300L301 299.417L300 299.222L299 299.083L297 299.028L296 299.083L294 299.389L293 299.611L291 299.917L290 299.972L288 300L287 300.028L286 300.083L284 300.389L282 300.778L281 300.917L279 301L277 301.028L276 301.083L274 301.389L273 301.611L271 301.917L270 301.972L268 302.028L267 302.111L265.111 302.722L264.333 303.333L263.333 305.028L263.111 307L263.389 309L263.611 310L263.917 312L264 313L264.222 315L264.611 317L264.917 319L264.972 320L265.083 322L265.222 323L265.611 325L265.917 327L266.028 329L266.083 330L266.389 332L266.611 333L266.917 335L266.972 336L267.083 338L267.222 339L267.611 341L267.778 342L268.083 344L268.722 345.889L270.111 347.278L271.028 347.667L273 347.972L274 348L276 347.917L278 347.611L279 347.389L281 347.083L283 346.917L284 346.778L286 346.389L288 346.083L290 345.917L291 345.778L293 345.389L295 345.083L297 344.917L299 344.611L300 344.389L302 343.972L303 343.694L305 342.667L306 341.917L308 340.333L309 339.694L311 338.889L312 338.639L313 338.389L315 338.083L317 337.917L319 337.611L321 337.222L322 337.083L324 336.917L325 336.778L327 336.389L328 336.222L329 336.083L331 335.917L332 335.778L334 335.389L336 335.083L337 335.028L339 334.917L341 334.611L342 334.389L344 334.083L345 334.028L347 333.972L348 333.917L350 333.611L351 333.389L353 333.083L353.944 333.028L354.944 333L357 333L357.5 334.5L357.833 335.056L358.25 336.056L358.778 337L359.222 338L360.222 340L360.778 341L361.75 343L362.167 344L362.611 345L363.389 347L363.833 348L364.25 349L365.222 351L365.778 352L366.222 353L367.222 355L367.778 356L368.222 357L368.75 358L369.611 360L370 361L370.389 362L371.278 364L372.472 365.889L373.25 366.694L374.083 367.361L376 368.278L377 368.583L378 368.806L380 369.194L381 369.389L383 369.861L384 370.139L385 370.361L386 370.639L387 370.861L389 371.361L390 371.639L391 371.861L392 372.139L393 372.361L394 372.639L395 372.861L396 373.139L397 373.361L398 373.639L399 373.861L401 374.361L402 374.639L403 374.861L404 375.139L405 375.361L406 375.639L407 375.861L408 376.139L409 376.361L410 376.639L411 376.861L412 377.139L414 377.611L415.944 377.917L418 378L418.083 379.5L418.222 380.056L418.389 381.056L418.611 382L418.917 384L418.972 385L419.028 387L419.083 388L419.389 390L419.778 392L419.917 393L420.111 395L420.333 395.972L420.722 396.889L421.333 397.667L422.111 398.278L424 398.861L425 398.889L427 398.611L428 398.389L430 398.083L431 398.028L432 398L434 397.917L435 397.778L436 397.611L438 397.222L439 397.083L441 396.972L442 396.917L444 396.611L445 396.389L447 396.083L448 396.028L450 395.972L451 395.917L453 395.611L454 395.389L456 395.083L457 395.028L459 394.917L461 394.611L463 394.222L464 394.083L466 393.972L467 393.917L469 393.611L470 393.389L472 393.083L473 393.028L475 392.972L476 392.917L478 392.611L479 392.389L481 392.083L482 392.028L484 391.917L485 391.778L487 391.389L489 391.083L490 391.028L492 390.917L493 390.778L495 390.389L497 390.083L498 390.028L500 389.972L501 389.917L503 389.611L504 389.389L506 389.083L507 389.028L509 388.972L510 388.917L512 388.611L513 388.389L515 388.083L516 388.028L518 387.972L519 387.917L521 387.611L523 387.222L524 387.083L526 386.972L527 386.917L529 386.611L531 386.222L532 386.083L534 385.972L535 385.917L537 385.5L539 384.5L541 382.917L543 381L545 379L548 376L549 375L551 373.028L552 372.111L554 370.694L556 369.889L558 369.361L559 369.139L560 368.861L562 368.361L563 368.139L564 367.861L565 367.639L566 367.361L567 367.139L568 366.861L569 366.639L570 366.361L571 366.139L573 365.639L574 365.361L575 365.139L576 364.861L577 364.639L578 364.361L579 364.139L580 363.861L581 363.639L582 363.361L583 363.139L584 362.861L585 362.639L587 362.139L588 361.861L589 361.639L590 361.361L591 361.139L592 360.861L594 360.361L595 360.139L596 359.861L598 359.361L599 359.111L600.889 358.306L602.278 356.889L602.667 355.972L602.889 355L603 353L603 351L603 350L602.917 348L602.778 347L602.611 346L602.222 344L602.083 343L602 341L602 340L602 338L601.972 337L601.917 336L601.611 334L601.389 333L601.083 331L601.028 330L601 328L600.972 326L600.917 325L600.611 323L600.389 322L600.083 320L600.028 319L600 317L599.972 316L599.917 315L599.611 313L599.389 312L599.083 310L599.028 309L599 307L598.972 306L598.917 305L598.611 303L598.389 302L598.083 300L598.028 299L598 297L597.972 296L597.917 295L597.611 293L597.389 292L597.083 290L597.028 289L597 287L597 286L596.917 284L596.611 282L596.389 281L596.083 279L596.028 278L596 276L595.917 274L595.778 273L595.583 272L594.889 270.028L594.361 269.111L593.694 268.333L592.889 267.722L591.972 267.333L591 267.111L589 267L588 267L586 267L585 267L583 266.917L582 266.778L580 266.389L578 266.083L577 266.028L575 266L574 266L571 266L570 266L568 265.972L567 265.917L565 265.611L564 265.389L562 265.083L561 265.028L559 265L556 265L555 265L553 264.972L552 264.917L550 264.611L549 264.389L547 264.083L546 264.028L544 264L542 264L541 264L539 263.889L538 263.667L537 263.278L535.083 261.889L533.389 260L532.611 259L530.917 257L529.972 256L529 255L527 253L525 251.028L524 250.083L522 248.389L520 246.861L519 246.167L518.056 245.472L517.056 244.917L516.5 244.528L515 244L515.083 242.5L515.222 241.944L515.389 240.944L515.861 239L516.139 238L516.361 237L516.611 236L516.806 235L517.194 233L517.389 232L517.611 231L517.806 230L518.194 228L518.389 227L518.611 226L518.944 224L519.056 223L519.389 221L519.806 219L520.194 217L520.389 216L520.611 215L520.806 214L521.194 212L521.389 211L521.611 210L521.944 208L522.056 207L522.389 205L522.639 204L523.139 202L523.361 201L523.611 200L523.944 198L524.056 197L524.389 195L524.639 194L524.861 193L525.139 192L525.361 191L525.611 190L525.917 188L525.972 187L526 185.056L526 184.056L526 182L525 181L453 181L442 181L438 181L436 181L435 181L433 181.111L431.111 181.722L430.333 182.333L429.75 183.111L429.333 185L429.417 186L429.611 187L429.806 188L430 189L430.389 191L430.611 192L430.806 193L431.194 195L431.389 196L431.611 197L432 199L432.389 201L432.611 202L432.806 203L433.194 205L433.389 206L433.611 207L433.806 208L434.194 210L434.389 211L434.611 212L434.806 213L435.194 215L435.389 216L435.611 217L435.806 218L436.194 220L436.389 221L436.611 222L436.806 223L437.194 225L437.611 227L437.806 228L438.194 230L438.389 231L438.611 232L438.944 234L439.222 236L439.611 237.944L439.778 238.944L439.917 239.5L440 241M523 184L522.972 185.5L522.778 187.056L522.611 188L522.139 190L521.861 191L521.639 192L521.389 193L521.056 195L520.944 196L520.611 198L520.361 199L520.139 200L519.639 202L519.389 203L519.056 205L518.944 206L518.611 208L518.194 210L517.806 212L517.611 213L517.389 214L517.194 215L516.806 217L516.611 218L516.389 219L516.056 221L515.944 222L515.611 224L515.194 226L514.806 228L514.611 229L514.389 230L514.194 231L513.806 233L513.611 234L513.139 236L512.861 237L512.639 238L512.222 240L512.056 242L512.111 243L512.722 244.972L514.111 246.778L515.028 247.611L517 249.139L518 249.861L520 251.389L522 253.083L524 255L525 256L526 257L527.917 259L529.611 261L530.389 262L532.083 263.972L533.028 264.889L535 266.278L537 266.889L539 267L540 267L542 267L544 267.028L545 267.083L547 267.389L548 267.611L550 267.917L551 267.972L553 268L554 268L556 268L557 268L559 268.028L560 268.083L562 268.389L563 268.611L565 268.917L566 268.972L568 269L569 269L572 269L573 269L575 269.028L576 269.083L578 269.389L579 269.611L581 269.917L582 269.972L583 270L585 270L591 270L591.806 271.5L591.972 272.056L592.333 273.056L592.583 274L592.917 276L592.972 277L593 278L593.028 280L593.083 281L593.389 283L593.611 284L593.917 286L593.972 287L594 289L594.028 291L594.083 292L594.389 294L594.611 295L594.917 297L594.972 298L595 299L595.028 301L595.083 302L595.389 304L595.611 305L595.917 307L595.972 308L596 309L596.028 311L596.083 312L596.389 314L596.611 315L596.917 317L596.972 318L597 319L597.028 321L597.083 322L597.389 324L597.611 325L597.917 327L597.972 328L598 330L598.028 332L598.083 333L598.389 335L598.611 336L598.917 338L598.972 339L599 341L599 343L599.028 344L599.083 345L599.389 347L599.611 348L599.917 350L599.972 351L600 352.944L600 355L599 356L597.5 356.083L596.944 356.222L595.944 356.389L595 356.639L593 357.139L592 357.361L591 357.639L590 357.861L588 358.361L587 358.639L586 358.861L585 359.139L584 359.361L583 359.639L581 360.139L580 360.361L579 360.639L578 360.861L577 361.139L576 361.361L575 361.639L573 362.139L572 362.361L571 362.639L570 362.861L569 363.139L568 363.361L566 363.861L565 364.139L564 364.361L563 364.639L562 364.861L561 365.139L560 365.361L559 365.639L558 365.861L557 366.139L555 366.639L554 366.889L552 367.694L550 369.111L549 370.028L547 372L546 373L543 376L541 378L539 379.917L537 381.5L535 382.5L534 382.75L532 382.972L531 383.028L530 383.083L528 383.389L527 383.611L525 383.917L524 383.972L522 384.083L520 384.389L519 384.611L517 384.917L516 384.972L514 385.028L513 385.083L511 385.389L510 385.611L508 385.917L507 385.972L505 386.028L504 386.083L502 386.389L501 386.611L499 386.917L498 386.972L496 387.028L495 387.083L493 387.389L492 387.611L490 387.917L488 388.028L487 388.083L485 388.389L484 388.611L482 388.917L481 388.972L479 389.083L477 389.389L476 389.611L474 389.917L473 389.972L471 390.028L470 390.083L468 390.389L467 390.611L465 390.917L464 390.972L462 391.083L460 391.389L459 391.611L457 391.917L456 391.972L454 392.083L453 392.222L451 392.611L449 392.917L448 392.972L446 393.028L445 393.083L443 393.389L442 393.611L440 393.917L439 393.972L437 394.083L436 394.222L434 394.611L432 394.917L431 394.972L429 395.028L428 395.083L426.056 395.417L424 396L423.278 394.5L423.25 393.944L423.056 392.944L422.917 391L422.611 389L422.389 388L422.083 386L422 384L421.917 382L421.778 381L421.583 380L421.306 379L420.667 377.056L420.444 376.5L420 375L417.944 374.917L416 374.611L414 374.139L413 373.861L412 373.639L411 373.361L410 373.139L409 372.861L408 372.639L407 372.361L406 372.139L405 371.861L404 371.639L403 371.361L401 370.861L400 370.639L399 370.361L398 370.139L397 369.861L396 369.639L395 369.361L394 369.139L393 368.861L391 368.361L390 368.139L389 367.861L388 367.639L387 367.361L386 367.139L385 366.861L383 366.389L381 366L379 365.583L377.083 364.889L375.472 363.694L374.861 362.889L374.278 361.972L373.389 360L373 359L372.611 358L371.75 356L371.222 355L370.778 354L370.222 353L369.222 351L368.778 350L368.222 349L367.25 347L366.833 346L366.389 345L365.611 343L365.167 342L364.75 341L363.778 339L363.222 338L362.778 337L362.222 336L361.778 335L360.778 333L360.25 332.056L359.833 331.056L359.5 330.5L359 329L357.5 329.25L355.944 329.611L354 329.917L353 329.972L351 330.083L349 330.389L348 330.611L346 330.917L345 330.972L343 331.028L342 331.083L340 331.389L339 331.611L337 331.917L335 332.028L334 332.083L332 332.389L330 332.778L329 332.917L327 333.083L326 333.222L324 333.611L322 333.917L320 334.083L319 334.222L317 334.611L315 334.917L313 335.083L311 335.389L309 335.889L308 336.25L307 336.694L305 338.083L303 339.667L302 340.278L301 340.694L300 340.972L298 341.389L297 341.611L295 341.917L293 342.083L292 342.222L291 342.389L289 342.778L288 342.917L286 343.083L284 343.389L282 343.778L281 343.917L279 344.083L277 344.389L276 344.611L274.056 344.917L272 345L271 344L270.972 341.944L270.917 340.944L270.611 339L270.389 338L270.083 336L270.028 335L269.917 333L269.778 332L269.389 330L269.083 328L268.972 326L268.917 325L268.611 323L268.222 321L268.083 320L267.972 318L267.917 317L267.611 315L267.222 313L267.083 312L266.917 310L266.778 309.056L266.583 308.056L266 306L267.5 305.278L268.056 305.25L269.056 305.056L270 305.028L272 304.972L273 304.917L275 304.611L276 304.389L278 304.083L279 304.028L281 304L282 303.972L283 303.917L285 303.611L286 303.389L288 303.083L289 303.028L290 303L291 303L293 302.917L295 302.611L296 302.417L298 302.306L300 302.694L301 303L303 303.583L304 303.778L305 303.917L307 303.917L309 303.611L310 303.389L312 303.056L313 302.944L315 302.611L316 302.389L318 302.083L320 301.917L321 301.778L323 301.389L324 301.222L325 301.083L327 300.917L329 300.611L331 300.222L332 300.083L334 299.917L335 299.778L337 299.389L338 299.222L339 299.083L341 298.917L342 298.778L344 298.389L346 298.056L347 297.944L349 297.611L351 297.222L352 297.083L354 296.917L355 296.778L357 296.389L359 296.083L361 295.917L362 295.778L364 295.389L366 295.056L367 294.944L369 294.611L371 294.222L372 294.083L374 293.917L375 293.778L377 293.389L379 293.056L380 292.944L382 292.611L384 292.222L385 292.083L387 291.917L388 291.778L390 291.389L391 291.222L392 291.083L394 290.917L396 290.611L398 290.222L400 290L402 289.667L403.972 288.667L405.694 286.972L406.917 285L407.806 283L408.194 282L408.611 281L409.389 279L409.833 278L410.25 277L410.778 276L411.778 274L412.222 273L412.778 272L413.25 271L414.389 269L415.028 268L416.389 266L417.139 265L417.861 264L419.389 262L421.083 260L422.028 259L423 258L425 256L427 254L428 253.028L429 252.083L431 250.389L432 249.639L434 248.139L435 247.389L436 246.694L438 245.389L439.944 244.278L440.944 243.833L441.5 243.5L443 243L443 240.944L442.972 239L442.917 238L442.611 236L442.389 235L442.222 234L442.056 233L441.944 232L441.611 230L441.389 229L441.194 228L440.806 226L440.611 225L440.389 224L440.194 223L439.806 221L439.611 220L439.389 219L439.194 218L438.806 216L438.611 215L438.389 214L438.194 213L437.806 211L437.611 210L437.389 209L437.194 208L436.806 206L436.611 205L436.389 204L436.194 203L435.806 201L435.611 200L435.389 199L435.194 198L434.806 196L434.611 195L434.389 194L434 192L433.611 190L433.389 189L433.083 187.056L433.028 186.056L433 184L523 184M28 386.472L27 386.861L25 387.778L23 388.861L22 389.472L20.0278 391.083L19.0833 392.028L17.4167 394L16.0833 396L15.0833 398L14.3333 400L14 401L13.4167 403L13.0833 405L13 407L13.0278 409L13.0833 410L13.3889 412L13.8611 414L14.1667 415L14.4444 416L15.2778 418L15.8333 419L17.0278 421L18.4167 422.917L20.0833 424.583L21.0278 425.306L23 426.611L24 427.167L25 427.722L27 428.611L29 429.306L30 429.583L31 429.778L32 429.917L34 430L35 430L36 430L38 429.972L39 429.917L41 429.583L42 429.306L44 428.611L45 428.167L46 427.722L48 426.528L49 425.75L50 424.917L51.9722 423L53.75 421L54.5 420L55.0833 419L55.5833 418L56.3056 416L56.5833 415L57 413L57.3889 411L57.6111 410L57.8889 408L57.8889 407L57.6111 405L57.3889 404L57 402L56.7778 401L56.5278 400L55.7222 398L54.6111 396L53.9722 395L52.5833 393L51.7778 392.028L50.9167 391.083L49 389.472L47 388.25L46 387.778L45 387.25L43 386.472L41 386.083L40 386.028L38 386L37 386L35 386L33 386L32 386L30 386.083L28 386.472M829 386.417L828 386.722L827 387.083L825 388.083L824 388.722L822 390.222L821 391.083L819.083 393L817.472 395L816.861 396L816.278 397L815.861 398L815.444 399L815.167 400L814.639 402L814.389 403L814.083 405L814.028 406L814 408L814 409L814.083 411L814.417 413L814.694 414L815.389 416L815.833 417L816.25 418L816.778 419L817.861 421L818.472 422L820.083 423.917L822 425.583L824 426.917L825 427.444L826 427.917L828 428.667L830 429.306L832 429.778L833 429.917L835 430L836 430L838 429.972L839 429.917L841 429.611L842 429.361L843 429.139L845 428.556L846 428.139L847 427.722L849 426.528L851 424.917L852.917 423L854.528 421L855.139 420L856.222 418L857.139 416L857.528 415L857.917 413L858 411L858 410L858 409L858 407L858 405L857.917 403L857.778 402L857.583 401L857.306 400L856.583 398L856.111 397L854.972 395L853.583 393.028L851.917 391.222L850.972 390.417L849 389.028L847 387.889L846 387.417L844 386.694L843 386.417L842 386.222L841 386.083L839 386L838 386L836 386L834 386L833 386L831 386.083L829 386.417M31 389.25L32 389.083L34 389L35 389L37 389L38 389.028L39 389.083L41 389.472L43 390.25L44 390.778L46 391.861L46.9722 392.472L48.7778 394.083L49.5833 395.028L50.9722 397L52.1667 399L52.7222 400L53.5278 402L53.7778 403L54 404L54.3056 406L54.3889 408L54.1667 410L53.8056 412L53.3056 414L52.5833 416L52.0833 417L51.5 418L49.9167 420L48.9722 420.972L47 422.75L46 423.528L44 424.722L43 425.167L41 425.972L39 426.583L37 426.917L35 426.972L34 426.917L32 426.583L30 425.972L29 425.611L27 424.722L26 424.167L25 423.611L23.0833 422.306L21.4167 420.778L20.0278 418.972L19.3889 418L18.2778 416L17.4444 414L17.1667 413L16.6389 411L16.3889 410L16.1111 408L16.2222 406L16.4167 405L16.6944 404L17.3333 402L18.0833 400L19.0833 398L20.4167 396L22.0833 394.083L24 392.472L25 391.861L27 390.778L28 390.25L30 389.472L31 389.25M832 389.222L834 389.028L836 389L838 389.028L840 389.222L841 389.417L842 389.694L844 390.417L846 391.417L847 392.028L848.917 393.417L849.778 394.222L851.306 396.028L851.972 397L852.583 398L853.583 400L853.972 401L854.583 403L854.917 405L855 407L855 408L855 409L854.917 411L854.528 413L854.139 414L853.222 416L852.139 418L851.528 419L849.917 420.972L848.972 421.917L847 423.528L846 424.139L845 424.722L843 425.556L842 425.833L840 426.361L839 426.611L837 426.917L836 426.944L835 426.917L833 426.583L831 426L830 425.667L828 424.917L826 423.917L825 423.278L823.083 421.778L821.472 419.972L820.25 418L819.778 417L818.833 415L818.389 414L817.694 412L817.417 411L817.083 409L817.083 407L817.389 405L817.639 404L818.167 402L818.444 401L818.861 400L819.278 399L819.861 398L820.472 397L822.083 395.028L823.028 394.083L825 392.417L827 391.083L829 390.083L831 389.417L832 389.222z"/>
</svg>
