<?xml version="1.0" encoding="utf-8"?>
<!DOCTYPE svg PUBLIC "-//W3C//DTD SVG 20010904//EN" "http://www.w3.org/TR/2001/REC-SVG-20010904/DTD/svg10.dtd">
<svg version="1.0" xmlns="http://www.w3.org/2000/svg" width="1180px" height="660px" viewBox="0 0 1180 660" preserveAspectRatio="xMidYMid meet">
 <g fill="#00ff00">
  <path d="M27.5 648.1 c-1.6 -1 -6.8 -5.8 -11.5 -10.5 l-8.5 -8.6 -0.3 -69 -0.2 -69 14.1 -14.8 c7.8 -8.1 14.8 -16.1 15.5 -17.9 1.2 -2.7 1.4 -25 1.4 -128.2 0 -85 -0.3 -125.9 -1.1 -127.8 -0.5 -1.5 -4.7 -6.6 -9.2 -11.3 -4.6 -4.7 -11.1 -11.5 -14.5 -15.2 l-6.2 -6.7 0.2 -69.1 0.3 -69.1 10 -9.8 c9.1 -9 10.4 -10 14.5 -10.4 4.8 -0.6 36 -2 81 -3.7 15.1 -0.6 37.6 -1.5 50 -2.1 75.4 -3.4 99.3 -4.1 151.5 -4.6 l57.9 -0.5 18.1 18.6 18 18.6 181.8 0 181.8 0 5.7 -5.8 c3.2 -3.1 11.3 -11.5 18.1 -18.6 l12.4 -12.8 57.6 0.5 c51.8 0.5 78 1.3 152.1 4.6 12.4 0.6 34.7 1.5 49.5 2.1 46.8 1.7 76.8 3.1 81.4 3.6 4.9 0.6 9.4 4.3 19.3 15.7 l5.8 6.8 0 68 0 68 -14.3 15.2 c-7.9 8.4 -14.9 16.2 -15.5 17.4 -1.6 3 -1.7 252.8 -0.1 257 0.6 1.5 7.4 9.2 15.2 17.1 l14.2 14.3 0 69.5 0 69.5 -10.6 10.4 -10.6 10.5 -170.4 0 c-168.7 0 -170.4 0 -173.7 -2 -1.8 -1.1 -7.8 -6.7 -13.4 -12.5 -7.2 -7.5 -11.2 -10.8 -13.7 -11.6 -2.4 -0.7 -64.7 -0.9 -193.3 -0.7 l-189.8 0.3 -12.2 12.1 c-6.8 6.7 -13.3 12.7 -14.5 13.3 -1.6 0.8 -49.5 1.1 -171.5 1.1 -164.2 0 -169.4 -0.1 -172.3 -1.9z m353 -15.1 c10.3 -10.4 12.7 -12.3 17 -13.5 4.4 -1.3 30 -1.5 195 -1.3 l190 0.3 4 2.2 c2.2 1.2 8.8 7.1 14.8 13.2 l10.8 11.1 168.7 0 168.8 0 9.7 -9.9 9.7 -9.8 0 -65.8 0 -65.7 -14.8 -15.2 c-11.4 -11.6 -15 -15.9 -15.5 -18.5 -1.2 -5.8 -0.8 -257.6 0.3 -260.7 0.6 -1.5 7.6 -9.5 15.5 -17.9 l14.5 -15.2 0 -65.5 0 -65.5 -9.7 -10.2 -9.8 -10.1 -8.3 0 c-4.6 0 -15.9 -0.4 -25 -1 -9.2 -0.5 -30.4 -1.4 -47.2 -2 -16.8 -0.6 -39.7 -1.5 -51 -2.1 -11.3 -0.5 -38.3 -1.6 -60 -2.4 -21.7 -0.8 -49.2 -1.9 -61 -2.5 -11.8 -0.5 -35.9 -1 -53.5 -0.9 l-32 0 -15.5 16.5 c-10.6 11.3 -17 17.3 -20.2 19 l-4.7 2.4 -180.8 0 c-173.1 0 -181 -0.1 -184.8 -1.9 -2.6 -1.2 -9.6 -7.7 -20.4 -19 l-16.3 -17.1 -32.2 0 c-17.6 0 -41.5 0.5 -53.1 1 -11.5 0.6 -38.8 1.7 -60.5 2.5 -21.7 0.8 -48.7 1.9 -60 2.4 -11.3 0.6 -34.4 1.5 -51.5 2.1 -17.1 0.6 -38.5 1.5 -47.7 2.1 -9.2 0.5 -20.2 0.9 -24.5 0.9 l-7.7 0 -9.8 9.8 -9.8 9.8 0 66 0 65.9 14.4 15 c8.6 9.1 14.7 16.3 15.4 18.4 1.6 4.5 1.7 254.7 0.2 260.2 -0.7 2.6 -5 7.8 -15.5 18.7 l-14.5 15 0 65.7 0 65.8 9.7 9.8 9.7 9.9 168.6 0 168.5 0 12 -12z"/>
  <path d="M46.5 585 c-5.8 -1.8 -14 -7.6 -17.7 -12.4 -9.3 -12.4 -6.7 -32.7 5.4 -42.5 3.9 -3.2 14.9 -7.1 19.7 -7.1 4.3 0 13.5 2.9 17.7 5.7 4 2.6 7.9 7.1 10.6 12.3 1.9 3.8 2.3 6 2.2 13.5 -0.1 10.8 -2.1 16.2 -8.5 22.4 -7.1 6.8 -21.1 10.7 -29.4 8.1z m15.7 -5.5 c14 -4.8 21.4 -22.8 14.8 -35.9 -2.8 -5.5 -10.2 -12.4 -15.2 -14.3 -13.2 -4.7 -28 3.8 -32.4 18.8 -1.4 4.5 -1.4 6.2 -0.4 10.9 2.7 12 13.7 21.9 24.6 22 2.2 0 6.1 -0.7 8.6 -1.5z"/>
  <path d="M1117.3 584.1 c-9.3 -3.4 -14.5 -7.8 -18.1 -15 -2.4 -4.9 -2.7 -6.8 -2.7 -15.1 0 -8.5 0.3 -10 2.7 -14 5 -8.5 10.3 -12.7 19.7 -15.6 6.6 -2 11 -1.7 18.7 1.2 7.6 2.8 12.2 6.6 16.2 13.3 2.1 3.6 2.7 6 3 13 0.5 10.6 -0.7 15.2 -5.6 21.6 -7.7 10.2 -22.6 14.8 -33.9 10.6z m21.4 -6.7 c2.9 -1.8 6.4 -5.3 8.8 -8.8 3.9 -5.6 4 -6.1 4 -13.9 0 -5.9 -0.5 -9.1 -1.8 -11.4 -3 -5.7 -8 -10.5 -13.2 -12.9 -12 -5.6 -24.5 -0.8 -32.3 12.6 -7.3 12.4 0.3 31.3 14.7 36.7 5.8 2.1 14.1 1.2 19.8 -2.3z"/>
  <path d="M547.9 572.8 c-2.4 -0.8 -2.6 -1.3 -4.4 -17.9 -1 -9.3 -2.4 -17.3 -3 -17.8 -0.5 -0.4 -10 -2.9 -21 -5.6 -11 -2.6 -22.8 -5.7 -26.3 -6.7 l-6.4 -1.9 -5.2 -11.2 c-2.9 -6.2 -7 -15 -9.1 -19.7 -2 -4.7 -4 -8.8 -4.4 -9.2 -0.3 -0.3 -3.1 -0.2 -6.1 0.3 -3 0.5 -10.6 1.6 -16.9 2.4 -10.6 1.4 -11.7 1.8 -15.1 4.9 -4.3 3.9 -4.4 3.9 -24.5 6.6 -8.2 1.1 -24.9 3.3 -37 5 -21.7 3 -26.5 3.2 -26.5 0.7 0 -0.6 -3.2 -26.8 -7.1 -58 -5.4 -42.9 -6.8 -57.2 -6 -58 0.7 -0.7 6.7 -1.7 13.4 -2.3 6.7 -0.6 24.4 -2.4 39.2 -3.9 21.9 -2.2 27.9 -2.5 31.8 -1.6 4 0.9 7.8 0.6 24 -1.8 10.6 -1.7 28.4 -4.4 39.7 -6.1 11.3 -1.7 26.9 -4 34.7 -5.2 l14.2 -2.2 3 -6.1 c6.9 -14 19.5 -30.4 30 -39 4 -3.3 6.1 -5.7 6.1 -7.2 0 -1.1 -1.6 -10 -3.5 -19.7 -1.9 -9.7 -3.5 -17.9 -3.5 -18.1 0 -0.3 -4.7 -0.5 -10.5 -0.5 -5.8 0 -11.5 -0.5 -13 -1.2 l-2.5 -1.1 0 -25.3 c0 -21.6 0.2 -25.5 1.6 -26.8 1.4 -1.4 12.9 -1.6 111.9 -1.6 99 0 110.5 0.2 111.9 1.6 1.4 1.3 1.6 5.2 1.6 26.8 l0 25.3 -2.5 1.1 c-1.4 0.7 -6.8 1.2 -12 1.2 -5.2 0 -9.5 0.3 -9.5 0.8 0 0.4 -1.8 10.5 -4.1 22.6 l-4.1 21.8 6.2 6.3 6.2 6.3 12.7 0.7 c6.9 0.3 25.4 1.5 41.1 2.6 15.7 1 29.4 1.9 30.6 1.9 5 0 5.4 1.3 7.5 23.5 1.1 11.6 3.3 35.4 4.9 53 6 63.8 8 86.1 8 90.7 0 4.6 -0.1 4.7 -3.7 5.7 -2.1 0.5 -20.2 5.1 -40.3 10.2 l-36.5 9.2 -11.6 11.3 c-6.4 6.3 -12.3 11.4 -13.2 11.4 -0.9 0 -8.7 0.9 -17.4 2 -8.7 1 -27.5 3.3 -41.8 5 -14.3 1.7 -35 4.2 -46 5.5 -11 1.3 -31.7 3.8 -46 5.5 -14.3 1.7 -28.5 3.4 -31.6 3.8 -3 0.5 -6.7 0.4 -8 0z m39.6 -8.8 c14.3 -1.7 35 -4.2 46 -5.5 11 -1.3 31.7 -3.8 46 -5.5 14.3 -1.7 33.2 -4 42 -5.1 l16 -1.9 10.6 -10.6 10.7 -10.7 8.8 -2.3 c4.9 -1.3 22.6 -5.8 39.4 -10 16.8 -4.2 30.9 -8 31.3 -8.4 0.8 -0.7 -0.7 -19.5 -7.3 -90.5 -1.7 -17.6 -3.9 -40.9 -4.9 -51.8 -1 -10.8 -2 -19.9 -2.2 -20.2 -0.5 -0.4 -48.2 -3.8 -72.9 -5.1 -6.9 -0.3 -13.4 -1.1 -14.5 -1.6 -1.1 -0.6 -4.8 -3.8 -8.2 -7.1 -5.3 -5.1 -6.3 -6.7 -6.3 -9.5 0 -1.8 1.8 -12.8 4 -24.3 2.2 -11.6 4 -21.4 4 -21.9 0 -0.5 0.7 -1.6 1.6 -2.4 1.2 -1.3 3.8 -1.6 12 -1.6 l10.4 0 0 -23 0 -23 -108.5 0 -108.5 0 0.2 22.8 0.3 22.7 12.2 0.5 c6.7 0.3 12.3 0.7 12.6 1 0.2 0.3 1.1 4.3 2 9 0.9 4.7 2.7 14.5 4.1 21.7 1.4 7.3 2.2 14.1 1.8 15.2 -0.4 1 -3.5 4.2 -6.9 7.1 -10.3 8.7 -20.8 22.3 -28.3 36.6 -2.3 4.3 -4.9 8.3 -5.8 8.8 -1.6 0.9 -10.7 2.4 -55.2 9.1 -13.5 2 -31.5 4.7 -40.2 6.1 -13 2 -16.4 2.2 -20.5 1.3 -3.9 -0.9 -9.7 -0.6 -31.3 1.6 -14.6 1.4 -31.4 3.1 -37.5 3.7 -6 0.5 -11 1.1 -11.1 1.1 -0.2 0.4 13.6 109.1 13.9 109.3 0.1 0.2 9.9 -1 21.7 -2.7 11.8 -1.6 28.7 -3.9 37.5 -5.1 15.9 -2.1 16 -2.1 20.1 -5.8 3.5 -3.3 5 -3.9 10.5 -4.5 3.5 -0.3 12 -1.5 18.8 -2.5 10.3 -1.6 12.8 -1.7 14.8 -0.6 1.8 0.9 4.6 5.8 10.2 18.2 4.3 9.3 8.5 18.3 9.4 20 1.6 3.1 2 3.3 27.3 9.5 14.9 3.6 26.4 6.9 27.3 7.8 1.2 1.2 2.2 6.3 3.5 18.2 l1.9 16.5 5.6 -0.7 c3.1 -0.5 17.3 -2.2 31.6 -3.9z"/>
  <path d="M571.3 541.2 c-0.7 -0.4 -2 -6.6 -2.9 -14 l-1.8 -13.2 -3.5 -1 c-2 -0.6 -14.6 -3.7 -28.1 -7 -13.5 -3.3 -25.5 -6.5 -26.7 -7 -1.3 -0.5 -3.3 -3.4 -4.9 -6.7 -1.4 -3.2 -5.2 -11.4 -8.3 -18.3 -3.2 -6.9 -6.8 -14.8 -8.1 -17.5 l-2.3 -5.1 -12.6 1.7 c-6.9 0.9 -21.6 2.9 -32.6 4.3 l-20 2.7 -3.2 3.4 c-3.5 3.8 -4.2 4 -16.3 5.5 -4.7 0.6 -12.9 1.7 -18.3 2.6 -10.6 1.7 -14.1 1.4 -15.2 -1.3 -0.3 -1 -1.9 -12.6 -3.5 -25.8 -1.6 -13.2 -3.2 -25.4 -3.6 -27.1 -0.4 -2.1 -0.1 -3.6 0.9 -4.6 2.9 -2.9 43.9 -6.9 50.5 -5 4.5 1.4 -0.8 2.1 83.7 -10.8 11 -1.7 26.3 -3.9 34 -5 7.7 -1.1 14.9 -2.2 16 -2.5 1.5 -0.3 2.9 -2.8 5.3 -9.4 7.9 -21.3 23.7 -40.3 43.1 -51.7 1.7 -1 3.1 -2.6 3.1 -3.5 0 -0.9 -3.1 -17.9 -7 -37.8 -3.8 -20 -7 -37.1 -7 -38 0 -3.9 2.9 -4.1 66 -4.1 55.1 0 61 0.2 62.5 1.6 1.1 1.1 1.4 2.5 1 4.1 -3.1 12.5 -15.5 79.7 -14.8 80.3 0.4 0.4 3.5 2.7 6.8 5.2 6 4.6 13.7 12.3 18.7 18.7 l2.6 3.5 21.9 1.2 c28.3 1.6 52.4 3.4 54.5 4 2.4 0.7 2.6 1.7 4.3 21.6 0.8 10.1 2.2 24.6 3 32.3 0.8 7.7 2.4 24.6 3.5 37.5 1.2 12.9 2.3 24.1 2.5 24.8 0.3 0.8 0.2 2.4 -0.1 3.8 -0.7 2.8 0.4 2.5 -38.3 12.3 l-27.3 7 -10.7 10.4 c-10.6 10.4 -10.6 10.4 -16.6 11.1 -11.3 1.3 -62.5 7.5 -109 13.1 -11.5 1.4 -24.1 3 -28 3.5 -8.6 1.1 -11.6 1.2 -13.2 0.2z m13.2 -5.2 c3.9 -0.5 16.5 -2.1 28 -3.5 42 -5.1 63.4 -7.6 83.5 -10 11.3 -1.3 22.3 -2.7 24.5 -3.1 3.4 -0.5 5.6 -2.1 14.1 -10.5 l10 -10 32 -8.1 c17.5 -4.5 32.1 -8.2 32.3 -8.4 0.4 -0.4 -3.1 -42 -5.4 -63.4 -0.8 -7.4 -2.2 -21.8 -3 -32 -0.9 -10.1 -1.7 -18.5 -1.8 -18.6 -0.4 -0.4 -27.5 -2.4 -46.2 -3.4 -30.9 -1.6 -30.4 -1.5 -34.5 -6.3 -8.3 -9.7 -14.9 -16.2 -20.7 -20.5 -5.3 -3.8 -6.3 -5.1 -6.3 -7.6 0 -2.4 6 -34.7 13.5 -72.5 0.9 -4.1 1.4 -7.6 1.2 -7.8 -0.2 -0.2 -26.9 -0.2 -59.4 -0.1 l-59 0.3 6.8 35 c3.7 19.3 7 36.8 7.4 39 l0.6 4.1 -8.8 5.9 c-18.6 12.6 -33.7 32.3 -39.9 51.8 -1 3.2 -2.6 6.3 -3.6 6.8 -0.9 0.5 -10.8 2.3 -22 3.9 -26 3.9 -41.5 6.2 -66.3 10 -46.6 7.1 -46.4 7.1 -50.7 5.8 -3 -0.9 -7.3 -0.9 -19.1 0.1 -15.3 1.3 -25.6 2.7 -26.4 3.5 -0.5 0.5 5.5 50.7 6.1 51.4 0.3 0.2 4.9 -0.3 10.3 -1.2 5.4 -0.9 13.8 -2.1 18.7 -2.7 8.3 -1.1 9.1 -1.4 12.5 -4.8 l3.6 -3.7 17.5 -2.3 c9.6 -1.2 25 -3.2 34.1 -4.4 10.1 -1.4 17.6 -2 19 -1.5 1.9 0.7 4.5 5.4 12.9 23.9 7.1 15.7 11.1 23.4 12.5 24 1.1 0.5 13.9 3.8 28.5 7.4 14.6 3.6 27.4 6.9 28.5 7.4 1.8 0.7 2.3 2.4 3.4 11.7 1.6 13.5 2 15.4 3.5 15.4 0.6 -0.1 4.3 -0.5 8.1 -1z"/>
  <path d="M516.7 205.8 c-5.1 -4.7 -96.7 -123.8 -96.7 -125.7 0 -1.1 0.9 -2.5 1.9 -3.1 2.7 -1.4 438.5 -1.4 441.2 0 1 0.6 1.9 1.9 1.9 3 0 1.8 -93 122.6 -97.2 126.3 -1.9 1.6 -9.3 1.7 -125.4 1.7 l-123.3 0 -2.4 -2.2z m294 -63.5 l47.3 -60.8 -108.1 -0.3 c-59.4 -0.1 -156.4 -0.1 -215.6 0 l-107.5 0.3 47.3 60.8 47.3 60.7 121 0 121.1 0 47.2 -60.7z"/>
  <path d="M530.1 177.3 c-1.5 -1.6 -13.6 -16.8 -26.9 -34 -13.3 -17.1 -24.6 -31.4 -25.2 -31.8 -1.6 -1 -1.2 -5.2 0.6 -5.9 2 -0.8 324.8 -0.8 326.8 0 0.9 0.3 1.6 1.6 1.6 2.8 0 2.1 -48.6 66 -53.2 69.9 -1.9 1.6 -8.7 1.7 -111.5 1.7 l-109.5 0 -2.7 -2.7z m244.6 -34.5 l25 -32.3 -78.9 -0.3 c-43.4 -0.1 -114.2 -0.1 -157.3 0 l-78.4 0.3 25.1 32.3 25 32.2 107.2 0 107.2 0 25.1 -32.2z"/>
  <path d="M45.5 135.7 c-9.4 -3.1 -16.4 -9 -19.7 -16.6 -2.5 -5.5 -3 -18.6 -1 -24.4 2.2 -6.2 8.3 -13 14.8 -16.4 8.4 -4.4 13.7 -5 22.3 -2.4 9.3 2.8 16 8.2 19.7 15.8 2.5 5.1 2.9 6.9 2.8 14.3 -0.1 10 -2.2 15.7 -8 21.5 -7.7 7.7 -21.4 11.3 -30.9 8.2z m19.3 -6.3 c9.3 -4.6 16.1 -16.8 14.7 -26.4 -2.1 -13.9 -15.8 -25.3 -28.5 -23.5 -12.8 1.8 -24.6 17.2 -22.4 29.2 3.5 18.5 20.8 28.4 36.2 20.7z"/>
  <path d="M1116.3 135.1 c-13 -4.8 -20.2 -15.2 -20.3 -29.3 -0.1 -16 9.5 -27.4 25.7 -30.8 5.6 -1.1 6.8 -1 13 0.8 7.9 2.5 15.5 8.2 19.3 14.5 2.3 3.8 2.5 5.2 2.5 15.2 0 10.2 -0.2 11.4 -2.7 15.6 -7.6 12.9 -24 19.1 -37.5 14z m17.8 -4.1 c4.7 -1.3 11.3 -7.1 14.7 -12.8 2.3 -4.1 2.7 -5.8 2.7 -12.7 0 -9.6 -2.2 -14 -9.9 -20.4 -6.7 -5.5 -13.2 -7 -20.7 -4.8 -15.9 4.7 -24.1 21.2 -17.4 35.4 2.8 6.2 10.4 13.9 14.8 15.2 4.3 1.3 11.5 1.3 15.8 0.1z"/>
 </g>
</svg>