<?xml version="1.0" standalone="yes"?>
<svg xmlns="http://www.w3.org/2000/svg" width="557" height="516">
<path style="fill:#00ff00; stroke:none;" d="M18 1.72223L16 3.11108L15 4.02777L13 6L12 7L9 10L7 12L6 13L4.02778 15L3.11111 16L1.72222 18L1.33333 19L1.11111 20L1 22L1 23L1 26L1 40L1 88L1 117L1 122L1 124L1 125L1.02778 127L1.11111 128L1.72222 130L3.11111 132L4.02778 133L6 135L8 137L10 139L10.9722 140L11.9167 141L13.6111 143L15.2222 144.917L17 146.611L17.9167 147.389L19.6111 149.083L20.3611 150.028L21.8333 152L22.5556 153L23.7222 155L24.1667 156L24.6111 157L25.3056 159L25.5833 160L25.7778 161L25.9167 162L26 164L26 165L26 166L26 168L26 179L26 214L26 323L26 346L26 351L26 353L25.9722 354L25.9167 355L25.5833 357L25 359L24.6667 360L23.9167 362L23.4444 363L22.9167 364L22.2778 365L21.5833 366L19.9167 368L18.9722 369L18 370L16 372L15 373L13 375L8 380L6 382L4.02778 384L2.33333 386L1.72222 387L1.33333 388L1.11111 389L1 391L1 392L1 395L1 410L1 458L1 488L1 492L1 494L1 495L1.08333 497L1.5 499L1.94444 500L3.25 502L5.02778 504L7 506L9 508L11 510L13 512L14 512.972L15 513.889L17 515.278L19 515.889L20 515.972L22 516L24 516L27 516L49 516L127 516L223 516L424 516L507 516L530 516L533 516L535 516L537 515.972L538 515.889L540 515.278L542 513.889L543 512.972L545 511L546 510L549 507L551 505L552 504L553 503L554.889 501L556.278 499L556.667 498L556.889 497L557 495L557 494L557 491L557 477L557 429L557 427L557 400L557 395L557 393L557 392L557 391L556.889 389L556.278 387L554.889 385L553.972 384L552 382L550 380L544 374L542 372L541 371L540 370L538.083 368L536.417 366L535.028 364L534.417 363L533.417 361L533.028 360L532.417 358L532.222 357L532.083 356L532 354L532 353L532 352L532 350L532 339L532 303L532 194L532 172L532 168L532 166L532 164L532.083 162L532.222 161L532.417 160L532.694 159L533.389 157L533.833 156L534.778 154L535.25 153L536.472 151L538.083 149L540 147L542 145L543 144L545 142L550 137L552 135L553.972 133L555.667 131L556.278 130L556.667 129L556.889 128L557 126L557 125L557 122L557 108L557 60L557 30L557 26L557 24L557 22L556.972 21L556.889 20L556.667 19L555.667 17L553.972 15L552 13L551 12L548 9L546 7L545 6L543 4.02777L542 3.11108L540 1.72223L539 1.33337L537 1.02777L535 1L533 1L528 1L506 1L432 1L376 1L135 1L52 1L29 1L25 1L23 1L22 1L20 1.11108L18 1.72223M21 4.33331L23 4.02777L24 4L26 4L28 4L33 4L58 4L143 4L427 4L509 4L528 4L531 4L533 4L535 4.02777L537 4.33331L538 4.72223L540 6.11111L541 7.02777L543 9L545 11L548 14L549 15L550.972 17L552.667 19L553.667 21L553.889 22L553.972 23L554 24L554 25L554 28L554 45L554 104L554 120L554 123L554 124L553.889 126L553.278 128L551.889 130L550.972 131L549 133L547 135L540 142L538 144L536.028 146L535.083 147L533.472 149L532.25 151L531.778 152L531.25 153L530.389 155L529.694 157L529.417 158L529.222 159L529.083 160L529 162L529 164L529 166L529 171L529 192L529 259L529 326L529 347L529 352L529 354L529 356L529.083 358L529.222 359L529.417 360L530.028 362L530.417 363L531.417 365L532.028 366L533.417 368L535.083 370L537 372L538 373L539 374L541 376L547 382L549 384L550.972 386L551.889 387L553.278 389L553.889 391L554 393L554 394L554 395L554 398L554 400L554 464L554 485L554 491L554 493L553.972 494L553.889 495L553.278 497L551.889 499L550 501L549 502L548 503L546 505L544 507L543 508L542 509L540 510.889L538 512.278L537 512.667L535 512.972L534 513L532 513L530 513L525 513L500 513L415 513L133 513L49 513L29 513L26 513L24 513L22 512.972L21 512.889L19 512.278L17 510.889L16 509.972L15 509L13 507L12 506L10 504L9 503L8.02778 502L6.25 500L4.94444 498L4.5 497L4.08333 495L4 493L4 492L4 491L4 489L4 474L4 414L4 397L4 394L4 393L4.11111 391L4.72222 389L6.11111 387L7.02778 386L9 384L11 382L16 377L18 375L19 374L20 373L21.9722 371L22.9167 370L24.5833 368L25.9167 366L26.9167 364L27.6667 362L28.3056 360L28.7778 358L28.9167 357L29 355L29 353L29 351L29 346L29 324L29 257L29 192L29 171L29 166L29 164L29 162L28.9167 160L28.7778 159L28.5833 158L28.3056 157L27.6111 155L27.1667 154L26.7222 153L25.5556 151L24.8333 150L23.3611 148L22.6111 147.028L21.7778 146.083L20 144.389L19.0833 143.611L18.2222 142.778L17.3889 141.917L16.6111 140.972L14.9167 139L13.9722 138L13 137L11 135L9 133L7.02778 131L6.11111 130L4.72222 128L4.11111 126L4 124L4 123L4 122L4 119L4 53L4 32L4 26L4 24L4.02778 23L4.11111 22L4.72222 20L5.33333 19L6.11111 18L8 16L9 15L11 13L14 10L15 9L17 7.02777L18 6.11111L20 4.72223L21 4.33331M72 14.4167L70 15.0278L69 15.3889L67 16.2778L65 17.4722L64 18.25L63 19.0833L61.0278 21L59.25 23L58.4722 24L57.25 26L56.7778 27L56.25 28L55.4722 30L55 32L54.6111 34L54.2222 36L54.0833 37L54.0833 39L54.3889 41L54.8056 43L55.1944 45L55.4167 46L56.0278 48L56.4167 49L57.4167 51L58.6944 53L60.2222 54.9722L61.0833 55.9167L63 57.5833L65 58.9722L66 59.5833L68 60.5833L69 60.9722L71 61.5833L72 61.7778L73 61.9167L75 62L76 62L77 62L79 62L81 62L82 62L84 61.9167L86 61.5833L87 61.3055L89 60.5833L91 59.5833L92 58.9722L94 57.5833L95.9722 55.9167L97.75 54L98.5278 53L99.75 51L100.222 50L100.75 49L101.528 47L101.778 46L102 45L102.389 43L102.611 42L102.917 40L103 38L102.972 37L102.917 36L102.611 34L102.361 33L101.861 31L101.611 30L100.972 28L100.583 27L99.5833 25L98.3056 23L97.5833 22.0278L95.9167 20.2222L94.9722 19.4167L94 18.6945L92 17.3889L91 16.8333L90 16.2778L88 15.3889L86 14.6945L85 14.4167L84 14.2222L83 14.0833L81 14L80 14L78 14L76 14L74 14.0833L72 14.4167M473 14.4167L472 14.6945L470 15.3889L468 16.2778L467 16.8333L466 17.3889L464 18.6945L463.028 19.4167L461.222 21.0833L459.694 23L459.028 24L458.389 25L457.278 27L456.444 29L456.167 30L455.861 31L455.389 33L455.083 35L455.028 36L455 38L455.028 40L455.083 41L455.389 43L455.639 44L455.861 45L456.444 47L457.25 49L457.778 50L458.861 52L459.472 53L460.25 54L462.028 55.9167L463 56.7778L465 58.3055L467 59.5833L469 60.5833L471 61.3055L472 61.5833L474 61.9167L476 62L477 62L478 62L480 62L482 62L483 62L485 61.9167L487 61.5278L488 61.1389L489 60.75L490 60.2222L492 59.1667L493 58.6111L495 57.3055L495.972 56.5833L497.75 54.9167L498.528 53.9722L499.75 52L500.222 51L501.222 49L501.75 48L502.556 46L503.139 44L503.361 43L503.611 42L503.917 40L503.972 38L503.917 37L503.611 35L503.389 34L503 32L502.778 31L502.528 30L501.75 28L501.222 27L500.75 26L499.528 24L498.75 23L496.972 21L495 19.0833L494 18.25L493 17.4722L491 16.2778L489 15.3889L488 15.0278L486 14.4167L484 14.0833L482 14L481 14L479 14L477 14L475 14.0833L473 14.4167M75 17.2222L77 17.0278L78 17L80 17.0278L81 17.0833L83 17.4167L84 17.6945L86 18.3889L87 18.8333L88 19.2778L89 19.8333L90 20.3889L91.9722 21.6945L92.9167 22.4167L94.5833 24.0833L95.3056 25.0278L96.5833 27L97.1111 28L97.5833 29L97.9722 30L98.6111 32L98.8611 33L99.3611 35L99.6111 36L99.8333 38L99.75 39L99.6111 40L99.1944 42L98.7778 44L98.5278 45L97.75 47L97.2222 48L96.1389 50L95.5278 51L93.9167 52.9167L92 54.5833L91 55.3055L89 56.5833L88 57.1111L87 57.5833L85 58.3055L84 58.5833L83 58.7778L82 58.9167L80 59L79 59L77 59L75 58.9167L74 58.7778L73 58.5833L71 57.9722L70 57.5833L68 56.5833L67 55.9722L66 55.3055L65.0278 54.5833L63.2222 52.9167L61.6944 51L61.0278 50L60.4167 49L59.4167 47L59.0278 46L58.6944 45L58.4167 44L58 42L57.6389 40L57.4722 39L57.4722 37L57.8056 35L58.2222 33L58.4722 32L59.25 30L59.7778 29L60.25 28L61.4722 26L62.25 25L64.0278 23.0278L66 21.25L67 20.4722L68 19.8611L70 18.8333L71 18.3889L73 17.6945L74 17.4167L75 17.2222M476 17.2222L478 17.0278L479 17L480 17L482 17.0833L484 17.4167L485 17.6945L487 18.3889L488 18.8333L490 19.8611L491 20.4722L492 21.25L493.972 23.0278L495.75 25L496.528 26L497.75 28L498.222 29L498.75 30L499.528 32L499.778 33L500.194 35L500.389 36L500.694 38L500.583 40L500.361 41L499.833 43L499.556 44L498.75 46L498.222 47L497.778 48L497.222 49L496.75 50L495.528 51.9167L494.75 52.7778L493.917 53.5833L492.972 54.3055L491 55.6111L490 56.1667L488 57.2222L487 57.75L485 58.5278L484 58.75L483 58.9167L481 59L480 59L478 59L476 58.9167L474 58.5833L472 57.9722L471 57.5833L469 56.5833L467 55.3055L465.028 53.7778L464.083 52.9167L462.472 51L461.25 49L460.778 48L460.25 47L459.444 45L459.167 44L458.639 42L458.389 41L458.083 39L458.083 37L458.222 36L458.639 34L459.167 32L459.444 31L460.278 29L461.389 27L462.694 25.0278L463.417 24.0833L464.222 23.2222L466.028 21.6945L468 20.3889L469 19.8333L471 18.8333L472 18.3889L474 17.6945L475 17.4167L476 17.2222M208 61L207 62L207 102L207 115L207 118L207 120L206.972 122L206.917 123L206.611 125L206.389 126L206.083 128L206.028 129L206 131L205.972 132L205.917 133L205.611 135L205.389 136L205.083 138L205.028 139L204.972 141L204.778 143L204.389 145L204.083 147L204.028 148L204 150L203.972 151L203.917 152L203.611 154L203.389 155L203.083 157L203.028 158L202.972 160L202.917 161L202.611 163L202.389 164L202.083 166L202.028 167L201.972 169L201.778 171L201.389 173L201.083 175L201.028 176L201 177L200.972 179L200.917 180L200.611 182L200.389 183L200.083 185L200.028 186L199.972 188L199.778 190L199.389 192L199.083 194L199.028 195L199 197L198.972 198L198.917 199L198.611 201L198.389 202L198.083 204L198.028 205L197.972 207L197.917 208L197.611 210L197.389 211L197.083 213L197.028 214L196.972 216L196.917 217L196.611 219L196.389 220L196.083 222L196.028 223L196 225L195.972 226L195.917 227L195.611 229L195.389 230L195.083 232L195.028 233L194.972 235L194.778 237L194.389 239L194.083 241L194.028 242L194 244L193.972 245L193.917 246L193.611 248L193.389 249L193.083 251L193.028 252L192.972 254L192.778 256L192.389 258L192.083 260L192.028 261L192 263L191.972 264L191.917 265L191.611 267L191.389 268L191.083 270L191.028 271L190.972 273L190.917 274L190.611 276L190.389 277L190.083 279L190.028 280L189.972 282L189.917 283L189.611 285L189.389 286L189.083 288L189.028 289L189 290L188.972 292L188.917 293L188.611 295L188.389 296L188.083 298L188.028 299L187.972 301L187.778 303L187.389 305L187.083 307L187.028 308L187 310L186.972 311L186.917 312L186.611 314L186.389 315L186.083 317L186.028 318L185.972 320L185.917 321L185.611 323L185.389 324L185.083 326L185.028 327L184.972 329L184.917 330L184.611 332L184.389 333L184.083 335L184.028 336L184 338L184 339.944L184 343L183 344L161 344L160.028 345.5L159.444 347.056L159.056 349L158.778 351L158.611 352L158.389 353L158.194 354L157.806 356L157.389 358L157.056 360L156.944 361L156.611 363L156.194 365L155.806 367L155.611 368L155.389 369L155.194 370L154.806 372L154.611 373L154.389 374L154.056 376L153.944 377L153.611 379L153.389 380L153.194 381L152.806 383L152.611 384L152.389 385L152.056 387L151.944 388L151.611 390L151.389 391L151.194 392L150.806 394L150.611 395L150.389 396L150.056 398L149.944 399L149.611 401L149.389 402L149.194 403L148.806 405L148.611 406L148.389 407L148.056 409L147.944 410L147.611 412L147.389 413L147.194 414L146.806 416L146.611 417L146.389 418L146.056 420L145.944 421L145.611 423L145.194 425L144.806 427L144.611 428L144.389 429L144.194 430L143.806 432L143.611 433L143.389 434L143.056 436L142.944 437L142.611 439L142.389 440L142.194 441L141.806 443L141.611 444L141.389 445L141.056 447L140.778 449L140.389 451L140.083 452.944L140 455L141 456L334 456L391 456L407 456L410 456L412 456L414 455.972L414.944 455.944L415.944 455.75L416.5 455.722L418 455L417.917 453.5L417.778 452.944L417.389 451L417.056 449L416.944 448L416.611 446L416.389 445L416.194 444L415.806 442L415.611 441L415.389 440L415.056 438L414.944 437L414.611 435L414.389 434L414.194 433L413.806 431L413.611 430L413.389 429L413.056 427L412.944 426L412.611 424L412.389 423L412.194 422L411.806 420L411.611 419L411.389 418L411.056 416L410.944 415L410.611 413L410.389 412L410.194 411L409.806 409L409.611 408L409.389 407L409.194 406L408.806 404L408.389 402L408.056 400L407.944 399L407.611 397L407.389 396L407.194 395L406.806 393L406.611 392L406.389 391L406.056 389L405.944 388L405.611 386L405.389 385L405.194 384L404.806 382L404.611 381L404.389 380L404.056 378L403.944 377L403.611 375L403.389 374L403.194 373L402.806 371L402.611 370L402.389 369L402.056 367L401.944 366L401.611 364L401.389 363L401.194 362L400.806 360L400.611 359L400.194 357L399.806 355L399.611 354L399.222 352L398.944 350L398.583 348L398.333 347.056L397.806 345.5L397 344L375 344L374 343L374 339.944L374 338L373.972 336L373.917 335L373.611 333L373.389 332L373.083 330L373.028 329L372.972 327L372.917 326L372.611 324L372.389 323L372.083 321L372.028 320L371.917 318L371.778 317L371.389 315L371.083 313L371.028 312L370.972 310L370.917 309L370.611 307L370.389 306L370.083 304L370.028 303L370 301L369.972 300L369.917 299L369.611 297L369.389 296L369.083 294L369.028 293L369 291L368.972 290L368.917 289L368.611 287L368.389 286L368.083 284L368.028 283L368 281L367.972 280L367.917 279L367.611 277L367.389 276L367.083 274L367.028 273L367 271L366.972 270L366.917 269L366.611 267L366.222 265L366.083 264L365.972 262L365.917 261L365.611 259L365.389 258L365.083 256L365.028 255L364.972 253L364.917 252L364.611 250L364.389 249L364.083 247L364.028 246L364 244L363.972 243L363.917 242L363.611 240L363.389 239L363.083 237L363.028 236L363 234L362.972 233L362.917 232L362.611 230L362.389 229L362.083 227L362.028 226L362 224L361.972 223L361.917 222L361.611 220L361.389 219L361.083 217L361.028 216L361 214L360.972 213L360.917 212L360.611 210L360.222 208L360.083 207L359.972 205L359.917 204L359.611 202L359.389 201L359.083 199L359.028 198L358.972 196L358.917 195L358.611 193L358.389 192L358.083 190L358.028 189L358 187L357.972 186L357.917 185L357.611 183L357.389 182L357.083 180L357.028 179L357 177L356.972 176L356.917 175L356.611 173L356.389 172L356.083 170L356.028 169L356 167L355.972 166L355.917 165L355.611 163L355.222 161L355.028 159L354.972 157L354.917 156L354.611 154L354.389 153L354.083 151L354.028 150L353.972 148L353.917 147L353.611 145L353.389 144L353.083 142L353.028 141L352.972 139L352.917 138L352.611 136L352.389 135L352.083 133L352.028 132L352 131L351.972 129L351.917 128L351.611 126L351.389 125L351.083 123L351.028 122L351 120L350.972 119L350.917 118L350.611 116L350.389 115L350.083 113L350.028 112L350 110L350 109L350 107L350 96L350 62L349 61L330 61L208 61M347 64L347 98L347 109L347 111L347 112L347.028 114L347.083 115L347.389 117L347.611 118L347.917 120L347.972 121L348 122L348.028 124L348.083 125L348.389 127L348.611 128L348.917 130L348.972 131L349 132L349.028 134L349.083 135L349.389 137L349.611 138L349.917 140L349.972 141L350.028 143L350.083 144L350.389 146L350.611 147L350.917 149L350.972 150L351.028 152L351.083 153L351.389 155L351.611 156L351.917 158L351.972 159L352.028 161L352.222 163L352.611 165L352.917 167L352.972 168L353 169L353.028 171L353.083 172L353.389 174L353.611 175L353.917 177L353.972 178L354 179L354.028 181L354.083 182L354.389 184L354.611 185L354.917 187L354.972 188L355 189L355.028 191L355.083 192L355.389 194L355.611 195L355.917 197L355.972 198L356.028 200L356.083 201L356.389 203L356.611 204L356.917 206L356.972 207L357.083 209L357.389 211L357.611 212L357.917 214L357.972 215L358 216L358.028 218L358.083 219L358.389 221L358.611 222L358.917 224L358.972 225L359 226L359.028 228L359.083 229L359.389 231L359.611 232L359.917 234L359.972 235L360 236L360.028 238L360.083 239L360.389 241L360.611 242L360.917 244L360.972 245L361 246L361.028 248L361.083 249L361.389 251L361.611 252L361.917 254L361.972 255L362.028 257L362.083 258L362.389 260L362.611 261L362.917 263L362.972 264L363.083 266L363.389 268L363.611 269L363.917 271L363.972 272L364 274L364.083 276L364.222 277L364.389 278L364.778 280L364.917 281L365 283L365 284L365.083 286L365.389 288L365.611 289L365.917 291L365.972 292L366 293L366.028 295L366.083 296L366.389 298L366.611 299L366.917 301L366.972 302L367 303L367.028 305L367.083 306L367.389 308L367.611 309L367.917 311L367.972 312L368.028 314L368.083 315L368.389 317L368.611 318L368.917 320L368.972 321L369.083 323L369.222 324L369.611 326L369.917 328L369.972 329L370.028 331L370.083 332L370.389 334L370.611 335L370.917 337L370.972 338L371 340L371.111 342L371.333 343L372.333 344.889L373.111 345.667L374.028 346.278L376 346.889L377 346.972L378 347L380 347L382 347L385 347L395 347L395.25 348.5L395.389 349.056L395.778 351L396.056 353L396.389 355L396.806 357L397.194 359L397.389 360L397.611 361L397.806 362L398.194 364L398.389 365L398.611 366L398.944 368L399.056 369L399.389 371L399.611 372L399.806 373L400.194 375L400.389 376L400.611 377L400.944 379L401.056 380L401.389 382L401.611 383L401.806 384L402.194 386L402.389 387L402.611 388L402.944 390L403.056 391L403.389 393L403.611 394L403.806 395L404.194 397L404.389 398L404.611 399L404.944 401L405.056 402L405.389 404L405.806 406L406.194 408L406.389 409L406.611 410L406.806 411L407.194 413L407.389 414L407.611 415L407.944 417L408.056 418L408.389 420L408.611 421L408.806 422L409.194 424L409.389 425L409.611 426L409.944 428L410.056 429L410.389 431L410.611 432L410.806 433L411.194 435L411.389 436L411.611 437L411.944 439L412.056 440L412.389 442L412.611 443L412.806 444L413.194 446L413.389 447L413.611 448L413.917 449.944L413.972 450.944L414 453L144 453L144 450.944L144.028 449.944L144.083 449L144.389 447L144.611 446L144.806 445L145.194 443L145.389 442L145.778 440L146.056 438L146.389 436L146.611 435L146.806 434L147.194 432L147.389 431L147.611 430L147.806 429L148.194 427L148.611 425L148.944 423L149.056 422L149.389 420L149.611 419L149.806 418L150.194 416L150.389 415L150.611 414L150.944 412L151.056 411L151.389 409L151.611 408L151.806 407L152.194 405L152.389 404L152.611 403L152.944 401L153.056 400L153.389 398L153.611 397L153.806 396L154.194 394L154.389 393L154.611 392L154.944 390L155.056 389L155.389 387L155.611 386L155.806 385L156.194 383L156.389 382L156.611 381L156.944 379L157.056 378L157.389 376L157.611 375L157.806 374L158.194 372L158.389 371L158.611 370L158.806 369L159.194 367L159.611 365L159.944 363L160.056 362L160.389 360L160.611 359L160.806 358L161.194 356L161.389 355L161.611 354L161.944 352L162.056 351L162.417 349.056L163 347L173 347L176 347L178 347L180 347L181 346.972L182 346.889L183.972 346.278L184.889 345.667L185.667 344.889L186.667 343L186.889 342L187 340L187.028 338L187.083 337L187.389 335L187.611 334L187.917 332L187.972 331L188.028 329L188.083 328L188.389 326L188.611 325L188.917 323L188.972 322L189.028 320L189.222 318L189.611 316L189.917 314L189.972 313L190 312L190.028 310L190.083 309L190.389 307L190.611 306L190.917 304L190.972 303L191.028 301L191.083 300L191.389 298L191.611 297L191.917 295L191.972 294L192 293L192.028 291L192.083 290L192.389 288L192.611 287L192.917 285L192.972 284L193.028 282L193.222 280L193.611 278L193.917 276L193.972 275L194.028 273L194.083 272L194.389 270L194.611 269L194.917 267L194.972 266L195 265L195.028 263L195.083 262L195.389 260L195.778 258L195.972 256L196.028 254L196.083 253L196.389 251L196.611 250L196.917 248L196.972 247L197 246L197.028 244L197.083 243L197.389 241L197.778 239L197.972 237L198.028 235L198.083 234L198.389 232L198.611 231L198.917 229L198.972 228L199 227L199.028 225L199.083 224L199.389 222L199.611 221L199.917 219L199.972 218L200.028 216L200.083 215L200.389 213L200.611 212L200.917 210L200.972 209L201.028 207L201.083 206L201.389 204L201.611 203L201.917 201L201.972 200L202 199L202.028 197L202.083 196L202.389 194L202.778 192L202.972 190L203.028 188L203.083 187L203.389 185L203.611 184L203.917 182L203.972 181L204 179L204.028 178L204.083 177L204.389 175L204.611 174L204.917 172L204.972 171L205.028 169L205.083 168L205.389 166L205.611 165L205.917 163L205.972 162L206.028 160L206.083 159L206.389 157L206.611 156L206.917 154L206.972 153L207 152L207.028 150L207.083 149L207.389 147L207.778 145L207.972 143L208.028 141L208.083 140L208.389 138L208.611 137L208.917 135L208.972 134L209 133L209.028 131L209.083 130L209.389 128L209.611 127L209.917 125L209.972 124L210 122L210 121L210 117L210 104L210 64L347 64M230 83L229 84L229 135L229 147L229 149L229 150L229.028 151L229.111 152L229.306 153L229.639 154L230.722 156L232.222 158L233.083 159L235 161L237 163L239 165L241 166.972L242 167.889L244 169.278L245 169.667L246 169.889L248 170L249 170L251 170L261 170L295 170L303 170L306 170L307 170L309 170L311 169.889L313 169.278L314 168.667L315 167.889L317 166L319 164L321 162L322 161L324 159L324.972 158L325.889 157L327.278 155L327.889 153L328 151L328 150L328 148L328 134L328 84L327 83L230 83M325 86L325 88.0555L325 133L325 146L325 148L325 149L324.889 151L324.278 153L322.889 155L321.972 156L320 158L319 159L317 161L315 163L313 164.889L312 165.667L311 166.278L310 166.667L308 166.972L307 167L305 167L304 167L302 167L297 167L269 167L254 167L251 167L250 167L248 166.889L247 166.667L246 166.278L244 164.889L243 163.972L241 162L239 160L237.028 158L236.083 157L234.417 155L233.722 154L232.639 152L232.306 151L232.111 150L232.028 149L232 148L232 147L232 145L232 134L232 86L325 86M274 116.417L273 116.694L271 117.389L270 117.833L269 118.25L268 118.778L267 119.25L265 120.472L263.083 122.083L261.472 124L260.25 126L259.778 127L259.25 128L258.472 130L258.222 131L258 132L257.611 134L257.389 135L257.083 137L257.083 139L257.389 141L257.639 142L258.139 144L258.389 145L259.028 147L259.417 148L260.417 150L261.694 151.917L262.417 152.778L264.083 154.361L266 155.833L267 156.528L269 157.583L271 158.306L272 158.583L273 158.778L274 158.917L276 159L277 159L279 159L281 159L282 159L284 158.917L286 158.583L287 158.306L289 157.583L291 156.5L292 155.75L294 153.972L295.917 152L296.75 151L297.5 150L298.583 148L298.972 147L299.611 145L299.861 144L300.361 142L300.611 141L300.917 139L300.944 138L300.917 137L300.611 135L300.389 134L300.194 133L299.778 131L299.528 130L298.75 128L298.222 127L297.139 125L296.528 124L294.917 122.083L293 120.472L291 119.25L290 118.778L288 117.861L287 117.444L286 117.167L285 116.861L283 116.389L281 116.083L280 116.028L278 116L276 116.083L274 116.417M277 119.222L279 119.111L281 119.389L282 119.639L284 120.167L285 120.444L287 121.25L288 121.778L289 122.25L290.972 123.472L292.75 125.083L293.528 126.028L294.139 127L295.222 129L295.75 130L296.528 132L296.778 133L297.194 135L297.528 137L297.528 139L297.333 140L296.861 142L296.611 143L295.972 145L295.583 146L295.083 147L294.5 148L292.917 150L291.972 150.972L290 152.75L289 153.5L287 154.583L285 155.306L284 155.583L283 155.778L282 155.917L280 156L279 156L277 155.972L276 155.917L274 155.583L273 155.306L272 154.972L271 154.583L269 153.528L267.083 152.139L266.222 151.361L265.417 150.611L264.028 148.917L263.417 147.972L262.417 146L262.028 145L261.389 143L261.139 142L260.667 140L260.472 139L260.472 137L260.806 135L261.222 133L261.472 132L262.25 130L262.778 129L263.861 127L264.472 126.028L266.083 124.25L267.028 123.472L269 122.25L270 121.778L271 121.25L272 120.833L273 120.389L275 119.694L277 119.222M224 179L223.028 180.5L222.444 182.056L222.083 184L222 186L221.972 188L221.917 189L221.611 191L221.389 192L221.083 194L221.028 195L220.972 197L220.917 198L220.611 200L220.389 201L220.083 203L220.028 204L219.972 206L219.917 207L219.611 209L219.389 210L219.083 212L219.028 213L218.917 215L218.611 217L218.389 218L218.083 220L218.028 221L218 223L217.972 225L217.917 226L217.611 228L217.389 229L217.083 231L217.028 232L217 234L216.972 235L216.917 236L216.611 238L216.389 239L216.083 241L216.028 242L216 244L215.972 245L215.917 246L215.611 248L215.389 249L215.083 251L215.028 252L214.972 254L214.917 255L214.611 257L214.389 258L214.083 260L214.028 261L213.972 263L213.917 264L213.611 266L213.389 267L213.083 269L213.028 270L212.972 272L212.917 273L212.611 275L212.389 276L212.083 278L212.028 279L212 281L211.972 282L211.917 283L211.611 285L211.389 286L211.083 288L211.028 289L211 290L210.972 292L210.917 293L210.611 295L210.389 296L210.083 298L210.028 299L210 301L209.972 302L209.917 303L209.611 305L209.389 306L209.083 308L209.028 309L208.972 311L208.917 312L208.611 314L208.389 315L208.083 317L208.028 318L207.972 320L207.917 321L207.611 323L207.389 324L207.083 326L207.028 327L206.972 329L206.917 330L206.611 332L206.389 333L206.083 335L206.028 336L206 338L205.972 339L205.917 340L205.611 342L205.389 343L205.083 345L205.028 346L205 348L204.972 349L204.917 350L204.611 352L204.389 353L204.083 355L204.028 356L204 358L203.972 359L203.917 360L203.611 362L203.389 362.944L203.222 363.944L203.083 364.5L203 366L179 366L178 367L177.917 368.5L177.778 369.056L177.389 371L177.056 373L176.944 374L176.611 376L176.389 377L176.194 378L175.806 380L175.611 381L175.389 382L175.056 384L174.944 385L174.611 387L174.389 388L174.194 389L173.806 391L173.611 392L173.389 393L173.194 394L172.806 396L172.389 398L172.056 400L171.944 401L171.611 403L171.389 404L171.194 405L170.806 407L170.611 408L170.389 409L170.056 411L169.944 412L169.611 414L169.389 415L169.194 416L168.806 418L168.611 419L168.389 420L168.056 422L167.944 423L167.611 425L167.389 426L167.083 428L167.028 430L167.333 431.972L167.722 432.889L169.111 434.278L171 434.889L173 435L174 435L176 435L179 435L212 435L215 435L217 435L218 435L220 434.889L221.889 434.278L223.306 432.889L223.75 431.972L224.361 430L224.611 429L224.917 427L225.083 425L225.222 424L225.611 422L225.917 420L225.972 419L226.028 417L226.083 416L226.389 414L226.778 412L226.917 411L227.028 409L227.083 408L227.389 406L227.611 405L227.917 403L227.972 402L228.028 400L228.083 399L228.389 397L228.611 396L228.917 394L229.028 392L229.083 391L229.389 389L229.778 387L229.917 386L230.083 384L230.222 383L230.611 381L230.917 379L231.028 377L231.083 376L231.389 374L231.611 373L231.917 371L231.972 370L232.083 368L232.389 366L232.611 365L232.917 363L232.972 362L233.028 360L233.083 359L233.389 357L233.611 356L233.917 354L233.972 353L234.028 351L234.083 350L234.389 348L234.611 347L234.917 345L234.972 344L235.083 342L235.389 340L235.611 339L235.944 337L236.056 336L236.389 334L236.611 333L236.917 331L236.972 330L237.028 328L237.083 327L237.389 325L237.611 324L237.917 322L238.028 320L238.083 319L238.389 317.056L238.75 315.5L239 314L319 314L320 315L320 317.056L320 318.056L320.028 320L320.083 321L320.389 323L320.611 324L320.917 326L321.028 328L321.083 329L321.389 331L321.611 332L321.917 334L322.028 336L322.083 337L322.389 339L322.611 340L322.917 342L322.972 343L323.083 345L323.389 347L323.611 348L323.917 350L323.972 351L324.028 353L324.083 354L324.389 356L324.611 357L324.917 359L324.972 360L325.083 362L325.222 363L325.611 365L325.917 367L326.028 369L326.083 370L326.389 372L326.611 373L326.917 375L327.028 377L327.083 378L327.389 380L327.611 381L327.917 383L328.028 385L328.083 386L328.389 388L328.611 389L328.917 391L329.028 393L329.083 394L329.389 396L329.778 398L329.917 399L330.028 401L330.083 402L330.389 404L330.778 406L330.972 408L331.028 410L331.083 411L331.389 413L331.778 415L331.917 416L332.083 418L332.222 419L332.389 420L332.778 422L332.917 423L332.972 424L333.083 426L333.222 427L333.611 429L333.806 430L334.306 431.972L334.722 432.889L335.333 433.667L336.111 434.278L337.028 434.667L338 434.889L340 435L341 435L342 435L344 435L351 435L390 435L391 434L391 430.944L391 430L390.972 428L390.917 427L390.611 425L390.389 424L390.194 423L389.806 421L389.611 420L389.389 419L389.194 418L388.806 416L388.389 414L388.083 412L387.917 410L387.611 408L387.389 407L387.194 406L386.806 404L386.611 403L386.389 402L386.056 400L385.944 399L385.611 397L385.361 396L384.861 394L384.639 393L384.389 392L384.056 390L383.944 389L383.611 387L383.389 386L383.194 385L382.806 383L382.611 382L382.389 381L382.056 379L381.944 378L381.611 376L381.389 375L381.056 373L380.944 372L380.583 370L379.972 368.056L379.806 367.5L379 366L355 366L354.972 364.5L354.778 362.944L354.389 361L354.083 359L354.028 358L353.972 356L353.917 355L353.611 353L353.389 352L353.083 350L353.028 349L353 347L352.972 346L352.917 345L352.611 343L352.389 342L352.083 340L352.028 339L351.972 337L351.778 335L351.389 333L351.083 331L351.028 330L351 328L350.972 327L350.917 326L350.611 324L350.389 323L350.083 321L350.028 320L349.972 318L349.778 316L349.389 314L349.083 312L349.028 311L349 309L348.972 308L348.917 307L348.611 305L348.389 304L348.083 302L348.028 301L347.972 299L347.917 298L347.611 296L347.389 295L347.083 293L347.028 292L346.972 290L346.917 289L346.611 287L346.389 286L346.083 284L346.028 283L346 281L345.972 280L345.917 279L345.611 277L345.389 276L345.083 274L345.028 273L344.972 271L344.778 269L344.389 267L344.083 265L344.028 264L344 262L343.972 261L343.917 260L343.611 258L343.389 257L343.083 255L343.028 254L342.972 252L342.917 251L342.611 249L342.389 248L342.083 246L342.028 245L341.972 243L341.917 242L341.611 240L341.389 239L341.083 237L341.028 236L341 234L340.972 233L340.917 232L340.611 230L340.222 228L340.028 226L339.972 224L339.917 223L339.611 221L339.389 220L339.083 218L339.028 217L339 215L338.972 214L338.917 213L338.611 211L338.222 209L338.028 207L337.972 205L337.917 204L337.611 202L337.389 201L337.083 199L337.028 198L336.972 196L336.917 195L336.611 193L336.389 192L336.083 190L336.028 189L336 187L335.972 186L335.917 185L335.611 183L335.361 182L335.167 181.056L334.833 180.056L334.75 179.5L334 178L332.5 178.111L330.944 178.722L329 180.111L327 182L325 184L324 184.972L323 185.917L321 187.5L319 188.5L318 188.75L316 188.972L314 189L312 189L308 189L289 189L256 189L246 189L243 189L242 189L240 188.917L238 188.5L237.028 188.056L236.083 187.5L234.389 185.917L233.611 184.972L231.917 183L230.972 182.028L229 180.333L227.056 179.333L225.5 179.028L224 179M227 183L228.472 184.5L229.833 186.056L231.389 187.972L232.222 188.917L234.028 190.5L236 191.5L237 191.75L239 191.972L241 192L243 192L254 192L295 192L311 192L314 192L316 192L318 191.972L320 191.75L321 191.5L323 190.5L324 189.75L326 187.972L327 187L328.944 185.111L329.944 184.306L330.5 183.778L332 183L332.583 185.056L332.778 186.056L332.917 187L333 189L333.028 191L333.083 192L333.389 194L333.611 195L333.917 197L333.972 198L334.028 200L334.083 201L334.389 203L334.611 204L334.917 206L334.972 207L335.028 209L335.222 211L335.611 213L335.917 215L335.972 216L336 218L336.028 219L336.083 220L336.389 222L336.611 223L336.917 225L336.972 226L337.028 228L337.222 230L337.611 232L337.917 234L337.972 235L338 237L338.028 238L338.083 239L338.389 241L338.611 242L338.917 244L338.972 245L339.028 247L339.083 248L339.389 250L339.611 251L339.917 253L339.972 254L340.028 256L340.222 258L340.611 260L340.917 262L340.972 263L341 264L341.028 266L341.083 267L341.389 269L341.611 270L341.917 272L341.972 273L342.028 275L342.222 277L342.611 279L342.917 281L342.972 282L343 283L343.028 285L343.083 286L343.389 288L343.611 289L343.917 291L343.972 292L344.028 294L344.083 295L344.389 297L344.611 298L344.917 300L344.972 301L345.028 303L345.083 304L345.389 306L345.611 307L345.917 309L345.972 310L346 311L346.028 313L346.083 314L346.389 316L346.611 317L346.917 319L346.972 320L347.028 322L347.222 324L347.611 326L347.917 328L347.972 329L348 331L348.028 332L348.083 333L348.389 335L348.778 337L348.972 339L349.028 341L349.083 342L349.389 344L349.611 345L349.917 347L349.972 348L350 349L350.028 351L350.083 352L350.389 354L350.611 355L350.917 357L350.972 358L351.028 360L351.083 361L351.389 363L351.778 364.944L351.972 366.5L352 368L353 369L377 369L377.25 370.5L377.611 372.056L377.944 374L378.056 375L378.389 377L378.611 378L378.778 379L379.056 381L379.389 383L379.611 384L379.806 385L380.194 387L380.389 388L380.611 389L380.944 391L381.056 392L381.389 394L381.639 395L382.139 397L382.361 398L382.611 399L382.944 401L383.056 402L383.389 404L383.611 405L383.806 406L384.194 408L384.389 409L384.778 411L384.917 412L385.083 414L385.222 415L385.611 417L385.806 418L386.194 420L386.389 421L386.611 422L386.806 423L387.194 425L387.611 427L387.917 428.944L387.972 429.944L388 432L338 432L337 431L336.972 429.5L336.778 427.944L336.389 426L336.083 424L335.972 422L335.917 421L335.611 419L335.222 417L335.083 416L334.917 414L334.778 413L334.389 411L334.083 409L334.028 408L333.972 406L333.917 405L333.611 403L333.389 402L333.083 400L332.972 398L332.917 397L332.611 395L332.389 394L332.083 392L331.972 390L331.917 389L331.611 387L331.389 386L331.083 384L330.972 382L330.917 381L330.611 379L330.389 378L330.083 376L330.028 375L329.917 373L329.611 371L329.389 370L329.083 368L329.028 367L328.917 365L328.611 363L328.389 362L328.083 360L328.028 359L327.917 357L327.611 355L327.389 354L327.083 352L327.028 351L326.972 349L326.917 348L326.611 346L326.389 345L326.083 343L325.972 341L325.917 340L325.611 338L325.389 337L325.083 335L325.028 334L324.917 332L324.611 330L324.389 329L324.083 327L324.028 326L323.917 324L323.611 322L323.389 321L323.083 319L323.028 318L322.889 316L322.667 315L321.667 313.111L320.889 312.333L319.972 311.722L318 311.111L317 311.028L316 311L314 311L312 311L309 311L298 311L237 311L236.5 312.5L236.194 313.056L235.472 315L235.083 317L234.972 319L234.917 320L234.611 322L234.389 323L234.083 325L234.028 326L233.972 328L233.917 329L233.611 331L233.389 332L233.056 334L232.944 335L232.611 337L232.389 338L232.083 340L231.972 342L231.917 343L231.611 345L231.389 346L231.083 348L231.028 349L230.972 351L230.917 352L230.611 354L230.389 355L230.083 357L230.028 358L229.972 360L229.917 361L229.611 363L229.389 364L229.083 366L228.972 368L228.917 369L228.611 371L228.389 372L228.083 374L228.028 375L227.917 377L227.778 378L227.389 380L227.222 381L227.083 382L226.917 384L226.778 385L226.389 387L226.083 389L225.972 391L225.917 392L225.611 394L225.389 395L225.083 397L225.028 398L224.972 400L224.917 401L224.611 403L224.222 405L224.083 406L223.972 408L223.917 409L223.611 411L223.389 412L223.083 414L223.028 415L222.972 417L222.917 418L222.611 420L222.222 422L222.083 423L221.917 425L221.778 426L221.389 427.944L221.222 428.944L221.083 429.5L221 431L220 432L187 432L178 432L176 432L175 432L174 431.972L173.056 431.944L172.056 431.75L171.5 431.722L170 431L170.083 429.5L170.222 428.944L170.611 427L170.944 425L171.056 424L171.389 422L171.611 421L171.806 420L172.194 418L172.389 417L172.611 416L172.944 414L173.056 413L173.389 411L173.611 410L173.806 409L174.194 407L174.389 406L174.611 405L174.944 403L175.056 402L175.389 400L175.806 398L176.194 396L176.389 395L176.611 394L176.806 393L177.194 391L177.389 390L177.611 389L177.944 387L178.056 386L178.389 384L178.611 383L178.806 382L179.194 380L179.389 379L179.611 378L179.944 376L180.056 375L180.389 373L180.778 371.056L180.917 370.5L181 369L205 369L205.444 367.5L205.667 366.944L206.306 365L206.583 364L206.778 363L206.917 362L207 360L207 359L207.083 357L207.389 355L207.611 354L207.917 352L207.972 351L208 350L208.028 348L208.083 347L208.389 345L208.611 344L208.917 342L208.972 341L209 340L209.028 338L209.083 337L209.389 335L209.611 334L209.917 332L209.972 331L210.028 329L210.083 328L210.389 326L210.611 325L210.917 323L210.972 322L211.028 320L211.083 319L211.389 317L211.611 316L211.917 314L211.972 313L212.028 311L212.083 310L212.389 308L212.611 307L212.917 305L212.972 304L213 303L213.028 301L213.083 300L213.389 298L213.611 297L213.917 295L213.972 294L214 293L214.028 291L214.083 290L214.389 288L214.611 287L214.917 285L214.972 284L215 282L215.028 281L215.083 280L215.389 278L215.611 277L215.917 275L215.972 274L216.028 272L216.083 271L216.389 269L216.778 267L216.972 265L217.028 263L217.083 262L217.389 260L217.611 259L217.917 257L217.972 256L218.028 254L218.083 253L218.389 251L218.611 250L218.917 248L218.972 247L219 246L219.028 244L219.083 243L219.389 241L219.611 240L219.917 238L219.972 237L220 235L220.083 233L220.222 232L220.389 231L220.778 229L220.917 228L221 226L221 224L221.028 223L221.083 222L221.389 220L221.778 218L221.917 217L222.028 215L222.083 214L222.389 212L222.611 211L222.917 209L222.972 208L223.028 206L223.083 205L223.389 203L223.778 201L223.917 200L224 198L224.083 196L224.222 195L224.611 193L224.917 191L224.972 190L225 189L225.028 187L225.278 185.111L225.667 184.306L225.861 183.778L227 183M267 208L266 209L266 296L267 297L291 297L292 296L292 209L291 208L267 208M289 211L289 294L269 294L269 211L289 211M256 333L255.194 334.5L255.028 335.056L254.417 337L254.083 339L254.028 340L253.917 342L253.611 344L253.389 345L253.083 347L252.972 349L252.917 350L252.611 352L252.389 353L252.083 355L252.028 356L251.972 358L251.917 359L251.611 361L251.389 362L251.083 364L251.028 365L250.917 367L250.611 369L250.389 370L250.083 372L249.972 374L249.917 375L249.611 377L249.389 378L249.083 380L248.972 382L248.917 383L248.611 385L248.389 386L248.083 388L247.972 390L247.917 391L247.611 393L247.389 394L247.083 396L247.028 397L246.917 399L246.611 401L246.389 402L246.083 404L246.028 405L245.917 407L245.611 409L245.389 410L245.083 412L244.972 414L244.917 415L244.611 417L244.389 418L244.083 420L244.028 421L243.917 423L243.611 425L243.389 426L243.083 428L243.028 429L243 430.944L243 433L244 434L314 434L315 433L314.972 430.944L314.917 429.944L314.611 428L314.389 427L314.083 425L313.972 423L313.917 422L313.611 420L313.389 419L313.083 417L313.028 416L312.917 414L312.611 412L312.389 411L312.083 409L311.972 407L311.917 406L311.611 404L311.389 403L311.083 401L311.028 400L310.917 398L310.611 396L310.389 395L310.083 393L310.028 392L309.972 390L309.917 389L309.611 387L309.389 386L309.083 384L308.972 382L308.917 381L308.611 379L308.389 378L308.083 376L307.972 374L307.917 373L307.611 371L307.389 370L307.083 368L307.028 367L306.917 365L306.611 363L306.389 362L306.083 360L306.028 359L305.917 357L305.611 355L305.389 354L305.083 352L304.972 350L304.917 349L304.611 347L304.389 346L304.083 344L304.028 343L303.917 341L303.611 339L303.222 337.056L303.028 335.5L303 334L302 333L256 333M300 336L300.083 338.056L300.389 340L300.611 341L300.917 343L300.972 344L301.083 346L301.222 347L301.611 349L301.917 351L302.028 353L302.083 354L302.389 356L302.611 357L302.917 359L302.972 360L303.083 362L303.389 364L303.611 365L303.917 367L303.972 368L304.083 370L304.389 372L304.611 373L304.917 375L304.972 376L305.083 378L305.389 380L305.611 381L305.917 383L305.972 384L306.083 386L306.222 387L306.611 389L306.917 391L306.972 392L307.028 394L307.083 395L307.389 397L307.611 398L307.917 400L308.028 402L308.083 403L308.389 405L308.611 406L308.917 408L308.972 409L309.083 411L309.389 413L309.611 414L309.917 416L310.028 418L310.083 419L310.389 421L310.611 422L310.917 424L310.972 425L311.083 427L311.417 428.944L312 431L246 431L246.083 429.5L246.222 428.944L246.389 427.944L246.611 427L246.917 425L246.972 424L247.083 422L247.222 421L247.611 419L247.917 417L248.028 415L248.083 414L248.389 412L248.611 411L248.917 409L248.972 408L249.083 406L249.389 404L249.611 403L249.917 401L249.972 400L250.083 398L250.389 396L250.611 395L250.917 393L250.972 392L251.083 390L251.389 388L251.611 387L251.917 385L251.972 384L252.083 382L252.389 380L252.611 379L252.917 377L253.028 375L253.083 374L253.389 372L253.611 371L253.917 369L253.972 368L254.083 366L254.389 364L254.611 363L254.917 361L254.972 360L255.028 358L255.083 357L255.389 355L255.611 354L255.917 352L256.028 350L256.083 349L256.389 347L256.611 346L256.917 344L257.028 342L257.083 341L257.389 339.056L257.75 337.5L258 336L300 336M73 455.389L72 455.639L70 456.167L69 456.444L67 457.278L66 457.861L65 458.472L63 460.083L62 461.028L60.0833 463L59.25 464L58.4722 465L57.25 467L56.7778 468L56.25 469L55.4722 471L55.2222 472L55 473L54.6111 475L54.2222 477L54.0833 478L54.0833 480L54.3889 482L54.6111 483L55 485L55.4167 487L55.6944 488L56.0278 489L56.4167 490L57.4167 492L58.6944 494L60.2222 495.972L61.0833 496.917L63 498.528L65 499.75L66 500.222L67 500.75L69 501.611L71 502.306L72 502.583L73 502.778L74 502.917L76 503L77 503L79 503L81 503L82 503L84 502.917L86 502.583L87 502.306L89 501.583L91 500.583L92 499.972L94 498.583L94.9722 497.778L95.9167 496.917L97.5833 495L98.3056 494L99.6111 492L100.722 490L101.528 488L101.778 487L102 486L102.389 484L102.611 483L102.917 481L103 479L102.972 478L102.917 477L102.611 475L102.361 474L101.861 472L101.611 471L100.972 469L100.583 468L99.5833 466L98.3056 464L97.5833 463.028L95.9167 461.222L94.9722 460.417L93 459.028L91 457.833L90 457.278L89 456.861L88 456.444L87 456.167L86 455.861L84 455.389L82 455.083L81 455.028L80 455L78 455L77 455L75 455.083L73 455.389M474 455.389L473 455.639L472 455.861L470 456.444L468 457.25L467 457.778L466 458.25L464 459.472L462.083 461.083L461.222 462.028L460.417 463L459.028 465L457.833 467L457.278 468L456.444 470L455.861 472L455.389 474L455.083 476L455.028 477L455 479L455 480L455 481L455.083 483L455.417 485L455.694 486L456.389 488L456.833 489L457.25 490L457.778 491L458.25 492L459.472 494L461.083 495.972L463 497.778L465 499.306L467 500.583L469 501.583L471 502.306L472 502.583L473 502.778L474 502.917L476 503L477 503L478 503L480 503L482 503L483 503L485 502.917L486 502.75L487 502.528L489 501.75L490 501.222L492 500.167L493 499.611L495 498.306L495.972 497.583L497.75 495.917L498.528 494.972L499.806 493L500.361 492L500.944 491L501.917 489L502.278 488L502.806 486L503.194 484L503.611 482L503.778 481L503.917 480L503.917 478L503.611 476L503.389 475L503 473L502.778 472L502.528 471L501.75 469L501.222 468L500.75 467L499.528 465L497.917 463L496.972 462L496 461.028L495 460.083L493 458.472L491 457.278L490 456.861L488 456.167L487 455.861L485 455.389L483 455.083L482 455.028L480 455L479 455L478 455L476 455.083L474 455.389M76 458.222L77 458.083L78 458.028L80 458.083L82 458.389L83 458.639L84 458.861L86 459.444L87 459.861L88 460.278L89 460.833L91 462.028L92.9167 463.417L94.5833 465.083L95.3056 466.028L96.5833 468L97.5833 470L97.9722 471L98.6111 473L98.8611 474L99.3611 476L99.6111 477L99.8333 479L99.75 480L99.6111 481L99.1944 483L98.7778 485L98.5278 486L97.7222 488L96.6111 490L95.9722 491L95.3056 492L93.7778 493.917L91.9722 495.583L91 496.306L90 496.972L89 497.583L87 498.583L86 498.972L84 499.583L83 499.778L82 499.917L80 500L79 500L77 499.972L76 499.917L74 499.583L73 499.306L71 498.611L70 498.167L69 497.75L68 497.222L67 496.75L65.0278 495.528L63.2222 493.917L61.6944 492L60.4167 490L59.4167 488L58.6944 486L58.4167 485L58 483L57.6389 481L57.4722 480L57.4722 478L57.8056 476L58.2222 474L58.4722 473L59.25 471L59.7778 470L60.25 469L61.4722 467L62.25 466L64.0278 464.028L66 462.25L67 461.472L69 460.278L71 459.444L72 459.167L74 458.639L76 458.222M477 458.222L478 458.083L479 458.028L481 458.083L483 458.389L484 458.639L486 459.167L487 459.444L488 459.861L489 460.278L491 461.472L492 462.25L493.972 464.028L495.75 466L496.528 467L497.75 469L498.222 470L498.75 471L499.528 473L499.778 474L500.194 476L500.528 478L500.528 480L500.361 481L500 483L499.583 485L498.917 487L497.944 489L497.361 490L496.806 491L495.528 492.917L494.75 493.778L493.917 494.583L492.972 495.306L491 496.611L490 497.167L488 498.222L487 498.75L485 499.528L483 499.917L482 499.972L480 500L478 500L476 499.917L474 499.583L472 498.972L471 498.583L469 497.583L467 496.306L465.028 494.778L464.083 493.917L462.472 492L461.25 490L460.778 489L460.25 488L459.389 486L458.694 484L458.417 483L458.083 481L458.028 479L458.083 478L458.389 476L458.639 475L459.167 473L459.444 472L460.278 470L460.833 469L462.028 467L463.417 465.028L464.222 464.083L466.028 462.472L467 461.861L469 460.778L470 460.25L472 459.444L474 458.861L475 458.639L477 458.222z"/>
</svg>
